<?xml version="1.0" encoding="UTF-8"?>
<svg width="87px" height="20px" viewBox="0 0 87 20" version="1.1" xmlns="http://www.w3.org/2000/svg" xmlns:xlink="http://www.w3.org/1999/xlink">
    <title>logo</title>
    <g id="页面-1" stroke="none" stroke-width="1" fill="none" fill-rule="evenodd">
        <g id="投资资讯" transform="translate(-924.000000, -242.000000)" fill="#20296F">
            <g id="logo" transform="translate(924.000000, 242.000000)">
                <polygon id="Fill-1" points="29.9502803 3.45969412 28.9867396 7.4493696 26.3497453 7.4493696 25.3864765 3.45969412 22.2488868 3.45969412 23.2118838 7.4493696 22.248615 7.4493696 22.248615 8.59028657 26.2419603 8.59028657 26.2419603 10.301798 22.2488868 10.301798 22.2488868 10.8748389 22.2488868 11.4427149 22.2488868 20 25.1011792 20 25.1011792 11.4427149 26.2419603 11.4427149 26.2419603 20 29.0945246 20 29.0945246 11.4427149 30.2355775 11.4427149 30.2355775 20 33.0880058 20 33.0880058 11.4427149 33.0880058 10.8563537 33.0880058 10.301798 29.0945246 10.301798 29.0945246 8.59028657 33.087734 8.59028657 33.087734 7.4493696 32.1111449 7.4493696 33.0744138 3.45969412"></polygon>
                <path d="M7.98669066,1.16848166 L2.85242836,1.16848166 L3.86309396e-15,1.16848166 L3.86309396e-15,2.30939863 L3.86309396e-15,15.4640599 L2.67246957,15.4640599 L0.0180774312,19.9840973 L3.13758964,19.9840973 L5.42703514,16.291816 L7.70152938,19.9840973 L10.8468665,19.9840973 L8.16447472,15.4374195 L10.839119,15.4374195 L10.839119,2.30939863 L10.839119,1.16848166 L7.98669066,1.16848166 Z M2.85242836,2.30939863 L7.98669066,2.30939863 L7.98669066,15.1363555 L6.84713289,13.2046528 L6.84713289,3.45806308 L3.99946175,4.59775677 L3.99946175,13.2046528 L2.85242836,15.157695 L2.85242836,2.30939863 Z" id="Fill-2"></path>
                <polygon id="Fill-3" points="16.5461369 1.16848166 11.9801583 1.16848166 11.9801583 2.30939863 13.0942989 2.30939863 11.4041271 19.9840973 14.2500313 19.9840973 15.9400672 2.30939863 16.5446417 2.30939863 16.5446417 19.9840973 19.3969342 19.9840973 19.3969342 2.30939863 19.9669849 2.30939863 19.9669849 1.16848166 19.3969342 1.16848166 19.3969342 0.0170988034"></polygon>
                <polygon id="Fill-4" points="34.2288413 1.16848166 34.2288413 1.17840386 34.2288413 2.30939863 34.2288413 7.4334669 34.2288413 8.57438387 34.2288413 20 37.0811337 20 37.0811337 8.57438387 38.7926451 8.57438387 38.7926451 20 41.6449375 20 41.6449375 8.57438387 42.2155319 8.57438387 42.2155319 7.4334669 41.6449375 7.4334669 38.7926451 7.4334669 37.0811337 7.4334669 37.0811337 2.30939863 42.2155319 2.30939863 42.2155319 1.16848166"></polygon>
                <polygon id="Fill-5" points="29.094443 0.0330694663 26.2413351 1.17398644 22.2488053 1.17398644 22.2488053 2.31503934 33.0880602 2.31503934 33.0880602 1.17398644 29.094443 1.17398644"></polygon>
                <polygon id="Fill-6" points="70.1698055 0 67.3357264 1.14445091 66.1976638 1.14445091 66.1976638 2.2855038 67.3173772 2.2855038 67.3173772 11.5350322 66.1704797 12.0600932 66.1606934 14.4525665 67.3173772 13.9143211 67.3173772 19.9921438 70.1698055 19.9921438 70.1698055 12.5873289 71.2872082 12.0674329 71.294412 9.71424067 70.1698055 10.2291077 70.1698055 2.2855038 71.3472851 2.2855038 71.3472851 1.14445091 70.1698055 1.14445091"></polygon>
                <path d="M75.2337154,1.14450528 L72.5802747,1.14450528 L72.487305,1.14450528 L72.487305,19.9669169 L75.3193453,19.9669169 L75.3193453,6.84243004 L86.1447363,6.84243004 L86.1447363,1.14504896 L84.1872088,1.14504896 L84.1872088,1.14450528 L75.2337154,1.14450528 Z M75.3478886,5.63790226 L83.2560172,5.63790226 L83.2560172,2.27699518 L75.3478886,2.27699518 L75.3478886,5.63790226 Z" id="Fill-7"></path>
                <path d="M79.9182846,9.02551772 L79.9182846,10.1842403 L76.4820775,10.1842403 L76.4820775,11.317002 L79.9182846,11.317002 L79.9182846,13.6897668 L79.2698077,13.6897668 L76.9887893,13.6897668 L76.4907764,13.6897668 L76.4907764,19.9669849 L79.2698077,19.9669849 L83.4319663,19.9669849 L86.1824543,19.9669849 L86.1824543,13.6897668 L85.4552794,13.6897668 L83.4319663,13.6897668 L82.7546743,13.6897668 L82.7546743,11.317002 L86.1874833,11.317002 L86.1874833,10.1842403 L82.7546743,10.1842403 L82.7546743,7.89520255 L79.9182846,9.02551772 Z M79.3192828,18.8103011 L83.3463364,18.8103011 L83.3463364,14.8225286 L79.3192828,14.8225286 L79.3192828,18.8103011 Z" id="Fill-8"></path>
                <polygon id="Fill-9" points="51.9424676 6.81472944 51.9424676 6.81622456 50.7690656 6.81622456 50.7690656 5.69420054 51.3600481 5.69420054 53.3499247 5.69420054 54.7482752 5.69420054 54.7482752 4.56171064 53.9110047 4.56171064 54.4655605 1.14969744 52.0505244 1.14969744 51.4961045 4.56171064 50.7690656 4.56171064 50.7690656 1.16668751 47.8610457 1.17470682 47.8610457 4.56171064 47.1950351 4.55056516 46.5836645 1.13855196 44.1097749 1.13855196 44.7210095 4.55056516 43.9268258 4.56171064 43.9268258 5.69420054 45.248653 5.69420054 47.2377141 5.69420054 47.8610457 5.69420054 47.8610457 6.81622456 46.7554681 6.81622456 46.7554681 6.81472944 43.9302238 6.81472944 43.9383791 10.249985 46.7356237 10.249985 46.748808 7.95714154 47.8610457 7.95714154 47.8610457 10.249985 50.7690656 10.249985 50.7690656 7.95714154 51.9479044 7.95714154 51.958778 10.249985 54.7995172 10.249985 54.7543916 6.81472944"></polygon>
                <path d="M44.5265752,11.9545509 L43.950544,11.9545509 L43.950544,13.0954679 L44.5210024,13.0954679 L44.5210024,14.8412312 L47.5540692,17.3211014 L44.0011064,19.9651636 L47.7413677,19.9651636 L49.3516183,18.7905383 L50.7880265,19.9651636 L54.3855712,19.9651636 L51.2912043,17.3757414 L54.7660128,14.8412312 L54.7660128,13.0954679 L54.7660128,11.9545509 L51.9090991,11.9545509 L47.3734308,11.9545509 L47.3734308,10.8136339 L44.5265752,11.9545509 Z M47.3734308,14.0974741 L47.3734308,13.0954679 L51.9090991,13.0954679 L51.9090991,14.0802121 L49.497461,15.8749069 L47.3734308,14.0974741 Z" id="Fill-10"></path>
                <path d="M55.9411682,1.16053031 L55.9411682,13.7088501 L57.913647,16.416523 L55.1960518,19.9735635 L58.223138,19.9735635 L59.427394,18.4943403 L60.504972,19.9735635 L63.5320582,19.9735635 L61.0977214,16.4426198 L63.3231484,13.7088501 L63.3231484,2.30076768 L63.8941505,2.30076768 L63.8941505,1.1598507 L63.3231484,1.1598507 L63.3231484,1.15821966 L60.4663705,1.15821966 L58.7935965,1.15821966 L58.7935965,0.0173026842 L55.9411682,1.16053031 Z M58.7935965,13.1007416 L58.7935965,2.30076768 L60.4663705,2.30076768 L60.4663705,13.0751885 L59.577858,14.2381246 L58.7935965,13.1007416 Z" id="Fill-11"></path>
            </g>
        </g>
    </g>
</svg>