<?xml version="1.0" encoding="utf-8"?>
<!-- Generator: Adobe Illustrator 16.0.0, SVG Export Plug-In . SVG Version: 6.00 Build 0)  -->
<!DOCTYPE svg PUBLIC "-//W3C//DTD SVG 1.1//EN" "http://www.w3.org/Graphics/SVG/1.1/DTD/svg11.dtd">
<svg version="1.1" id="图层_1" xmlns="http://www.w3.org/2000/svg" xmlns:xlink="http://www.w3.org/1999/xlink" x="0px" y="0px"
	 width="141.25px" height="75px" viewBox="0 0 141.25 75" enable-background="new 0 0 141.25 75" xml:space="preserve">
<g>
	<path d="M1.688,52.868v-3c2.25-1.998,3.498-4.937,3.75-8.813H9.75C9.75,46.933,7.061,50.87,1.688,52.868z M2.25,30.931v-3.938
		h4.313c-0.75-1.749-1.251-3.624-1.5-5.625h5.063c0.123,2.001,0.563,3.876,1.313,5.625h4.875c0.75-1.749,1.187-3.624,1.313-5.625
		h5.063c-0.252,2.001-0.75,3.876-1.5,5.625h4.125v3.938h-8.438v4.313h7.688v3.75h-7.688v10.125c0.123,3.999-1.813,5.936-5.813,5.813
		H7.5v-3.75h1.688c1.623,0.123,2.373-0.624,2.25-2.25v-9.938h-8.25v-3.75h8.25v-4.313H2.25z M3.375,19.868v-3.938h7.5v-3.188h6
		v3.188h7.5v3.938H3.375z M24.75,55.681v-3.563c-4.002-1.749-6.126-5.438-6.375-11.063h4.5c0,3.876,0.999,6.814,3,8.813
		c0.624-1.248,0.938-3.75,0.938-7.5V14.806h9.75c3.375,0.126,6.375-0.311,9-1.313v4.125c-2.25,0.876-4.875,1.251-7.875,1.125h-5.625
		v6.75h13.875v3.938h-4.125v25.688h-5.438V29.431h-4.313v11.813C32.438,48.119,30,52.93,24.75,55.681z"/>
	<path d="M51.938,55.493v-32.25h5.625v32.25H51.938z M56.063,21.181c-0.627-3-1.688-5.813-3.188-8.438h5.25
		c1.875,3.126,3.062,5.938,3.563,8.438H56.063z M59.813,26.056v-3.563h24.563v3.563H81.75v18h3v3.563h-3v4.313H76.5v-4.313H59.25
		v-3.563h3.188v-18H59.813z M82.125,55.118v-3.938H84c1.875,0.123,2.748-0.686,2.625-2.438V18.368H65.063v-3.938H92.25v34.5
		c0.249,4.374-1.813,6.437-6.188,6.188H82.125z M67.688,26.056v3.75H76.5v-3.75H67.688z M67.688,33.181v3.75H76.5v-3.75H67.688z
		 M67.688,40.118v3.938H76.5v-3.938H67.688z"/>
	<path d="M100.5,55.118v-40.5h39v33.75c0.123,4.623-2.188,6.873-6.938,6.75h-3.188v-3.938h1.688c1.998,0.123,2.936-0.75,2.813-2.625
		V18.743h-27.75v36.375H100.5z M119.813,49.681c-2.376-3-4.438-5.748-6.188-8.25c-1.377,2.502-3.375,5.25-6,8.25v-4.875
		c1.749-2.748,3.123-5.186,4.125-7.313c-2.001-4.248-3.439-9.686-4.313-16.313h3.938c0.75,4.251,1.562,7.875,2.438,10.875
		c0.624-1.998,1.313-5.373,2.063-10.125c0,0.252,0.062,0,0.188-0.75H120c-1.125,7.251-2.563,12.688-4.313,16.313
		c1.125,2.25,2.499,4.688,4.125,7.313V49.681z M120.563,49.681v-4.875c0.123-0.123,0.249-0.311,0.375-0.563
		c1.623-3,2.813-5.25,3.563-6.75c-1.875-4.5-3.252-9.938-4.125-16.313h3.75c0.624,4.251,1.374,7.939,2.25,11.063
		c0.999-3.375,1.749-6.999,2.25-10.875h3.938c-1.125,7.125-2.563,12.501-4.313,16.125c1.125,2.25,2.499,4.688,4.125,7.313v4.875
		c-2.625-2.874-4.626-5.687-6-8.438C125.124,43.745,123.188,46.558,120.563,49.681z"/>
</g>
</svg>
