<?xml version="1.0" encoding="utf-8"?>
<!-- Generator: Adobe Illustrator 16.0.0, SVG Export Plug-In . SVG Version: 6.00 Build 0)  -->
<!DOCTYPE svg PUBLIC "-//W3C//DTD SVG 1.1//EN" "http://www.w3.org/Graphics/SVG/1.1/DTD/svg11.dtd">
<svg version="1.1" id="图层_1" xmlns="http://www.w3.org/2000/svg" xmlns:xlink="http://www.w3.org/1999/xlink" x="0px" y="0px"
	 width="230px" height="75px" viewBox="0 0 230 75" enable-background="new 0 0 230 75" xml:space="preserve">
<g>
	<g>
		<g>
			<path fill="#9A0000" d="M20.983,63.959l-0.044,0.019c-0.261-0.139-0.584-0.294-0.969-0.467c-0.376-0.17-0.777-0.343-1.198-0.516
				l-0.018-0.046l0.079-0.175l0.046-0.014c0.104,0.034,0.203,0.069,0.297,0.102c0.171,0.063,0.281,0.091,0.338,0.097
				c0.04,0,0.083-0.025,0.131-0.069c0.077-0.077,0.26-0.427,0.546-1.064l0.322-0.712c0.099-0.215,0.218-0.487,0.357-0.821
				l0.092-0.217c0.045-0.096,0.045-0.15,0.005-0.169c-0.016-0.007-0.084-0.013-0.2-0.012c-0.316,0.002-0.589,0.008-0.816,0.014
				l-0.024-0.035c0.038-0.114,0.072-0.243,0.103-0.392l0.014-0.021c0.595,0.09,1.275,0.157,2.039,0.202l0.042,0.068
				c-0.06,0.111-0.146,0.274-0.259,0.489c-0.044,0.079-0.152,0.302-0.325,0.664l-0.519,1.124c-0.363,0.804-0.546,1.242-0.546,1.315
				c-0.003,0.05,0.014,0.092,0.051,0.116c0.057,0.052,0.227,0.151,0.513,0.299l0.021,0.044L20.983,63.959z"/>
			<path fill="#9A0000" d="M29.659,64.626c-0.034,0.242-0.11,0.456-0.236,0.629c-0.234,0.336-0.567,0.542-1.004,0.616
				c-0.18,0.033-0.392,0.03-0.638-0.002c-0.527-0.069-0.907-0.303-1.142-0.697c-0.106-0.174-0.14-0.394-0.106-0.653
				c0.042-0.314,0.189-0.56,0.443-0.727c0.083-0.053,0.259-0.13,0.526-0.218c-0.434-0.299-0.623-0.664-0.566-1.097
				c0.066-0.488,0.36-0.811,0.883-0.973c0.228-0.066,0.478-0.084,0.75-0.047c0.398,0.05,0.704,0.184,0.91,0.395
				c0.196,0.202,0.274,0.438,0.24,0.714c-0.051,0.375-0.315,0.653-0.79,0.829c0.31,0.168,0.52,0.353,0.629,0.555
				C29.663,64.128,29.693,64.358,29.659,64.626z M28.831,64.883c0.041-0.301-0.08-0.551-0.359-0.739
				c-0.182-0.128-0.379-0.247-0.593-0.36l-0.09-0.044c-0.36,0.181-0.563,0.445-0.609,0.793c-0.027,0.199-0.009,0.362,0.059,0.497
				c0.144,0.298,0.382,0.473,0.71,0.517c0.234,0.031,0.428-0.016,0.59-0.136C28.704,65.281,28.802,65.107,28.831,64.883z
				 M29.114,62.576c0.026-0.206-0.018-0.377-0.138-0.521c-0.12-0.142-0.296-0.229-0.529-0.259c-0.211-0.031-0.383,0.006-0.522,0.108
				c-0.131,0.094-0.204,0.22-0.229,0.383c-0.019,0.157,0.037,0.313,0.167,0.46c0.071,0.083,0.181,0.165,0.323,0.253
				c0.05,0.034,0.128,0.079,0.23,0.14l0.18,0.1C28.899,63.112,29.072,62.89,29.114,62.576z"/>
			<path fill="#9A0000" d="M37.054,63.024c0.076,0.558,0.028,1.031-0.143,1.425c-0.177,0.415-0.443,0.765-0.796,1.043
				c-0.363,0.287-0.782,0.463-1.253,0.528l-0.304-0.166l0.067-0.134c0.072,0.012,0.159,0.012,0.264-0.003
				c0.361-0.051,0.662-0.216,0.902-0.496c0.094-0.11,0.177-0.255,0.247-0.43c0.114-0.277,0.165-0.669,0.153-1.172
				c-0.306,0.333-0.481,0.508-0.519,0.519c-0.146,0.07-0.31,0.117-0.485,0.142c-0.313,0.045-0.577-0.024-0.799-0.201
				c-0.241-0.193-0.388-0.479-0.438-0.858c-0.087-0.612,0.09-1.097,0.526-1.456c0.207-0.169,0.473-0.276,0.805-0.32
				c0.622-0.089,1.102,0.114,1.437,0.597C36.886,62.281,36.995,62.607,37.054,63.024z M36.101,62.827
				c-0.056-0.387-0.158-0.663-0.31-0.836c-0.152-0.168-0.336-0.235-0.551-0.209c-0.269,0.039-0.433,0.192-0.49,0.47
				c-0.033,0.147-0.037,0.314-0.01,0.509c0.047,0.322,0.148,0.563,0.304,0.717c0.147,0.147,0.328,0.204,0.542,0.173
				c0.276-0.034,0.443-0.17,0.506-0.402C36.122,63.143,36.122,63.002,36.101,62.827z"/>
			<path fill="#9A0000" d="M44.447,61.717c0.1,0.226,0.144,0.447,0.128,0.658c-0.028,0.407-0.208,0.757-0.542,1.048
				c-0.139,0.123-0.32,0.232-0.548,0.329c-0.487,0.212-0.931,0.212-1.334-0.004c-0.182-0.098-0.326-0.267-0.43-0.5
				c-0.127-0.295-0.127-0.582,0-0.857c0.043-0.088,0.155-0.241,0.34-0.457c-0.53-0.029-0.881-0.246-1.054-0.643
				c-0.198-0.452-0.114-0.883,0.252-1.291c0.157-0.178,0.361-0.321,0.614-0.435c0.368-0.158,0.698-0.205,0.983-0.129
				c0.272,0.07,0.465,0.234,0.575,0.488c0.153,0.347,0.07,0.722-0.246,1.117c0.351-0.018,0.627,0.031,0.824,0.144
				C44.192,61.291,44.336,61.466,44.447,61.717z M42.919,60.245c-0.084-0.188-0.212-0.313-0.388-0.372
				c-0.178-0.061-0.371-0.044-0.586,0.052c-0.192,0.083-0.325,0.203-0.39,0.362c-0.062,0.148-0.062,0.293,0.005,0.443
				c0.065,0.148,0.193,0.248,0.381,0.312c0.101,0.029,0.237,0.048,0.405,0.048c0.06,0.002,0.15,0.002,0.269,0l0.204-0.012
				C43.013,60.815,43.047,60.535,42.919,60.245z M43.874,62.365c-0.121-0.278-0.353-0.428-0.691-0.449
				c-0.222-0.012-0.453-0.012-0.693,0.004l-0.101,0.004c-0.213,0.342-0.251,0.677-0.11,0.995c0.08,0.183,0.183,0.315,0.309,0.398
				c0.281,0.184,0.572,0.205,0.877,0.071c0.213-0.092,0.36-0.238,0.435-0.426C43.973,62.771,43.963,62.571,43.874,62.365z"/>
		</g>
		<g>
			<path fill="#9A0000" d="M19.451,7.399c-3.796,1.603-7.2,3.9-10.124,6.824c-2.925,2.923-5.22,6.331-6.823,10.123
				C0.843,28.272,0,32.44,0,36.741c0,4.3,0.843,8.472,2.504,12.396c1.604,3.792,3.898,7.195,6.823,10.12
				c2.924,2.924,6.328,5.219,10.124,6.822c3.923,1.662,8.092,2.504,12.392,2.504c4.298,0,8.469-0.842,12.397-2.504
				c3.791-1.604,7.196-3.898,10.121-6.822c2.925-2.925,5.22-6.328,6.822-10.12c1.663-3.925,2.504-8.097,2.504-12.396
				c0-4.301-0.841-8.469-2.504-12.396c-1.602-3.792-3.897-7.199-6.822-10.123c-2.925-2.924-6.33-5.221-10.121-6.824
				c-3.928-1.657-8.099-2.503-12.397-2.503C27.543,4.896,23.375,5.742,19.451,7.399z M19.859,65.111
				c-3.667-1.55-6.959-3.771-9.787-6.6c-2.83-2.824-5.051-6.121-6.599-9.785c-1.606-3.794-2.418-7.827-2.418-11.985
				c0-4.157,0.812-8.19,2.418-11.987c1.548-3.666,3.769-6.958,6.599-9.786c2.827-2.828,6.12-5.051,9.787-6.603
				c3.793-1.605,7.826-2.42,11.984-2.42c4.157,0,8.189,0.815,11.984,2.42c3.669,1.551,6.959,3.774,9.788,6.603
				c2.83,2.827,5.048,6.12,6.6,9.786c1.606,3.797,2.419,7.83,2.419,11.987c0,4.158-0.813,8.191-2.419,11.985
				c-1.551,3.664-3.77,6.961-6.6,9.785c-2.829,2.829-6.119,5.05-9.788,6.6c-3.795,1.605-7.827,2.415-11.984,2.415
				C27.686,67.526,23.653,66.717,19.859,65.111z"/>
		</g>
		<path fill="#9A0000" d="M22.676,15.042c-2.804,1.185-5.323,2.882-7.481,5.046c-2.164,2.165-3.862,4.68-5.049,7.484
			c-1.227,2.904-1.849,5.987-1.849,9.166c0,3.18,0.622,6.263,1.849,9.167c1.187,2.803,2.885,5.319,5.049,7.483
			c2.158,2.162,4.678,3.861,7.481,5.047c2.905,1.232,5.985,1.852,9.166,1.852c3.179,0,6.263-0.619,9.168-1.852
			c2.805-1.186,5.323-2.885,7.486-5.047c2.162-2.164,3.857-4.679,5.044-7.483c1.227-2.904,1.853-5.987,1.853-9.167
			c0-3.179-0.626-6.262-1.853-9.166c-1.187-2.804-2.882-5.32-5.044-7.484c-2.163-2.165-4.682-3.862-7.486-5.046
			c-2.905-1.23-5.989-1.85-9.168-1.85C28.661,13.191,25.582,13.812,22.676,15.042z M22.956,57.78
			c-2.719-1.148-5.163-2.795-7.261-4.894c-2.097-2.099-3.742-4.538-4.893-7.258c-1.189-2.815-1.795-5.805-1.795-8.891
			c0-3.082,0.606-6.072,1.795-8.89c1.15-2.722,2.795-5.165,4.893-7.258c2.098-2.099,4.542-3.746,7.261-4.894
			c2.815-1.194,5.802-1.795,8.886-1.795c3.083,0,6.075,0.602,8.892,1.795c2.719,1.147,5.161,2.795,7.258,4.894
			c2.099,2.093,3.744,4.536,4.894,7.258c1.192,2.817,1.793,5.808,1.793,8.89c0,3.086-0.601,6.075-1.793,8.891
			c-1.15,2.72-2.795,5.159-4.894,7.258c-2.097,2.099-4.539,3.745-7.258,4.894c-2.817,1.192-5.809,1.795-8.892,1.795
			C28.758,59.575,25.771,58.973,22.956,57.78z"/>
		<g>
			<path fill="#9A0000" d="M4.834,44.895c0.224-0.084,0.43-0.112,0.624-0.081c0.195,0.025,0.372,0.104,0.534,0.223
				c0.167,0.127,0.312,0.289,0.439,0.483c0.127,0.191,0.242,0.421,0.342,0.685l0.123,0.315l1.1-0.416
				c0.065-0.023,0.118-0.059,0.155-0.104c0.04-0.043,0.062-0.107,0.062-0.188c0.002-0.044-0.004-0.111-0.021-0.201
				c-0.015-0.09-0.03-0.169-0.049-0.227L8.36,45.3l0.818,2.144l-0.217,0.082c-0.026-0.051-0.059-0.119-0.105-0.202
				c-0.043-0.088-0.079-0.143-0.107-0.175c-0.057-0.061-0.112-0.096-0.165-0.102c-0.052-0.004-0.112,0.005-0.19,0.032l-2.766,1.056
				c-0.065,0.025-0.116,0.058-0.154,0.101c-0.04,0.037-0.062,0.102-0.064,0.188c-0.002,0.059,0.005,0.135,0.021,0.229
				c0.015,0.092,0.026,0.162,0.039,0.205L5.253,48.94l-0.822-2.163c-0.196-0.503-0.26-0.913-0.194-1.226
				C4.305,45.243,4.503,45.021,4.834,44.895z M5.38,45.911c-0.292,0.113-0.489,0.256-0.585,0.429
				c-0.099,0.176-0.088,0.41,0.026,0.713l0.087,0.231l1.721-0.659l-0.046-0.117c-0.114-0.297-0.27-0.499-0.469-0.604
				C5.913,45.797,5.669,45.802,5.38,45.911z"/>
			<path fill="#9A0000" d="M3.72,38.304l0.025,0.23c-0.148,0.07-0.298,0.188-0.447,0.345c-0.147,0.159-0.227,0.307-0.239,0.447
				c-0.006,0.056-0.006,0.136,0.002,0.243c0.008,0.104,0.017,0.193,0.025,0.255l0.071,0.603l1.606-0.187l-0.049-0.426
				c-0.013-0.105-0.034-0.199-0.072-0.284c-0.035-0.084-0.093-0.158-0.174-0.222c-0.048-0.038-0.134-0.074-0.253-0.11
				c-0.117-0.029-0.22-0.047-0.304-0.051l-0.026-0.23l1.732-0.202l0.029,0.232c-0.082,0.016-0.181,0.058-0.3,0.122
				c-0.119,0.063-0.2,0.116-0.243,0.165c-0.063,0.072-0.103,0.152-0.118,0.241c-0.018,0.094-0.018,0.193-0.004,0.308l0.049,0.428
				l1.205-0.146c0.125-0.013,0.224-0.032,0.296-0.058c0.07-0.03,0.123-0.07,0.158-0.126c0.03-0.05,0.045-0.124,0.048-0.212
				c0.002-0.085-0.004-0.199-0.022-0.345c-0.008-0.069-0.016-0.15-0.033-0.248c-0.01-0.095-0.027-0.18-0.045-0.247
				c-0.018-0.081-0.042-0.155-0.07-0.225s-0.062-0.119-0.106-0.15c-0.105-0.084-0.262-0.171-0.474-0.266
				c-0.21-0.094-0.364-0.154-0.47-0.18l-0.023-0.213l1.305-0.07l0.456,3.911l-0.229,0.026c-0.01-0.055-0.027-0.128-0.05-0.223
				c-0.024-0.094-0.046-0.159-0.064-0.196c-0.041-0.074-0.088-0.116-0.138-0.138c-0.05-0.021-0.115-0.027-0.189-0.016l-2.941,0.341
				c-0.07,0.009-0.127,0.024-0.171,0.053c-0.044,0.03-0.08,0.087-0.105,0.171c-0.019,0.055-0.032,0.129-0.04,0.225
				c-0.008,0.098-0.013,0.165-0.013,0.215l-0.23,0.029l-0.432-3.695L3.72,38.304z"/>
			<path fill="#9A0000" d="M7.487,30.54l-0.234,1.641c-0.419,0.193-0.768,0.368-1.053,0.532c-0.286,0.162-0.644,0.37-1.076,0.623
				l-0.022,0.15l1.31,0.189c0.073,0.009,0.131,0.006,0.185-0.011c0.052-0.02,0.098-0.063,0.145-0.136
				c0.02-0.032,0.043-0.082,0.068-0.146c0.026-0.068,0.048-0.135,0.065-0.203l0.229,0.033l-0.315,2.208l-0.23-0.033
				c0.005-0.052,0.009-0.126,0.015-0.225c0.007-0.097,0.002-0.164-0.006-0.208c-0.018-0.072-0.049-0.127-0.093-0.164
				c-0.043-0.033-0.104-0.054-0.18-0.07l-2.946-0.417c-0.068-0.008-0.129-0.008-0.177,0.008c-0.051,0.015-0.1,0.062-0.147,0.134
				c-0.038,0.055-0.07,0.13-0.1,0.211c-0.031,0.082-0.052,0.15-0.065,0.202l-0.228-0.032l0.325-2.284l0.23,0.036
				c-0.002,0.061-0.004,0.135-0.006,0.22c0,0.086,0.004,0.161,0.016,0.222c0.013,0.081,0.045,0.137,0.098,0.168
				c0.052,0.034,0.109,0.054,0.175,0.065l1.405,0.199l0.017-0.121c-0.119-0.17-0.259-0.373-0.426-0.602
				c-0.166-0.231-0.307-0.412-0.415-0.542c-0.153-0.176-0.274-0.313-0.364-0.4c-0.092-0.087-0.176-0.138-0.248-0.149
				c-0.036-0.004-0.065,0.029-0.093,0.094c-0.03,0.069-0.056,0.177-0.085,0.323l-0.23-0.032l0.259-1.807l0.228,0.034
				c-0.007,0.22,0.009,0.41,0.042,0.563c0.035,0.157,0.107,0.313,0.216,0.479c0.159,0.233,0.296,0.425,0.415,0.581
				c0.117,0.154,0.269,0.351,0.453,0.593c0.256-0.152,0.568-0.338,0.938-0.551c0.368-0.215,0.729-0.431,1.079-0.646
				c0.09-0.058,0.178-0.121,0.263-0.194c0.086-0.074,0.16-0.163,0.217-0.255c0.029-0.047,0.053-0.1,0.073-0.158
				c0.022-0.061,0.034-0.113,0.043-0.156L7.487,30.54z"/>
			<path fill="#9A0000" d="M9.073,26.375l-0.869,2.162l-0.215-0.085c0.019-0.052,0.04-0.125,0.072-0.227
				c0.029-0.096,0.046-0.167,0.046-0.21c0-0.079-0.017-0.14-0.052-0.18c-0.036-0.044-0.088-0.082-0.159-0.11L5.134,26.62
				c-0.063-0.023-0.12-0.036-0.179-0.03c-0.055,0.007-0.112,0.033-0.168,0.094c-0.038,0.035-0.082,0.094-0.137,0.172
				c-0.052,0.079-0.096,0.149-0.126,0.205l-0.216-0.084l0.865-2.165l0.215,0.085c-0.016,0.058-0.036,0.13-0.058,0.217
				c-0.023,0.085-0.037,0.16-0.041,0.224c-0.004,0.084,0.013,0.142,0.053,0.188c0.041,0.044,0.094,0.08,0.159,0.101l2.761,1.107
				c0.063,0.029,0.127,0.04,0.18,0.032c0.06-0.006,0.117-0.036,0.17-0.096c0.034-0.032,0.076-0.087,0.125-0.169
				c0.05-0.082,0.092-0.156,0.119-0.214L9.073,26.375z"/>
			<path fill="#9A0000" d="M9.748,17.856c-0.028,0.046-0.065,0.113-0.111,0.211c-0.046,0.089-0.068,0.186-0.066,0.286
				c0,0.092,0.046,0.188,0.133,0.288c0.087,0.102,0.234,0.224,0.436,0.369l2.445,1.756l-0.307,0.427l-4.16,0.227l1.599,1.145
				c0.201,0.145,0.361,0.24,0.481,0.29c0.122,0.046,0.231,0.055,0.317,0.03c0.068-0.017,0.149-0.061,0.244-0.136
				c0.096-0.079,0.167-0.139,0.217-0.188l0.188,0.133l-1.051,1.467l-0.189-0.135c0.04-0.066,0.079-0.146,0.119-0.238
				c0.039-0.092,0.061-0.184,0.061-0.263c-0.004-0.098-0.043-0.192-0.12-0.28c-0.077-0.092-0.227-0.217-0.448-0.375l-1.618-1.162
				c-0.08-0.056-0.167-0.1-0.254-0.125c-0.09-0.027-0.18-0.031-0.268-0.018c-0.097,0.018-0.184,0.052-0.268,0.104
				c-0.084,0.049-0.166,0.114-0.25,0.195L6.69,21.727l0.92-1.283l3.65-0.196l-1.3-0.932c-0.204-0.147-0.37-0.243-0.488-0.288
				c-0.121-0.049-0.224-0.057-0.316-0.035c-0.07,0.02-0.151,0.064-0.241,0.139c-0.092,0.072-0.165,0.127-0.214,0.179L8.52,19.179
				l1.044-1.458L9.748,17.856z"/>
			<path fill="#9A0000" d="M17.022,14.398c-0.044,0.042-0.081,0.084-0.115,0.117c-0.033,0.035-0.066,0.085-0.107,0.147
				c-0.048,0.072-0.062,0.135-0.043,0.201c0.017,0.06,0.043,0.115,0.085,0.167l0.305,0.381c0.064,0.075,0.115,0.139,0.154,0.181
				c0.04,0.047,0.087,0.105,0.145,0.173c-0.079,0.214-0.235,0.486-0.47,0.806c-0.234,0.323-0.478,0.587-0.73,0.787
				c-0.237,0.193-0.489,0.334-0.752,0.428c-0.266,0.097-0.535,0.135-0.808,0.115c-0.27-0.018-0.536-0.097-0.797-0.237
				c-0.26-0.138-0.5-0.344-0.719-0.616c-0.204-0.257-0.354-0.528-0.44-0.809c-0.094-0.284-0.119-0.569-0.086-0.856
				c0.032-0.28,0.126-0.554,0.283-0.818c0.158-0.265,0.374-0.508,0.645-0.727c0.188-0.149,0.377-0.266,0.57-0.347
				c0.196-0.083,0.365-0.139,0.51-0.168l0.041-0.243l0.202-0.164l0.984,1.181l-0.203,0.163c-0.405-0.268-0.759-0.418-1.062-0.465
				c-0.3-0.041-0.577,0.038-0.827,0.238c-0.294,0.237-0.418,0.548-0.372,0.936c0.048,0.387,0.251,0.806,0.614,1.257
				c0.386,0.48,0.768,0.794,1.143,0.938c0.374,0.143,0.706,0.102,0.995-0.129c0.133-0.109,0.236-0.225,0.311-0.349
				c0.07-0.125,0.114-0.238,0.13-0.335l-0.531-0.665c-0.044-0.054-0.09-0.096-0.141-0.111c-0.05-0.025-0.116-0.025-0.199-0.002
				c-0.064,0.017-0.137,0.044-0.216,0.087c-0.081,0.04-0.149,0.078-0.197,0.107l-0.146-0.177l1.701-1.372L17.022,14.398z"/>
			<path fill="#9A0000" d="M26.801,8.114C26.747,8.136,26.67,8.17,26.569,8.22c-0.1,0.046-0.178,0.106-0.235,0.175
				c-0.062,0.065-0.09,0.166-0.087,0.297c0.002,0.129,0.04,0.316,0.103,0.566l0.404,1.506c0.118,0.443,0.062,0.839-0.167,1.188
				c-0.231,0.352-0.592,0.593-1.089,0.729c-0.579,0.149-1.062,0.142-1.45-0.034c-0.387-0.176-0.641-0.496-0.764-0.961l-0.555-2.07
				c-0.016-0.069-0.043-0.122-0.083-0.161c-0.037-0.042-0.097-0.071-0.18-0.094c-0.057-0.01-0.125-0.012-0.2-0.01
				c-0.077,0.007-0.139,0.01-0.184,0.019l-0.06-0.224l2.125-0.568l0.061,0.224c-0.061,0.021-0.121,0.043-0.18,0.072
				c-0.062,0.026-0.121,0.057-0.18,0.096c-0.068,0.04-0.105,0.095-0.118,0.155c-0.009,0.061-0.005,0.122,0.013,0.193l0.544,2.04
				c0.109,0.401,0.274,0.672,0.5,0.805c0.228,0.138,0.512,0.157,0.851,0.069c0.33-0.09,0.566-0.259,0.7-0.512
				c0.136-0.251,0.151-0.574,0.046-0.964L26.02,9.38c-0.066-0.245-0.131-0.42-0.198-0.536c-0.065-0.109-0.14-0.186-0.223-0.221
				c-0.062-0.028-0.158-0.042-0.291-0.042c-0.131-0.003-0.226,0-0.276,0.006l-0.062-0.23l1.771-0.473L26.801,8.114z"/>
			<path fill="#9A0000" d="M34.731,7.816c-0.055,0.004-0.134,0.013-0.236,0.025c-0.101,0.017-0.196,0.055-0.277,0.112
				c-0.075,0.055-0.127,0.146-0.16,0.274c-0.033,0.127-0.051,0.318-0.053,0.57l-0.042,3.008L33.437,11.8l-2.563-3.287l-0.028,1.97
				c-0.003,0.244,0.01,0.431,0.041,0.558c0.031,0.129,0.083,0.22,0.154,0.28c0.052,0.047,0.136,0.084,0.254,0.119
				c0.115,0.038,0.206,0.063,0.277,0.074l-0.002,0.232l-1.803-0.027l0.001-0.227c0.077-0.007,0.163-0.022,0.264-0.042
				c0.102-0.021,0.184-0.057,0.25-0.1c0.078-0.059,0.131-0.141,0.162-0.258c0.031-0.114,0.048-0.308,0.048-0.58l0.028-1.994
				c0.002-0.101-0.012-0.191-0.042-0.28c-0.029-0.089-0.074-0.165-0.138-0.229c-0.068-0.069-0.146-0.124-0.235-0.162
				c-0.088-0.037-0.191-0.072-0.303-0.094V7.517l1.579,0.023l2.248,2.881l0.023-1.597c0.002-0.252-0.01-0.44-0.041-0.568
				c-0.033-0.124-0.084-0.215-0.156-0.276c-0.055-0.043-0.14-0.085-0.249-0.121c-0.112-0.036-0.204-0.056-0.271-0.073l0.006-0.224
				l1.794,0.024L34.731,7.816z"/>
			<path fill="#9A0000" d="M39.256,12.838l-2.258-0.581l0.059-0.227c0.051,0.011,0.128,0.027,0.231,0.043
				c0.101,0.02,0.172,0.025,0.216,0.02c0.077-0.009,0.134-0.036,0.174-0.078c0.037-0.038,0.065-0.097,0.085-0.167l0.747-2.884
				c0.015-0.063,0.018-0.126,0.006-0.182c-0.013-0.055-0.05-0.107-0.116-0.156c-0.04-0.032-0.102-0.066-0.187-0.113
				c-0.083-0.042-0.158-0.077-0.222-0.101l0.057-0.222l2.258,0.583l-0.059,0.223c-0.057-0.009-0.13-0.021-0.219-0.032
				c-0.088-0.011-0.165-0.016-0.229-0.011c-0.081,0.005-0.14,0.033-0.18,0.078c-0.037,0.047-0.066,0.104-0.083,0.167l-0.747,2.882
				c-0.018,0.067-0.018,0.131-0.006,0.184c0.013,0.054,0.053,0.109,0.117,0.159c0.034,0.028,0.098,0.062,0.186,0.103
				c0.087,0.038,0.164,0.068,0.226,0.09L39.256,12.838z"/>
			<path fill="#9A0000" d="M47.521,12.275c-0.061-0.023-0.121-0.043-0.181-0.054c-0.063-0.013-0.131-0.017-0.202-0.013
				c-0.097,0.003-0.181,0.02-0.247,0.049c-0.068,0.029-0.145,0.071-0.231,0.139c-0.118,0.093-0.287,0.227-0.506,0.409
				c-0.219,0.179-0.471,0.377-0.753,0.609c-0.25,0.204-0.524,0.433-0.821,0.68c-0.298,0.244-0.583,0.484-0.855,0.707l-0.522-0.276
				c0.072-0.729,0.147-1.465,0.22-2.216c0.076-0.75,0.126-1.273,0.148-1.569c0.006-0.107,0.004-0.193-0.011-0.257
				c-0.016-0.066-0.049-0.142-0.106-0.234c-0.042-0.062-0.081-0.115-0.119-0.152c-0.039-0.035-0.094-0.079-0.165-0.129l0.112-0.206
				l2.007,1.065l-0.105,0.201c-0.203-0.079-0.348-0.128-0.43-0.137c-0.083-0.011-0.132,0.002-0.154,0.04
				c-0.009,0.02-0.017,0.043-0.022,0.066c-0.006,0.024-0.012,0.059-0.021,0.106c-0.026,0.184-0.057,0.486-0.096,0.917
				c-0.039,0.429-0.102,1.083-0.193,1.952c0.411-0.344,0.754-0.636,1.035-0.877c0.277-0.24,0.523-0.453,0.733-0.637
				c0.105-0.09,0.198-0.174,0.277-0.258c0.081-0.08,0.134-0.142,0.158-0.193c0.031-0.055,0.014-0.124-0.05-0.206
				c-0.061-0.077-0.197-0.188-0.406-0.321l0.108-0.208l1.506,0.796L47.521,12.275z"/>
			<path fill="#9A0000" d="M52.087,17.156l-0.171-0.158c0.068-0.155,0.106-0.341,0.113-0.555c0.008-0.212-0.028-0.377-0.107-0.492
				c-0.034-0.052-0.09-0.112-0.166-0.182c-0.074-0.078-0.139-0.134-0.188-0.182l-0.446-0.408l-1.09,1.194l0.313,0.294
				c0.079,0.07,0.16,0.126,0.242,0.165c0.081,0.04,0.175,0.061,0.278,0.054c0.061-0.004,0.148-0.031,0.259-0.085
				c0.109-0.054,0.2-0.106,0.268-0.159l0.168,0.155l-1.177,1.291l-0.171-0.156c0.048-0.067,0.097-0.164,0.145-0.289
				c0.049-0.127,0.075-0.223,0.075-0.286c0-0.094-0.021-0.181-0.068-0.26c-0.047-0.079-0.113-0.156-0.199-0.235l-0.316-0.287
				l-0.818,0.894c-0.084,0.093-0.144,0.174-0.183,0.241c-0.035,0.067-0.048,0.133-0.035,0.196c0.009,0.06,0.043,0.126,0.097,0.19
				c0.058,0.066,0.137,0.15,0.248,0.252c0.05,0.043,0.111,0.101,0.184,0.164c0.073,0.062,0.138,0.114,0.199,0.156
				c0.066,0.05,0.136,0.091,0.199,0.125c0.069,0.035,0.127,0.047,0.18,0.045c0.132-0.007,0.311-0.045,0.53-0.111
				c0.22-0.068,0.378-0.124,0.472-0.172l0.156,0.144l-0.939,0.908l-2.902-2.651l0.157-0.17c0.042,0.033,0.104,0.077,0.182,0.135
				c0.078,0.054,0.136,0.089,0.177,0.104c0.077,0.029,0.141,0.033,0.19,0.017c0.053-0.019,0.106-0.059,0.155-0.114l1.999-2.184
				c0.047-0.051,0.079-0.104,0.094-0.151c0.016-0.05,0.004-0.117-0.031-0.204c-0.021-0.049-0.062-0.113-0.117-0.191
				c-0.057-0.079-0.097-0.134-0.129-0.172l0.153-0.168l2.746,2.506L52.087,17.156z"/>
			<path fill="#9A0000" d="M54.268,25.399l-0.873-1.357c0.206-0.462,0.366-0.839,0.475-1.128c0.112-0.292,0.233-0.644,0.363-1.051
				l-0.084-0.13l-1.065,0.69c-0.063,0.036-0.106,0.079-0.132,0.128c-0.027,0.049-0.033,0.114-0.02,0.197
				c0.007,0.036,0.023,0.096,0.054,0.173c0.03,0.074,0.059,0.14,0.082,0.189l-0.196,0.125l-1.218-1.887l0.196-0.127
				c0.035,0.045,0.084,0.105,0.145,0.181c0.063,0.072,0.107,0.123,0.143,0.145c0.068,0.048,0.128,0.067,0.182,0.065
				c0.055-0.004,0.115-0.027,0.176-0.07l2.493-1.604c0.057-0.04,0.1-0.081,0.127-0.125c0.032-0.043,0.035-0.112,0.022-0.199
				c-0.016-0.069-0.037-0.144-0.071-0.227c-0.03-0.081-0.056-0.145-0.077-0.19l0.196-0.125l1.277,1.978
				c0.285,0.446,0.432,0.826,0.443,1.146c0.009,0.318-0.127,0.566-0.409,0.75c-0.247,0.161-0.494,0.217-0.735,0.174
				c-0.244-0.046-0.5-0.188-0.769-0.421c-0.076,0.204-0.158,0.445-0.252,0.719c-0.098,0.272-0.192,0.556-0.286,0.844
				c-0.033,0.092-0.066,0.216-0.101,0.364c-0.038,0.15-0.043,0.264-0.02,0.347c0.014,0.047,0.031,0.099,0.063,0.164
				c0.029,0.065,0.051,0.108,0.064,0.134L54.268,25.399z M55.803,22.019c0.237-0.152,0.364-0.33,0.389-0.534
				c0.024-0.2-0.042-0.42-0.2-0.664l-0.127-0.196l-1.474,0.952l0.12,0.189c0.156,0.243,0.342,0.391,0.555,0.441
				C55.281,22.258,55.527,22.196,55.803,22.019z"/>
			<path fill="#9A0000" d="M55.443,28.846c-0.083-0.243-0.129-0.482-0.139-0.712c-0.011-0.231,0-0.433,0.034-0.605l-0.263-0.131
				l-0.079-0.237l1.428-0.515l0.081,0.244c-0.118,0.101-0.236,0.216-0.36,0.35c-0.123,0.135-0.223,0.279-0.306,0.429
				c-0.086,0.152-0.146,0.317-0.176,0.488c-0.03,0.165-0.015,0.343,0.048,0.533c0.085,0.253,0.211,0.427,0.38,0.523
				c0.168,0.094,0.349,0.111,0.537,0.045c0.155-0.05,0.265-0.152,0.33-0.302c0.066-0.148,0.096-0.361,0.092-0.625
				c0-0.175,0-0.335-0.002-0.482c-0.002-0.148,0.002-0.285,0.005-0.417c0.018-0.303,0.104-0.554,0.261-0.748
				c0.153-0.197,0.355-0.34,0.601-0.417c0.153-0.054,0.313-0.071,0.479-0.051c0.166,0.017,0.329,0.075,0.485,0.165
				c0.148,0.089,0.288,0.219,0.418,0.387c0.134,0.171,0.238,0.368,0.313,0.594c0.074,0.222,0.112,0.438,0.117,0.653
				c0.005,0.216-0.007,0.385-0.03,0.518l0.224,0.114l0.083,0.245l-1.351,0.481l-0.081-0.243c0.125-0.106,0.252-0.223,0.377-0.349
				c0.125-0.128,0.225-0.248,0.296-0.367c0.079-0.128,0.126-0.263,0.153-0.403c0.022-0.142,0.01-0.294-0.046-0.456
				c-0.067-0.202-0.181-0.347-0.335-0.44c-0.158-0.09-0.321-0.109-0.486-0.051c-0.157,0.052-0.269,0.152-0.331,0.295
				c-0.063,0.146-0.095,0.351-0.09,0.611c-0.001,0.155,0,0.313,0.002,0.473c0,0.161-0.002,0.303-0.009,0.431
				c-0.01,0.307-0.086,0.562-0.223,0.764c-0.136,0.206-0.341,0.353-0.615,0.442c-0.17,0.058-0.352,0.073-0.54,0.048
				c-0.188-0.029-0.36-0.091-0.512-0.193c-0.168-0.109-0.315-0.253-0.445-0.431C55.64,29.328,55.531,29.107,55.443,28.846z"/>
			<path fill="#9A0000" d="M56.816,35.301l-0.236-2.318l0.228-0.023c0.008,0.05,0.023,0.128,0.042,0.232
				c0.021,0.103,0.037,0.172,0.059,0.208c0.036,0.072,0.079,0.12,0.132,0.139c0.048,0.021,0.112,0.028,0.185,0.021l2.961-0.306
				c0.066-0.007,0.125-0.025,0.175-0.056c0.046-0.031,0.083-0.086,0.105-0.163c0.017-0.048,0.028-0.123,0.04-0.218
				c0.011-0.094,0.018-0.176,0.018-0.242l0.232-0.021l0.238,2.316l-0.229,0.024c-0.014-0.057-0.029-0.132-0.049-0.216
				c-0.019-0.087-0.043-0.163-0.07-0.22c-0.033-0.072-0.078-0.121-0.134-0.139c-0.055-0.021-0.12-0.031-0.187-0.021l-2.957,0.304
				c-0.073,0.009-0.131,0.026-0.181,0.059c-0.045,0.032-0.08,0.086-0.104,0.164c-0.014,0.043-0.022,0.114-0.032,0.209
				c-0.005,0.097-0.007,0.179-0.003,0.243L56.816,35.301z"/>
			<path fill="#9A0000" d="M59.393,42.085l0.026-0.229c0.186-0.038,0.386-0.112,0.605-0.224c0.221-0.109,0.345-0.218,0.374-0.33
				c0.014-0.06,0.031-0.141,0.048-0.23c0.015-0.092,0.029-0.17,0.036-0.231l0.015-0.143l-3.265-0.388
				c-0.07-0.007-0.134-0.003-0.19,0.018c-0.059,0.02-0.106,0.063-0.148,0.135c-0.019,0.043-0.046,0.11-0.077,0.202
				c-0.031,0.097-0.052,0.176-0.066,0.239l-0.231-0.025l0.276-2.333l0.228,0.026c0,0.059,0,0.142-0.002,0.243
				c-0.003,0.107,0.002,0.175,0.015,0.216c0.022,0.078,0.058,0.138,0.107,0.167c0.049,0.036,0.112,0.052,0.185,0.063l3.293,0.391
				l0.018-0.14c0.008-0.064,0.012-0.146,0.018-0.239c0.006-0.091,0.008-0.167,0.008-0.231c-0.002-0.113-0.096-0.252-0.286-0.409
				c-0.188-0.157-0.364-0.277-0.535-0.359l0.026-0.229l1.196,0.143l-0.48,4.041L59.393,42.085z"/>
			<path fill="#9A0000" d="M58.026,49.354c0.017-0.069,0.028-0.136,0.033-0.194c0.004-0.063,0.002-0.124-0.009-0.185
				c-0.012-0.096-0.043-0.189-0.087-0.274c-0.046-0.089-0.1-0.18-0.162-0.271c-0.13-0.187-0.272-0.382-0.426-0.594
				c-0.158-0.21-0.327-0.439-0.514-0.688c-0.12-0.161-0.214-0.269-0.289-0.326c-0.077-0.053-0.218-0.119-0.423-0.197l-0.556-0.215
				c-0.065-0.024-0.132-0.037-0.189-0.029c-0.059,0.007-0.117,0.038-0.176,0.098c-0.026,0.027-0.065,0.084-0.128,0.181
				c-0.06,0.091-0.102,0.163-0.122,0.209l-0.22-0.083l0.845-2.194l0.216,0.082c-0.018,0.054-0.036,0.131-0.063,0.23
				c-0.027,0.104-0.04,0.177-0.042,0.22c0.005,0.081,0.027,0.142,0.064,0.188c0.041,0.039,0.096,0.079,0.165,0.106l0.691,0.263
				c0.062,0.023,0.113,0.043,0.163,0.059c0.045,0.014,0.087,0.023,0.122,0.023c0.04,0,0.091,0,0.16-0.012
				c0.066-0.012,0.152-0.025,0.257-0.043c0.303-0.045,0.593-0.089,0.865-0.14c0.274-0.045,0.531-0.092,0.772-0.135
				c0.124-0.022,0.23-0.056,0.316-0.097c0.087-0.038,0.163-0.086,0.227-0.135c0.045-0.041,0.09-0.09,0.133-0.16
				c0.041-0.063,0.074-0.124,0.101-0.178l0.216,0.085l-0.86,2.244l-0.218-0.083c0.075-0.209,0.112-0.356,0.119-0.436
				c0.006-0.081-0.013-0.132-0.056-0.146c-0.019-0.009-0.066-0.009-0.135-0.009c-0.07,0.005-0.184,0.018-0.338,0.034
				c-0.144,0.016-0.343,0.049-0.599,0.085c-0.257,0.043-0.561,0.092-0.906,0.154c0.421,0.563,0.716,0.947,0.886,1.164
				c0.173,0.215,0.283,0.334,0.332,0.354c0.064,0.02,0.125,0.003,0.188-0.063c0.062-0.062,0.129-0.178,0.203-0.346l0.215,0.081
				l-0.553,1.451L58.026,49.354z"/>
		</g>
		<path fill="#9A0000" d="M53.504,36.74c0,11.961-9.695,21.659-21.658,21.659c-11.964,0-21.663-9.698-21.663-21.659
			c0-11.966,9.698-21.662,21.663-21.662C43.809,15.078,53.504,24.774,53.504,36.74z M28.666,18.583
			c-0.945,0-1.712,0.768-1.712,1.711v2.216c-1.785,0.411-3.6,1.075-5.412,1.992c-2.056,1.035-4.081,2.388-5.86,3.911
			c-0.694,0.593-0.775,1.639-0.18,2.331c0.594,0.693,1.636,0.773,2.332,0.184c2.784-2.386,6.016-4.15,9.12-5.003v3.801
			c-2.154,0.701-4.26,1.892-6.278,3.557c-2.269,1.876-4.382,4.305-6.279,7.224c-0.18,0.279-0.269,0.593-0.269,0.901
			c0,0.543,0.269,1.073,0.755,1.391c0.766,0.495,1.79,0.278,2.286-0.486c1.715-2.644,3.603-4.82,5.612-6.477
			c2.049-1.692,4.318-2.853,6.303-3.272c0.884-0.189,1.29-1.005,1.29-1.569c0-0.087,0-0.4,0-0.866c0-2.565,0-9.779,0-9.779v-0.056
			C30.375,19.35,29.609,18.583,28.666,18.583z M33.311,20.293v0.056c0,0,0,7.214,0,9.779c0,0.466,0,0.779,0,0.866
			c0,0.563,0.41,1.38,1.293,1.569c1.986,0.42,4.253,1.581,6.302,3.272c2.009,1.657,3.897,3.833,5.611,6.477
			c0.497,0.765,1.523,0.981,2.29,0.486c0.488-0.317,0.752-0.848,0.752-1.391c0-0.309-0.085-0.622-0.267-0.901
			c-1.898-2.919-4.012-5.348-6.281-7.224c-2.014-1.666-4.122-2.856-6.276-3.557v-3.801c3.102,0.853,6.337,2.617,9.12,5.003
			c0.694,0.59,1.738,0.51,2.334-0.184c0.594-0.692,0.51-1.738-0.184-2.331c-1.777-1.523-3.804-2.876-5.858-3.911
			c-1.812-0.917-3.626-1.582-5.412-1.992v-2.216c0-0.943-0.766-1.711-1.709-1.711C34.076,18.583,33.311,19.35,33.311,20.293z
			 M45.307,47.747c-0.72-1.673-1.536-3.221-2.429-4.588c-0.937-1.442-1.961-2.701-3.043-3.733c-1.163-1.111-2.405-1.973-3.687-2.564
			c-0.848-0.39-1.714-0.661-2.592-0.813v-1.006c0-0.944-0.766-1.713-1.712-1.713c-0.943,0-1.71,0.769-1.71,1.713v1.006
			c-0.878,0.153-1.745,0.423-2.589,0.813c-1.284,0.591-2.523,1.453-3.691,2.564c-1.081,1.032-2.106,2.291-3.041,3.733
			c-0.893,1.367-1.711,2.915-2.429,4.588c-0.359,0.842,0.028,1.814,0.867,2.178c0.84,0.357,1.813-0.031,2.174-0.87
			c1.296-3.03,2.927-5.53,4.715-7.234c1.286-1.229,2.624-2.027,3.994-2.39v2.692c0,0.926-0.681,1.287-0.995,1.479
			c-0.101,0.061-0.317,0.191-0.418,0.254c-0.636,0.412-1.366,1.048-2.047,1.925c-1.23,1.577-2.19,3.728-2.696,6.056
			c-0.196,0.896,0.37,1.773,1.263,1.969c0.895,0.194,1.772-0.369,1.968-1.265c0.406-1.853,1.139-3.533,2.073-4.726
			c0.474-0.61,1.441-1.636,2.563-1.636c1.123,0,2.089,1.025,2.565,1.636c0.933,1.192,1.67,2.873,2.073,4.726
			c0.194,0.896,1.075,1.459,1.966,1.265c0.893-0.195,1.462-1.072,1.266-1.969c-0.507-2.328-1.466-4.479-2.696-6.056
			c-0.683-0.877-1.414-1.513-2.045-1.925c-0.104-0.063-0.32-0.193-0.423-0.254c-0.312-0.191-0.993-0.553-0.993-1.479v-2.692
			c1.371,0.362,2.708,1.161,3.995,2.39c1.786,1.704,3.417,4.204,4.715,7.234c0.359,0.839,1.332,1.228,2.172,0.87
			C45.276,49.562,45.667,48.589,45.307,47.747z"/>
	</g>
	<g>
		<g>
			<g>
				<path fill="#231815" d="M84.468,58.721c0,0.53-0.104,1.001-0.313,1.407c-0.205,0.409-0.492,0.748-0.859,1.015
					c-0.362,0.27-0.759,0.464-1.192,0.59c-0.434,0.123-0.895,0.187-1.379,0.187h-1.137v3.072c0,0.168,0.027,0.314,0.084,0.44
					c0.053,0.127,0.166,0.223,0.342,0.289c0.088,0.034,0.238,0.063,0.457,0.092c0.219,0.03,0.421,0.047,0.604,0.051v0.51h-4.35
					v-0.51c0.112-0.008,0.275-0.025,0.488-0.051c0.214-0.021,0.363-0.055,0.448-0.092c0.14-0.063,0.24-0.153,0.305-0.273
					c0.063-0.117,0.095-0.271,0.095-0.457v-7.332c0-0.166-0.023-0.316-0.071-0.452c-0.048-0.132-0.159-0.233-0.333-0.301
					c-0.18-0.06-0.36-0.104-0.539-0.129c-0.178-0.027-0.328-0.045-0.456-0.056v-0.509h4.63c0.941,0,1.707,0.226,2.295,0.685
					C84.175,57.352,84.468,57.961,84.468,58.721z M82.288,60.446c0.158-0.229,0.267-0.467,0.317-0.711
					c0.054-0.244,0.08-0.466,0.08-0.66c0-0.27-0.033-0.548-0.097-0.827c-0.063-0.282-0.175-0.526-0.329-0.735
					c-0.168-0.223-0.387-0.397-0.656-0.522c-0.27-0.122-0.606-0.185-1.012-0.185h-1.004v4.476h0.728c0.513,0,0.929-0.078,1.248-0.24
					C81.886,60.882,82.125,60.684,82.288,60.446z"/>
				<path fill="#231815" d="M94.174,63.383l-0.193,2.99h-8.419v-0.51c0.142-0.008,0.331-0.028,0.571-0.061
					c0.236-0.03,0.393-0.063,0.463-0.095c0.152-0.073,0.258-0.166,0.318-0.282c0.061-0.112,0.088-0.261,0.088-0.436v-7.303
					c0-0.157-0.023-0.297-0.077-0.42c-0.052-0.121-0.163-0.221-0.329-0.297c-0.129-0.062-0.301-0.118-0.517-0.163
					c-0.218-0.05-0.39-0.076-0.518-0.087v-0.509h7.849v2.438h-0.53c-0.095-0.354-0.302-0.731-0.618-1.132
					c-0.318-0.401-0.619-0.619-0.904-0.657c-0.148-0.019-0.324-0.031-0.529-0.042c-0.205-0.008-0.439-0.014-0.703-0.014H88.53v4.01
					h1.14c0.366,0,0.635-0.035,0.803-0.105c0.168-0.067,0.316-0.184,0.445-0.345c0.105-0.137,0.192-0.32,0.266-0.553
					c0.076-0.229,0.125-0.447,0.146-0.652h0.531v3.988H91.33c-0.018-0.23-0.068-0.473-0.154-0.729
					c-0.081-0.255-0.168-0.441-0.258-0.559c-0.146-0.186-0.313-0.306-0.502-0.365c-0.188-0.057-0.435-0.085-0.746-0.085h-1.14v3.036
					c0,0.305,0.022,0.544,0.063,0.718c0.043,0.178,0.127,0.312,0.252,0.401c0.123,0.09,0.291,0.15,0.505,0.174
					c0.212,0.026,0.516,0.039,0.91,0.039c0.157,0,0.364,0,0.62,0s0.473-0.008,0.648-0.028c0.18-0.017,0.365-0.054,0.557-0.104
					c0.193-0.049,0.33-0.115,0.411-0.203c0.218-0.229,0.447-0.574,0.688-1.037c0.238-0.464,0.393-0.806,0.459-1.023H94.174z"/>
				<path fill="#231815" d="M104.637,66.373h-2.852c-0.549-0.848-1.16-1.692-1.83-2.528c-0.673-0.837-1.376-1.647-2.111-2.435
					h-0.187v3.531c0,0.157,0.032,0.298,0.088,0.422c0.06,0.124,0.167,0.223,0.321,0.3c0.074,0.033,0.215,0.075,0.418,0.121
					c0.205,0.049,0.375,0.075,0.511,0.079v0.51h-4.2v-0.51c0.109-0.008,0.27-0.023,0.481-0.041c0.212-0.021,0.358-0.049,0.444-0.088
					c0.144-0.06,0.249-0.154,0.313-0.275c0.063-0.121,0.097-0.268,0.097-0.44v-7.331c0-0.164-0.026-0.305-0.085-0.424
					c-0.054-0.118-0.163-0.217-0.325-0.293c-0.129-0.062-0.281-0.118-0.461-0.163c-0.178-0.05-0.332-0.076-0.465-0.087v-0.509h4.2
					v0.509c-0.132,0.004-0.296,0.027-0.493,0.063c-0.196,0.039-0.342,0.075-0.436,0.109c-0.159,0.056-0.269,0.152-0.324,0.285
					c-0.055,0.135-0.085,0.282-0.085,0.438v3.517h0.144c0.432-0.364,0.854-0.742,1.27-1.138c0.415-0.396,0.793-0.788,1.132-1.179
					c0.375-0.438,0.653-0.786,0.827-1.044c0.174-0.262,0.261-0.493,0.261-0.693c0-0.073-0.044-0.131-0.133-0.178
					c-0.089-0.044-0.188-0.083-0.304-0.111c-0.133-0.027-0.252-0.043-0.357-0.054c-0.105-0.006-0.191-0.013-0.256-0.017v-0.509
					h3.805v0.509c-0.016,0-0.045,0.001-0.094,0.008c-0.047,0.004-0.103,0.009-0.164,0.015c-0.066,0.005-0.133,0.015-0.199,0.028
					c-0.064,0.013-0.152,0.03-0.256,0.048c-0.167,0.04-0.34,0.102-0.516,0.184c-0.18,0.083-0.324,0.188-0.438,0.313
					c-0.49,0.561-1.001,1.14-1.534,1.738c-0.537,0.598-1.066,1.145-1.592,1.638c0.727,0.819,1.328,1.524,1.803,2.113
					c0.476,0.59,0.979,1.223,1.516,1.895c0.205,0.257,0.409,0.462,0.613,0.618c0.205,0.154,0.38,0.268,0.527,0.345
					c0.123,0.063,0.279,0.11,0.465,0.144c0.184,0.033,0.339,0.053,0.461,0.057V66.373z"/>
				<path fill="#231815" d="M109.729,66.373h-4.584v-0.51c0.131-0.008,0.315-0.023,0.56-0.041c0.244-0.021,0.417-0.049,0.519-0.088
					c0.157-0.06,0.271-0.146,0.342-0.253c0.072-0.108,0.109-0.259,0.109-0.449v-7.359c0-0.166-0.028-0.306-0.079-0.418
					c-0.054-0.114-0.178-0.208-0.372-0.284c-0.145-0.058-0.326-0.109-0.543-0.159c-0.217-0.052-0.395-0.08-0.535-0.091v-0.509h4.584
					v0.509c-0.15,0.004-0.325,0.022-0.531,0.056c-0.203,0.029-0.385,0.067-0.537,0.117c-0.184,0.056-0.304,0.15-0.366,0.277
					c-0.063,0.131-0.093,0.271-0.093,0.431v7.353c0,0.16,0.033,0.297,0.104,0.419c0.069,0.124,0.188,0.219,0.355,0.29
					c0.102,0.04,0.262,0.08,0.49,0.126c0.228,0.045,0.419,0.07,0.578,0.074V66.373z"/>
				<path fill="#231815" d="M121.106,56.721c-0.136,0.004-0.342,0.043-0.618,0.114c-0.281,0.07-0.479,0.147-0.6,0.223
					c-0.172,0.118-0.287,0.347-0.348,0.688c-0.061,0.339-0.089,0.771-0.089,1.289v7.445h-0.63l-6.16-8.318v5.241
					c0,0.587,0.037,1.037,0.111,1.351c0.073,0.318,0.186,0.541,0.338,0.673c0.109,0.108,0.336,0.205,0.675,0.295
					c0.345,0.091,0.569,0.139,0.679,0.143v0.51h-4.157v-0.51c0.128-0.008,0.345-0.057,0.647-0.139
					c0.305-0.083,0.496-0.159,0.573-0.226c0.165-0.134,0.28-0.339,0.341-0.611c0.063-0.276,0.093-0.744,0.093-1.408v-5.006
					c0-0.219-0.038-0.438-0.114-0.657c-0.077-0.219-0.178-0.389-0.307-0.51c-0.17-0.156-0.403-0.291-0.695-0.404
					c-0.292-0.111-0.526-0.171-0.709-0.182v-0.509h2.899l5.715,7.752v-4.836c0-0.592-0.038-1.047-0.115-1.366
					c-0.076-0.316-0.186-0.528-0.327-0.632c-0.133-0.091-0.351-0.181-0.65-0.267c-0.303-0.085-0.532-0.132-0.689-0.143v-0.509h4.138
					V56.721z"/>
				<path fill="#231815" d="M131.76,62.3c-0.117,0.015-0.271,0.036-0.467,0.066c-0.195,0.031-0.352,0.076-0.473,0.135
					c-0.144,0.071-0.246,0.173-0.307,0.305c-0.061,0.133-0.089,0.285-0.089,0.462v0.791c0,0.573,0.002,0.961,0.008,1.162
					c0.008,0.201,0.017,0.365,0.026,0.495c-0.632,0.288-1.265,0.507-1.893,0.661c-0.631,0.151-1.249,0.229-1.853,0.229
					c-0.648,0-1.272-0.122-1.873-0.364c-0.602-0.244-1.125-0.591-1.571-1.041c-0.452-0.453-0.812-1.006-1.081-1.654
					c-0.267-0.65-0.399-1.377-0.399-2.179c0-0.775,0.127-1.493,0.382-2.155c0.257-0.661,0.614-1.236,1.083-1.722
					c0.45-0.479,0.991-0.851,1.615-1.115c0.629-0.265,1.299-0.398,2.011-0.398c0.573,0,1.068,0.071,1.494,0.215
					c0.423,0.141,0.796,0.31,1.119,0.505l0.293-0.485h0.574l0.064,3.542h-0.594c-0.102-0.394-0.225-0.781-0.372-1.164
					c-0.147-0.38-0.337-0.722-0.571-1.026c-0.23-0.301-0.516-0.542-0.851-0.721c-0.336-0.182-0.737-0.271-1.202-0.271
					c-0.507,0-0.962,0.104-1.361,0.313c-0.398,0.207-0.747,0.518-1.038,0.93c-0.291,0.396-0.516,0.893-0.671,1.486
					c-0.157,0.594-0.236,1.256-0.236,1.988c0,0.647,0.077,1.254,0.232,1.829c0.155,0.571,0.382,1.064,0.677,1.48
					c0.297,0.425,0.664,0.761,1.106,1.004c0.446,0.246,0.95,0.367,1.514,0.367c0.42,0,0.8-0.065,1.145-0.194
					c0.348-0.129,0.593-0.264,0.735-0.409c0.037-0.248,0.059-0.499,0.061-0.752c0.005-0.255,0.005-0.471,0.005-0.647v-0.56
					c0-0.202-0.028-0.38-0.083-0.536c-0.057-0.155-0.168-0.27-0.342-0.343c-0.157-0.07-0.369-0.124-0.641-0.162
					c-0.269-0.032-0.48-0.056-0.632-0.066v-0.51h4.454V62.3z"/>
				<path fill="#231815" d="M146.377,56.721c-0.138,0.004-0.333,0.032-0.592,0.087c-0.259,0.051-0.471,0.129-0.632,0.234
					c-0.166,0.11-0.277,0.336-0.338,0.68c-0.063,0.345-0.097,0.764-0.097,1.261v4.413c0,0.561-0.115,1.051-0.35,1.465
					c-0.234,0.415-0.541,0.757-0.923,1.023c-0.378,0.257-0.776,0.443-1.194,0.555c-0.416,0.11-0.816,0.168-1.198,0.168
					c-0.611,0-1.155-0.079-1.632-0.24c-0.477-0.159-0.879-0.375-1.202-0.648c-0.321-0.271-0.562-0.583-0.723-0.931
					c-0.164-0.352-0.245-0.718-0.245-1.1v-6.002c0-0.166-0.025-0.306-0.082-0.419c-0.053-0.111-0.166-0.215-0.334-0.311
					c-0.119-0.065-0.274-0.121-0.46-0.16c-0.187-0.04-0.34-0.064-0.461-0.075v-0.509h4.202v0.509
					c-0.132,0.004-0.297,0.027-0.497,0.063c-0.2,0.039-0.346,0.075-0.44,0.109c-0.157,0.056-0.267,0.151-0.319,0.283
					c-0.053,0.134-0.081,0.28-0.081,0.438v5.604c0,0.271,0.03,0.558,0.091,0.854c0.059,0.298,0.178,0.576,0.354,0.835
					c0.188,0.26,0.442,0.477,0.764,0.643c0.321,0.167,0.762,0.249,1.323,0.249c0.525,0,0.97-0.082,1.325-0.249
					c0.357-0.166,0.639-0.388,0.845-0.659c0.198-0.256,0.335-0.525,0.418-0.806c0.081-0.281,0.121-0.565,0.121-0.854v-4.159
					c0-0.53-0.038-0.963-0.113-1.298c-0.078-0.336-0.189-0.558-0.337-0.661c-0.17-0.119-0.4-0.213-0.687-0.279
					c-0.291-0.064-0.514-0.104-0.665-0.114v-0.509h4.159V56.721z"/>
				<path fill="#231815" d="M157.813,56.721c-0.133,0.004-0.342,0.043-0.618,0.114c-0.278,0.07-0.479,0.147-0.598,0.223
					c-0.172,0.118-0.291,0.347-0.35,0.688c-0.059,0.339-0.089,0.771-0.089,1.289v7.445h-0.628l-6.161-8.318v5.241
					c0,0.587,0.038,1.037,0.11,1.351c0.073,0.318,0.187,0.541,0.34,0.673c0.106,0.108,0.333,0.205,0.675,0.295
					c0.341,0.091,0.569,0.139,0.679,0.143v0.51h-4.159v-0.51c0.129-0.008,0.345-0.057,0.648-0.139
					c0.305-0.083,0.492-0.159,0.571-0.226c0.166-0.134,0.281-0.339,0.344-0.611c0.059-0.276,0.093-0.744,0.093-1.408v-5.006
					c0-0.219-0.041-0.438-0.115-0.657c-0.075-0.219-0.178-0.389-0.305-0.51c-0.174-0.156-0.404-0.291-0.695-0.404
					c-0.293-0.111-0.529-0.171-0.711-0.182v-0.509h2.898l5.715,7.752v-4.836c0-0.592-0.038-1.047-0.113-1.366
					c-0.076-0.316-0.186-0.528-0.329-0.632c-0.131-0.091-0.35-0.181-0.65-0.267c-0.303-0.085-0.529-0.132-0.688-0.143v-0.509h4.137
					V56.721z"/>
				<path fill="#231815" d="M162.784,66.373h-4.582v-0.51c0.128-0.008,0.315-0.023,0.56-0.041c0.245-0.021,0.414-0.049,0.518-0.088
					c0.157-0.06,0.271-0.146,0.343-0.253c0.071-0.108,0.107-0.259,0.107-0.449v-7.359c0-0.166-0.026-0.306-0.077-0.418
					c-0.056-0.114-0.18-0.208-0.373-0.284c-0.146-0.058-0.325-0.109-0.542-0.159c-0.218-0.052-0.396-0.08-0.535-0.091v-0.509h4.582
					v0.509c-0.147,0.004-0.325,0.022-0.529,0.056c-0.208,0.029-0.386,0.067-0.538,0.117c-0.184,0.056-0.303,0.15-0.367,0.277
					c-0.064,0.131-0.093,0.271-0.093,0.431v7.353c0,0.16,0.034,0.297,0.103,0.419c0.071,0.124,0.188,0.219,0.357,0.29
					c0.1,0.04,0.263,0.08,0.489,0.126c0.229,0.045,0.42,0.07,0.578,0.074V66.373z"/>
				<path fill="#231815" d="M173.517,56.721c-0.125,0.004-0.274,0.032-0.453,0.082c-0.175,0.05-0.323,0.11-0.436,0.183
					c-0.164,0.1-0.293,0.229-0.393,0.386c-0.097,0.159-0.193,0.346-0.288,0.559c-0.321,0.76-0.801,1.942-1.44,3.548
					c-0.641,1.608-1.299,3.28-1.978,5.023h-0.597c-0.687-1.847-1.351-3.627-1.991-5.342c-0.639-1.714-1.073-2.872-1.303-3.472
					c-0.057-0.148-0.132-0.277-0.23-0.392c-0.095-0.111-0.221-0.219-0.378-0.317c-0.127-0.082-0.272-0.144-0.431-0.183
					c-0.157-0.04-0.305-0.064-0.436-0.075v-0.509h4.197v0.509c-0.355,0.017-0.656,0.056-0.903,0.107
					c-0.244,0.052-0.367,0.145-0.367,0.277c0,0.055,0.008,0.117,0.028,0.188c0.016,0.073,0.034,0.13,0.049,0.172
					c0.175,0.469,0.46,1.229,0.858,2.287c0.397,1.061,0.961,2.567,1.692,4.521c0.361-0.885,0.779-1.928,1.255-3.131
					c0.473-1.205,0.789-2.031,0.953-2.48c0.155-0.436,0.248-0.735,0.274-0.903c0.026-0.166,0.039-0.302,0.039-0.407
					c0-0.111-0.049-0.201-0.147-0.276c-0.098-0.074-0.227-0.138-0.391-0.188c-0.157-0.05-0.314-0.084-0.479-0.107
					c-0.163-0.025-0.327-0.044-0.493-0.058v-0.509h3.786V56.721z"/>
				<path fill="#231815" d="M182.441,63.383l-0.194,2.99h-8.422v-0.51c0.144-0.008,0.336-0.028,0.574-0.061
					c0.236-0.03,0.392-0.063,0.462-0.095c0.154-0.073,0.259-0.166,0.319-0.282c0.059-0.112,0.089-0.261,0.089-0.436v-7.303
					c0-0.157-0.026-0.297-0.078-0.42c-0.053-0.121-0.162-0.221-0.33-0.297c-0.127-0.062-0.301-0.118-0.517-0.163
					c-0.218-0.05-0.39-0.076-0.52-0.087v-0.509h7.853v2.438h-0.531c-0.096-0.354-0.302-0.731-0.618-1.132
					c-0.319-0.401-0.62-0.619-0.905-0.657c-0.149-0.019-0.325-0.031-0.529-0.042c-0.206-0.008-0.44-0.014-0.701-0.014h-1.596v4.01
					h1.14c0.367,0,0.634-0.035,0.802-0.105c0.168-0.067,0.319-0.184,0.446-0.345c0.104-0.137,0.194-0.32,0.265-0.553
					c0.075-0.229,0.123-0.447,0.149-0.652h0.529v3.988h-0.529c-0.021-0.23-0.072-0.473-0.155-0.729
					c-0.083-0.255-0.172-0.441-0.259-0.559c-0.147-0.186-0.315-0.306-0.503-0.365c-0.186-0.057-0.437-0.085-0.745-0.085h-1.14v3.036
					c0,0.305,0.021,0.544,0.064,0.718c0.043,0.178,0.128,0.312,0.251,0.401s0.291,0.15,0.505,0.174
					c0.214,0.026,0.518,0.039,0.911,0.039c0.155,0,0.359,0,0.618,0c0.257,0,0.473-0.008,0.648-0.028
					c0.18-0.017,0.367-0.054,0.56-0.104c0.191-0.049,0.327-0.115,0.408-0.203c0.218-0.229,0.448-0.574,0.688-1.037
					c0.238-0.464,0.392-0.806,0.461-1.023H182.441z"/>
				<path fill="#231815" d="M193.399,66.373h-2.753c-0.604-0.944-1.151-1.762-1.639-2.451c-0.486-0.689-1.016-1.398-1.587-2.132
					h-1.043v3.206c0,0.164,0.026,0.31,0.079,0.438c0.051,0.126,0.161,0.222,0.333,0.289c0.085,0.032,0.234,0.062,0.446,0.092
					c0.213,0.028,0.395,0.045,0.542,0.049v0.51h-4.267v-0.51c0.115-0.008,0.278-0.025,0.491-0.051
					c0.214-0.021,0.361-0.055,0.448-0.092c0.14-0.063,0.24-0.153,0.303-0.273c0.063-0.117,0.097-0.271,0.097-0.457v-7.347
					c0-0.166-0.023-0.313-0.072-0.444c-0.047-0.128-0.155-0.227-0.327-0.294c-0.119-0.042-0.271-0.082-0.459-0.115
					c-0.188-0.037-0.348-0.059-0.48-0.069v-0.509h4.688c0.429,0,0.832,0.043,1.208,0.133c0.376,0.087,0.717,0.23,1.024,0.427
					c0.293,0.19,0.529,0.442,0.707,0.749c0.176,0.307,0.267,0.68,0.267,1.117c0,0.392-0.061,0.736-0.182,1.037
					c-0.119,0.302-0.297,0.563-0.531,0.782c-0.217,0.206-0.476,0.385-0.776,0.536c-0.305,0.149-0.638,0.277-1,0.384
					c0.501,0.662,0.917,1.221,1.253,1.675c0.329,0.453,0.737,1.005,1.222,1.651c0.21,0.286,0.4,0.498,0.57,0.632
					c0.167,0.136,0.337,0.245,0.505,0.33c0.125,0.063,0.28,0.109,0.465,0.142c0.188,0.033,0.343,0.053,0.468,0.057V66.373z
					 M189.643,58.806c0-0.615-0.176-1.102-0.531-1.46c-0.357-0.36-0.858-0.54-1.509-0.54h-1.225v4.348h0.943
					c0.663,0,1.216-0.21,1.656-0.631C189.422,60.101,189.643,59.528,189.643,58.806z"/>
				<path fill="#231815" d="M200.11,61.724c0.214,0.239,0.374,0.501,0.477,0.785c0.102,0.285,0.151,0.617,0.151,0.996
					c0,0.9-0.331,1.642-0.993,2.227c-0.663,0.583-1.485,0.875-2.467,0.875c-0.452,0-0.907-0.075-1.359-0.228
					c-0.455-0.153-0.845-0.329-1.172-0.529l-0.309,0.523h-0.572l-0.106-3.479h0.573c0.119,0.433,0.259,0.821,0.42,1.171
					c0.16,0.348,0.372,0.673,0.635,0.974c0.25,0.284,0.541,0.512,0.874,0.679c0.332,0.169,0.72,0.252,1.158,0.252
					c0.331,0,0.62-0.043,0.866-0.13c0.249-0.085,0.446-0.206,0.601-0.364c0.153-0.157,0.267-0.344,0.341-0.556
					c0.075-0.212,0.111-0.459,0.111-0.736c0-0.406-0.113-0.785-0.344-1.139c-0.23-0.351-0.569-0.616-1.024-0.799
					c-0.307-0.123-0.666-0.26-1.064-0.41c-0.401-0.15-0.747-0.293-1.038-0.424c-0.573-0.259-1.02-0.597-1.335-1.015
					c-0.317-0.421-0.477-0.966-0.477-1.643c0-0.387,0.08-0.75,0.236-1.083c0.155-0.335,0.38-0.633,0.67-0.896
					c0.277-0.252,0.603-0.443,0.98-0.585c0.377-0.143,0.768-0.214,1.178-0.214c0.466,0,0.885,0.074,1.254,0.218
					c0.368,0.144,0.705,0.313,1.01,0.502l0.293-0.485h0.572l0.064,3.373h-0.573c-0.104-0.386-0.225-0.757-0.354-1.107
					c-0.13-0.352-0.302-0.671-0.512-0.957c-0.206-0.274-0.456-0.496-0.753-0.659c-0.295-0.164-0.661-0.248-1.089-0.248
					c-0.455,0-0.841,0.146-1.162,0.438s-0.479,0.647-0.479,1.066c0,0.438,0.101,0.804,0.307,1.091
					c0.206,0.289,0.501,0.526,0.894,0.712c0.348,0.168,0.69,0.313,1.026,0.435c0.335,0.121,0.66,0.254,0.976,0.395
					c0.284,0.124,0.56,0.262,0.824,0.42S199.916,61.512,200.11,61.724z"/>
				<path fill="#231815" d="M206.441,66.373h-4.582v-0.51c0.128-0.008,0.315-0.023,0.56-0.041c0.241-0.021,0.414-0.049,0.516-0.088
					c0.157-0.06,0.271-0.146,0.346-0.253c0.068-0.108,0.104-0.259,0.104-0.449v-7.359c0-0.166-0.026-0.306-0.076-0.418
					c-0.055-0.114-0.178-0.208-0.374-0.284c-0.144-0.058-0.323-0.109-0.542-0.159c-0.218-0.052-0.396-0.08-0.533-0.091v-0.509h4.582
					v0.509c-0.147,0.004-0.323,0.022-0.531,0.056c-0.204,0.029-0.384,0.067-0.537,0.117c-0.183,0.056-0.304,0.15-0.366,0.277
					c-0.063,0.131-0.093,0.271-0.093,0.431v7.353c0,0.16,0.034,0.297,0.104,0.419c0.07,0.124,0.188,0.219,0.355,0.29
					c0.103,0.04,0.262,0.08,0.492,0.126c0.225,0.045,0.416,0.07,0.576,0.074V66.373z"/>
				<path fill="#231815" d="M215.996,58.97h-0.491c-0.04-0.173-0.121-0.38-0.232-0.615c-0.11-0.237-0.24-0.461-0.377-0.671
					c-0.146-0.22-0.302-0.413-0.473-0.58c-0.17-0.165-0.336-0.26-0.493-0.284c-0.147-0.018-0.335-0.031-0.562-0.041
					c-0.225-0.008-0.435-0.015-0.624-0.015h-0.419v8.133c0,0.157,0.033,0.303,0.1,0.436c0.066,0.13,0.184,0.231,0.352,0.303
					c0.085,0.032,0.267,0.081,0.539,0.136c0.276,0.057,0.491,0.089,0.643,0.093v0.51h-4.794v-0.51
					c0.134-0.008,0.336-0.028,0.61-0.058c0.272-0.027,0.463-0.063,0.567-0.105c0.155-0.064,0.272-0.151,0.346-0.269
					c0.072-0.118,0.109-0.274,0.109-0.471v-8.197h-0.414c-0.147,0-0.332,0.004-0.55,0.01c-0.221,0.008-0.431,0.022-0.63,0.046
					c-0.158,0.021-0.321,0.114-0.491,0.284c-0.168,0.171-0.325,0.363-0.469,0.58c-0.144,0.215-0.269,0.444-0.378,0.685
					c-0.109,0.243-0.186,0.443-0.229,0.602h-0.509v-2.758h8.868V58.97z"/>
				<path fill="#231815" d="M226.371,56.721c-0.081,0.004-0.21,0.037-0.386,0.097c-0.178,0.059-0.303,0.117-0.38,0.175
					c-0.186,0.113-0.313,0.204-0.378,0.266c-0.068,0.061-0.198,0.224-0.39,0.487c-0.37,0.523-0.713,1.059-1.03,1.597
					c-0.315,0.538-0.707,1.225-1.18,2.056c-0.176,0.305-0.293,0.55-0.352,0.737c-0.057,0.185-0.085,0.454-0.085,0.809v1.939
					c0,0.172,0.034,0.321,0.104,0.449c0.068,0.126,0.186,0.228,0.354,0.303c0.099,0.04,0.278,0.083,0.535,0.14
					c0.254,0.054,0.465,0.085,0.62,0.089v0.51h-4.751v-0.51c0.131-0.008,0.333-0.026,0.602-0.052
					c0.267-0.027,0.452-0.062,0.56-0.104c0.17-0.073,0.289-0.169,0.354-0.295c0.064-0.124,0.097-0.278,0.097-0.459v-2.47
					c0-0.075-0.046-0.218-0.139-0.418c-0.094-0.205-0.204-0.429-0.332-0.676c-0.286-0.556-0.605-1.154-0.953-1.8
					s-0.648-1.193-0.905-1.653c-0.159-0.271-0.299-0.476-0.42-0.615c-0.121-0.139-0.261-0.261-0.418-0.366
					c-0.113-0.07-0.251-0.124-0.412-0.165c-0.157-0.038-0.303-0.06-0.431-0.07v-0.509h4.333v0.509
					c-0.484,0.011-0.83,0.043-1.03,0.099c-0.201,0.059-0.301,0.139-0.301,0.246c0,0.028,0.015,0.077,0.043,0.149
					c0.028,0.071,0.07,0.162,0.121,0.271c0.063,0.123,0.135,0.267,0.218,0.426c0.087,0.162,0.168,0.313,0.244,0.463
					c0.223,0.424,0.447,0.848,0.682,1.271c0.231,0.421,0.533,0.971,0.908,1.648c0.754-1.209,1.327-2.152,1.722-2.828
					c0.394-0.675,0.592-1.081,0.592-1.212c0-0.111-0.038-0.197-0.121-0.265c-0.079-0.065-0.187-0.117-0.321-0.155
					c-0.14-0.039-0.289-0.063-0.45-0.075c-0.164-0.011-0.312-0.025-0.451-0.039v-0.509h3.529V56.721z"/>
			</g>
		</g>
		<g>
			<g>
				<path fill="#9A0000" d="M110.492,35.759c-0.29,0.03-0.582,0.059-0.873,0.087c-0.811,0.242-1.694,0.57-2.619,0.875
					c-0.945,0.31-2.308,0.827-3.315,0.086c-0.069-0.089-0.032-0.023-0.087-0.175c0.902-0.964,0.882-1.539,2.269-2.181
					c0.021-0.955,0.392-2.091-0.086-2.707c0.101-1.432,1.788-0.736,3.054-1.047c0.775-0.188,1.723-0.474,2.357-0.871
					c0.742-0.468,1.494-1.49,1.832-2.357c0.139-0.356-0.022-1.083,0.176-1.396c0-0.233,0-0.466,0-0.699
					c-0.067-0.131-2.229-0.842-2.533-1.046c-0.222-0.15-0.777-0.614-0.873-0.872c-0.084-0.231,0.016-0.461-0.086-0.613
					c-0.105-0.218-0.198-0.198-0.35-0.35c-0.436,0.041-0.563,0.188-0.755,0.361c-0.059,0.054-0.168,0.096-0.204,0.164
					c-0.038,0.067,0,0.146,0,0.221c0,0.711,0,1.423,0,2.134c-0.211,0.468-1.157,0.744-1.57,1.046
					c-0.351,0.38-0.699,0.757-1.048,1.136c-0.52-0.045-0.56-0.226-0.872-0.437c-0.756-3.531-1.083-6.474-3.492-8.29
					c-0.579-0.438-1.025-1.308-1.744-1.571c-0.256,0.699-0.586,1.424-0.782,2.131c-0.046,0.166,0.021,0.308-0.022,0.475
					c-0.428,1.62-0.766,3.271-1.203,4.985c-0.104,0.405-0.603,2.606-0.523,2.968c0.377,1.741,0.864,3.956,1.308,5.585
					c0.208,0.76,0.047,1.308,0.263,2.007c0.393,1.269,1.517,4.54,2.443,5.149c1.041,0.685,2.752,1.007,4.102,0.436
					c0.412-0.176,0.773-0.766,1.047-0.873c0.437,0,0.873,0,1.31,0c1.28-0.349,2.562-0.696,3.841-1.046
					c0.458-0.189,1.593-0.803,1.918-1.136c0.464-0.471,0.498-1.402,1.049-1.919c0.012-0.627-0.053-0.886-0.263-1.222
					C112.543,34.838,111.602,35.343,110.492,35.759z"/>
				<path fill="#9A0000" d="M91.207,24.329c-0.01-1.166,0.022-2.494-0.176-3.405c-0.165-0.755,0.18-1.727-0.086-2.355
					c-0.803-1.886-4.223-3.561-6.11-4.539c-0.727-0.377-0.733-1.104-1.746-1.31c-0.228-0.044-0.702,0.463-0.698,0.612
					c-0.047,1.206,0.866,1.673,1.484,2.442c0.376,0.468,0.602,1.008,0.96,1.484c0.562,0.743,1.503,1.39,1.833,2.355
					c0.533,1.559,0.551,5.492,0.174,7.244c0,0.583,0,1.163,0,1.745c-0.059,0.67-0.115,1.338-0.174,2.009
					c-0.49-0.184-0.808-0.668-1.31-0.874c-0.379-0.057-0.757-0.117-1.134-0.173c-0.352-0.218-0.581-0.624-1.047-0.787
					c-0.526-0.184-1.012,0.022-1.572-0.175c-0.605-0.211-0.794-0.697-1.744-0.697c-0.191,0.027-0.557,0.318-0.525,0.436
					c0.129,0.74,0.748,1.106,0.961,1.746c0,0.232,0,0.465,0,0.697c0.141,0.551,0.301,1.306,0.436,1.921
					c0.221,0.998-0.422,1.569-0.61,2.182c-0.769,2.498-1.215,5.018-3.169,6.312c-0.075,0.05-0.131,0.101-0.182,0.19
					c-0.045,0.076-0.057,0.292-0.059,0.34c-0.05,1.438-0.269,4.237,1.053,4.678c0.047,0.035,0.131,0.087,0.131,0.087
					c0.138,0.063,1.314,0.057,1.527,0c0.469-0.24,1.311-1.456,1.831-1.832c0.788-0.563,1.648-0.932,2.445-1.485
					c0.146-0.172,0.292-0.347,0.437-0.522c0.801-0.596,1.58-1.215,2.268-1.921c0.09-0.043,0.21-0.056,0.264,0
					c0.065,0.291,0.188,0.948,0,1.224c-0.018,1.5-0.178,2.572,0.436,3.489c0.34,0.012,0.846,0.049,1.046-0.086
					c0.687-0.256,1.021-1.409,1.311-2.096c0.747-1.763,0.925-3.84,1.396-5.933c0.03-0.727,0.058-1.455,0.089-2.182
					c0.429-1.964,0.347-4.375,0.347-6.633c0.03-0.901,0.06-1.804,0.087-2.706C91.29,25.383,91.209,24.851,91.207,24.329z
					 M86.668,36.982c0,0.377,0,0.756,0,1.134c-0.164,0.36-0.974,0.648-1.31,0.872c-0.292,0.198-0.629,0.552-0.96,0.699
					c-0.615,0.272-1.133,0.284-1.658,0.611c-0.475,0.296-1.004,0.737-1.485,1.046c-0.356,0.231-1.605,0.732-2.181,0.351
					c-0.086-0.031-0.174-0.059-0.261-0.088c0.063-0.938,0.742-1.368,1.134-2.008c0.766-1.25,1.767-2.279,2.531-3.489
					c0.059-0.205,0.117-0.408,0.174-0.612c0.281-0.429,0.846-0.786,1.048-1.308c1.529,0.031,2.337-0.74,2.618-1.921
					c0.226,0.018,0.296,0.04,0.437,0.087c0.021,0.976,0.032,2.104,0,3.055C86.74,35.88,86.865,36.668,86.668,36.982z"/>
			</g>
			<g>
				<path fill="#9A0000" d="M202.823,20.575c0.279,0.375,0.778,0.667,1.049,1.047c0.915,1.278,1.153,3.915,1.658,5.586
					c1.567-0.016,2.234-1.375,2.968-2.269c-0.005-2.166-2.221-5.493-3.493-6.37c-0.733-0.507-1.607-0.726-2.355-1.223
					c-0.788-0.522-1.222-1.274-2.182-1.658c-0.131-0.04-0.418,0.264-0.437,0.349c0,0.465,0,0.93,0,1.397
					c0.319,0.262,0.641,0.524,0.96,0.784C201.611,19.042,202.213,19.755,202.823,20.575z"/>
				<path fill="#9A0000" d="M221.501,23.02c1.355-1.756,3.169-3.376,4.014-5.585c0.24-0.632,1.293-2.171,0.612-3.055
					c-0.301-0.45-1.146-0.181-1.748-0.349c-0.271-0.075-0.468-0.369-0.696-0.437c-0.4-0.122-0.811,0.187-1.049,0.262
					c-1.101,0.352-2.048,0.463-3.054,0.872c-0.447,0.182-1.722,0.953-2.269,0.612c-0.087-0.028-0.176-0.058-0.263-0.086
					c0.095-1.677,1.272-2.664,1.834-4.014c0.161-0.392,0.66-1.434,0.348-1.92c-0.049-0.782-0.858-1.321-1.31-1.746
					c-0.144-0.119-0.798,0.1-0.785,0.35c0.032,2.221-0.901,4.628-2.18,5.497c-0.41,0.276-0.764,0.156-1.31,0.35
					c-0.864,0.301-1.777,1.177-2.791,0.435c-0.523,0.001-0.59,0.084-0.875,0.262c0.093,0.87,0.605,1.598,1.309,1.832
					c0.178,0.098,0.803,0.011,1.223,0c-0.017,0.682-0.554,1.271-0.96,1.571c0,0.292,0.024,0.519,0.087,0.7
					c0.941,0.175,1.119-0.317,2.008-0.351c-0.146,0.992-0.943,1.46-1.397,2.182c-0.594,0.12-1.461,0.203-2.006,0.262
					c-0.049,0.004-0.093,0.068-0.087,0.088c0.014,0.664,0.267,0.897,0.699,1.135c-0.238,0.911-0.977,1.546-1.487,2.27
					c-0.198,0.282-0.781,0.669-0.437,1.221c0.117,0.204,0.267,0.217,0.525,0.261c0.879-0.845,2.372-1.242,2.792-2.529
					c1.386,0.087,1.384,0.421,2.182,0.96c-0.043,0.495-0.267,0.996-0.523,1.308c-0.004,0.333,0.013,0.659,0.089,0.873
					c1.04-0.048,2.602-1.421,3.315-0.961c0.059,0,0.117,0,0.173,0c-0.125,0.589-0.783,0.605-1.22,0.873
					c-0.927,0.576-2.034,0.947-3.057,1.485c-1.381,0.725-2.91,1.543-4.188,2.356c-0.377,0.116-0.757,0.23-1.135,0.348
					c-2.079,1.232-4.048,2.752-6.195,3.928c-0.057,0.151-0.019,0.085-0.087,0.175c0.004,0.269,0.03,0.447,0.087,0.61
					c2.658,0.555,4.783-0.671,6.632-1.396c2.492-0.976,4.854-2.599,6.895-4.101c0.662-0.489,1.143-1.298,1.832-1.746
					c0.539-0.349,1.012-0.489,1.484-0.874c0.144,0,0.291,0,0.437,0c-0.151,0.534-0.531,0.744-0.786,1.135
					c-0.089,0.233-0.174,0.466-0.263,0.698c-0.464,0.438-0.931,0.874-1.396,1.309c-0.223,0.293-0.412,0.741-0.699,0.96
					c-0.701,0.539-1.473,1.052-2.006,1.745c-0.072,0.121,0.049,0.59,0.087,0.873c1.392-0.112,2.206-1.016,3.229-1.483
					c0.63-0.289,1.314-0.347,1.921-0.698c0.404-0.236,0.61-0.701,0.959-0.96c1.699-1.261,3.234-2.243,2.881-5.323
					c-0.43-0.153-1.057-0.179-1.396-0.437c-0.612,0-1.225,0-1.834,0C219.957,23.747,220.951,23.73,221.501,23.02z M218.707,21.885
					c-0.335,0.447-0.59,0.987-0.871,1.484c-0.228-0.02-0.299-0.041-0.438-0.088c-0.255-1.284-0.352-2.27-0.786-3.23
					c-0.305-0.058-0.461-0.103-0.697,0.088c-0.515,0.431-0.144,1.574-0.785,2.094c-0.253,0.261-0.917-0.72-1.134-0.873
					c0.16-1.863,1.955-3.261,2.879-4.451c1.679,0.034,2.883,0.865,4.45,0.959C221.278,19.934,219.62,20.669,218.707,21.885z"/>
				<path fill="#9A0000" d="M200.031,29.914c0.227,0.516,0.78,1.098,0.96,1.659c0.365,0.069,0.548,0.031,0.96,0
					c0.674-0.703,1.095-1.334,1.311-2.536c0.184-1.03-1.925-3.6-2.62-3.836c-0.172-0.117-0.569-0.099-0.873-0.087
					c-0.133,0.594,0.198,2.411,0.263,3.054C200.031,28.749,200.031,29.332,200.031,29.914z"/>
				<path fill="#9A0000" d="M215.303,34.975c-0.672,0.877-3.447,0.827-4.625,1.311c-1.612,0.659-3.334,1.208-4.974,1.918
					c-1.089,0.474-2.223,1.126-3.315,1.571c-0.293,0.059-0.581,0.116-0.874,0.176c-0.467,0.193-0.976,0.687-1.396,0.871
					c-0.405,0.029-0.813,0.058-1.22,0.086c-0.437,0.201-0.658,0.627-0.962,0.962c0.026,1.563,0.835,2.011,1.223,2.894
					c0.076,0.178-0.009,0.358,0.176,0.598c0.133,0.143,0.531,0.299,0.783,0.348c0.618,0.128,1.497-0.428,1.919-0.609
					c1.637-0.706,2.849-1.908,4.277-2.792c0.513-0.318,1.292-0.694,1.832-0.875c0.632-0.211,1.099-0.027,1.66-0.262
					c1.012-0.423,0.586-1.108,2.093-0.609c0.063,0.234,0.21,0.424,0.263,0.609c0.17,0.609-0.2,1.354-0.087,1.835
					c0.121,0.517,0.289,0.627,0.263,1.309c-0.206,0.219-0.283,0.604-0.523,0.785c-0.745,0.559-1.955,0.781-2.97,1.046
					c-0.692,0.181-1.557-0.296-2.093,0.088c-0.059,0-0.117,0-0.176,0c0.019,0.299,0.043,0.446,0.176,0.611
					c0.257,0.792,0.746,0.523,1.57,0.785c0.806,0.259,1.668,1.399,3.056,0.61c0.291-0.167,0.398-0.586,0.784-0.697
					c0.683-0.197,1.309,0.124,1.745-0.262c0.412-0.206,0.487-0.728,0.697-1.136c0.188-0.357,0.499-0.901,0.612-1.309
					c0.163-0.597-0.156-1.14-0.261-1.483c-0.059-0.348-0.117-0.698-0.176-1.046c-0.329-0.81-0.854-1.254-0.873-2.444
					c-0.01-0.138,0.144-0.303,0.261-0.35c0.976-0.236,1.934-0.461,3.23-0.436c0.418-0.423,0.987-0.706,1.309-1.221
					c0.21-0.336,0.212-0.812,0.437-1.135c-0.002-0.839-0.297-0.923-0.61-1.396C217.272,35.305,216.509,34.965,215.303,34.975z"/>
			</g>
			<g>
				<path fill="#9A0000" d="M183.712,23.979c0.248-0.375,0.252-0.702,0.611-0.959c0.271-0.188-0.082-1.162-0.262-1.224
					c-3.265-0.734-3.548,1.673-5.238,2.968c-0.771,0.595-1.648,0.977-2.44,1.571c-0.059,0-0.117,0-0.176,0
					c-0.317-1.742-0.087-4.033-0.087-5.935c0-0.756,0-1.512,0-2.268c0.063-0.157,0.359-0.354,0.437-0.524
					c0.301-0.692,0.168-1.8-0.174-2.355c-0.473-0.765-1.458-0.967-2.184-1.483c-0.382-0.273-0.671-0.768-1.133-0.96
					c-0.716-0.297-1.493-0.014-2.096-0.437c-0.39,0.06-0.521,0.193-0.785,0.349c-0.768,2.007,1.119,4.831,1.658,6.285
					c0.467,1.257,0.485,5.181,0.176,6.63c-0.236,1.095,0.147,2.73-0.438,3.492c-0.331,0.457-3.189,1.423-3.929,1.746
					c-0.612,0.268-1.331,0.647-2.006,0.872c-0.748,0.251-1.463,0.318-2.093,0.7c-0.972,0.583-2.521,1.642-3.58,2.006
					c-0.318,0.03-0.638,0.059-0.959,0.087c-0.446,0.143-1.021,0.398-1.483,0.523c-0.264,0.072-0.624,0.107-0.698,0.087
					c-0.317-0.305-0.724-0.768-0.96-1.135c-0.125-0.163-0.271-0.26-0.371-0.19c-0.061,0-0.138,0.082-0.154,0.279
					c-0.074,2.713-0.271,3.284,0.962,5.148c2.547,0.536,4.373-0.711,6.02-1.832c0.731-0.498,1.442-0.798,2.184-1.309
					c0.554-0.383,0.974-1.063,1.572-1.398c0.261-0.059,0.521-0.114,0.783-0.173c1.144-0.453,2.323-1.142,3.841-1.223
					c-0.013,2.882-2.481,5.824-4.274,6.983c-0.271,0.174-0.562,0.381-0.881,0.518c-0.348,0.147-0.665,0.303-0.954,0.442
					c-0.232,0.028-0.464,0.059-0.696,0.086c-0.427,0.21-1,0.577-1.398,0.873c-0.586,0.436-0.507,0.855-0.872,1.397
					c0,0.058,0,0.116,0,0.173c4.658-0.03,7.54-2.065,10.122-4.188c0.972-0.795,2.17-1.496,2.707-2.707
					c0.646-1.454,0.881-3.238,1.309-4.798c0.089-0.611,0.174-1.222,0.261-1.833c0.257-0.457,1.533-1.139,2.008-1.484
					c0.459-0.333,0.847-0.882,1.31-1.221c0.933-0.689,1.866-1.312,2.791-2.009C182.637,25.176,183.368,24.501,183.712,23.979z"/>
				<path fill="#9A0000" d="M183.888,37.157c-0.861-0.673-1.223-1.672-2.796-1.659c-0.079,0.079-0.147,0.119-0.261,0.175
					c-0.047,2.058,0.227,2.345,0.786,3.84c0.059,0.262,0.115,0.522,0.176,0.786c0.208,0.401,1.02,1.325,0.522,2.093
					c0.098,0.799,1.437,1.089,2.355,0.785c0.986-0.322,2.008-1.004,2.618-1.745C187.279,39.174,185.198,38.184,183.888,37.157z"/>
			</g>
			<g>
				<path fill="#9A0000" d="M134.578,10.103c0.117,0.088,0.234,0.175,0.35,0.262c0.321,0.462,0.705,1.221,0.872,1.747
					c0.355,1.102,0.453,2.95-0.35,3.491c-0.121,0.066-0.02,0.88,0.263,0.872c1.388-0.17,2.784-1.144,3.317-2.182
					c2.41,0.067,3.745-0.63,3.577-3.054c-0.232-0.249-0.341-0.667-0.612-0.874c-0.717-0.546-1.531-1.095-2.266-1.571
					c-0.346-0.223-0.782-0.221-1.136-0.436c-1.234-0.754-2.238-1.525-4.278-1.484c-1.008,1.194-0.384,1.169,0.089,2.182
					C134.463,9.405,134.521,9.752,134.578,10.103z"/>
				<path fill="#9A0000" d="M132.659,26.074c0.656,0.167,2.18-0.169,2.706-0.35c1.463-0.5,3.006-3.087,4.275-4.016
					c0.844-0.617,1.802-1.527,2.791-1.919c0.38-0.058,0.758-0.116,1.138-0.174c0.378-0.407,0.755-0.814,1.133-1.222
					c-0.028-0.5-0.142-0.883-0.35-0.873c-0.347,0-0.696,0-1.046,0c-0.452,0.295-1.295,0.186-1.832,0.349
					c-0.994,0.305-2.032,0.757-2.968,1.05c-0.263,0.026-0.525,0.055-0.786,0.086c-2.887,1.084-5.895,2.33-8.64,3.489
					c-0.184,0.432-0.567,1.093-0.176,1.573C129.211,24.934,131.661,25.818,132.659,26.074z"/>
				<path fill="#9A0000" d="M141.386,33.84c-1.071,0.003-2.024-0.221-2.966,0.088c-0.448,0.146-0.654,0.514-1.135,0.611
					c0.093-0.566,1.195-1.246,1.571-1.659c0.301-0.335,0.6-0.776,0.959-1.047c0.304-0.228,0.729-0.401,0.96-0.698
					c0.155-0.201,0.246-0.542,0.437-0.698c0.146-0.03,0.291-0.058,0.437-0.088c0.222-0.203,0.276-0.601,0.522-0.784
					c0.735-0.548,1.438-0.674,1.922-1.485c0.095-0.171-0.083-0.535-0.263-0.698c-0.578-0.46-3.431-0.836-4.452-0.523
					c-0.514,0.158-1.238,0.467-1.657,0.786c-0.146,0.202-0.29,0.406-0.436,0.61c-0.437,0.058-0.873,0.116-1.31,0.175
					c-0.527,0.318-0.972,0.947-1.482,1.308c-1.057,0.742-2.182,1.367-3.317,2.007c-0.492,0.286-1.07-0.896-1.397-1.133
					c-0.214-0.155-0.499-0.184-0.697-0.35c-0.202,0.02-0.246,0.017-0.35,0.086c-0.201,0.066-0.195,0.09-0.349,0.175
					c-0.039,0.619,0.24,1.364,0.087,2.008c-0.342,1.438-0.977,4.079-0.437,5.759c0.087,0.272,0.41,0.607,0.522,0.872
					c0.144,0.327,0.085,0.646,0.263,0.96c0.251,0.444,0.851,0.59,1.049,1.136c0.762-0.15,2.083-2.558,2.675-3.49
					c0.002-0.005,0.002-0.008,0.006-0.012c0.127-0.221,0.109-0.365,0.109-0.518v-0.025h0.002c0-0.717,0-1.435,0-2.152
					c0.286-0.073,0.872-0.181,1.135-0.35c0.416,0.001,0.552,0.049,0.784,0.176c-0.026,0.271-0.996,2.643-1.134,2.794
					c0.067,0.606,0.465,0.818,0.96,0.959c-0.151,1.192-1.479,1.449-2.269,2.006c-0.939,0.662-1.976,1.396-2.968,2.008
					c-0.392,0.243-0.832,0.28-1.222,0.522c-0.238,0.152-0.457,0.468-0.697,0.611c-0.412,0.249-0.849,0.26-1.224,0.525
					c-0.187,0.131-0.263,0.447-0.521,0.522c-0.361,0.104-0.65-0.213-0.875-0.261c-0.541-0.121-0.917,0.254-1.309,0.35
					c-0.105,2.149,0.834,4.341,3.229,4.362c1.2-1.271,2.51-2.337,3.58-3.753c0.378-0.318,0.755-0.639,1.133-0.959
					c0.257-0.38,0.323-0.72,0.612-1.049c0.105-0.12,0.297-0.075,0.435-0.174c0.321-0.348,0.641-0.698,0.959-1.046
					c0.295-0.214,0.574-0.229,0.786-0.525c0.18,0.035,0.17,0.023,0.261,0.088c0.229,0.306,0.22,0.817,0.438,1.136
					c0.016,0.777,0.074,1.672-0.438,1.92c-0.261,0.057-0.521,0.116-0.786,0.174c-0.216,0.161-0.289,0.525-0.521,0.697
					c0,0.175,0,0.349,0,0.525c0.061,0.119,1.596,0.623,1.83,0.784c0.186,0.126,0.541,0.566,0.611,0.785c0,0.263,0,0.524,0,0.786
					c0.107,0.237,0.536,0.534,0.699,0.785c0.281,0.063,0.871,0.182,1.136,0c0.087-0.029,0.174-0.059,0.26-0.087
					c-0.04-2.674-0.203-5.126-0.959-7.157c-0.257-0.69-1.218-1.96-0.61-2.88c0-1.294,0.891-0.929,1.656-1.396
					c1.069-0.647,2.225-1.271,3.23-2.006c0.39-0.286,0.556-0.774,0.873-1.135C141.668,34.379,141.49,34.195,141.386,33.84z"/>
				<path fill="#9A0000" d="M146.447,39.688c-0.912-1.251-1.88-2.402-4.101-2.356c-0.159,0.107-0.501,0.099-0.785,0.087
					c-0.438,1.809-0.384,3.266,0.522,4.624c0.234,0.204,0.465,0.407,0.699,0.611c0.514,0.766,0.804,1.517,1.745,1.834
					c0.952,0.615,2.081-0.579,2.529-0.873c0.13-0.51,0.556-2.16,0.261-2.619C147.278,40.264,146.769,40.129,146.447,39.688z"/>
			</g>
		</g>
	</g>
</g>
</svg>
