<?xml version="1.0" encoding="utf-8"?>
<!-- Generator: Adobe Illustrator 16.0.0, SVG Export Plug-In . SVG Version: 6.00 Build 0)  -->
<!DOCTYPE svg PUBLIC "-//W3C//DTD SVG 1.1//EN" "http://www.w3.org/Graphics/SVG/1.1/DTD/svg11.dtd">
<svg version="1.1" id="图层_1" xmlns="http://www.w3.org/2000/svg" xmlns:xlink="http://www.w3.org/1999/xlink" x="0px" y="0px"
	 width="457px" height="333.995px" viewBox="0 0 457 333.995" enable-background="new 0 0 457 333.995" xml:space="preserve">
<rect x="480.668" y="-21.584" opacity="0.1" fill="none" width="37.999" height="76.079"/>
<path opacity="0.1" fill="#FFFFFF" d="M105.667,333.995h143.608c28.347-20.667,28.367-44.556,28.367-44.556
	s7.845,3.922,49.716-2.607c41.865-6.544,73.153-16.448,90.608-55.948c20.36-46.094-25.342-77.398-31.747-74.477
	c-12.468,5.726,9.877,30.662-12.468,53.029c-19.58,19.558-54.056,10.914-64.978-1.045c-19.339-21.2-14.024-49.897-1.044-70.702
	c11.618-18.595,41.701-38.551,69.654-37.928c36.707,0.794,54.628,26.161,54.628,26.161s9.82-6.932,23.861,1.38
	c14.768,8.749,15.383,15.941,15.073,15.582c0,0-31.186,19.248-31.71,46.789c-0.616,32.641,22.87,62.891,22.87,62.891
	c0,0.518-20.72,36.172-74.753,67.405c-8.503,4.914-18.011,9.675-28.291,14.024H471V0H0.979v441.235h104.688V333.995z
	 M341.516,234.889c21.308,0.595,40.664-6.367,50.423-23.914c11.135-19.99-2.654-41.587,5.201-38.97
	c7.851,2.617,24.68,37.109,8.973,60.662c-15.699,23.552-31.383,32.712-68.02,39.257c-36.623,6.538-52.698,4.554-52.698,4.554
	s4.657-20.88-0.529-42.626c-5.189-21.833-37.938-46.26-37.938-46.26s4.859-0.482,16.632-5.72
	c11.777-5.232,18.188-12.987,18.188-12.987s-0.952,27.226,10.407,43.654C303.499,228.988,322.813,234.366,341.516,234.889z
	 M117.503,74.801c20.948-33.315,47.603-32.807,47.603-32.807s26.32-43.472,78.247-41.954c49.073,1.441,76.038,43.797,76.038,43.797
	s20.248-2.752,41.187,13.993c14.495,11.596,20.926,30.132,20.926,30.132s-18.83-0.46-38.457,6.087
	c-19.616,6.544-31.39,20.938-31.39,20.938s-4.248-21.436-12.263-31.769c-9.792-12.614-25.771-29.682-61.633-30.208
	c-45.794-0.653-66.845,39.659-56.372,68.45c10.471,28.789,55.131,29.939,66.576,24.609c11.585-5.377,2.434-12.227-5.453-10.365
	c-17.209,4.045-51.197-6.843-48.598-39.072c3.297-40.971,55.902-36.344,74.324-25.463c6.539,3.874,22.776,10.991,30.669,30.675
	c6.71,16.749,0.434,47.078-24.948,59.755c-54.061,27.037-88.359-7.262-88.359-7.262s-30.271,2.74-51.461-9.883
	C109.711,129.903,106.063,92.992,117.503,74.801z M169.289,269.168c21.211,10.308,37.634,3.398,38.137,10.413
	c0.509,7.288-33.545,15.347-59.562,3.666c-28.179-12.635-54.388-39.101-46.533-69.188c7.84-30.084,31.105-56.743,31.105-56.743
	s5.678,5.801,22.759,8.375c14.18,2.14,23.646,2.157,23.646,2.157l26.515,14.543c0,0-51.498,4.902-60.814,32.229
	C138.671,231.82,147.864,258.766,169.289,269.168z M1.011,210.376c1.841-54.5,46.386-66.143,46.386-66.143
	s1.872-23.204,22.803-33.663c20.933-10.456,33.455-9.514,33.455-9.514s-1.242,18.383,3.98,29.875
	c5.223,11.499,13.896,21.292,13.896,21.292s-47.618,42.909-30.617,89.998c17.01,47.11,57.261,65.432,93.128,62.327
	c34.771-3.043,41.872-30.37,35.333-36.92c-6.528-6.534-61.879,4.741-60.285-37.934c1.104-29.729,28.393-39.769,54.377-37.682
	c24.914,1.98,49.053,17.417,57.375,48.079c6.002,22.148,1.764,45.478-23.396,69.649c-26.508,25.464-62.992,25.657-89.918,22.869
	c-64.966-6.759-90.506-57.567-90.506-57.567S-0.669,260.415,1.011,210.376z"/>
</svg>
