<?xml version="1.0" encoding="utf-8"?>
<!-- Generator: Adobe Illustrator 16.0.0, SVG Export Plug-In . SVG Version: 6.00 Build 0)  -->
<!DOCTYPE svg PUBLIC "-//W3C//DTD SVG 1.1//EN" "http://www.w3.org/Graphics/SVG/1.1/DTD/svg11.dtd">
<svg version="1.1" id="图层_1" xmlns="http://www.w3.org/2000/svg" xmlns:xlink="http://www.w3.org/1999/xlink" x="0px" y="0px"
	 width="457px" height="260px" viewBox="0 0 457 260" enable-background="new 0 0 457 260" xml:space="preserve">
<rect x="480.668" y="-95.579" fill="none" width="37.999" height="76.079"/>
<g opacity="0.1">
	<path fill="none" d="M199.874,38.116c11.527,31.688,60.691,32.956,73.286,27.094c12.752-5.925,2.679-13.464-6.002-11.415
		c-18.95,4.453-56.363-7.533-53.496-43.011c0.32-3.978,1.07-7.558,2.171-10.785h-14.61
		C196.119,12.447,195.535,26.181,199.874,38.116z"/>
	<path fill="#FFFFFF" d="M213.662,10.785c-2.867,35.478,34.546,47.463,53.496,43.011c8.681-2.05,18.754,5.49,6.002,11.415
		c-12.595,5.861-61.759,4.594-73.286-27.094c-4.339-11.935-3.755-25.668,1.35-38.116h-76.979
		c-4.945,21.249,1.814,50.436,23.62,63.432c23.325,13.889,56.652,10.873,56.652,10.873s37.75,37.756,97.257,8
		c27.937-13.96,34.847-47.346,27.461-65.782C326.529,9.777,322.933,4.374,319.047,0H215.833
		C214.732,3.227,213.982,6.807,213.662,10.785z"/>
	<path fill="#FFFFFF" d="M343.271,30.988c0,0,12.957-15.844,34.552-23.042c21.604-7.209,42.332-6.703,42.332-6.703
		S419.997,0.792,419.686,0h-87.262C339.526,12.12,343.271,30.988,343.271,30.988z"/>
	<path fill="#FFFFFF" d="M162.967,216.204c28.638,12.857,66.134,3.987,65.569-4.036c-0.555-7.722-18.631-0.116-41.979-11.46
		c-23.589-11.452-33.703-41.114-27.242-60.046c10.249-30.086,66.941-35.476,66.941-35.476l-29.185-16.003
		c0,0-10.425-0.024-26.022-2.379c-18.802-2.839-25.057-9.218-25.057-9.218s-25.611,29.344-34.246,62.452
		C103.105,173.165,131.955,202.298,162.967,216.204z"/>
	<path fill="none" d="M162.967,216.204c28.638,12.857,66.134,3.987,65.569-4.036c-0.555-7.722-18.631-0.116-41.979-11.46
		c-23.589-11.452-33.703-41.114-27.242-60.046c10.249-30.086,66.941-35.476,66.941-35.476l-29.185-16.003
		c0,0-10.425-0.024-26.022-2.379c-18.802-2.839-25.057-9.218-25.057-9.218s-25.611,29.344-34.246,62.452
		C103.105,173.165,131.955,202.298,162.967,216.204z"/>
	<path fill="#FFFFFF" d="M338.946,55.974c-14.289,22.901-20.139,54.496,1.148,77.833c12.021,13.159,49.973,22.677,71.524,1.143
		c24.597-24.621,0-52.069,13.725-58.359c3.886-1.779,20.907,7.896,31.656,25.43V26.4c-9.852-6.169-23.615-11.783-41.382-12.169
		C384.848,13.542,351.733,35.512,338.946,55.974z"/>
	<path fill="#FFFFFF" d="M313.778,161.833c5.708,23.936,0.583,46.921,0.583,46.921s17.693,2.184,58.007-5.014
		c40.329-7.204,57.593-17.287,74.875-43.21c17.287-25.923-1.236-63.902-9.879-66.776c-8.646-2.886,6.534,20.893-5.726,42.892
		c-10.742,19.32-32.048,26.984-55.502,26.329c-20.585-0.576-41.849-6.497-54.336-24.599c-12.505-18.093-11.457-48.056-11.457-48.056
		s-7.057,8.534-20.021,14.295c-12.958,5.766-18.306,6.297-18.306,6.297S308.063,137.8,313.778,161.833z"/>
	<path fill="none" d="M162.967,216.204c28.638,12.857,66.134,3.987,65.569-4.036c-0.555-7.722-18.631-0.116-41.979-11.46
		c-23.589-11.452-33.703-41.114-27.242-60.046c10.249-30.086,66.941-35.476,66.941-35.476l-29.185-16.003
		c0,0-10.425-0.024-26.022-2.379c-18.802-2.839-25.057-9.218-25.057-9.218s-25.611,29.344-34.246,62.452
		C103.105,173.165,131.955,202.298,162.967,216.204z"/>
	<path fill="none" d="M313.778,161.833c5.708,23.936,0.583,46.921,0.583,46.921s17.693,2.184,58.007-5.014
		c40.329-7.204,57.593-17.287,74.875-43.21c17.287-25.923-1.236-63.902-9.879-66.776c-8.646-2.886,6.534,20.893-5.726,42.892
		c-10.742,19.32-32.048,26.984-55.502,26.329c-20.585-0.576-41.849-6.497-54.336-24.599c-12.505-18.093-11.457-48.056-11.457-48.056
		s-7.057,8.534-20.021,14.295c-12.958,5.766-18.306,6.297-18.306,6.297S308.063,137.8,313.778,161.833z"/>
	<path fill="#FFFFFF" d="M298.34,168.7c-9.159-33.751-35.729-50.744-63.159-52.929c-28.598-2.297-58.631,8.753-59.856,41.484
		c-1.756,46.975,59.178,34.563,66.37,41.755c7.191,7.209-0.625,37.29-38.898,40.642c-39.487,3.417-83.793-16.751-102.512-68.608
		c-18.716-51.833,33.704-99.066,33.704-99.066s-9.547-10.785-15.296-23.437c-5.743-12.653-4.389-32.886-4.389-32.886
		s-13.777-1.036-36.819,10.474c-23.04,11.515-25.101,37.054-25.101,37.054S3.35,76.001,1.324,135.993
		c-1.85,55.078,72.663,71.181,72.663,71.181s17.294,34.395,59.25,52.826h118.901c7.191-3.723,14.083-8.515,20.451-14.634
		C300.284,218.76,304.948,193.08,298.34,168.7z"/>
	<path fill="none" d="M133.237,260c-41.956-18.432-59.25-52.826-59.25-52.826s-74.513-16.103-72.663-71.181
		c2.026-59.992,51.059-72.81,51.059-72.81s2.062-25.539,25.101-37.054c23.042-11.509,36.819-10.474,36.819-10.474
		s-1.354,20.233,4.389,32.886c5.749,12.652,15.296,23.437,15.296,23.437s-52.419,47.233-33.704,99.066
		c18.719,51.857,63.025,72.025,102.512,68.608c38.273-3.352,46.09-33.433,38.898-40.642c-7.191-7.192-68.125,5.22-66.37-41.755
		c1.225-32.731,31.258-43.781,59.856-41.484c27.43,2.185,54,19.178,63.159,52.929c6.608,24.38,1.944,50.06-25.75,76.666
		c-6.368,6.119-13.26,10.911-20.451,14.634h36.121c17.56-19.054,17.566-36.98,17.566-36.98s8.636,4.317,54.727-2.87
		c43.569-6.81,76.723-16.943,96.447-54.771V102.02c-10.749-17.533-27.771-27.208-31.656-25.43
		c-13.725,6.291,10.872,33.738-13.725,58.359c-21.552,21.534-59.503,12.017-71.524-1.143c-21.287-23.337-15.438-54.931-1.148-77.833
		c12.787-20.462,45.901-42.432,76.672-41.743c17.767,0.386,31.53,6,41.382,12.169V0h-37.314c0.312,0.792,0.469,1.243,0.469,1.243
		s-20.729-0.506-42.332,6.703c-21.595,7.197-34.552,23.042-34.552,23.042S339.526,12.12,332.424,0h-13.377
		c3.886,4.374,7.482,9.777,10.188,16.522c7.386,18.436,0.476,51.822-27.461,65.782c-59.507,29.757-97.257-8-97.257-8
		s-33.327,3.017-56.652-10.873C126.059,50.436,119.3,21.249,124.245,0H71.667v-95.579H1.289V390.11H55V260H133.237z
		 M290.323,104.615c12.964-5.761,20.021-14.295,20.021-14.295s-1.048,29.963,11.457,48.056
		c12.487,18.102,33.751,24.022,54.336,24.599c23.454,0.655,44.76-7.009,55.502-26.329c12.26-21.999-2.92-45.778,5.726-42.892
		c8.643,2.874,27.166,40.854,9.879,66.776c-17.282,25.923-34.546,36.006-74.875,43.21c-40.313,7.197-58.007,5.014-58.007,5.014
		s5.125-22.985-0.583-46.921c-5.715-24.033-41.761-50.921-41.761-50.921S277.365,110.381,290.323,104.615z M145.992,77.586
		c0,0,6.255,6.378,25.057,9.218c15.597,2.355,26.022,2.379,26.022,2.379l29.185,16.003c0,0-56.692,5.39-66.941,35.476
		c-6.461,18.932,3.652,48.594,27.242,60.046c23.349,11.344,41.425,3.738,41.979,11.46c0.565,8.023-36.931,16.894-65.569,4.036
		c-31.012-13.906-59.862-43.039-51.221-76.166C120.381,106.93,145.992,77.586,145.992,77.586z"/>
	<path fill="none" d="M420.552,260H457v-23.494c-8.843,6.681-18.936,13.491-30.407,20.123
		C424.633,257.762,422.606,258.884,420.552,260z"/>
	<path fill="#FFFFFF" d="M360.553,220.149c-46.091,7.188-54.727,2.87-54.727,2.87s-0.007,17.927-17.566,36.98h132.292
		c2.055-1.116,4.081-2.238,6.041-3.371c11.472-6.632,21.564-13.442,30.407-20.123v-71.128
		C437.275,203.206,404.122,213.34,360.553,220.149z"/>
</g>
</svg>
