<?xml version="1.0" encoding="utf-8"?>
<!-- Generator: Adobe Illustrator 16.0.0, SVG Export Plug-In . SVG Version: 6.00 Build 0)  -->
<!DOCTYPE svg PUBLIC "-//W3C//DTD SVG 1.1//EN" "http://www.w3.org/Graphics/SVG/1.1/DTD/svg11.dtd">
<svg version="1.1" id="图层_1" xmlns="http://www.w3.org/2000/svg" xmlns:xlink="http://www.w3.org/1999/xlink" x="0px" y="0px"
	 width="457px" height="260px" viewBox="0 0 457 260" enable-background="new 0 0 457 260" xml:space="preserve">
<rect x="10.668" y="-95.579" fill="none" width="37.999" height="76.079"/>
<g opacity="0.1">
	<path fill="#FFFFFF" d="M124.113,137.792c0,0,5.445,5.559,21.826,8.032c13.602,2.052,22.68,2.073,22.68,2.073l25.43,13.943
		c0,0-49.391,4.696-58.326,30.912c-5.631,16.494,3.187,42.34,23.736,52.316c20.344,9.887,36.096,3.26,36.577,9.988
		c0.487,6.99-32.175,14.719-57.127,3.517c-27.026-12.119-52.164-37.501-44.63-66.366
		C101.798,163.36,124.113,137.792,124.113,137.792"/>
	<path fill="#FFFFFF" d="M233.923,166.829c0,0,4.659-0.461,15.95-5.485c11.296-5.02,17.444-12.456,17.444-12.456
		s-0.913,26.107,9.981,41.873c10.881,15.772,29.408,20.929,47.346,21.433c20.436,0.57,39-6.106,48.36-22.94
		c10.681-19.169-2.545-39.889,4.989-37.373c7.528,2.505,23.669,35.597,8.605,58.185c-15.057,22.586-30.1,31.373-65.24,37.65
		c-35.125,6.271-50.542,4.367-50.542,4.367s4.466-20.027-0.508-40.885C265.331,190.258,233.923,166.829,233.923,166.829"/>
</g>
<path opacity="0.1" fill="#FFFFFF" d="M350.925,29.374c-20.082-16.061-39.502-13.421-39.502-13.421S306.723,8.574,297.689,0h-122.57
	c-7.767,7.736-11.674,14.185-11.674,14.185s-25.563-0.488-45.656,31.466c-10.973,17.447-7.473,52.849,15.956,66.808
	c20.323,12.102,49.356,9.475,49.356,9.475s32.897,32.897,84.749,6.969c24.342-12.163,30.362-41.252,23.926-57.316
	c-7.57-18.879-23.141-25.705-29.413-29.421c-17.67-10.437-68.125-14.873-71.285,24.422c-2.494,30.912,30.105,41.355,46.609,37.476
	c7.565-1.786,16.342,4.783,5.229,9.947c-10.977,5.105-53.811,4.003-63.854-23.609c-10.043-27.614,10.146-66.277,54.068-65.651
	c34.396,0.506,49.721,16.875,59.113,28.974c7.688,9.91,11.763,30.467,11.763,30.467s11.29-13.805,30.105-20.077
	c18.825-6.282,36.885-5.841,36.885-5.841S364.828,40.495,350.925,29.374z"/>
<path opacity="0.1" fill="#FDFDFE" d="M407.318,260c29.156-23.057,40.986-43.471,40.986-43.854c0,0-22.526-29.013-21.936-60.32
	c0.503-26.421,30.413-44.876,30.413-44.876c0.298,0.349-0.292-6.554-14.457-14.945c-13.468-7.976-22.885-1.325-22.885-1.325
	s-17.188-24.326-52.395-25.091c-26.812-0.6-55.664,18.543-66.807,36.373c-12.451,19.954-17.547,47.482,1.001,67.817
	c10.476,11.466,43.541,19.758,62.32,0.996c21.432-21.453,0-45.37,11.958-50.852c6.144-2.812,49.978,27.222,30.45,71.427
	c-16.741,37.886-46.75,47.385-86.904,53.662c-40.159,6.26-47.683,2.499-47.683,2.499s-0.003,3.306-1.49,8.488H407.318z"/>
<g>
	<path opacity="0.1" fill="#FFFFFF" d="M66.372,237.705c0,0,5.252,10.438,17.065,22.295h55.352
		c-20.841-8.505-39.425-25.867-49.502-53.775c-16.305-45.164,29.367-86.318,29.367-86.318s-8.32-9.397-13.33-20.421
		c-5.008-11.024-3.816-28.653-3.816-28.653s-12.011-0.903-32.088,9.125c-20.076,10.034-21.873,32.288-21.873,32.288
		S4.826,123.411,3.061,175.683C1.449,223.674,66.372,237.705,66.372,237.705z"/>
	<path opacity="0.1" fill="#FFFFFF" d="M212.496,230.592c4.683,4.691,2.066,20.487-13.438,29.408h50.378
		c15.154-19.278,17.265-37.95,12.421-55.818c-7.98-29.406-31.131-44.214-55.027-46.117c-24.922-2.002-51.096,7.627-52.153,36.146
		C153.146,235.14,206.235,224.327,212.496,230.592z"/>
</g>
</svg>
