<svg id="图层_1" xmlns="http://www.w3.org/2000/svg" viewBox="0 0 331.4 68"><style>.st0,.st1{fill:#fff}.st1{fill-rule:evenodd;clip-rule:evenodd}</style><path class="st0" d="M259.1 16.6h-5.6v2.9h5.2v1.2h-5.2v8.2c.2 3-1 4.4-3.4 4.2-1.7 0-3.1-.9-4.1-2.6-.7.2-1.6.4-2.8.4.7-.7 1.2-3.5 1.5-8.4h3.4c-.2 1.7-.4 3.7-.6 6-.2.9-.5 1.6-1.2 1.9.3.1.7.2 1.3.2 1 0 1.5-.5 1.5-1.4v-8.4h-4.9v-1.2h4.9v-2.9h-5.5v-1.1h15.5v1zm-.2-7.6h-15.1V7.8h4.8V5.2h5.5v2.6h4.8V9zm-14.3.9h4.3c.4 2.6 1.1 4.1 2.1 4.7-3.8.3-5.6-.3-5.6-1.8-.2-.5-.5-1.5-.8-2.9zm9 0h4.2c-.4 1.5-.7 2.5-.8 2.9-.2 1.5-2 2.1-5.5 1.8.8-.4 1.5-2 2.1-4.7zm16.1 23h-3.8V15.5h-2.5v12.1c.4 4.1-1.6 5.9-5.9 5.5.8-.7 1.3-1.4 1.5-2.2-2.9.1-4.3-.7-4.3-2.5-.3-2.3-.5-4.3-.6-6h3.4c.3 4.9.8 7.7 1.5 8.3.3-.6.5-1.7.5-3.2V10.7c-.3-2.7.9-3.9 3.8-3.6h1.3c1.1.1 1.8-.4 2.2-1.5h3.9c-.7 2-2 2.8-4 2.6H265c-1.2-.1-1.7.7-1.5 2.3v4h8v1.1h-1.8v17.3zm8.7.2h-4.5V9.4h4.5v23.7zm-2-27.9h4.9c.8 2.5 1.8 4.1 2.9 4.7-3.8.5-5.9 0-6.3-1.5-.5-.7-1-1.8-1.5-3.2zm18.8 22.4v1.1l-2 .1v1.8h.5c.2.1.4.1.5.1 1.2.1 1.7-.6 1.6-2.1V11.2c.2-2.6-.8-3.8-3-3.5h-9.4V6.4H295c3.9-.2 5.7 1.2 5.5 4.3v17.9c.2 3.2-.9 4.7-3.3 4.5-1.5-.1-2.8-.7-4-1.8v1.4H289v-3.9l-10.1.6v-1.2h1.8V12.1h-1.4v-.9h15.5v.9h-1.5v15.6l1.9-.1zM285 12.1v4.8h4v-4.8h-4zm0 5.9v4.3h4V18h-4zm4 9.8v-4.5h-4V28l4-.2zm19.8 5.3h-4.5v-27h4.5v2.1c.2-1.3 1.2-2 3.3-2h13.7c3.1-.2 4.6 1.1 4.5 3.9v19.3c-.1 2.4-1.7 3.7-4.8 3.8-3.7-.1-6.2-1.1-7.5-3 1.5.5 3.1.9 4.8.9 2 .1 2.9-.8 2.9-2.7-2.7.2-4.2-.7-4.7-2.7-.5 1.6-1.4 2.5-2.7 2.6l.1.1h-2.2l.1-.1c-1.5.1-2.5-.7-3-2.2-.5 1.7-2 2.5-4.5 2.5v4.5zM322 10.6h3.5c-.6 2.2-1.2 4.2-1.8 6.1-.4 1.2-.7 2.3-.9 3.4.3 1.3.7 2.5 1.1 3.6.5 1.6 1.1 2.9 1.9 3.9V9.8c.1-1.6-.8-2.4-2.6-2.3h-11.8c-1.3 0-2.1.6-2.5 1.8v18.4c.5-.5 1.1-1.8 1.8-3.8.3-1.2.7-2.3 1.1-3.5-.3-1-.6-2.1-.9-3.3-.5-2-1.1-4.1-1.8-6.4h3.5c.1.5.2 1.1.5 1.8.2.8.3 1.4.5 1.8.1-.4.2-1 .5-1.8.2-.7.3-1.3.5-1.8h5.7c.1.4.2.9.4 1.6.2.8.4 1.4.6 1.8.2-.5.3-1.1.5-1.8-.2-.6 0-1.2.2-1.7zm-4.7 2.2c-.4 1.1-.9 2.6-1.4 4.6-.4 1.3-.7 2.3-.8 2.9.3 1.3.7 2.4 1.1 3.4.3 1.3.7 2.3 1.1 2.9.2-.5.5-1.5.9-2.8.4-1.2.8-2.4 1.2-3.8-.3-.9-.7-2.3-1.3-4.3-.4-1.2-.7-2.2-.8-2.9zm-60.4 52.7l-9.4-14.9v14.8H243V46.2h5.2l9.5 15.1V46.2h4.3v19.3h-5.1zm7.3-3.4V49.6c0-2.3 1.1-3.4 3.3-3.4h12.2v1.3H270c-.8 0-1.2.4-1.2 1.1v6.3h9.5v1.3h-9.5v6.9c-.1.9.2 1.3.9 1.2h9.8v1.3h-12.4c-2-.1-3-1.2-2.9-3.5zm21.8 3.4l-5.4-19.2h4.3l4.1 14.8 3.9-14.8h4.6l3.9 14.5 3.5-14.5h4.3l-4.9 19.2h-5.7L295.1 53h-.1l-3.3 12.5H286zm38.2 0h-13.6v-1.3h11.7c.8.1 1.2-.3 1.2-1.1v-5.4c0-.8-.4-1.2-1.1-1.2h-8.2c-2.5.1-3.8-1.2-3.8-4v-2.6c-.1-2.6 1.2-3.9 3.8-3.9h13.6v1.3h-11.7c-.8 0-1.1.4-1.1 1.2V54c-.1.9.3 1.3 1.1 1.2h8.1c2.6 0 3.9 1.3 3.9 3.9v2.5c-.1 2.6-1.3 3.9-3.9 3.9zM232.3 0h.6v67.8h-.6V0zM7.081 46.636L5.93 43.857l.19-.079c.11.338.283.451.518.34l2.307-.956c.232-.081.275-.282.127-.605l.189-.079.728 1.759-.189.078c-.128-.345-.3-.459-.517-.339l-2.291.947c-.237.07-.294.218-.17.447.224.469.715.657 1.475.564l.086.209-1.302.493zM9.775 48.475l.712-.969-1.182.176.47.793zm-1.624.151l-.73-1.233.177-.105c.169.232.474.306.915.219l2.993-.413.135.229-1.992 2.75c-.165.177-.182.377-.049.6l-.177.104-.959-1.621.176-.105.105.176c.099.195.205.252.315.171a.466.466 0 0 0 .103-.108l.053-.031.376-.531-.584-.988-.436.068c-.087-.012-.195.02-.324.096-.141.083-.16.213-.055.39l.135.229-.177.103zM12.437 49.155l.159-.13.805.983-.786 2.921.013.016 1.428-1.168c.196-.126.185-.355-.034-.689l.159-.129.83 1.015-.159.129c-.248-.238-.453-.273-.615-.105l-2.315 1.896-.311-.381.885-3.32-.014-.016-1.729 1.415c-.227.133-.186.365.12.696l-.158.129-.896-1.094.158-.13c.204.292.402.35.594.176l1.935-1.584c.197-.142.175-.353-.069-.63zM15.824 55.729l-.96 1.01-2.062-1.903.181-.196 3.482-.994-.256-.236c-.569-.49-1.088-.512-1.553-.068l-.166-.153.877-.89 1.941 1.792-.25.27-3.367.96c.686.706 1.34.791 1.967.254l.166.154zM17.875 56.514l.961.663.592-.86c.15-.194.093-.375-.173-.542l.116-.168 1.518 1.046-.116.169c-.296-.22-.502-.222-.619-.004l-1.419 2.058c-.17.198-.095.391.224.577l-.116.169-1.518-1.046.116-.169c.243.201.433.19.569-.031l.698-1.012-.961-.663-.697 1.012c-.17.198-.112.379.173.542l-.116.168-1.501-1.034.116-.169c.265.216.467.213.603-.008l1.418-2.058c.15-.195.082-.383-.207-.566l.116-.168 1.501 1.035-.116.168c-.263-.197-.451-.187-.569.031l-.593.86zM21.304 58.868c-.483.98-.456 1.59.078 1.83.499.254.983-.111 1.455-1.097.464-.972.445-1.579-.06-1.822-.53-.253-1.02.109-1.473 1.089zm-.887-.425c.581-.962 1.403-1.258 2.466-.886.932.581 1.212 1.404.841 2.467-.594.955-1.404 1.242-2.43.858-.968-.569-1.261-1.382-.877-2.439zM24.801 58.514l1.765.533-.059.196c-.361-.124-.566-.065-.61.179l-.622 2.059c-.113.422.054.722.499.899.562.17.937-.031 1.123-.602l.551-1.823c.093-.215-.05-.401-.431-.558l.059-.196 1.274.384-.059.196c-.356-.051-.553.032-.589.25l-.539 1.785c-.221.732-.769.966-1.646.702-.846-.27-1.181-.72-1.004-1.352l.598-1.981c.084-.232-.039-.389-.37-.475l.06-.196zM32.229 60.16l1.841.008-.001.204c-.382-.015-.559.101-.533.346l-.008 2.149c.012.437.257.677.734.719.587.003.887-.297.904-.898l.008-1.902c.028-.232-.162-.37-.571-.411l.001-.205 1.33.005-.001.204c-.355.054-.519.19-.493.407l-.008 1.862c-.003.764-.462 1.144-1.375 1.141-.887-.017-1.336-.353-1.346-1.007l.008-2.067c.014-.246-.149-.363-.49-.35v-.205zM36.165 60.365l-.029-.202 1.255-.184 2.097 2.178.02-.003-.266-1.823c-.007-.234-.209-.342-.606-.326l-.031-.202 1.297-.19.031.202c-.332.089-.467.247-.407.473l.431 2.959-.486.071-2.388-2.466-.02.003.322 2.209c-.003.262.217.348.658.256l.03.202-1.398.204-.029-.203c.354-.025.507-.163.456-.418l-.36-2.472c-.022-.245-.215-.334-.577-.268zM43.087 62.438l-1.834.507-.054-.197c.349-.069.483-.225.4-.472l-.664-2.406c-.053-.241-.248-.307-.586-.199l-.054-.197 1.835-.507.054.197c-.359.085-.492.241-.4.471l.665 2.407c.043.258.238.324.586.199l.052.197zM42.568 59.072l-.077-.19 1.615-.653.076.19c-.316.128-.436.25-.36.366-.066-.017.417.575 1.448 1.779l.019-.008a19.61 19.61 0 0 0-.008-.35c-.04-1.412-.073-2.04-.098-1.883-.071-.177-.241-.212-.507-.105l-.076-.19 1.102-.445.076.19c-.225.135-.327.302-.306.499l.099 3.253-.399.162-2.047-2.443c-.166-.226-.352-.284-.557-.172zM48.58 55.931l.68 1.097-.195.112c-.507-.496-1.036-.592-1.587-.291-.279.145-.348.311-.209.499l.512.887c.411-.19.545-.504.402-.942l.178-.102.727 1.259-.178.102c-.301-.331-.64-.371-1.017-.122l.604 1.046c.099.227.277.249.536.07.572-.347.763-.891.572-1.631l.195-.112.65 1.209-2.874 1.658-.102-.177c.32-.154.411-.34.269-.558l-1.25-2.164c-.111-.22-.317-.235-.618-.046l-.102-.178 2.807-1.616zM50.521 55.185l.7.884c.52-.377.613-.755.278-1.135-.302-.336-.599-.405-.895-.207-.193.153-.221.306-.083.458zm2.942.547l.161-.127c.339.428.31.799-.086 1.113-.399.333-.78.269-1.145-.192-.251-.272-.428-.419-.532-.441-.122-.043-.292.005-.513.144l.674.853c.163.271.385.279.669.02l.127.161-1.462 1.158-.127-.161c.296-.199.357-.396.185-.591l-1.551-1.961c-.141-.202-.348-.186-.618.045l-.127-.161 1.446-1.144c.694-.532 1.242-.556 1.642-.072.346.458.192.947-.462 1.464l.013.015c.409-.254.811-.241 1.206.038.384.288.584.374.597.259.083-.049.051-.189-.097-.42zM54.816 55.563l-1.004-.964.156-.162c.722.41 1.277.413 1.664.009.302-.315.315-.615.04-.898-.157-.151-.509-.091-1.053.181-.726.382-1.25.417-1.576.105-.513-.53-.514-1.099-.006-1.708a1.4 1.4 0 0 1 .643-.375.485.485 0 0 0 .172-.09c.048-.031.046-.127-.006-.29l.142-.148.901.864-.142.148c-.634-.325-1.126-.325-1.476.002-.254.304-.273.569-.056.797.178.17.519.12 1.025-.151.754-.411 1.313-.442 1.677-.093.474.531.457 1.101-.052 1.709a2.732 2.732 0 0 1-.713.535.548.548 0 0 0-.186.076c-.048.049-.05.151-.008.305l-.142.148zM58.559 51.234l-1.158 1.515-.163-.124c.237-.265.248-.472.034-.618l-1.987-1.517c-.186-.161-.383-.095-.588.195l-.162-.125 1.157-1.515.163.125c-.235.285-.247.491-.034.619l1.986 1.517c.19.179.386.113.588-.196l.164.124zM56.004 48.668l1.718-2.907 1.103.627-.124.212c-.671-.206-1.138-.086-1.402.36l2.414 1.426c.202.167.4.062.592-.316l.176.105-1.042 1.762-.176-.105c.238-.351.24-.58.002-.689l-2.414-1.426c-.271.458-.15.926.36 1.402l-.125.212-1.082-.663zM58.014 45.631l-.189-.08.674-1.604.189.079c-.111.264-.114.411-.008.44a.799.799 0 0 0 .231.031.213.213 0 0 0 .072-.014l1.177-.105-.716-.834a.745.745 0 0 0-.232-.186c-.132-.04-.258.069-.382.327l-.189-.079.516-1.227.189.08c-.089.318-.05.542.118.671l1.121 1.293.868.365c.224.138.404.008.542-.394l.19.079-.778 1.85-.189-.079c.19-.379.159-.607-.091-.683l-.887-.372-1.471.117c-.444.003-.697.112-.755.325z"/><path class="st1" d="M6.447 35.005c.548 0 1.035-.426 1.035-.974s-.487-1.034-1.035-1.034c-.547 0-1.034.487-1.034 1.034s.486.974 1.034.974zM61.845 35.005a.961.961 0 0 0 .974-.974c0-.548-.427-1.034-.974-1.034-.548 0-1.034.487-1.034 1.034s.486.974 1.034.974z"/><path class="st1" d="M34.176 0c18.775 0 34 15.225 34 34s-15.225 34-34 34-34-15.225-34-34 15.226-34 34-34zm0 .922C52.442.922 67.254 15.734 67.254 34c0 18.265-14.812 33.078-33.078 33.078S1.099 52.265 1.099 34C1.099 15.734 15.911.922 34.176.922z"/><path class="st1" d="M34.176 10.847c12.785 0 23.153 10.368 23.153 23.154 0 12.785-10.368 23.153-23.153 23.153S11.023 46.786 11.023 34.001c0-12.786 10.369-23.154 23.153-23.154zm0 .628c12.438 0 22.525 10.087 22.525 22.525S46.614 56.525 34.176 56.525 11.651 46.438 11.651 34s10.087-22.525 22.525-22.525z"/><path class="st1" d="M53.601 32.154h-1.823v1.867h1.823v-1.867zM34.068 17.679h.218v1.864l.122.376v1.253l.388.463v2.093h.526v3.924h.581v-.492h.618v2.286h8.446V28.13h.473v.394h1.54v-.414h.473v1.335h6.65v8.907H14.252v-8.906h6.65v-1.334h.472l.001.412h1.539v-.394h.473v1.316h8.446V27.16h.618v.492h.581v-3.924h.526v-2.093l.388-.463V19.92l.122-.376v-1.865zm19.533 16.509h-2.426v1.519h2.426v-1.519zm0 1.687h-2.819v1.222h.958v-.917h.501v.917h.402v.728h.958v-1.95zm-6.576-3.721h2.094v1.867h-2.094v-1.867zm0 2.034h2.785v1.519h-2.785v-1.519zm0 1.687h3.237v1.222h-1.1v-.917h-.575v.917h-.308v.728h-1.255l.001-1.95zm0-5.474h2.094v1.613h-2.094v-1.613zm4.289.017h-1.749v3.447h.547v1.458h.766v-1.458h.436v-3.447zm-4.319-1.461H45.44v.501h1.556v-.501h-.001zm-.437 1.189h-1.244v7.679h1.244v-7.679zM36.31 31.873h-.581v.907h.581v-.907zm8.519 0h-.517v1.097h-.646v-1.097h-.581v1.097h-.646v-1.097h-.58v1.097h-.646v-1.097h-.581v1.097h-.646v-1.097h-.581v1.097h-.646v-1.097h-.581v1.097h-.646v-1.097h-.579v.907h.176v.479h7.698l.002-1.386zm-.974 1.587h-.938v1.678h.938V33.46zm-1.091 0h-.938v1.678h.938V33.46zm-1.091 0h-.962v1.678h.962V33.46zm3.159 0h-.81v1.678h.81V33.46zm0 1.832h-7.071v2.524h2.628v-2.122h.494v2.122h.608v-2.122h.493v2.122h.608v-2.122h.494v2.122h.608v-2.122h.494v2.122h.645l-.001-2.524zm8.769-4.891h-1.823v1.613h1.823v-1.613zM34.49 32.78v-.907h.593v.907h-.593zm-19.739-.626h1.823v1.867h-1.823v-1.867zm0 2.034h2.426v1.519h-2.426v-1.519zm0 1.687h2.819v1.222h-.958v-.917h-.501v.917h-.401v.728h-.958l-.001-1.95zm6.577-3.721h-2.094v1.867h2.094v-1.867zm0 2.034h-2.785v1.519h2.785v-1.519zm0 1.687h-3.237v1.222h1.1v-.917h.575v.917h.308v.728h1.255l-.001-1.95zm0-5.474h-2.094v1.613h2.094v-1.613zm-4.289.017h1.75v3.447h-.547v1.458h-.766v-1.458h-.437v-3.447zm4.319-1.461h1.555v.501h-1.555v-.501zm.436 1.189h1.244v7.679h-1.244v-7.679zm10.249 1.727h.58v.907h-.58v-.907zm-8.52 0h.517v1.097h.646v-1.097h.581v1.097h.646v-1.097h.581v1.097h.646v-1.097h.581v1.097h.646v-1.097h.581v1.097h.646v-1.097h.581v1.097h.646v-1.097h.581v.907h-.176v.479h-7.698v-1.386h-.005zm.974 1.587h.938v1.678h-.938V33.46zm1.092 0h.938v1.678h-.938V33.46zm1.09 0h.962v1.678h-.962V33.46zm-3.158 0h.81v1.678h-.81V33.46zm0 1.832h7.071v2.524h-2.628v-2.122h-.494v2.122h-.608v-2.122h-.494v2.122h-.608v-2.122h-.493v2.122h-.607v-2.122h-.494v2.122h-.645v-2.524zm-8.77-4.891h1.823v1.613h-1.823v-1.613zm19.112 2.379v-.907h-.593v.907h.593zm.676-9.032v-1.785l-.363-.239-.364.239v1.785h.727zm.33 3.912v-3.366h-1.386v3.366h1.386zm1.054 1.786V28.25H32.43v1.196h3.493zm-1.747.801a.32.32 0 0 1 .314.323v.096h.598v-.096a.32.32 0 0 1 .314-.323.32.32 0 0 1 .314.323v.096h.598v-.096a.32.32 0 0 1 .314-.323.32.32 0 0 1 .314.323v.096h.598v-.096a.32.32 0 0 1 .314-.323.32.32 0 0 1 .314.323v.096h.598v-.096a.32.32 0 0 1 .314-.323.32.32 0 0 1 .314.323v.096h.598v-.096a.32.32 0 0 1 .314-.323.32.32 0 0 1 .314.323v.096h.598v-.096a.32.32 0 0 1 .314-.323.32.32 0 0 1 .314.323v.096h.598v-.096a.32.32 0 0 1 .314-.323.32.32 0 0 1 .314.323v.096h.598v-.096a.32.32 0 0 1 .314-.323.32.32 0 0 1 .314.323v.096h.539v-.753H23.523v.753h.538v-.096a.32.32 0 0 1 .314-.323.32.32 0 0 1 .314.323v.096h.598v-.096a.32.32 0 0 1 .314-.323.32.32 0 0 1 .314.323v.096h.598v-.096a.32.32 0 0 1 .314-.323.32.32 0 0 1 .314.323v.096h.598v-.096a.32.32 0 0 1 .314-.323.32.32 0 0 1 .314.323v.096h.598v-.096a.32.32 0 0 1 .314-.323.32.32 0 0 1 .314.323v.096h.598v-.096a.32.32 0 0 1 .314-.323.32.32 0 0 1 .314.323v.096h.598v-.096a.32.32 0 0 1 .314-.323.32.32 0 0 1 .314.323v.096h.598v-.096a.32.32 0 0 1 .314-.323.32.32 0 0 1 .314.323v.096h.598v-.096a.31.31 0 0 1 .307-.323zm10.653 1.466v-.899h-.538v.638h-.627v-.638h-.598v.638h-.627v-.638h-.598v.638h-.627v-.638h-.598v.638h-.627v-.638h-.599v.638h-.627v-.638h-.598v.638h-.627v-.638h-.598v.638h-.627v-.638h-.597v.638h-.627v-.638h-.599v.638h-.627v-.638h-.598v.638h-.627v-.638h-.598v.638h-.627v-.638h-.598v.638h-.627v-.638h-.598v.638h-.627v-.638h-.598v.638h-.627v-.638h-.598v.638h-.627v-.638h-.598v.638h-.627v-.638h-.598v.638h-.625v-.638h-.539v.899h21.303zm-8.568 1.627l1.501 1.078v.721h2.783V33.46h-3.594v-.502H31.4v.502h-3.594v1.678h2.783v-.721l1.501-1.078h4.171v.001zm-1.427.912c.575 0 1.046.5 1.046 1.109v2.454h.536v-3.388l-.433-.447h-3.618l-.433.447v3.388h.536v-2.454c0-.61.471-1.109 1.046-1.109h1.32zm.273 1.132v2.432h.359v-2.621a.627.627 0 0 0-.616-.634h-1.346a.627.627 0 0 0-.616.634v2.621h.359v-2.432h1.86zm-.339 2.432v-1.757c0-.062-.095-.112-.212-.112h-.76c-.116 0-.212.051-.212.112v1.757h1.184zm-3.353 1.668h5.524v.488h-5.524v-.488zm-.906.732h7.334v.489h-7.334v-.489zm1.902-1.46h3.531v.489h-3.531v-.489z"/><path class="st0" d="M28.015 46.861v-.753a4.83 4.83 0 0 0 1.001-.553h.808v3.788h-.866v-2.966a4.589 4.589 0 0 1-.943.484zm2.933 1.551h.875c.05.303.192.458.424.465.456-.002.656-.405.599-1.21a.964.964 0 0 1-.338.184 1.416 1.416 0 0 1-.439.051c-.718-.067-1.115-.446-1.192-1.138.056-.802.53-1.233 1.423-1.291.96-.002 1.441.56 1.44 1.686.055 1.533-.439 2.286-1.482 2.262-.861.008-1.298-.328-1.31-1.009zm.822-1.703c.008.426.194.641.559.647.334-.008.506-.223.518-.647-.018-.447-.19-.677-.518-.689-.359.011-.546.24-.559.689zm4.404.744c.004-.94-.167-1.417-.514-1.433-.347.016-.518.493-.512 1.433-.006.935.165 1.411.512 1.424.346-.013.518-.489.514-1.424zm.892 0c-.025 1.294-.499 1.949-1.423 1.967-.899-.02-1.362-.676-1.386-1.967.025-1.299.489-1.959 1.386-1.98.922.018 1.397.679 1.423 1.98zm.476.959h.875c.05.303.192.458.424.465.456-.002.656-.405.598-1.21a.964.964 0 0 1-.338.184 1.416 1.416 0 0 1-.439.051c-.718-.067-1.115-.446-1.192-1.138.057-.802.53-1.233 1.424-1.291.961-.002 1.441.56 1.44 1.686.056 1.533-.439 2.286-1.482 2.262-.863.008-1.299-.328-1.31-1.009zm.821-1.703c.008.426.194.641.559.647.334-.008.506-.223.517-.647-.017-.447-.19-.677-.517-.689-.36.011-.546.24-.559.689z"/><path class="st1" d="M21.996 8.401c-.019-.037.095-.061.17-.095a.625.625 0 0 1 .11-.043c.06-.004.08-.007.212.037s.221.08.286.044c.065-.035.133-.068.145-.094.013-.025.016-.088.03-.152.014-.065.046-.122.042-.201-.004-.08-.014-.147-.003-.186.011-.039.084-.235.13-.271.046-.036.292-.17.601-.209 0 0 .105.019.131.093.026.075.112.29.131.32.019.03.036.056.108.065.072.009.156.004.21-.118.054-.122.139-.292.172-.384.034-.093.058-.206.07-.283.012-.077.002-.212.042-.28a.32.32 0 0 1 .229-.17c.139-.031.228-.049.291-.06.063-.01.139.008.139.008s.064.033.089.108.045.157.064.178c.019.02.191.161.355.07 0 0 .071-.033.089-.057.018-.023.057-.094.086-.238s.029-.235.054-.338c.021-.104.047-.328.11-.459.064-.132.11-.177.149-.239.038-.061.157-.208.251-.247.22-.092.364-.01.601.037a.48.48 0 0 1 .215.088c.028.03.045.056.033.081-.013.026-.02.328-.109.519 0 0-.01.102-.003.146.007.045.052.121.052.184a.681.681 0 0 0 .08.252c.008.014-.006.045.002.092.01.06.044.145.086.216.042.071.083.172.124.241.02.033.059.05.081.084.029.044.04.107.054.156 0 0 .008.048.006.088-.003.053-.022.109-.014.158.008.06-.002.109.041.158.02.022.088.037.123.068.121.104.334.431.333.586-.001.109-.158.264-.187.343-.029.08-.119.381-.197.436-.08.052-.249.094-.31.066-.06-.028-.15-.119-.15-.119l-.175-.05-.15.043s-.021-.066-.001-.123a.798.798 0 0 0 .022-.275c-.004-.13-.114-.486-.198-.664 0 0-.025-.235-.074-.4-.049-.166-.19-.403-.205-.538-.016-.135-.004-.292-.007-.337s-.011-.307-.077-.428-.131-.138-.181-.123c-.05.014-.079.113-.1.19-.021.076-.126.276-.057.566 0 0 .027.139.088.148.061.009.148.054.17.1.022.047.078.229.081.274.003.047-.002.218-.056.263-.055.044-.15.043-.258.017s-.193.034-.252-.033c-.061-.07-.16-.08-.195-.215s-.035-.135-.04-.227a.434.434 0 0 0-.109-.233c-.037-.039-.092-.014-.092-.014s-.001.2-.033.252c-.032.054.002.227.026.357.024.131.021.227.026.337.005.111.125.348.162.406.037.059.261.456.222.615-.038.16-.046.306-.091.411-.045.105-.346.19-.346.19s-.175-.05-.254-.241c-.079-.19-.19-.345-.207-.461a34.691 34.691 0 0 1-.058-.446 3.405 3.405 0 0 1-.008-.44c.007-.107.037-.264.028-.344-.009-.081-.028-.241-.102-.217 0 0-.082.048-.105.219-.024.172-.049.298-.04.378.009.08-.099.254-.213.251 0 0-.122.001-.189.042-.066.041-.031.195-.018.264.014.07.217.665.228.849.011.184-.135.801-.242.936 0 0-.188.164-.286.238s-.2.018-.2.018-.281-.115-.342-.143c-.06-.028-.081-.133-.156-.212-.075-.078-.05-.127-.011-.184.04-.057.197-.206.197-.206s.239-.5.203-.757c-.036-.258-.018-.644-.11-.781-.093-.136-.178-.315-.286-.303a.3.3 0 0 0-.193.083c-.021.026-.046.049-.06.085-.003.008-.006.014-.006.022.003.071-.048.139-.048.139s.023.122.017.19a.674.674 0 0 0 .108.319c.045.067.103.174.093.252-.004.031-.048.056-.063.074-.171.197-.15.473-.463.283-.105-.064-.231-.09-.231-.09s-.064-.027-.178-.219c-.209-.35.033-.201-.004-.395-.01-.054.004-.152-.024-.227a.203.203 0 0 0-.077-.085c-.058-.018-.128-.028-.154-.079zM53.973 18.398c.099.008.314.02.476.036.162.016.36.055.53.235 0 0-.111.218-.136.311-.025.093-.047.214-.301.388-.255.173-.236.133-.236.133s-.105.008-.374-.167c-.269-.176-.354-.254-.491-.362a1.343 1.343 0 0 1-.243-.269c-.034.178.01.135.068.298.027.077.229.361.285.456a.67.67 0 0 1 .086.293c.008.105.002.396.113.562 0 0 .221.221.32.229.099.009.326-.014.326-.014s.488.013.693-.249c.205-.262.201-.326.311-.533.11-.207.234-.489.404-.513 0 0 .208.041.296.037.088-.003.213-.009.253-.037a.365.365 0 0 0 .117-.145c.025-.071-.014-.099-.029-.135-.037-.087.058-.138.119-.275 0 0-.052-.164-.137-.254-.085-.089-.147-.167-.384-.225-.237-.059-.46-.199-.818-.336-.357-.138-.813-.283-1.025-.411 0 0-.255-.054-.409-.168-.159-.118-.211-.371-.434-.303-.053.016-.042.075-.042.075s-.037.273.006.425c.079.284-.056.616.265.77.15.037.292.14.391.148zm3.809-3.804s-.452.503-.575.62c-.124.117-.601.594-.66.663-.059.068-.121.225-.193.332-.073.106-.105.162-.101.207.003.045.088.054.252.058.08.002.146.045.188.049.018.002.027-.006.046 0l.188.051s.089.015.205.037c.08.015.168.027.218.024.048-.003.062.008.106.052.127.123.148.366.148.366.002.033-.05.072 0 .113.034.027.091-.048.16-.039.047.006.098.07.154.124.113.11.104.163.1.274a.26.26 0 0 1-.054.161c-.05.059-.119.056-.185.065-.075.01-.144.028-.184.02a.914.914 0 0 1-.278-.098c-.021-.014-.087-.07-.172-.125a5.83 5.83 0 0 0-.398-.229c-.094-.05-.205-.081-.284-.117-.297-.137-.859-.501-.967-.553s-.429-.251-.429-.251c-.141-.009-.216.252-.229.326-.014.073-.017.171-.025.226-.008.055.07.162.07.162s.44.288.537.339c.097.052.639.207.639.207.154-.007.282-.013.397.017.22.056.361.186.426.195.098.014.442.024.442.024s.147.016.177.048c.03.031.052.118.057.173.005.055-.139.144-.224.141-.086-.003-.384-.096-.384-.096s-.171-.054-.147-.016c.024.037.359.467.394.505.111.117.116.136.342.19.207.042.222-.019.285-.103.064-.085.191-.493.187-.585-.007-.162-.027-.227.069-.268 0 0 .156.127.192.164.114.121.247.039.309-.077.112-.209-.065-.335.17-.361.029-.003.026.002.052.015a.36.36 0 0 0 .216.026c.167-.026.862-.1.917-.093s.27.008.308-.016.122-.175.118-.292c-.007-.248.116-.195-.056-.32a.347.347 0 0 0-.146-.066 3.176 3.176 0 0 1-.197-.059c-.14-.047-.317-.141-.377-.157-.312-.088-.218-.248-.064-.394.114-.109.161-.094.081-.256l-.092-.127a.04.04 0 0 1-.009-.022.54.54 0 0 1 .146-.157 1.41 1.41 0 0 0 .216-.179c.058-.063.088-.132.088-.132s.009-.105-.02-.184c-.028-.081-.037-.204-.054-.284-.007-.035-.005-.066-.01-.093-.003-.016-.016-.042-.02-.057-.017-.081-.043-.082-.094-.029-.013.014-.02.04-.039.058-.057.054-.151.167-.23.186-.034.008-.118.065-.191.094-.087.035-.169.017-.212.035a.334.334 0 0 1-.214-.024c-.042-.02-.133-.121-.199-.174-.028-.022-.058-.046-.074-.041-.009.003-.008.024-.016.04l.007.092c.016.073.025.125.034.172.008.037.023.068-.002.125-.026.061-.213.105-.343.17-.131.064-.509.082-.509.082.046.086.198.043.286.042.139-.002.17.025.237.057.066.032.254.091.346.099a.307.307 0 0 1 .154.061c.088.154-.076.235-.076.235s-.116.059-.301.095c-.184.037-.501.179-.574.152-.073-.026-.149-.263-.149-.263s-.066-.155-.093-.139c-.138.087-.062.06-.076.159-.008.055-.001.276-.001.276-.038.048-.303.116-.377.127-.052.007-.24.014-.355-.002-.026-.004-.062-.015-.054-.05.013-.054.016-.102.036-.127.02-.025.06-.067.098-.127.022-.036.065-.096.082-.14.048-.12.418-.629.491-.723.05-.064.211-.212.289-.318.036-.048.017-.096.027-.106.032-.031.055-.151.055-.151l.008-.07-.037-.041zm1.135 1.888l.376.419c.051.066.035.13-.024.192-.066.07-.199.16-.333.219-.077.035-.15.086-.232.081a.492.492 0 0 1-.222-.095c-.015-.011-.269-.024-.275-.09-.003-.041.022-.191.025-.252-.007-.055-.033-.213-.034-.289 0-.014-.032-.091-.007-.11.026-.018.424-.059.63-.095.081-.013.077.008.096.02zm-2.329-1.824c.003.099-.01.414-.003.457.008.049.099.112.039.175l-.122.127c-.098.101-.219.226-.269.27-.035.031-.099.111-.192.19-.091.078-.21.156-.303.206-.054.03-.087.063-.077-.031a.166.166 0 0 1 .014-.05c.034-.077.045-.133.108-.205.064-.071.104-.185.153-.271.049-.087.184-.203.236-.28.052-.077.063-.139.112-.23.029-.055.119-.183.196-.278a.767.767 0 0 1 .096-.104c.016-.012.012.014.012.024zM10.083 19.216s-.059.198.055.426c.041.082.167.166.225.279.067.131.082.267.191.444.006.01.049.046.092.116.022.037.017.091.05.134.022.03.082.05.102.078.033.046.031.094.063.128.059.065.15.092.205.058a.83.83 0 0 1 .367-.101c.082-.005.299-.178.239-.253-.043-.055-.094-.127-.22-.213-.126-.087-.502-.25-.721-.451-.218-.201-.38-.38-.473-.452a1.085 1.085 0 0 1-.175-.193zm2.496-1.625c.011-.034.062-.013.139-.028.049-.01.1-.038.139-.042.044-.004.094.033.186.034.326.006.51-.005.745.103 0 0 .176.094.212.24.037.146.009.176.002.216-.008.041-.236.294-.236.294s-.157-.071-.227-.125a14.686 14.686 0 0 0-.536-.336c-.018-.01-.123-.024-.198-.075a1.561 1.561 0 0 1-.229-.182l-.014-.048.017-.051zm-3.174-.311c.018-.076.014-.14.016-.208s-.004-.13-.021-.207c-.009-.042-.045-.097-.056-.15-.05-.245-.082-.599-.16-1.002-.014-.07-.05-.123-.073-.19-.021-.059-.029-.134-.042-.188-.057-.239-.034-.363-.07-.529-.047-.218-.096-.444-.103-.498-.014-.116-.016-.213-.041-.288-.025-.075-.007-.144.018-.166.025-.023.114.005.114.005s.201-.018.274.004c.073.021.122.094.173.127a.466.466 0 0 0 .235.065c.081-.006.15-.068.2-.089 0 0 .1-.116.141-.016.041.1.025.132.011.159-.024.049-.034.086-.054.116-.015.023-.048.058-.067.093-.08.149-.307.529-.345.97-.009.101-.011.217-.017.331-.005.095-.015.189-.011.285.006.127-.018.25.002.37.009.051.029.1.031.145.002.058-.016.11-.013.165.003.066.009.122.007.184-.002.07-.016.15-.026.224-.009.067-.025.133-.033.198-.003.029 0 .058-.003.088-.013.062-.009.089.059.108.035.01.041.013.068-.011.051-.046.146-.269.198-.588l.097-.589s.025-.283.023-.362c-.002-.079.039-.071.039-.071s.092-.018.105.016c.013.034.038.061.038.061s.122.024.2-.016c.046-.025.039-.121.048-.183.011-.085-.004-.377.014-.512.01-.077.041-.195.093-.305.038-.081.095-.155.131-.225.084-.169.115-.3.167-.416.045-.103.092-.246.211-.212 0 0 .111.038.125.081s.047.131.101.172c.054.042.224.346.34.458.116.113 1.125 1.069 1.379 1.233.254.164.409.309.466.361.057.052.604.443.63.463.026.02 1.011.734 1.113.822.102.088.381.292.417.329.023.022.239.185.277.23.043.051.037.123.014.171a1.208 1.208 0 0 0-.099.272.88.88 0 0 1-.124.213.14.14 0 0 1-.113.051.479.479 0 0 1-.175-.041c-.037-.017-.1-.026-.174-.044-.095-.024-.214-.055-.37-.066a49.978 49.978 0 0 1-.54-.041c-.023-.002-.027-.005-.047-.019-.044-.031-.138-.089-.123-.115.008-.014.071-.097.138-.182.052-.066.098-.139.138-.17.014-.01.082-.016.166-.031.076-.013.138-.037.167-.081.025-.037.095-.054.11-.128.014-.071-.052-.083-.088-.111-.026-.02-.737-.669-.945-.822-.139-.102-.557-.394-.876-.634a3.738 3.738 0 0 1-.361-.296c-.186-.194-.562-.506-.632-.584-.07-.079-.513-.479-.603-.598s-.151-.193-.174-.228c-.05-.076-.127-.101-.133-.041a.293.293 0 0 1-.097.181c-.076.073-.177.078-.212.113-.07.069-.161.405-.157.465.003.059.077.347.045.428-.031.082-.084.247-.148.286 0 0-.056-.002-.116-.008-.06-.006-.147.009-.198.076-.052.067-.04.305-.026.373.014.067.048.118.048.118s.132-.128.175-.184c.218-.281.19-.254.502-.119 0 0 .122-.168.145-.241.023-.072.113-.019.113-.019s.063.057.077.101c.014.044.086.345.092.464.006.12.062.195.108.232.046.036.094.048.147-.009.053-.058.076-.172.281-.077 0 0 .116.041.117.082.001.042.01.188.007.235-.003.047.114.531.267.789 0 0 .011.123.379.294.368.17.465.236.497.279.033.042.287.148.258.609 0 0 .009.211-.276.187 0 0-.162-.002-.327-.139-.104-.085-.156-.128-.183-.145-.028-.018-.026-.009-.045.02-.025.037-.06.101-.043.138.025.052.101.144.141.199.039.055.097.256.079.332-.011.048-.034.076-.08.088a.285.285 0 0 1-.111.002c-.046-.009-.102-.002-.14-.015-.063-.022-.097-.073-.097-.144 0 0-.031-.13-.045-.281s-.02-.261-.031-.31c-.011-.049-.016-.128-.049-.169-.033-.042-.268-.216-.314-.252 0 0-.071-.014-.098.031-.026.044-.048.094.005.151s.092.104.064.14c-.028.036-.192.163-.293.093-.101-.071-.196-.161-.207-.283 0 0 .044-.196.031-.378-.014-.183-.051-.294-.114-.351-.063-.056-.061-.08-.061-.08s-.054.155-.059.266c-.004.111.019.293-.004.365-.023.072-.024.137-.063.156-.039.019-.067.054-.256.056-.19.001-.271.085-.404.056-.133-.029-.11-.101-.111-.176 0-.074.141-.268.16-.376.019-.109.086-.343.106-.507.02-.164.05-.445.059-.52.009-.076-.02-.122-.02-.122l-.21-.195s-.059.012-.143.111c-.084.099-.127.057-.266.45 0 0-.064.189-.139.286-.076.098-.097.073-.137.124a1.52 1.52 0 0 1-.163.168c-.05.043-.366.087-.391.079-.025-.008.106-.167.159-.275.053-.108.109-.22.119-.275.003-.019.007-.04.006-.066-.002-.034-.004-.06.003-.088a.115.115 0 0 1 .026-.053c.009-.025.024-.03.036-.083zm-1.475.512c.032-.096.094-.136.139-.278.027-.085.031-.148.053-.237.025-.105.067-.202.058-.292 0 0-.005-.052.002-.122.005-.055.029-.122-.005-.186-.022-.042-.076-.063-.154-.099l-.015-.008c-.024-.01-.054-.009-.072-.025-.081-.075-.226-.109-.278-.192-.036-.057-.02-.12.011-.176.019-.033.018-.074.086-.082.051-.006.241.016.296.005.055-.011.144-.055.185-.07.042-.014.215-.056.291.022.021.022.089.062.122.073s.039-.025.056-.023c.035.004.112.012.161.027s.14-.009.15.099c.007.074-.064.107-.049.159.007.024.036.044.056.098.03.079.093.211.071.281-.026.084-.142.103-.172.147-.054.08-.038.208-.043.334-.005.127-.043.404-.021.445.023.041.013.133.003.186-.01.054-.069.093-.15.099-.059.004-.165-.012-.254-.018-.035-.002-.071-.015-.095-.006-.087.032-.202.014-.25.015-.031.001-.102.034-.145.027-.062-.009-.06-.136-.037-.203zM45.189 9.614s.152.071.187.13c.023.039.145.371.168.428.023.059.151.104.218.242.048.098.047.229.073.351.021.095.071.187.088.231.065.171.102.643-.023.699-.047.021-.145-.036-.215-.023a5.104 5.104 0 0 1-.365.047c-.136.012-.22.104-.329.076-.109-.027-.153-.066-.134-.179.019-.112.214-.612.238-.853.052-.515.108-.924.094-1.149zm-3.616-2.109c.073.039.161.14.266.157.105.018.966.167 1.35.145.384-.021.523-.004.614-.02.092-.017.3.021.438-.167.138-.189.418-.598.508-.785.09-.186.19-.462.227-.568.037-.106.075-.324.015-.49 0 0-.018-.177.059-.247s.223-.082.259-.122a.104.104 0 0 1 .084-.03c.02.003.045.018.053.023.016.009.026.031.029.038.018.043.099.236.171.361.081.139.296.51.315.593.02.083.043.224-.038.348 0 0-.088.093-.138.166-.05.072-.022.206-.11.234-.087.028-.278.142-.335.23s-.101.19-.117.249-.031.137-.031.137.048.02.128.009c.081-.012.243.003.326-.018.042-.01.18.002.303-.029.074-.018.124-.078.194-.094.048-.01.097.002.132-.009.048-.013.092-.013.122-.023.037-.013.055-.035.079-.054.041-.031.038-.075.031-.116a.297.297 0 0 0-.026-.082c-.012-.025-.017-.063-.033-.095-.006-.012-.008-.019-.003-.028l.008-.018c.007-.011.021-.013.032-.003.03.023.122.095.154.15.038.065.161.224.181.293.02.07-.024.117-.074.124-.035.005-.175.016-.312.037-.057.009-.125.014-.159.03-.062.028-.158.049-.248.113-.079.056-.135.143-.224.166-.19.049-.474.045-.565.081s-.268.099-.368.178c-.099.079-.156.186-.217.197-.061.011-.216.132-.268.165-.052.034-.172.245-.277.359a2.326 2.326 0 0 0-.285.421c-.027.063-.122.171-.198.26s-.227.221-.485.231c0 0-.2-.002-.317.031-.117.034-.236.059-.331.083-.095.025-.277.077-.7-.049s-.507-.173-.738-.225a27.698 27.698 0 0 1-.649-.162c-.034-.009.003-.093.054-.082.038.008.114.021.201.027.127.009.482-.073.769-.109.287-.035.604-.076.801-.16.195-.084.691-.189.871-.28.18-.091.448-.406.482-.485 0 0-.003-.123-.111-.113-.107.009-.543.084-.685.088-.143.004-.236-.018-.491.031-.256.049-.429.124-.558.012s-.191-.251-.287-.443c-.052-.105-.139-.299-.155-.45-.005-.048.027-.076.071-.114.047-.035.133-.135.206-.097z"/><path class="st0" d="M88.849 64.556h-6.561v-.446c.803.029 1.175-.224 1.116-.76v-5.443c.06-.535-.312-.788-1.116-.759v-.445h4.151v.445c-.803-.029-1.175.224-1.116.759v5.399c-.031.535.223.774.758.714 1.131-.089 1.918-.923 2.366-2.5h.489l-.087 3.036zm4.011 0h-3.125v-.446c.625-.089 1.101-.581 1.428-1.473l2.543-6.066h.581l2.945 6.78c.177.507.535.76 1.07.76v.445h-4.105v-.445h.445c.476.029.699-.105.67-.401 0-.06-.015-.179-.046-.358.031.12.015.09-.043-.089l-.581-1.293h-2.497l-.358.891c-.089.149-.149.387-.179.714.031.359.253.536.67.536h.581l.001.445zm1.517-3.214l-1.028-2.408-.98 2.408h2.008zm4.457-4.194v-.445h2.767l3.839 5.353h.043v-4.015c.059-.507-.343-.803-1.205-.893v-.445h2.856v.445c-.743.089-1.085.386-1.026.893v6.514h-1.07l-4.373-6.07h-.046v4.864c-.089.535.358.788 1.339.76v.445h-3.079v-.444c.803.029 1.175-.224 1.116-.76v-5.443c.057-.535-.33-.788-1.161-.759zm15.389 4.372l-.043 3.034h-6.113v-.581l4.105-6.737h-.76c-1.635.031-2.497.76-2.587 2.187h-.491l.089-2.723h5.758v.803l-3.972 6.514c2.17.089 3.345-.744 3.524-2.5l.49.003zm4.189-1.337h2.543v-2.275c.031-.535-.297-.788-.983-.759v-.445h4.017v.445c-.803-.029-1.175.224-1.116.759v5.443c-.06.535.312.788 1.116.76v.445h-4.017v-.446c.686.029 1.013-.224.983-.76v-2.677h-2.543v2.677c-.031.535.297.788.983.76v.445h-3.972v-.445c.774.029 1.131-.224 1.07-.76v-5.443c.061-.535-.297-.788-1.07-.759v-.445h3.972v.445c-.685-.029-1.013.224-.983.759v2.276zm6.644.445c.269-2.467 1.606-3.821 4.017-4.059 2.38.267 3.703 1.62 3.971 4.059-.238 2.44-1.563 3.764-3.971 3.971-2.44-.207-3.779-1.531-4.017-3.971zm2.142 0c0 2.351.626 3.526 1.875 3.526 1.218.031 1.83-1.146 1.83-3.526s-.611-3.554-1.83-3.524c-1.25 0-1.875 1.175-1.875 3.524zm6.867-3.925h4.015v.445c-.832-.029-1.219.224-1.159.759v4.685c.059.952.594 1.471 1.606 1.561 1.308 0 1.963-.655 1.963-1.963v-4.15c.089-.507-.327-.803-1.249-.893v-.445h2.899v.445c-.773.089-1.131.386-1.07.893v4.06c0 1.666-.998 2.497-2.99 2.497-1.933-.028-2.915-.757-2.945-2.185v-4.507c.061-.535-.297-.788-1.07-.759v-.443zm14.561 0h4.015v.445c-.832-.029-1.219.224-1.159.759v4.685c.059.952.594 1.471 1.607 1.561 1.308 0 1.963-.655 1.963-1.963v-4.15c.089-.507-.327-.803-1.249-.893v-.445h2.899v.445c-.773.089-1.13.386-1.07.893v4.06c0 1.666-.998 2.497-2.99 2.497-1.933-.028-2.915-.757-2.945-2.185v-4.507c.06-.535-.297-.788-1.07-.759v-.443h-.001zm8.787.445v-.445h2.766l3.839 5.353h.043v-4.015c.06-.507-.343-.803-1.205-.893v-.445h2.856v.445c-.743.089-1.085.386-1.026.893v6.514h-1.07l-4.373-6.07h-.046v4.864c-.089.535.358.788 1.338.76v.445h-3.079v-.444c.803.029 1.175-.224 1.116-.76v-5.443c.06-.535-.327-.788-1.159-.759zm13.47 7.408h-4.149v-.446c.802.029 1.175-.224 1.114-.76v-5.443c.061-.535-.312-.788-1.114-.759v-.445h4.149v.445c-.803-.029-1.175.224-1.116.759v5.443c-.059.535.313.788 1.116.76v.446zm.8-7.408v-.445h3.793v.445c-.744-.029-1.087.12-1.026.447-.089-.12.402 1.471 1.471 4.774h.046c.059-.179.149-.432.267-.76 1.1-2.887 1.548-4.163 1.338-3.839 0-.415-.313-.624-.937-.624v-.445h2.589v.445c-.565.061-.908.312-1.028.759l-2.454 6.648h-.937l-2.142-6.604c-.148-.592-.476-.86-.98-.801zm14.986-.445l.089 2.812h-.491c-.415-1.517-1.308-2.277-2.677-2.277-.683-.059-.995.179-.937.714v2.231c.983.089 1.577-.356 1.784-1.339h.448v3.168h-.448c-.207-.983-.802-1.428-1.784-1.339v2.633c-.031.504.282.743.937.714 1.487-.031 2.439-.849 2.856-2.454h.491l-.089 2.989h-7.229v-.445c.803.029 1.175-.224 1.116-.76v-5.443c.059-.535-.313-.788-1.116-.759v-.445h7.05zm8.832 6.113h.445c0 1.19-.55 1.784-1.651 1.784-1.131.031-1.697-.594-1.697-1.873.089-1.339-.371-1.978-1.382-1.919v2.365c-.089.686.281.998 1.116.938v.445h-4.061v-.446c.803.029 1.175-.224 1.116-.76v-5.443c.059-.535-.312-.788-1.116-.759v-.445h4.015c1.904.031 2.871.729 2.901 2.099-.031 1.218-.952 1.843-2.768 1.873v.043c1.072.089 1.742.655 2.009 1.697.269.982.491 1.397.67 1.249.239.029.373-.255.403-.848zm-4.284-4.909v2.454c1.397.028 2.067-.491 2.007-1.561-.028-.983-.445-1.504-1.249-1.563-.506 0-.758.223-.758.67zm5.975 6.649v-3.035h.491c.476 1.725 1.308 2.603 2.497 2.633.952-.031 1.443-.461 1.471-1.295 0-.504-.624-.965-1.873-1.382-1.697-.596-2.543-1.368-2.543-2.321.089-1.635.983-2.498 2.677-2.587.565 0 1.102.149 1.607.445.179.089.297.133.358.133.118 0 .238-.103.356-.312a.534.534 0 0 1 .089-.133h.445v2.723h-.445c-.417-1.517-1.159-2.29-2.231-2.321-.863.031-1.308.402-1.339 1.116 0 .535.609.995 1.83 1.382 1.755.565 2.633 1.399 2.633 2.5-.089 1.517-1.011 2.349-2.766 2.497a5.23 5.23 0 0 1-1.875-.356c-.207-.089-.356-.133-.445-.133-.149 0-.297.133-.445.402l-.046.044h-.445zm11.596 0h-4.149v-.446c.802.029 1.175-.224 1.113-.76v-5.443c.061-.535-.312-.788-1.113-.759v-.445h4.149v.445c-.803-.029-1.175.224-1.116.759v5.443c-.059.535.313.788 1.116.76v.446zm1.066-7.853h7.363l.046 2.767h-.536c-.358-1.487-1.102-2.231-2.231-2.231v6.112c-.061.535.355.788 1.249.76v.445h-4.462v-.446c.952.029 1.384-.224 1.295-.76v-6.112c-1.13 0-1.873.744-2.231 2.231h-.535l.042-2.766zm8.073.445v-.445h3.793v.445c-.594 0-.893.12-.893.358 0 .089.06.253.178.491a.32.32 0 0 1 .046.133l1.204 2.275 1.072-2.141c.118-.266.178-.476.178-.624 0-.327-.327-.491-.983-.491v-.445h2.901v.445c-.685.061-1.102.327-1.251.803l-1.651 3.346v2.052c-.06.535.358.788 1.249.76v.445h-4.373v-.445c.952.029 1.384-.224 1.295-.76v-2.096l-1.471-2.855c-.386-.893-.818-1.31-1.294-1.251z"/><path class="st1" d="M120.145 22.618c-.008-.223.607-.082 1.052-.076.174.002.554.008.64.041.307.117.409.15.951.67.543.519.897.897 1.298.873s.804-.031.922-.125.281-.394.494-.677c.213-.284.502-.488.667-.89.165-.401.268-.751.41-.916.142-.165.953-.96 1.26-1.031.307-.071 1.817-.161 3.423.359 0 0 .472.331.425.756-.047.425-.118 1.676-.094 1.865s.047.354.377.566c.331.212.756.377 1.298-.094.543-.472 1.346-1.109 1.723-1.487.377-.377.756-.874.991-1.227.236-.354.496-1.039.85-1.275s.756-.472 1.51-.307a28.34 28.34 0 0 1 1.558.377c.331.094.661.354.661.354s.236.307.189.732c-.048.425-.142.874-.094 1.015.047.142.566 1.227 1.582 1.157 0 0 .425 0 .566-.071.142-.071.496-.331.968-.967.472-.638.685-1.085 1.039-1.534.354-.449.991-1.487 1.605-1.982.614-.496.944-.615 1.275-.826.331-.212 1.251-.661 1.794-.638 1.289.056 1.806.785 2.856 1.558.449.33.779.708.85.921.071.212.094.377-.024.472-.118.094-.85 1.557-1.723 2.29 0 0-.283.472-.354.708-.071.236-.024.708-.165 1.015s-.212.921-.189 1.416c.004.091-.132.209-.201.457-.089.32-.114.809-.073 1.253.041.441.014 1.03.055 1.462.02.208.173.379.202.598.038.283-.05.617-.098.884 0 0-.068.252-.174.447-.136.25-.359.479-.436.739-.095.318-.258.531-.161.87.043.154.344.382.449.616.352.786.645 2.876.288 3.631-.252.534-1.379.925-1.703 1.25-.324.324-1.455 1.589-1.964 1.681s-1.436-.093-1.668-.371c-.231-.278-.463-.926-.463-.926l-.741-.648-.834-.139s.047-.371.278-.603.463-.649.74-1.296c.278-.649.556-2.64.556-3.705 0 0 .417-1.204.556-2.13.139-.926 0-2.408.232-3.103.231-.694.649-1.436.74-1.667.093-.231.649-1.528.602-2.27s-.324-.972-.602-1.018c-.278-.047-.649.371-.926.694-.278.324-1.25 1.065-1.574 2.639 0 0-.185.74.093.927.278.185.602.602.602.88s-.139 1.297-.232 1.528c-.093.232-.509 1.065-.88 1.158-.371.093-.834-.139-1.296-.51-.463-.371-1.019-.278-1.158-.741-.139-.463-.602-.741-.463-1.482.139-.741.139-.741.324-1.204.185-.463.093-1.112 0-1.389-.093-.278-.417-.278-.417-.278s-.463.972-.74 1.158c-.278.185-.51 1.112-.694 1.806-.185.694-.417 1.158-.649 1.714-.231.556-.185 1.992-.139 2.361.047.371.232 2.825-.324 3.519s-.926 1.39-1.389 1.806c-.463.417-2.13.139-2.13.139s-.741-.649-.694-1.76c.047-1.112-.139-2.13.047-2.732.185-.602.556-1.76.741-2.316.185-.556.694-1.667.972-2.177.278-.509.787-1.204.926-1.621.139-.416.417-1.25 0-1.297 0 0-.509.047-1.019.834-.51.787-.926 1.343-1.065 1.759-.139.417-1.065 1.019-1.621.741 0 0-.602-.278-1.019-.232-.417.046-.602.88-.694 1.25-.093.371-.463 3.752-.834 4.678-.371.927-2.501 3.612-3.335 4.029 0 0-1.297.371-1.945.51-.649.139-1.019-.371-1.019-.371s-1.112-1.204-1.343-1.482c-.231-.278-.093-.834-.278-1.389-.185-.556.047-.741.371-.926.324-.185 1.436-.556 1.436-.556s2.315-1.899 2.732-3.242c.417-1.343 1.389-3.195 1.25-4.075-.139-.88-.149-1.955-.705-2.139-.447-.15-.793-.165-1.139-.034-.157.059-.33.121-.485.264-.031.028-.065.056-.081.094-.148.351-.554.566-.554.566s-.168.648-.354.972-.295 1.204-.202 1.806c.066.433.105 1.091-.124 1.449-.09.14-.361.167-.478.218-1.289.573-1.818 1.974-2.917.325-.371-.556-.926-.972-.926-.972s-.25-.281-.371-1.482c-.221-2.194.626-.911.888-1.945.072-.284.37-.736.405-1.168.016-.196-.109-.52-.181-.592-.233-.231-.552-.434-.564-.746zM205.861 39.423c.392-.348 1.221-1.133 1.873-1.699.654-.567 1.525-1.177 2.832-1.177 0 0 .436 1.221.697 1.657.262.436.654.959.393 2.571s-.349 1.395-.349 1.395-.348.435-2.004.828c-1.656.392-2.266.436-3.182.567-.915.131-1.917-.043-1.917-.043.557.78.556.456 1.395.828.392.174 2.222.436 2.789.567.566.131 1.003.392 1.438.74.436.348 1.525 1.438 2.571 1.612 0 0 1.657-.043 2.048-.392.393-.348 1.133-1.307 1.133-1.307s1.83-1.831 1.569-3.573c-.261-1.743-.523-1.961-.915-3.137s-1.026-2.682-.503-3.422c0 0 .913-.65 1.223-1 .311-.349.739-.849.782-1.11.025-.15.037-.655-.13-.981-.183-.356-.433-.31-.623-.382-.468-.176-.319-.724-.624-1.465 0 0-.822-.4-1.476-.4s-1.176-.043-2.266.654c-1.09.697-2.44 1.045-4.27 1.918-1.83.871-4.053 2.091-5.317 2.439 0 0-1.133.785-2.135.959-1.033.179-2.193-.539-2.745.566-.131.262.131.436.131.436s.915 1.133 1.657 1.525c1.378.729 2.163 2.463 3.922 1.787.695-.438 1.61-.613 2.003-.961zm-.739-28.507s.286 3.57.286 4.475c0 .904.095 4.474.143 4.95.048.476.428 1.285.571 1.952.143.666.241.99.428 1.142.186.153.522-.141 1.142-.762.299-.299.706-.397.872-.543.071-.062.078-.125.166-.178l.881-.534s.382-.29.887-.657c.348-.253.715-.547.888-.755.161-.193.258-.206.587-.218.936-.037 1.941.762 1.941.762.133.115.096.459.434.411.225-.031.147-.524.431-.755.194-.157.622-.122 1.037-.138.837-.034 1.006.199 1.421.613.235.235.398.52.427.794.043.409-.221.663-.427.947-.233.323-.422.657-.593.779-.321.229-.974.623-1.387.715-.133.03-.587.078-1.107.201-.669.159-1.492.42-2.329.699-.538.179-1.057.492-1.484.662-1.609.644-5.057 1.471-5.655 1.702-.598.23-2.529.735-2.529.735-.552.506.184 1.748.414 2.069.23.321.598.689.782.919.184.23.874.322.874.322s2.712-.643 3.264-.828c.552-.184 3.126-1.701 3.126-1.701.537-.616.979-1.129 1.512-1.464 1.018-.641 2.032-.711 2.304-.923.413-.321 1.701-1.613 1.701-1.613s.598-.506.828-.506c.23 0 .643.229.873.414.23.184.046 1.057-.275 1.38-.322.322-1.769 1.126-1.769 1.126s-.828.46-.598.506c.23.046 3.103.321 3.379.321.855 0 .943.053 1.977-.621.92-.643.735-.919.643-1.47-.092-.552-1.195-2.529-1.563-2.851-.65-.569-.97-.723-.782-1.242 0 0 1.057-.138 1.334-.138.877 0 1.049-.806.828-1.47-.397-1.193-1.523-.972-.768-1.969.093-.122.104-.092.25-.143.202-.071.554-.257.887-.739.506-.736 2.758-3.678 2.989-3.862.229-.184 1.012-1.011 1.057-1.242.046-.23-.23-1.103-.689-1.517-.977-.88-.331-1.155-1.436-.952-.354.065-.479.129-.788.317-.249.15-.592.353-.948.542-.689.368-1.698.706-1.977.874-1.471.88-1.748-.063-1.748-1.195 0-.833.224-.956-.689-1.241l-.825-.111c-.049-.007-.095-.021-.116-.048-.022-.03-.039-.112-.054-.178a2.87 2.87 0 0 1-.017-.95c.048-.342.133-.969.096-1.482-.033-.452-.188-.816-.188-.816s-.368-.414-.782-.598c-.414-.184-.92-.598-1.288-.828-.16-.099-.273-.219-.395-.298-.073-.047-.224-.094-.29-.133-.373-.229-.473-.131-.453.255.005.101.08.222.08.36 0 .419.089 1.192-.126 1.563-.092.157-.178.693-.333 1.08-.184.459-.552.713-.643.943-.092.23-.506.598-.874.736-.23.086-.948.07-1.395.131-.185.026-.387.055-.428.136-.025.048.062.115.094.209l.376.309c.343.206.57.362.787.497.168.105.343.156.474.461.138.321-.368 1.199-.598 1.935-.23.735-1.542 2.252-1.542 2.252.497.137.887-.603 1.204-.948.5-.544.717-.565 1.085-.703s1.277-.647 1.645-.968c.368-.322.796-.368.796-.368.915.222.629 1.15.629 1.15s-.195.659-.729 1.502c-.534.845-1.139 2.577-1.507 2.761-.367.183-1.555-.386-1.555-.386s-.836-.307-.867-.15c-.167.845.007.458.337.871.184.229 1.057 1.012 1.057 1.012.046.322-.66 1.591-.89 1.912-.161.225-.814.976-1.301 1.359-.11.087-.283.185-.387.025-.163-.251-.336-.435-.36-.601-.024-.166-.04-.478-.133-.84-.056-.216-.133-.596-.24-.828-.286-.619-.892-3.902-.986-4.521-.065-.425-.05-1.588-.169-2.269-.054-.309-.307-.417-.307-.491 0-.238-.381-.762-.381-.762l-.238-.286h-.287v.002zm11.4 2.523l2.981.083c.439.046.626.343.652.79.029.511-.113 1.346-.371 2.083-.149.423-.218.892-.537 1.187-.362.334-.98.468-1.177.507-.095.019-1.072.949-1.346.727-.167-.135-.655-.782-.877-1.013-.235-.175-.939-.648-1.233-.925-.054-.051-.467-.208-.444-.371s1.316-1.848 1.928-2.769c.239-.362.301-.273.424-.299zm-15.5 2.3c.39.343 1.552 1.547 1.742 1.681.218.154.795.029.816.49l.044.938c.033.741.069 1.667.056 2.018-.009.247.066.784.031 1.431-.034.635-.17 1.374-.314 1.912-.084.314-.075.562-.405.183a.85.85 0 0 1-.142-.237c-.174-.417-.348-.657-.391-1.161s-.336-1.074-.488-1.578c-.153-.504-.105-1.447-.212-1.929-.109-.482-.305-.745-.48-1.272-.104-.312-.269-1.125-.354-1.766-.043-.328-.066-.628-.048-.746.015-.112.102-.004.145.036zM86.888 27.962s-1.112.433-1.752 1.762c-.231.481-.164 1.352-.476 2.021-.36.77-.929 1.323-1.354 2.449-.025.065-.039.389-.206.831-.087.231-.354.4-.439.705-.059.209.064.552.007.744-.093.312-.32.477-.363.74-.083.503.114 1.017.461 1.146.391.147 1.078.539 1.765 1.323.31.354 1.873.742 2.009.195.098-.391.245-.882.196-1.764-.049-.882-.637-3.186-.49-4.901.147-1.715.392-3.087.392-3.774.001-.685.25-1.477.25-1.477zm16.294 5.659c.197-.071.276.238.62.536.22.192.53.322.685.488.177.19.184.548.503.975 1.126 1.512 1.831 2.319 2.173 3.779 0 0 .193 1.139-.343 1.826-.535.688-.77.666-.984.774-.214.108-2.184-.042-2.184-.042s-.235-.967-.235-1.482-.323-3.345-.365-3.646c-.017-.122-.33-.649-.361-1.171-.038-.654-.031-1.437.02-1.692l.171-.236.3-.109zM93.351 17.99c.413-.192.691-.438 1.012-.667.32-.23.577-.479.872-.828.161-.19.283-.55.49-.791.942-1.1 2.451-2.502 4.019-4.286.272-.309.388-.666.613-1.012.199-.307.511-.606.714-.859.89-1.108 1.538-1.442 2.173-2.193.832-.987 1.691-2.011 1.915-2.236.479-.479.92-.827 1.173-1.207.253-.381.634-.539.824-.507.19.031.38.539.38.539s.792.855.951 1.267c.158.412 0 .888.031 1.237.017.19.155.881.532 1.303.313.35.844.441 1.116.599 0 0 .886.05.572.59-.313.54-.513.576-.687.613-.311.065-.513.148-.723.161-.162.011-.437-.016-.663.022-.969.162-3.512.472-5.664 1.861-.495.32-1.03.72-1.578 1.099-.453.314-.92.598-1.343.959-.558.476-1.209.802-1.686 1.319-.201.218-.356.489-.558.657-.258.216-.564.32-.803.526-.292.252-.529.476-.817.684-.33.239-.749.46-1.123.673-.342.195-.7.357-1.023.552-.147.088-.264.206-.41.297-.328.162-.439.277-.284.654.079.195.087.232.296.269.394.072 1.751-.286 3.396-1.18 1.644-.893 3.039-1.644 3.039-1.644s1.382-.893 1.739-1.179c.357-.286.464-.072.464-.072s.405.358.298.536c-.107.178-.143.394-.143.394s.321.643.786.858c.272.125.689-.247 1.001-.429.429-.25 1.715-1.358 2.394-1.751a6.438 6.438 0 0 1 1.726-.659c.505-.111 1.045-.11 1.497-.201 1.072-.214 1.782-.535 2.496-.714.632-.157 1.45-.45 1.716.214 0 0 .214.643.071.858-.144.214-.429.679-.429 1.073 0 .394-.786 2.252-.893 3.182-.107.929-.906 8.941-.758 10.685.148 1.743.037 2.967 0 3.413-.037.445.111 4.339.111 4.525 0 .186.223 7.233.185 8.012-.037.779.014 2.782-.023 3.078-.023.185-.003 1.754-.073 2.083-.082.381-.435.603-.731.672-.789.187-1.421.389-1.592.513-.12.087-1.023.199-1.416.19a.813.813 0 0 1-.636-.338 2.847 2.847 0 0 1-.436-.944c-.055-.226-.234-.551-.413-.956-.23-.52-.508-1.175-1.01-1.927-1.114-1.671-1.578-2.384-1.729-2.615-.073-.112-.074-.139-.078-.282-.01-.314-.079-.944.086-.972.094-.015.698-.018 1.323-.014.487.003.978-.042 1.263.031.094.024.365.316.728.651.332.305.658.499.965.481.252-.014.585.245.974.048.377-.19.199-.533.199-.799 0-.187.451-5.743.413-7.245-.025-.997-.175-3.944-.206-6.262-.016-1.172-.002-2.184.074-2.701.225-1.539.32-4.365.433-4.965.112-.601.376-4.055.601-4.88.225-.825.347-1.38.422-1.604.166-.498.012-.941-.286-.756-.371.229-.785.259-1.172.2-.605-.094-.987-.533-1.268-.569-.563-.075-2.426.704-2.689.929-.263.225-1.314 1.577-1.802 1.727-.488.15-1.427.488-1.839.338 0 0-.188-.263-.376-.564s-.564-.638-1.051-.638c-.488 0-1.538.902-1.802 1.202-.263.3-.375.638-.375.638s1.051.15 1.464.15c2.056 0 1.841-.029 2.327 1.877 0 0 1.201-.037 1.614-.188s.488.451.488.451-.037.488-.187.713c-.15.225-1.277 1.614-1.802 2.065-.525.451-.676.977-.676 1.314 0 .337.112.601.563.638s1.051-.263 1.351 1.013c0 0 .225.676.037.826-.188.15-.825.713-1.051.864-.225.15-2.027 2.403-2.666 4.017 0 0-.525.488 0 2.778s.563 2.966.488 3.266c-.076.3.337 1.839-1.878 3.341 0 0-.936.788-1.836-.601 0 0-.565-.751-.527-1.99.024-.774.034-1.168.015-1.353-.02-.193-.051-.156-.25-.139-.254.02-.677.085-.78.292-.15.3-.3.977-.413 1.351-.112.376-.826 1.352-1.239 1.539-.258.117-.47.118-.688-.054a1.587 1.587 0 0 1-.403-.507c-.127-.239-.354-.474-.428-.695-.123-.369-.01-.701.318-.96 0 0 .489-.601 1.126-1.201.638-.601 1.126-1.014 1.314-1.239.188-.225.526-.526.601-.826.075-.3.037-1.99.037-2.328 0 0-.188-.375-.488-.337-.3.037-.601.113-.676.563-.076.45-.15.789-.413.789s-1.426-.301-1.465-1.014c-.037-.713.038-1.464.564-1.952 0 0 1.051-.488 1.839-1.202.789-.713 1.164-1.276 1.201-1.765.037-.488.15-.563.15-.563s-.901.301-1.426.676c-.526.375-1.277 1.126-1.69 1.276-.413.15-.713.375-.938.263-.225-.113-.488-.113-1.164-.976-.676-.864-1.351-.938-1.69-1.652-.338-.713.075-.864.413-1.126.337-.263 1.727-.3 2.29-.601.564-.3 1.878-.826 2.703-1.314.826-.488 2.215-1.351 2.591-1.577.376-.225.488-.526.488-.526l.15-1.652s-.263-.225-1.014-.263c-.751-.037-.713-.376-3.003.375 0 0-1.089.376-1.802.376s-.676-.187-1.051-.187c-.375 0-.977-.076-1.351-.151-.376-.076-1.696-1.368-1.749-1.51-.054-.142 1.144-.107 1.823-.251.679-.143 1.396-.283 1.68-.429.098-.05.209-.109.326-.207.15-.125.262-.232.411-.296a.653.653 0 0 1 .339-.066c.176.006.251.052.538-.081zm-7.573-4.938c.556-.192.958-.048 1.765-.346.484-.179.786-.383 1.275-.6.572-.253 1.164-.408 1.539-.768 0 0 .218-.207.568-.428.271-.173.662-.302.837-.686.116-.253.014-.574-.091-1.057l-.022-.096c-.036-.144-.154-.274-.14-.417.059-.637-.306-1.42-.109-1.955.136-.368.478-.52.842-.575.219-.033.4-.18.68.101.21.211.78 1.163 1.026 1.374.246.212.765.46.976.601.211.141 1.019.786.929 1.41-.025.175.031.626.093.815.062.19.252.089.303.178.105.175.344.552.45.834.105.282.535.615.078 1.038-.314.29-.719.087-.902.34-.082.115-.075.318-.25.604-.254.416-.639 1.171-1.036 1.322-.479.183-.976-.283-1.283-.263-.562.035-1.089.564-1.686.987-.598.423-2.002 1.234-2.108 1.481-.105.247-.563.529-.843.67-.281.141-.667.011-.983-.34-.227-.253-.53-.799-.821-1.229-.114-.168-.183-.379-.31-.459-.456-.282-.782-.876-.958-1.087-.116-.139-.519-.348-.636-.568-.159-.306.427-.747.817-.881zM184.067 31.895s.976.028 1.294.26c.212.156 1.63 1.642 1.879 1.89.258.258 1.041.201 1.721.784.479.41.777 1.113 1.199 1.699.328.457.81.831 1.003 1.029.742.759 2.022 3.182 1.487 3.771-.201.22-.857.146-1.197.374-.568.38-1.402.853-1.836 1.087-.695.374-.932 1.057-1.574 1.165-.643.107-.964 0-1.125-.643-.161-.643-.268-3.75-.696-5.089-.914-2.854-1.556-5.157-2.155-6.327zm-24.093-2.896c.481.039 1.179.373 1.778.224.598-.15 5.523-1.338 7.519-2.335 1.997-.998 2.772-1.224 3.221-1.523.449-.299 1.646-.575 1.947-1.895.299-1.319.848-4.149.898-5.346.05-1.198-.05-2.894-.1-3.544-.05-.649-.349-1.896-1.047-2.644 0 0-.5-.898-.25-1.448.25-.549.999-.949 1.098-1.248a.585.585 0 0 1 .379-.354c.11-.033.283-.01.333-.003.107.014.207.107.241.14.19.183 1.068 1.034 1.741 1.527.748.548 2.745 2.033 3.045 2.433.299.399.749 1.097.598 1.947 0 0-.252.699-.352 1.198-.099.499.355 1.148-.044 1.497-.4.349-1.151 1.397-1.25 1.997-.099.599-.099 1.248-.05 1.597.05.349.15.798.15.798s.3 0 .699-.249c.4-.25 1.298-.549 1.697-.848.199-.149.964-.406 1.547-.852.35-.268.481-.704.816-.946.228-.165.519-.216.682-.348.222-.18.459-.282.592-.401.171-.153.214-.312.302-.465.148-.256.031-.486-.102-.694a1.895 1.895 0 0 0-.324-.381c-.122-.107-.235-.297-.394-.429-.061-.051-.085-.082-.082-.141l.006-.116c.011-.076.084-.115.161-.095.21.054.867.225 1.166.446.354.262 1.372.817 1.638 1.146.267.328.143.683-.106.831-.176.105-.897.49-1.577.916-.281.177-.633.362-.779.523-.264.291-.727.629-1.062 1.174-.295.481-.391 1.068-.812 1.395-.898.699-2.421 1.33-2.82 1.731-.4.399-1.198 1.148-1.547 1.796-.349.649-.4 1.347-.699 1.547-.299.2-.848 1.198-1.048 1.497-.2.299-.349 1.697-.649 2.545-.299.849-.549 2.496-.549 2.894 0 .4-.256 1.193-.455 1.841-.2.649-.699 1.697-2.046 2.346 0 0-1.068.446-1.618.895-.549.449-1.121.857-1.571 1.206-.449.349-1.298 1.048-3.843 1.347-2.545.299-3.094.249-4.442.499-1.179.218-3.313.551-3.828.631-.2.031-.196-.502.096-.562a8.64 8.64 0 0 0 1.137-.319c.699-.249 2.395-1.497 3.843-2.345 1.447-.849 3.045-1.797 3.893-2.695.848-.898 3.244-2.595 3.992-3.493.749-.898 1.447-3.194 1.447-3.693 0 0-.299-.649-.848-.349-.549.299-2.695 1.697-3.443 2.046-.749.349-1.298.45-2.546 1.298-1.248.847-1.997 1.646-2.944 1.347-.948-.299-1.597-.898-2.545-1.697-.52-.439-1.432-1.271-1.86-2.037-.134-.24-.031-.47.116-.77.146-.302.374-1.03.854-.99z"/></svg>