<?xml version="1.0" encoding="utf-8"?>
<!-- Generator: Adobe Illustrator 25.0.0, SVG Export Plug-In . SVG Version: 6.00 Build 0)  -->
<svg version="1.1" id="图层_1" xmlns="http://www.w3.org/2000/svg" xmlns:xlink="http://www.w3.org/1999/xlink" x="0px" y="0px"
	 viewBox="0 0 80 80" style="enable-background:new 0 0 80 80;" xml:space="preserve">
<style type="text/css">
	.st0{fill:#FFFFFF;}
	.st1{fill-rule:evenodd;clip-rule:evenodd;fill:#FFFFFF;}
</style>
<path class="st0" d="M8.123,54.866l-1.354-3.27l0.223-0.093c0.13,0.398,0.333,0.531,0.609,0.4l2.714-1.125
	c0.273-0.095,0.323-0.332,0.149-0.712l0.222-0.093l0.856,2.07l-0.222,0.092c-0.151-0.406-0.353-0.54-0.608-0.399L8.017,52.85
	c-0.279,0.082-0.346,0.257-0.2,0.526c0.264,0.552,0.841,0.773,1.735,0.663l0.101,0.246L8.123,54.866L8.123,54.866z"/>
<path class="st0" d="M11.293,57.029l0.838-1.14l-1.39,0.207L11.293,57.029L11.293,57.029z M9.382,57.207l-0.859-1.451l0.208-0.123
	c0.199,0.273,0.558,0.36,1.077,0.258l3.521-0.486l0.159,0.269l-2.343,3.235c-0.194,0.208-0.214,0.444-0.058,0.706l-0.208,0.122
	L9.751,57.83l0.207-0.123l0.123,0.207c0.117,0.23,0.241,0.296,0.371,0.201c0.028-0.017,0.068-0.059,0.121-0.127
	c0.028-0.017,0.048-0.029,0.062-0.037l0.442-0.625l-0.687-1.162l-0.513,0.08c-0.102-0.014-0.229,0.024-0.381,0.113
	c-0.166,0.098-0.188,0.251-0.065,0.459l0.159,0.269L9.382,57.207L9.382,57.207z"/>
<path class="st0" d="M14.424,57.829l0.187-0.153l0.947,1.157l-0.925,3.437l0.015,0.019l1.68-1.374
	c0.231-0.148,0.218-0.418-0.04-0.81l0.187-0.152l0.977,1.194l-0.187,0.152c-0.292-0.28-0.533-0.321-0.724-0.124l-2.724,2.231
	l-0.366-0.448l1.041-3.906l-0.016-0.019l-2.034,1.665c-0.267,0.156-0.219,0.429,0.141,0.819l-0.186,0.152l-1.054-1.287l0.186-0.153
	c0.24,0.343,0.473,0.412,0.699,0.207l2.276-1.863C14.737,58.403,14.711,58.155,14.424,57.829L14.424,57.829z"/>
<path class="st0" d="M18.409,65.563l-1.129,1.188l-2.426-2.239l0.213-0.23l4.096-1.169l-0.301-0.278
	c-0.67-0.576-1.28-0.602-1.827-0.08l-0.195-0.18l1.032-1.047l2.283,2.108l-0.294,0.318L15.9,65.084
	c0.807,0.831,1.577,0.931,2.314,0.299L18.409,65.563L18.409,65.563z"/>
<path class="st0" d="M20.822,66.487l1.131,0.78l0.697-1.012c0.177-0.228,0.109-0.441-0.204-0.638l0.137-0.198l1.786,1.231
	l-0.137,0.199c-0.348-0.259-0.591-0.261-0.728-0.005l-1.669,2.421c-0.2,0.233-0.112,0.46,0.264,0.679l-0.137,0.199l-1.786-1.231
	l0.136-0.199c0.286,0.236,0.509,0.224,0.669-0.036l0.821-1.19l-1.131-0.78l-0.82,1.191c-0.2,0.233-0.132,0.446,0.204,0.638
	l-0.137,0.198l-1.766-1.216l0.137-0.199c0.312,0.254,0.549,0.251,0.709-0.009l1.668-2.421c0.177-0.229,0.096-0.451-0.244-0.666
	l0.136-0.198l1.766,1.218l-0.136,0.198c-0.309-0.232-0.531-0.22-0.669,0.036L20.822,66.487L20.822,66.487z"/>
<path class="st0" d="M24.856,69.256c-0.568,1.153-0.537,1.87,0.092,2.153c0.587,0.299,1.157-0.131,1.712-1.291
	c0.546-1.144,0.523-1.858-0.071-2.143C25.966,67.678,25.389,68.104,24.856,69.256L24.856,69.256z M23.813,68.757
	c0.684-1.132,1.65-1.48,2.901-1.042c1.097,0.684,1.426,1.652,0.989,2.902c-0.699,1.124-1.652,1.461-2.859,1.009
	C23.705,70.957,23.361,70,23.813,68.757L23.813,68.757z"/>
<path class="st0" d="M28.97,68.84l2.076,0.627l-0.07,0.231c-0.425-0.146-0.666-0.076-0.718,0.211l-0.732,2.422
	c-0.133,0.497,0.063,0.849,0.587,1.058c0.661,0.2,1.102-0.037,1.321-0.708l0.648-2.145c0.109-0.253-0.059-0.472-0.507-0.656
	l0.07-0.231l1.499,0.452l-0.069,0.231c-0.419-0.06-0.65,0.038-0.693,0.294l-0.634,2.1c-0.26,0.861-0.905,1.136-1.936,0.826
	c-0.995-0.318-1.389-0.847-1.181-1.591l0.704-2.33c0.099-0.273-0.046-0.458-0.435-0.559L28.97,68.84L28.97,68.84z"/>
<path class="st0" d="M37.709,70.777l2.166,0.009l-0.001,0.24c-0.449-0.018-0.658,0.119-0.627,0.407l-0.009,2.528
	c0.014,0.514,0.302,0.796,0.864,0.846c0.69,0.003,1.044-0.349,1.063-1.056l0.009-2.238c0.033-0.273-0.191-0.435-0.672-0.484
	l0.001-0.241l1.565,0.006l-0.001,0.24c-0.418,0.063-0.611,0.223-0.58,0.479l-0.009,2.191c-0.004,0.899-0.543,1.346-1.618,1.342
	c-1.043-0.02-1.572-0.415-1.584-1.185l0.009-2.432c0.017-0.289-0.175-0.427-0.577-0.412L37.709,70.777L37.709,70.777z"/>
<path class="st0" d="M42.339,71.018l-0.034-0.238l1.477-0.216l2.467,2.562l0.024-0.003l-0.313-2.145
	c-0.008-0.275-0.246-0.402-0.713-0.383l-0.036-0.238l1.526-0.223l0.036,0.238c-0.391,0.105-0.55,0.291-0.479,0.556l0.507,3.481
	l-0.572,0.083l-2.809-2.901l-0.024,0.003l0.379,2.599c-0.004,0.308,0.255,0.409,0.774,0.301l0.035,0.238l-1.645,0.24l-0.034-0.239
	c0.417-0.029,0.596-0.192,0.536-0.492l-0.424-2.908C42.992,71.045,42.766,70.94,42.339,71.018L42.339,71.018z"/>
<path class="st0" d="M50.483,73.457l-2.158,0.596l-0.064-0.232c0.411-0.081,0.568-0.265,0.471-0.555l-0.781-2.831
	c-0.062-0.283-0.292-0.361-0.69-0.234l-0.064-0.232l2.159-0.596l0.064,0.232c-0.422,0.1-0.579,0.284-0.471,0.554l0.782,2.832
	c0.051,0.303,0.28,0.381,0.689,0.234L50.483,73.457L50.483,73.457z"/>
<path class="st0" d="M49.873,69.497l-0.091-0.223l1.9-0.768l0.09,0.224c-0.372,0.151-0.513,0.294-0.424,0.431
	c-0.078-0.02,0.49,0.677,1.703,2.093l0.022-0.009c-0.001-0.086-0.004-0.223-0.01-0.412c-0.047-1.661-0.086-2.4-0.115-2.215
	c-0.084-0.208-0.283-0.249-0.596-0.123l-0.09-0.224l1.296-0.523l0.09,0.223c-0.265,0.159-0.385,0.355-0.36,0.587l0.116,3.827
	l-0.469,0.19l-2.408-2.874C50.332,69.433,50.114,69.365,49.873,69.497L49.873,69.497z"/>
<path class="st0" d="M56.946,65.801l0.8,1.291l-0.229,0.132c-0.597-0.583-1.219-0.697-1.867-0.342
	c-0.328,0.171-0.41,0.366-0.246,0.587l0.602,1.044c0.483-0.224,0.641-0.593,0.473-1.108l0.209-0.12l0.855,1.481l-0.209,0.12
	c-0.354-0.389-0.753-0.437-1.196-0.144l0.711,1.231c0.117,0.267,0.326,0.293,0.631,0.082c0.673-0.408,0.898-1.048,0.673-1.919
	l0.23-0.132l0.765,1.422l-3.381,1.951l-0.12-0.208c0.377-0.181,0.483-0.4,0.317-0.656l-1.47-2.546
	c-0.131-0.259-0.373-0.277-0.727-0.054l-0.12-0.209L56.946,65.801L56.946,65.801z"/>
<path class="st0" d="M59.229,64.924l0.823,1.04c0.612-0.443,0.721-0.888,0.327-1.335c-0.355-0.395-0.705-0.477-1.053-0.243
	C59.099,64.565,59.067,64.745,59.229,64.924L59.229,64.924z M62.69,65.567l0.19-0.149c0.399,0.504,0.365,0.94-0.101,1.31
	c-0.469,0.392-0.918,0.317-1.347-0.226c-0.295-0.32-0.503-0.493-0.626-0.519c-0.143-0.051-0.344,0.006-0.603,0.17l0.793,1.003
	c0.192,0.319,0.453,0.328,0.787,0.023l0.149,0.189l-1.72,1.362l-0.15-0.19c0.348-0.234,0.42-0.466,0.218-0.695l-1.825-2.307
	c-0.166-0.238-0.409-0.219-0.727,0.053l-0.149-0.189l1.701-1.346c0.817-0.626,1.461-0.654,1.932-0.085
	c0.407,0.539,0.226,1.114-0.544,1.722l0.015,0.018c0.481-0.299,0.954-0.284,1.419,0.045c0.452,0.339,0.687,0.44,0.702,0.305
	C62.902,66.004,62.864,65.839,62.69,65.567L62.69,65.567z"/>
<path class="st0" d="M64.282,65.368l-1.181-1.134l0.184-0.191c0.849,0.482,1.502,0.486,1.958,0.011
	c0.355-0.371,0.371-0.723,0.047-1.057c-0.185-0.178-0.599-0.107-1.239,0.213c-0.854,0.449-1.471,0.49-1.854,0.123
	c-0.603-0.623-0.605-1.293-0.007-2.01c0.2-0.208,0.453-0.355,0.757-0.441c0.101-0.036,0.169-0.072,0.202-0.106
	c0.056-0.036,0.054-0.149-0.007-0.341l0.167-0.174l1.06,1.017l-0.167,0.174c-0.746-0.382-1.325-0.382-1.737,0.002
	c-0.299,0.358-0.321,0.67-0.066,0.938c0.209,0.2,0.611,0.141,1.206-0.178c0.887-0.484,1.545-0.52,1.973-0.109
	c0.558,0.625,0.538,1.295-0.061,2.011c-0.245,0.255-0.524,0.465-0.839,0.63c-0.124,0.036-0.197,0.066-0.219,0.089
	c-0.056,0.058-0.059,0.178-0.01,0.359L64.282,65.368L64.282,65.368z"/>
<path class="st0" d="M68.685,60.275l-1.362,1.782l-0.192-0.146c0.279-0.312,0.292-0.555,0.04-0.727l-2.338-1.785
	c-0.219-0.189-0.451-0.112-0.692,0.23l-0.191-0.147l1.361-1.782l0.192,0.147c-0.276,0.335-0.29,0.578-0.04,0.728L67.8,60.36
	c0.224,0.21,0.454,0.133,0.692-0.231L68.685,60.275L68.685,60.275z"/>
<path class="st0" d="M65.68,57.257l2.021-3.42l1.298,0.738l-0.147,0.249c-0.789-0.242-1.339-0.101-1.649,0.424l2.84,1.678
	c0.238,0.197,0.47,0.073,0.696-0.372l0.207,0.123L69.72,58.75l-0.207-0.123c0.28-0.413,0.282-0.682,0.002-0.81l-2.84-1.678
	c-0.319,0.539-0.177,1.089,0.424,1.649l-0.147,0.249L65.68,57.257L65.68,57.257z"/>
<path class="st0" d="M68.044,53.683l-0.222-0.094l0.793-1.887l0.222,0.093c-0.131,0.311-0.134,0.484-0.009,0.518
	c0.044,0.019,0.135,0.031,0.272,0.036c0.036-0.002,0.064-0.007,0.085-0.017l1.385-0.123l-0.842-0.981
	c-0.108-0.115-0.199-0.189-0.273-0.219c-0.155-0.047-0.304,0.081-0.45,0.385l-0.222-0.093l0.607-1.444l0.222,0.094
	c-0.105,0.374-0.059,0.638,0.139,0.789l1.319,1.521l1.021,0.429c0.263,0.162,0.475,0.009,0.638-0.463l0.223,0.093l-0.915,2.176
	l-0.222-0.093c0.223-0.446,0.187-0.714-0.107-0.803l-1.043-0.438L68.935,53.3C68.41,53.305,68.113,53.433,68.044,53.683
	L68.044,53.683z"/>
<path class="st1" d="M7.377,41.182c0.645,0,1.218-0.501,1.218-1.146s-0.573-1.217-1.218-1.217c-0.644,0-1.217,0.573-1.217,1.217
	S6.732,41.182,7.377,41.182L7.377,41.182z"/>
<path class="st1" d="M72.551,41.182c0.645,0,1.146-0.501,1.146-1.146s-0.502-1.217-1.146-1.217c-0.645,0-1.217,0.573-1.217,1.217
	S71.907,41.182,72.551,41.182L72.551,41.182z"/>
<path class="st1" d="M40,0c22.088,0,40,17.912,40,40c0,22.088-17.912,40-40,40C17.912,80,0,62.088,0,40C0,17.912,17.912,0,40,0L40,0
	z M40,1.085c21.489,0,38.915,17.426,38.915,38.915c0,21.488-17.426,38.915-38.915,38.915S1.085,61.488,1.085,40
	C1.085,18.511,18.511,1.085,40,1.085L40,1.085z"/>
<path class="st1" d="M40,12.761c15.041,0,27.239,12.198,27.239,27.24c0,15.041-12.198,27.239-27.239,27.239
	c-15.041,0-27.239-12.198-27.239-27.239C12.761,24.959,24.959,12.761,40,12.761L40,12.761z M40,13.5c14.633,0,26.5,11.867,26.5,26.5
	c0,14.633-11.867,26.5-26.5,26.5c-14.633,0-26.5-11.867-26.5-26.5C13.5,25.367,25.367,13.5,40,13.5L40,13.5z"/>
<path class="st1" d="M62.853,37.828h-2.145v2.196h2.145V37.828L62.853,37.828z M39.872,20.799l0.128,0l0.128,0
	c0,0.827,0,1.15,0,2.193l0.143,0.442v1.474l0.456,0.545v2.462h0.619v4.616h0.683v-0.579h0.727v2.689h9.936v-1.548h0.557v0.463h1.812
	l0-0.485h0.556v1.57h7.823V45.12H16.559V34.642h7.824v-1.57h0.555l0.001,0.485h1.811v-0.463h0.557v1.548h9.936v-2.689h0.727v0.579
	h0.683v-4.616h0.619v-2.462l0.456-0.545v-1.474l0.143-0.442C39.872,21.949,39.872,21.627,39.872,20.799L39.872,20.799z
	 M62.853,40.221h-2.854v1.787h2.854V40.221L62.853,40.221z M62.853,42.206h-3.317v1.438h1.127v-1.079h0.59v1.079h0.473V44.5h1.127
	V42.206L62.853,42.206z M55.116,37.828h2.463v2.196h-2.463V37.828L55.116,37.828z M55.116,40.221h3.276v1.787h-3.276V40.221
	L55.116,40.221z M55.116,42.206h3.808v1.438H57.63v-1.079h-0.677v1.079h-0.362V44.5h-1.476V42.206L55.116,42.206z M55.116,35.766
	h2.463v1.898h-2.463V35.766L55.116,35.766z M60.162,35.786h-2.058v4.055h0.644v1.715h0.901v-1.715h0.513V35.786L60.162,35.786z
	 M55.081,34.067h-1.83v0.589h1.83V34.067L55.081,34.067z M54.567,35.466h-1.464V44.5h1.464V35.466L54.567,35.466z M42.51,37.498
	h-0.683v1.067h0.683V37.498L42.51,37.498z M52.533,37.498h-0.608v1.29h-0.76v-1.29h-0.683v1.29c-0.253,0-0.506,0-0.76,0v-1.29H49.04
	v1.29c-0.253,0-0.507,0-0.76,0v-1.29h-0.683v1.29c-0.253,0-0.507,0-0.76,0v-1.29h-0.683v1.29c-0.253,0-0.507,0-0.76,0v-1.29h-0.683
	v1.29c-0.254,0-0.507,0-0.76,0v-1.29H43.27v1.067h0.207v0.564h9.057V37.498L52.533,37.498z M51.387,39.365h-1.104v1.974h1.104
	V39.365L51.387,39.365z M50.103,39.365H49v1.974h1.103V39.365L50.103,39.365z M48.82,39.365h-1.132v1.974h1.132V39.365L48.82,39.365
	z M52.536,39.365h-0.953v1.974h0.953V39.365L52.536,39.365z M52.536,41.52h-8.319v2.969h3.092v-2.496h0.581v2.496h0.715v-2.496h0.58
	v2.496h0.715v-2.496h0.581v2.496h0.715v-2.496h0.581v2.496h0.759V41.52L52.536,41.52z M62.853,35.766h-2.145v1.898h2.145V35.766
	L62.853,35.766z M40.369,38.565v-1.067h0.698v1.067H40.369L40.369,38.565z M17.147,37.828h2.145v2.196h-2.145V37.828L17.147,37.828z
	 M17.147,40.221h2.854v1.787h-2.854V40.221L17.147,40.221z M17.147,42.206h3.317v1.438h-1.127v-1.079h-0.589v1.079h-0.473V44.5
	h-1.127V42.206L17.147,42.206z M24.884,37.828h-2.463v2.196h2.463V37.828L24.884,37.828z M24.884,40.221h-3.277v1.787h3.277V40.221
	L24.884,40.221z M24.884,42.206h-3.808v1.438h1.294v-1.079h0.677v1.079h0.362V44.5h1.476V42.206L24.884,42.206z M24.884,35.766
	h-2.463v1.898h2.463V35.766L24.884,35.766z M19.838,35.786h2.059v4.055h-0.644v1.715h-0.901v-1.715h-0.514V35.786L19.838,35.786z
	 M24.919,34.067h1.83v0.589h-1.83V34.067L24.919,34.067z M25.433,35.466h1.464V44.5h-1.464V35.466L25.433,35.466z M37.49,37.498
	h0.682v1.067H37.49V37.498L37.49,37.498z M27.467,37.498h0.608v1.29h0.76v-1.29h0.683v1.29c0.253,0,0.507,0,0.76,0v-1.29h0.683v1.29
	c0.254,0,0.507,0,0.76,0v-1.29h0.683v1.29c0.254,0,0.507,0,0.76,0v-1.29h0.683v1.29c0.253,0,0.506,0,0.76,0v-1.29h0.683v1.29
	c0.253,0,0.507,0,0.76,0v-1.29h0.683v1.067h-0.207v0.564h-9.057V37.498L27.467,37.498z M28.613,39.365h1.104v1.974h-1.104V39.365
	L28.613,39.365z M29.897,39.365H31v1.974h-1.104V39.365L29.897,39.365z M31.18,39.365h1.132v1.974H31.18V39.365L31.18,39.365z
	 M27.464,39.365h0.953v1.974h-0.953V39.365L27.464,39.365z M27.464,41.52h8.319v2.969h-3.092v-2.496H32.11v2.496h-0.715v-2.496
	h-0.581v2.496h-0.715v-2.496h-0.58v2.496h-0.715v-2.496h-0.581v2.496h-0.759V41.52L27.464,41.52z M17.147,35.766h2.145v1.898h-2.145
	V35.766L17.147,35.766z M39.631,38.565v-1.067h-0.698v1.067H39.631L39.631,38.565z M40.427,27.939v-2.1L40,25.558l-0.428,0.281v2.1
	H40.427L40.427,27.939z M40.815,32.541v-3.96h-1.631v3.96H40.815L40.815,32.541z M42.055,34.642v-1.407h-4.11v1.407H42.055
	L42.055,34.642z M40,35.585c0.203,0,0.369,0.171,0.369,0.38v0.113h0.703v-0.113c0-0.208,0.166-0.38,0.369-0.38l0,0
	c0.203,0,0.369,0.171,0.369,0.38v0.113h0.704v-0.113c0-0.208,0.166-0.38,0.369-0.38l0,0c0.203,0,0.369,0.171,0.369,0.38v0.113h0.704
	v-0.113c0-0.208,0.166-0.38,0.369-0.38l0,0c0.203,0,0.369,0.171,0.369,0.38v0.113h0.704v-0.113c0-0.208,0.166-0.38,0.369-0.38l0,0
	c0.203,0,0.369,0.171,0.369,0.38v0.113h0.704v-0.113c0-0.208,0.166-0.38,0.369-0.38l0,0c0.203,0,0.369,0.171,0.369,0.38v0.113h0.703
	v-0.113c0-0.208,0.166-0.38,0.369-0.38l0,0c0.203,0,0.369,0.171,0.369,0.38v0.113h0.704v-0.113c0-0.208,0.166-0.38,0.369-0.38l0,0
	c0.203,0,0.369,0.171,0.369,0.38v0.113h0.703v-0.113c0-0.208,0.166-0.38,0.369-0.38l0,0c0.203,0,0.369,0.171,0.369,0.38v0.113h0.634
	v-0.886H27.467v0.886H28.1v-0.113c0-0.209,0.166-0.38,0.369-0.38l0,0c0.203,0,0.369,0.171,0.369,0.38v0.113h0.704v-0.113
	c0-0.209,0.166-0.38,0.369-0.38l0,0c0.203,0,0.369,0.171,0.369,0.38v0.113h0.704v-0.113c0-0.209,0.166-0.38,0.369-0.38l0,0
	c0.203,0,0.369,0.171,0.369,0.38v0.113h0.703v-0.113c0-0.209,0.166-0.38,0.369-0.38l0,0c0.203,0,0.369,0.171,0.369,0.38v0.113h0.704
	v-0.113c0-0.209,0.166-0.38,0.369-0.38l0,0c0.203,0,0.369,0.171,0.369,0.38v0.113h0.703v-0.113c0-0.209,0.166-0.38,0.369-0.38l0,0
	c0.203,0,0.369,0.171,0.369,0.38v0.113h0.704v-0.113c0-0.209,0.166-0.38,0.369-0.38l0,0c0.203,0,0.369,0.171,0.369,0.38v0.113h0.704
	v-0.113c0-0.209,0.166-0.38,0.369-0.38l0,0c0.203,0,0.369,0.171,0.369,0.38v0.113h0.704v-0.113
	C39.631,35.756,39.797,35.585,40,35.585L40,35.585z M52.533,37.309v-1.058H51.9v0.751h-0.738v-0.751h-0.703v0.751
	c-0.246,0-0.492,0-0.738,0v-0.751h-0.704v0.751c-0.246,0-0.492,0-0.738,0v-0.751h-0.703v0.751c-0.246,0-0.492,0-0.738,0v-0.751
	h-0.704v0.751c-0.246,0-0.492,0-0.738,0v-0.751h-0.704v0.751c-0.246,0-0.492,0-0.738,0v-0.751h-0.704v0.751
	c-0.246,0-0.492,0-0.738,0v-0.751H41.81v0.751c-0.246,0-0.492,0-0.738,0v-0.751h-0.703v0.751h-0.738v-0.751h-0.704v0.751
	c-0.246,0-0.492,0-0.738,0v-0.751h-0.704v0.751c-0.246,0-0.492,0-0.738,0v-0.751h-0.704v0.751c-0.246,0-0.492,0-0.738,0v-0.751
	h-0.703v0.751c-0.246,0-0.492,0-0.738,0v-0.751h-0.704v0.751c-0.246,0-0.492,0-0.738,0v-0.751h-0.703v0.751
	c-0.246,0-0.492,0-0.738,0v-0.751h-0.704v0.751c-0.246,0-0.492,0-0.738,0v-0.751h-0.704v0.751H28.1v-0.751h-0.634v1.058H52.533
	L52.533,37.309z M42.453,39.223l1.766,1.268v0.848h3.274v-1.974h-4.228v-0.591h-6.531v0.591h-4.228v1.974h3.274v-0.848l1.766-1.268
	H42.453L42.453,39.223z M40.774,40.297c0.677,0,1.231,0.588,1.231,1.305v2.887h0.631v-3.986l-0.509-0.526h-4.257l-0.509,0.526v3.986
	h0.631v-2.887c0-0.718,0.554-1.305,1.231-1.305H40.774L40.774,40.297z M41.095,41.628v2.861h0.422v-3.083
	c0-0.41-0.326-0.746-0.725-0.746h-1.584c-0.399,0-0.725,0.336-0.725,0.746v3.083h0.422v-2.861H41.095L41.095,41.628z M40.696,44.489
	v-2.067c0-0.073-0.112-0.132-0.249-0.132h-0.894c-0.137,0-0.249,0.06-0.249,0.132v2.067H40.696L40.696,44.489z M36.751,46.452h6.499
	v0.574h-6.499V46.452L36.751,46.452z M35.686,47.313h8.628v0.575h-8.628V47.313L35.686,47.313z M37.923,45.595h4.154v0.575h-4.154
	V45.595L37.923,45.595z"/>
<path class="st0" d="M32.751,55.131v-0.886c0.409-0.165,0.801-0.382,1.178-0.651h0.95v4.456H33.86v-3.49
	C33.515,54.792,33.146,54.983,32.751,55.131L32.751,55.131z M36.202,56.955h1.03c0.059,0.356,0.226,0.539,0.499,0.547
	c0.537-0.002,0.772-0.476,0.705-1.424c-0.128,0.105-0.261,0.177-0.398,0.217c-0.132,0.042-0.304,0.062-0.516,0.06
	c-0.845-0.079-1.312-0.525-1.402-1.339c0.066-0.944,0.624-1.45,1.674-1.519c1.13-0.002,1.695,0.659,1.694,1.983
	c0.065,1.803-0.516,2.69-1.744,2.661C36.73,58.152,36.216,57.757,36.202,56.955L36.202,56.955z M37.169,54.952
	c0.009,0.501,0.228,0.754,0.658,0.761c0.393-0.009,0.595-0.262,0.609-0.761c-0.021-0.526-0.223-0.797-0.609-0.811
	C37.404,54.154,37.184,54.424,37.169,54.952L37.169,54.952z M42.35,55.827c0.005-1.106-0.197-1.667-0.605-1.686
	c-0.408,0.019-0.609,0.58-0.602,1.686c-0.007,1.1,0.194,1.66,0.602,1.675C42.152,57.487,42.355,56.927,42.35,55.827L42.35,55.827z
	 M43.399,55.827c-0.029,1.522-0.587,2.293-1.674,2.314c-1.058-0.024-1.602-0.795-1.63-2.314c0.03-1.528,0.575-2.305,1.63-2.33
	C42.81,53.519,43.369,54.296,43.399,55.827L43.399,55.827z M43.959,56.955h1.03c0.059,0.356,0.226,0.539,0.499,0.547
	c0.537-0.002,0.772-0.476,0.704-1.424c-0.128,0.105-0.261,0.177-0.398,0.217c-0.132,0.042-0.303,0.062-0.516,0.06
	c-0.845-0.079-1.312-0.525-1.402-1.339c0.067-0.944,0.624-1.45,1.675-1.519c1.13-0.002,1.695,0.659,1.694,1.983
	c0.066,1.803-0.516,2.69-1.743,2.661C44.486,58.152,43.972,57.757,43.959,56.955L43.959,56.955z M44.925,54.952
	c0.009,0.501,0.228,0.754,0.658,0.761c0.393-0.009,0.595-0.262,0.608-0.761c-0.02-0.526-0.223-0.797-0.608-0.811
	C45.16,54.154,44.941,54.424,44.925,54.952L44.925,54.952z"/>
<path class="st1" d="M25.67,9.884c-0.022-0.043,0.112-0.072,0.2-0.112c0.034-0.016,0.11-0.05,0.13-0.051
	c0.071-0.005,0.094-0.008,0.249,0.044c0.155,0.052,0.26,0.094,0.337,0.052c0.077-0.041,0.156-0.08,0.17-0.11
	c0.015-0.029,0.019-0.104,0.035-0.179c0.016-0.076,0.054-0.143,0.049-0.237c-0.005-0.094-0.017-0.173-0.004-0.219
	c0.013-0.046,0.099-0.277,0.153-0.319c0.054-0.042,0.343-0.2,0.707-0.246c0,0,0.124,0.022,0.154,0.11
	c0.03,0.088,0.132,0.341,0.154,0.376c0.022,0.035,0.042,0.066,0.127,0.077c0.085,0.011,0.184,0.005,0.247-0.139
	c0.063-0.143,0.163-0.343,0.202-0.452c0.04-0.109,0.068-0.242,0.082-0.333c0.014-0.091,0.002-0.25,0.05-0.33
	c0.048-0.079,0.105-0.162,0.269-0.2c0.164-0.037,0.268-0.058,0.342-0.07c0.074-0.012,0.163,0.009,0.163,0.009
	s0.075,0.039,0.105,0.127c0.03,0.088,0.053,0.185,0.075,0.209c0.022,0.023,0.225,0.189,0.418,0.082c0,0,0.084-0.039,0.105-0.067
	c0.021-0.027,0.067-0.111,0.101-0.28c0.034-0.169,0.034-0.277,0.063-0.398c0.028-0.121,0.058-0.384,0.133-0.539
	c0.075-0.155,0.129-0.208,0.175-0.281c0.045-0.072,0.185-0.245,0.295-0.291c0.259-0.108,0.428-0.012,0.707,0.043
	c0.119,0.024,0.219,0.068,0.253,0.103c0.033,0.035,0.053,0.066,0.039,0.095c-0.015,0.03-0.024,0.386-0.128,0.61
	c0,0-0.012,0.12-0.004,0.172c0.008,0.053,0.061,0.142,0.061,0.216c0.001,0.073,0.043,0.201,0.094,0.297
	c0.009,0.017-0.007,0.053,0.002,0.108c0.012,0.071,0.052,0.17,0.101,0.254c0.049,0.083,0.098,0.202,0.146,0.283
	c0.023,0.039,0.069,0.059,0.095,0.099c0.034,0.052,0.047,0.126,0.063,0.183c0,0,0.01,0.056,0.007,0.104
	c-0.004,0.062-0.026,0.128-0.017,0.186c0.01,0.071-0.002,0.128,0.048,0.186c0.023,0.026,0.103,0.044,0.145,0.08
	c0.142,0.122,0.393,0.507,0.392,0.689c-0.001,0.128-0.186,0.31-0.22,0.403c-0.034,0.094-0.14,0.448-0.232,0.513
	c-0.092,0.065-0.291,0.114-0.363,0.081c-0.071-0.033-0.177-0.14-0.177-0.14l-0.206-0.059l-0.177,0.05c0,0-0.025-0.078-0.001-0.145
	c0.024-0.067,0.032-0.17,0.026-0.324c-0.005-0.153-0.134-0.572-0.233-0.781c0,0-0.029-0.276-0.087-0.471
	c-0.058-0.195-0.223-0.474-0.241-0.633c-0.019-0.159-0.005-0.343-0.008-0.397c-0.003-0.054-0.013-0.361-0.091-0.503
	c-0.078-0.142-0.154-0.162-0.213-0.145c-0.059,0.017-0.093,0.133-0.118,0.223c-0.025,0.089-0.148,0.325-0.067,0.666
	c0,0,0.032,0.163,0.104,0.174c0.072,0.011,0.174,0.063,0.2,0.118c0.026,0.055,0.092,0.269,0.095,0.322
	c0.003,0.055-0.002,0.257-0.066,0.309c-0.065,0.052-0.177,0.05-0.303,0.02c-0.126-0.03-0.227,0.04-0.297-0.039
	c-0.07-0.079-0.187-0.09-0.228-0.249c-0.041-0.159-0.041-0.159-0.047-0.267c-0.006-0.108-0.085-0.228-0.128-0.274
	c-0.044-0.046-0.108-0.016-0.108-0.016s-0.001,0.235-0.039,0.296c-0.038,0.063,0.002,0.266,0.03,0.42
	c0.028,0.154,0.025,0.267,0.03,0.397c0.006,0.131,0.147,0.41,0.191,0.478c0.044,0.069,0.307,0.536,0.261,0.724
	c-0.045,0.188-0.054,0.36-0.107,0.484c-0.053,0.124-0.407,0.224-0.407,0.224s-0.206-0.059-0.299-0.283
	c-0.093-0.223-0.224-0.406-0.243-0.542c-0.019-0.136-0.053-0.398-0.068-0.525c-0.015-0.127-0.017-0.392-0.009-0.518
	c0.008-0.126,0.044-0.31,0.033-0.405c-0.011-0.095-0.033-0.284-0.12-0.255c0,0-0.096,0.056-0.124,0.258
	c-0.028,0.202-0.058,0.35-0.047,0.445c0.011,0.094-0.116,0.299-0.251,0.295c0,0-0.144,0.001-0.222,0.049
	c-0.078,0.048-0.037,0.229-0.021,0.31c0.016,0.082,0.255,0.782,0.268,0.999c0.013,0.217-0.159,0.942-0.285,1.101
	c0,0-0.221,0.193-0.336,0.28c-0.115,0.087-0.235,0.021-0.235,0.021s-0.33-0.135-0.402-0.168c-0.071-0.033-0.095-0.156-0.183-0.249
	c-0.088-0.092-0.059-0.15-0.013-0.217c0.047-0.067,0.232-0.242,0.232-0.242s0.281-0.588,0.239-0.89
	c-0.042-0.303-0.021-0.758-0.13-0.919c-0.109-0.16-0.21-0.371-0.337-0.357c-0.102,0.012-0.171,0.041-0.227,0.098
	C26.928,9.6,26.899,9.628,26.882,9.67c-0.003,0.009-0.007,0.017-0.007,0.026c0.003,0.083-0.057,0.163-0.057,0.163
	s0.027,0.144,0.02,0.224c-0.006,0.081,0.053,0.265,0.127,0.375c0.053,0.079,0.121,0.205,0.109,0.297
	c-0.005,0.036-0.056,0.066-0.074,0.087c-0.201,0.232-0.176,0.557-0.545,0.333c-0.124-0.075-0.272-0.106-0.272-0.106
	s-0.075-0.032-0.21-0.258c-0.246-0.412,0.039-0.237-0.005-0.465c-0.012-0.063,0.005-0.179-0.028-0.267
	c-0.015-0.04-0.069-0.092-0.09-0.1C25.783,9.955,25.701,9.944,25.67,9.884L25.67,9.884z"/>
<path class="st1" d="M63.29,21.645c0.116,0.01,0.369,0.023,0.56,0.042c0.191,0.019,0.423,0.065,0.623,0.276
	c0,0-0.13,0.257-0.16,0.366c-0.03,0.109-0.055,0.252-0.354,0.456c-0.3,0.204-0.278,0.157-0.278,0.157s-0.124,0.01-0.44-0.196
	c-0.316-0.207-0.417-0.299-0.578-0.426c-0.161-0.128-0.286-0.316-0.286-0.316c-0.04,0.209,0.012,0.159,0.08,0.351
	c0.032,0.09,0.269,0.425,0.335,0.536c0.066,0.111,0.09,0.222,0.101,0.345c0.01,0.124,0.002,0.466,0.133,0.661
	c0,0,0.26,0.26,0.376,0.27c0.116,0.01,0.384-0.017,0.384-0.017s0.574,0.015,0.815-0.293c0.241-0.308,0.236-0.384,0.366-0.627
	c0.13-0.243,0.275-0.575,0.475-0.604c0,0,0.245,0.048,0.348,0.044c0.104-0.003,0.25-0.011,0.298-0.044
	c0.028-0.019,0.111-0.094,0.138-0.171c0.029-0.084-0.016-0.117-0.034-0.159c-0.043-0.102,0.068-0.162,0.14-0.324
	c0,0-0.061-0.193-0.161-0.299c-0.1-0.105-0.173-0.196-0.452-0.265c-0.279-0.069-0.541-0.234-0.962-0.395
	c-0.42-0.162-0.957-0.333-1.206-0.483c0,0-0.3-0.063-0.481-0.198c-0.187-0.139-0.248-0.436-0.511-0.356
	c-0.062,0.019-0.05,0.088-0.05,0.088s-0.043,0.321,0.007,0.5c0.093,0.334-0.066,0.725,0.312,0.906
	C63.007,21.514,63.174,21.635,63.29,21.645L63.29,21.645z M67.771,17.169c0,0-0.532,0.592-0.677,0.73
	c-0.146,0.138-0.707,0.699-0.776,0.78c-0.07,0.08-0.142,0.265-0.227,0.39c-0.086,0.125-0.123,0.191-0.119,0.244
	c0.004,0.053,0.103,0.063,0.297,0.068c0.094,0.002,0.172,0.053,0.221,0.058c0.021,0.002,0.032-0.007,0.054,0l0.221,0.06
	c0,0,0.105,0.018,0.241,0.043c0.094,0.018,0.198,0.032,0.257,0.028c0.056-0.004,0.073,0.01,0.125,0.061
	c0.149,0.145,0.174,0.43,0.174,0.43c0.002,0.039-0.059,0.085,0,0.133c0.04,0.032,0.107-0.057,0.188-0.046
	c0.055,0.007,0.115,0.082,0.181,0.146c0.133,0.13,0.122,0.192,0.118,0.322c-0.002,0.074-0.023,0.143-0.063,0.19
	c-0.059,0.07-0.14,0.066-0.218,0.076c-0.088,0.012-0.17,0.033-0.216,0.024c-0.086-0.017-0.25-0.062-0.327-0.115
	c-0.025-0.017-0.102-0.082-0.202-0.147c-0.128-0.084-0.295-0.176-0.468-0.269c-0.111-0.059-0.241-0.095-0.334-0.138
	c-0.349-0.161-1.01-0.59-1.138-0.651c-0.128-0.061-0.505-0.295-0.505-0.295c-0.166-0.011-0.254,0.297-0.27,0.383
	c-0.017,0.086-0.02,0.201-0.029,0.266c-0.009,0.065,0.082,0.19,0.082,0.19s0.518,0.339,0.632,0.399
	c0.114,0.061,0.752,0.244,0.752,0.244c0.181-0.008,0.332-0.015,0.467,0.02c0.259,0.066,0.425,0.219,0.501,0.23
	c0.115,0.017,0.52,0.028,0.52,0.028s0.173,0.019,0.208,0.056c0.035,0.037,0.061,0.139,0.067,0.204
	c0.006,0.065-0.163,0.169-0.264,0.166c-0.101-0.003-0.452-0.113-0.452-0.113s-0.201-0.063-0.173-0.019
	c0.028,0.044,0.422,0.549,0.464,0.594c0.131,0.138,0.136,0.16,0.402,0.223c0.244,0.05,0.261-0.022,0.335-0.121
	c0.075-0.1,0.225-0.58,0.22-0.688c-0.008-0.191-0.032-0.267,0.081-0.315c0,0,0.184,0.149,0.226,0.193
	c0.134,0.142,0.29,0.046,0.364-0.091c0.132-0.246-0.076-0.394,0.2-0.425c0.034-0.004,0.031,0.002,0.061,0.018
	c0.042,0.021,0.126,0.05,0.254,0.03c0.196-0.031,1.014-0.118,1.079-0.109c0.065,0.009,0.318,0.009,0.362-0.019
	c0.044-0.028,0.143-0.206,0.139-0.343c-0.008-0.292,0.136-0.23-0.066-0.377c-0.064-0.047-0.094-0.057-0.172-0.078
	c-0.063-0.017-0.147-0.041-0.232-0.07c-0.165-0.055-0.373-0.166-0.443-0.185c-0.367-0.103-0.257-0.292-0.075-0.464
	c0.134-0.128,0.189-0.11,0.095-0.301l-0.108-0.15c-0.007-0.009-0.011-0.019-0.01-0.026c0.002-0.008,0.012-0.024,0.021-0.036
	c0.025-0.037,0.076-0.095,0.15-0.148c0.063-0.044,0.177-0.127,0.254-0.211c0.068-0.074,0.103-0.155,0.103-0.155
	s0.01-0.123-0.023-0.217c-0.033-0.095-0.044-0.24-0.063-0.334c-0.008-0.041-0.006-0.078-0.012-0.109
	c-0.004-0.019-0.019-0.05-0.023-0.067c-0.02-0.095-0.051-0.096-0.111-0.034c-0.015,0.016-0.023,0.047-0.046,0.068
	c-0.067,0.064-0.178,0.197-0.271,0.219c-0.04,0.009-0.139,0.077-0.225,0.111c-0.102,0.041-0.199,0.02-0.25,0.041
	c-0.051,0.02-0.174,0.01-0.252-0.028c-0.049-0.024-0.156-0.142-0.234-0.205c-0.033-0.026-0.068-0.054-0.087-0.048
	c-0.011,0.004-0.009,0.028-0.019,0.047l0.008,0.108c0.019,0.086,0.029,0.147,0.04,0.202c0.009,0.043,0.027,0.08-0.002,0.147
	c-0.031,0.072-0.25,0.124-0.403,0.2c-0.154,0.075-0.599,0.096-0.599,0.096c0.054,0.101,0.233,0.051,0.337,0.049
	c0.164-0.002,0.2,0.029,0.279,0.067c0.078,0.038,0.299,0.107,0.407,0.117c0.108,0.01,0.181,0.072,0.181,0.072
	c0.104,0.181-0.089,0.277-0.089,0.277s-0.136,0.069-0.354,0.112c-0.217,0.043-0.589,0.211-0.675,0.179
	c-0.086-0.031-0.175-0.309-0.175-0.309s-0.078-0.182-0.109-0.163c-0.162,0.102-0.073,0.071-0.089,0.187
	c-0.009,0.065-0.001,0.325-0.001,0.325c-0.045,0.057-0.357,0.137-0.444,0.149c-0.061,0.008-0.282,0.017-0.418-0.002
	c-0.031-0.005-0.073-0.018-0.063-0.059c0.015-0.064,0.019-0.12,0.042-0.15c0.023-0.029,0.071-0.079,0.115-0.149
	c0.026-0.042,0.076-0.113,0.097-0.165c0.056-0.141,0.492-0.74,0.578-0.85c0.059-0.075,0.248-0.25,0.34-0.374
	c0.042-0.056,0.02-0.113,0.032-0.125c0.038-0.037,0.065-0.178,0.065-0.178l0.009-0.082L67.771,17.169L67.771,17.169z M69.107,19.391
	l0.442,0.493c0.06,0.078,0.041,0.153-0.028,0.226c-0.078,0.082-0.234,0.188-0.392,0.258c-0.091,0.041-0.177,0.101-0.273,0.095
	c-0.109-0.007-0.225-0.086-0.261-0.112c-0.018-0.013-0.317-0.028-0.323-0.106c-0.004-0.048,0.026-0.225,0.029-0.297
	c-0.008-0.065-0.039-0.25-0.04-0.34c0-0.017-0.038-0.107-0.008-0.129c0.03-0.021,0.499-0.07,0.741-0.112
	C69.089,19.352,69.084,19.376,69.107,19.391L69.107,19.391z M66.367,17.245c0.004,0.116-0.012,0.487-0.004,0.538
	c0.009,0.058,0.116,0.132,0.046,0.206c-0.025,0.026-0.08,0.084-0.144,0.15c-0.115,0.119-0.258,0.266-0.317,0.318
	c-0.041,0.036-0.116,0.131-0.226,0.224c-0.107,0.092-0.247,0.183-0.356,0.242c-0.063,0.035-0.102,0.074-0.091-0.037
	c0.002-0.017,0.006-0.036,0.017-0.059c0.04-0.091,0.053-0.156,0.127-0.241c0.075-0.084,0.122-0.218,0.18-0.319
	c0.058-0.102,0.217-0.239,0.278-0.33c0.061-0.091,0.074-0.163,0.132-0.271c0.034-0.065,0.14-0.215,0.231-0.327
	c0.046-0.057,0.091-0.106,0.113-0.122C66.371,17.202,66.367,17.233,66.367,17.245L66.367,17.245z"/>
<path class="st1" d="M11.655,22.607c0,0-0.069,0.233,0.065,0.501c0.048,0.097,0.197,0.195,0.265,0.328
	c0.079,0.154,0.097,0.314,0.225,0.522c0.007,0.012,0.058,0.054,0.108,0.136c0.026,0.043,0.02,0.107,0.059,0.158
	c0.026,0.035,0.096,0.059,0.12,0.092c0.039,0.054,0.037,0.11,0.074,0.151c0.07,0.076,0.177,0.108,0.241,0.068
	c0.072-0.044,0.221-0.106,0.432-0.119c0.096-0.006,0.352-0.209,0.281-0.298c-0.051-0.065-0.111-0.15-0.259-0.251
	c-0.148-0.102-0.591-0.294-0.848-0.531c-0.257-0.237-0.447-0.447-0.557-0.532C11.751,22.746,11.655,22.607,11.655,22.607
	L11.655,22.607z M14.591,20.695c0.013-0.04,0.073-0.015,0.163-0.033c0.058-0.012,0.118-0.045,0.164-0.049
	c0.052-0.005,0.111,0.039,0.219,0.04c0.383,0.007,0.6-0.006,0.877,0.121c0,0,0.207,0.111,0.25,0.282
	c0.044,0.172,0.011,0.207,0.002,0.254c-0.009,0.048-0.278,0.346-0.278,0.346s-0.185-0.083-0.267-0.147
	c-0.083-0.064-0.578-0.364-0.631-0.395c-0.021-0.012-0.145-0.028-0.233-0.088c-0.11-0.075-0.235-0.173-0.269-0.214l-0.017-0.057
	L14.591,20.695L14.591,20.695z M10.857,20.329c0.021-0.09,0.016-0.165,0.019-0.245c0.003-0.08-0.005-0.153-0.025-0.243
	c-0.01-0.049-0.053-0.114-0.066-0.177c-0.059-0.288-0.097-0.705-0.188-1.179c-0.016-0.082-0.059-0.145-0.086-0.224
	c-0.025-0.07-0.034-0.158-0.049-0.221c-0.067-0.281-0.04-0.427-0.082-0.622c-0.055-0.257-0.113-0.522-0.121-0.586
	c-0.017-0.137-0.019-0.25-0.048-0.339c-0.029-0.088-0.008-0.169,0.021-0.195c0.029-0.027,0.134,0.006,0.134,0.006
	s0.236-0.021,0.322,0.005c0.086,0.025,0.143,0.11,0.203,0.149c0.033,0.021,0.161,0.084,0.276,0.076
	c0.095-0.007,0.176-0.08,0.235-0.105c0,0,0.118-0.136,0.166-0.019c0.048,0.118,0.029,0.155,0.013,0.187
	c-0.028,0.058-0.04,0.101-0.064,0.136c-0.018,0.027-0.057,0.068-0.079,0.109c-0.094,0.175-0.361,0.622-0.406,1.141
	c-0.01,0.119-0.013,0.255-0.02,0.39c-0.006,0.112-0.018,0.222-0.013,0.335c0.007,0.149-0.021,0.294,0.002,0.435
	c0.01,0.06,0.034,0.118,0.036,0.171c0.002,0.068-0.019,0.13-0.015,0.194c0.004,0.078,0.011,0.144,0.008,0.216
	c-0.002,0.082-0.019,0.177-0.031,0.264c-0.011,0.079-0.03,0.157-0.039,0.233c-0.004,0.034,0,0.068-0.003,0.103
	c-0.015,0.073-0.01,0.105,0.07,0.127c0.041,0.012,0.048,0.015,0.08-0.013c0.06-0.054,0.172-0.317,0.233-0.692
	c0.061-0.375,0.114-0.693,0.114-0.693s0.029-0.333,0.027-0.426c-0.002-0.093,0.046-0.083,0.046-0.083s0.108-0.021,0.123,0.019
	c0.015,0.04,0.045,0.072,0.045,0.072s0.143,0.028,0.235-0.019c0.054-0.029,0.046-0.142,0.056-0.215
	c0.013-0.1-0.005-0.444,0.017-0.602c0.012-0.091,0.048-0.229,0.109-0.359c0.045-0.095,0.112-0.182,0.154-0.265
	c0.099-0.199,0.135-0.353,0.196-0.49c0.053-0.121,0.108-0.289,0.248-0.249c0,0,0.13,0.045,0.147,0.095
	c0.017,0.05,0.055,0.154,0.119,0.202c0.063,0.049,0.264,0.407,0.4,0.539c0.136,0.133,1.323,1.258,1.622,1.451
	c0.299,0.193,0.481,0.363,0.548,0.425c0.067,0.061,0.711,0.521,0.741,0.545c0.03,0.023,1.189,0.864,1.31,0.967
	c0.12,0.103,0.448,0.344,0.491,0.387c0.027,0.026,0.281,0.218,0.326,0.271c0.051,0.06,0.043,0.145,0.017,0.201
	c-0.068,0.15-0.114,0.277-0.116,0.32c-0.001,0.03-0.095,0.189-0.146,0.251c-0.032,0.039-0.085,0.063-0.133,0.06
	c-0.062-0.005-0.129-0.013-0.206-0.048c-0.043-0.02-0.118-0.031-0.205-0.052c-0.112-0.028-0.252-0.065-0.435-0.078
	c-0.407-0.029-0.579-0.043-0.635-0.048c-0.027-0.002-0.032-0.006-0.055-0.022c-0.052-0.037-0.162-0.105-0.145-0.135
	c0.009-0.017,0.084-0.114,0.162-0.214c0.061-0.078,0.115-0.163,0.162-0.2c0.016-0.012,0.096-0.019,0.195-0.036
	c0.09-0.015,0.162-0.044,0.197-0.095c0.029-0.043,0.112-0.064,0.129-0.151c0.017-0.084-0.061-0.098-0.104-0.131
	c-0.03-0.023-0.867-0.787-1.112-0.967c-0.163-0.12-0.655-0.463-1.031-0.746c-0.19-0.143-0.351-0.271-0.425-0.348
	c-0.219-0.228-0.661-0.595-0.743-0.687c-0.082-0.093-0.604-0.564-0.709-0.703c-0.105-0.139-0.178-0.227-0.205-0.268
	c-0.059-0.089-0.15-0.119-0.157-0.048c-0.01,0.089-0.056,0.159-0.114,0.213c-0.09,0.086-0.208,0.092-0.249,0.133
	c-0.082,0.081-0.189,0.477-0.185,0.547c0.003,0.07,0.09,0.408,0.053,0.504c-0.037,0.097-0.099,0.29-0.174,0.337
	c0,0-0.066-0.002-0.137-0.01c-0.071-0.007-0.173,0.011-0.233,0.089c-0.061,0.079-0.047,0.359-0.031,0.439
	c0.016,0.079,0.056,0.139,0.056,0.139s0.155-0.15,0.206-0.216c0.256-0.33,0.224-0.299,0.591-0.14c0,0,0.143-0.198,0.171-0.283
	c0.027-0.085,0.133-0.022,0.133-0.022s0.074,0.067,0.091,0.119c0.017,0.052,0.101,0.406,0.108,0.546
	c0.007,0.141,0.073,0.23,0.127,0.273c0.054,0.042,0.111,0.056,0.173-0.011c0.062-0.068,0.089-0.202,0.331-0.091
	c0,0,0.137,0.048,0.138,0.097c0.001,0.049,0.012,0.221,0.008,0.276c-0.004,0.055,0.134,0.625,0.314,0.928
	c0,0,0.013,0.145,0.446,0.346c0.433,0.2,0.547,0.278,0.585,0.328c0.039,0.049,0.338,0.174,0.303,0.717c0,0,0.01,0.248-0.325,0.22
	c0,0-0.191-0.002-0.385-0.163c-0.122-0.1-0.183-0.151-0.215-0.171c-0.033-0.021-0.031-0.011-0.053,0.023
	c-0.029,0.043-0.071,0.119-0.05,0.162c0.029,0.061,0.119,0.169,0.166,0.234c0.046,0.065,0.114,0.301,0.093,0.391
	c-0.013,0.056-0.04,0.09-0.094,0.104c-0.033,0.008-0.077,0.011-0.131,0.002c-0.054-0.01-0.12-0.002-0.165-0.018
	c-0.074-0.026-0.114-0.086-0.114-0.17c0,0-0.036-0.153-0.053-0.33c-0.017-0.177-0.023-0.307-0.036-0.365
	c-0.013-0.058-0.019-0.15-0.058-0.199c-0.039-0.05-0.315-0.254-0.369-0.296c0,0-0.084-0.017-0.115,0.037
	c-0.031,0.052-0.057,0.11,0.006,0.178c0.063,0.068,0.108,0.122,0.075,0.165c-0.033,0.042-0.226,0.192-0.345,0.109
	c-0.119-0.083-0.231-0.189-0.243-0.333c0,0,0.052-0.23,0.036-0.445c-0.017-0.215-0.06-0.346-0.134-0.413
	c-0.074-0.066-0.072-0.094-0.072-0.094s-0.064,0.182-0.069,0.313c-0.005,0.131,0.022,0.345-0.005,0.43
	c-0.027,0.085-0.028,0.161-0.074,0.183c-0.046,0.022-0.079,0.064-0.301,0.066c-0.223,0.001-0.319,0.1-0.475,0.066
	c-0.157-0.034-0.129-0.119-0.13-0.207c0-0.087,0.166-0.315,0.188-0.442c0.022-0.128,0.101-0.404,0.125-0.597
	c0.024-0.193,0.059-0.524,0.069-0.612c0.01-0.089-0.024-0.144-0.024-0.144l-0.247-0.229c0,0-0.069,0.014-0.168,0.13
	c-0.099,0.116-0.149,0.067-0.313,0.529c0,0-0.075,0.222-0.164,0.336c-0.089,0.115-0.114,0.086-0.161,0.146
	c-0.047,0.06-0.134,0.147-0.192,0.198c-0.059,0.051-0.431,0.102-0.46,0.093c-0.029-0.009,0.125-0.197,0.187-0.324
	c0.062-0.127,0.128-0.259,0.14-0.323c0.004-0.022,0.008-0.047,0.007-0.078c-0.002-0.04-0.005-0.071,0.004-0.103
	c0.007-0.028,0.013-0.04,0.031-0.062C10.826,20.398,10.843,20.392,10.857,20.329L10.857,20.329z M9.122,20.932
	c0.038-0.113,0.111-0.16,0.164-0.327c0.032-0.1,0.036-0.174,0.062-0.279c0.03-0.124,0.079-0.238,0.068-0.343
	c0,0-0.006-0.061,0.002-0.144c0.006-0.065,0.034-0.143-0.006-0.219c-0.026-0.05-0.09-0.074-0.181-0.117
	c-0.006-0.003-0.012-0.006-0.018-0.009c-0.028-0.012-0.063-0.01-0.085-0.029c-0.095-0.088-0.266-0.128-0.327-0.226
	c-0.042-0.067-0.024-0.141,0.013-0.207c0.022-0.039,0.021-0.087,0.101-0.097c0.06-0.007,0.284,0.019,0.348,0.006
	c0.065-0.013,0.169-0.065,0.218-0.082c0.049-0.017,0.253-0.066,0.342,0.026c0.025,0.026,0.105,0.073,0.143,0.086
	c0.038,0.013,0.046-0.029,0.066-0.027c0.041,0.005,0.132,0.014,0.19,0.032c0.058,0.018,0.165-0.01,0.176,0.116
	c0.008,0.087-0.075,0.126-0.058,0.187c0.008,0.028,0.042,0.052,0.066,0.115c0.035,0.093,0.109,0.248,0.084,0.331
	c-0.03,0.099-0.167,0.121-0.202,0.173c-0.064,0.094-0.045,0.245-0.051,0.393c-0.006,0.149-0.051,0.475-0.025,0.523
	c0.027,0.048,0.015,0.156,0.003,0.219c-0.012,0.063-0.081,0.109-0.177,0.116c-0.069,0.005-0.194-0.014-0.299-0.021
	c-0.041-0.002-0.084-0.018-0.112-0.007c-0.102,0.038-0.238,0.017-0.294,0.018c-0.036,0.001-0.12,0.04-0.17,0.032
	C9.093,21.16,9.095,21.011,9.122,20.932L9.122,20.932z"/>
<path class="st1" d="M52.956,11.31c0,0,0.179,0.084,0.22,0.153c0.027,0.046,0.171,0.437,0.198,0.503
	c0.027,0.069,0.178,0.122,0.257,0.285c0.056,0.115,0.055,0.269,0.086,0.413c0.025,0.112,0.084,0.22,0.104,0.272
	c0.077,0.201,0.12,0.756-0.027,0.822c-0.055,0.025-0.171-0.042-0.253-0.027c-0.136,0.025-0.33,0.046-0.429,0.055
	c-0.16,0.014-0.259,0.122-0.387,0.09c-0.128-0.032-0.18-0.078-0.158-0.211c0.022-0.132,0.252-0.72,0.28-1.004
	C52.907,12.056,52.973,11.575,52.956,11.31L52.956,11.31z M48.702,8.83c0.086,0.046,0.189,0.165,0.313,0.185
	c0.124,0.021,1.136,0.196,1.588,0.17c0.452-0.025,0.615-0.005,0.722-0.024c0.108-0.02,0.353,0.025,0.515-0.196
	c0.162-0.222,0.492-0.704,0.598-0.923c0.106-0.219,0.224-0.543,0.267-0.668c0.043-0.125,0.088-0.381,0.018-0.577
	c0,0-0.021-0.208,0.07-0.29c0.091-0.082,0.262-0.096,0.305-0.144c0.023-0.025,0.061-0.039,0.099-0.035
	c0.023,0.003,0.053,0.021,0.062,0.027c0.019,0.011,0.03,0.036,0.034,0.045c0.021,0.05,0.116,0.278,0.201,0.425
	c0.095,0.163,0.348,0.6,0.371,0.698c0.024,0.098,0.051,0.264-0.045,0.41c0,0-0.103,0.11-0.162,0.195
	c-0.059,0.085-0.026,0.242-0.129,0.275c-0.102,0.033-0.327,0.167-0.394,0.271c-0.067,0.104-0.119,0.224-0.138,0.293
	c-0.019,0.069-0.036,0.161-0.036,0.161s0.056,0.024,0.15,0.01c0.095-0.014,0.286,0.003,0.384-0.021
	c0.049-0.012,0.212,0.002,0.357-0.034c0.087-0.021,0.146-0.092,0.228-0.11c0.056-0.012,0.114,0.002,0.155-0.01
	c0.056-0.015,0.108-0.015,0.143-0.027c0.044-0.015,0.065-0.041,0.093-0.063c0.048-0.036,0.045-0.088,0.037-0.137
	c-0.005-0.028-0.014-0.063-0.03-0.097c-0.014-0.03-0.02-0.074-0.039-0.112c-0.007-0.014-0.009-0.022-0.004-0.033l0.01-0.021
	c0.008-0.013,0.025-0.015,0.038-0.004c0.035,0.027,0.143,0.112,0.181,0.177c0.045,0.077,0.19,0.263,0.213,0.345
	c0.023,0.082-0.028,0.138-0.087,0.146c-0.041,0.006-0.206,0.019-0.367,0.044c-0.067,0.01-0.147,0.017-0.187,0.035
	c-0.073,0.033-0.186,0.058-0.292,0.133c-0.093,0.066-0.159,0.168-0.263,0.195c-0.223,0.058-0.558,0.053-0.665,0.095
	c-0.107,0.042-0.315,0.117-0.433,0.21c-0.117,0.093-0.183,0.219-0.255,0.232c-0.072,0.013-0.254,0.155-0.315,0.194
	c-0.061,0.04-0.202,0.288-0.326,0.422c-0.124,0.134-0.303,0.42-0.335,0.495c-0.032,0.074-0.143,0.201-0.233,0.306
	c-0.09,0.105-0.267,0.26-0.57,0.272c0,0-0.235-0.002-0.373,0.036c-0.138,0.04-0.278,0.07-0.389,0.098
	c-0.112,0.029-0.326,0.091-0.824-0.058c-0.498-0.149-0.596-0.203-0.868-0.265c-0.237-0.054-0.661-0.164-0.764-0.191
	c-0.04-0.01,0.004-0.109,0.063-0.097c0.045,0.009,0.134,0.025,0.237,0.032c0.15,0.01,0.567-0.086,0.905-0.128
	c0.338-0.041,0.711-0.09,0.942-0.188c0.23-0.099,0.813-0.222,1.025-0.329c0.212-0.107,0.527-0.478,0.567-0.571
	c0,0-0.004-0.145-0.13-0.133c-0.126,0.011-0.639,0.099-0.806,0.104c-0.168,0.005-0.278-0.021-0.578,0.037
	c-0.301,0.058-0.505,0.146-0.657,0.014c-0.152-0.132-0.225-0.295-0.338-0.521C48.5,9.486,48.398,9.258,48.379,9.08
	c-0.006-0.056,0.032-0.09,0.084-0.134C48.515,8.902,48.616,8.785,48.702,8.83L48.702,8.83z"/>
<g>
</g>
<g>
</g>
<g>
</g>
<g>
</g>
<g>
</g>
<g>
</g>
</svg>
