<?xml version="1.0" encoding="UTF-8"?>
<svg width="177px" height="74px" viewBox="0 0 177 74" version="1.1" xmlns="http://www.w3.org/2000/svg" xmlns:xlink="http://www.w3.org/1999/xlink">
    <!-- Generator: Sketch 47.1 (45422) - http://www.bohemiancoding.com/sketch -->
    <title>Group 4</title>
    <desc>Created with Sketch.</desc>
    <defs>
        <filter x="-15.3%" y="-15.3%" width="130.5%" height="130.5%" filterUnits="objectBoundingBox" id="filter-1">
            <feOffset dx="0" dy="0" in="SourceAlpha" result="shadowOffsetOuter1"></feOffset>
            <feGaussianBlur stdDeviation="3" in="shadowOffsetOuter1" result="shadowBlurOuter1"></feGaussianBlur>
            <feColorMatrix values="0 0 0 0 0.909803922   0 0 0 0 0.192156863   0 0 0 0 0.192156863  0 0 0 0.5 0" type="matrix" in="shadowBlurOuter1" result="shadowMatrixOuter1"></feColorMatrix>
            <feMerge>
                <feMergeNode in="shadowMatrixOuter1"></feMergeNode>
                <feMergeNode in="SourceGraphic"></feMergeNode>
            </feMerge>
        </filter>
        <circle id="path-2" cx="29.5" cy="29.5" r="29.5"></circle>
    </defs>
    <g id="Page-1" stroke="none" stroke-width="1" fill="none" fill-rule="evenodd">
        <g id="敏感词弹窗" transform="translate(-102.000000, -85.000000)">
            <g id="Group-4" transform="translate(102.000000, 86.000000)">
                <g id="Group" transform="translate(0.000000, 18.000000)">
                    <path d="M136.5,24 L93,24 C90.790861,24 89,25.790861 89,28 C89,30.209139 90.790861,32 93,32 L136.5,32 L126,32 C123.790861,32 122,30.209139 122,28 C122,25.790861 123.790861,24 126,24 L136.5,24 Z M96.5,8 L136,8 C136.16933,8 136.336203,8.01052167 136.5,8.03094688 C134.526844,8.27699592 133,9.96019117 133,12 C133,14.0398088 134.526844,15.7230041 136.5,15.9690531 C136.336203,15.9894783 136.16933,16 136,16 L96.5,16 L111,16 C113.209139,16 115,14.209139 115,12 C115,9.790861 113.209139,8 111,8 L96.5,8 Z M97,0 L151,0 C153.209139,-4.05812251e-16 155,1.790861 155,4 L155,4 C155,6.209139 153.209139,8 151,8 L97,8 C94.790861,8 93,6.209139 93,4 L93,4 L93,4 C93,1.790861 94.790861,4.05812251e-16 97,0 Z M105,16 L159,16 C161.209139,16 163,17.790861 163,20 C163,22.209139 161.209139,24 159,24 L105,24 C102.790861,24 101,22.209139 101,20 C101,17.790861 102.790861,16 105,16 Z M104,32 L158,32 C160.209139,32 162,33.790861 162,36 C162,38.209139 160.209139,40 158,40 L104,40 C101.790861,40 100,38.209139 100,36 C100,33.790861 101.790861,32 104,32 Z M82,0 L84,0 L84,0 C86.209139,-4.05812251e-16 88,1.790861 88,4 L88,4 C88,6.209139 86.209139,8 84,8 L82,8 C79.790861,8 78,6.209139 78,4 L78,4 L78,4 C78,1.790861 79.790861,4.05812251e-16 82,0 L82,0 Z M171,32 L173,32 C175.209139,32 177,33.790861 177,36 C177,38.209139 175.209139,40 173,40 L171,40 C168.790861,40 167,38.209139 167,36 C167,33.790861 168.790861,32 171,32 Z" id="Combined-Shape" fill="#E83131" opacity="0.100000001"></path>
                    <path d="M62,24 L15,24 C12.790861,24 11,25.790861 11,28 C11,30.209139 12.790861,32 15,32 L62,32 L55,32 C52.790861,32 51,30.209139 51,28 C51,25.790861 52.790861,24 55,24 L62,24 Z M18.5,8 L58,8 C58.1693302,8 58.3362029,8.01052167 58.5,8.03094688 C56.5268442,8.27699592 55,9.96019117 55,12 C55,14.0398088 56.5268442,15.7230041 58.5,15.9690531 C58.3362029,15.9894783 58.1693302,16 58,16 L18.5,16 L33,16 C35.209139,16 37,14.209139 37,12 C37,9.790861 35.209139,8 33,8 L18.5,8 Z M19,0 L73,0 C75.209139,-4.05812251e-16 77,1.790861 77,4 L77,4 C77,6.209139 75.209139,8 73,8 L19,8 C16.790861,8 15,6.209139 15,4 L15,4 L15,4 C15,1.790861 16.790861,4.05812251e-16 19,0 Z M27,16 L81,16 C83.209139,16 85,17.790861 85,20 C85,22.209139 83.209139,24 81,24 L27,24 C24.790861,24 23,22.209139 23,20 C23,17.790861 24.790861,16 27,16 Z M26,32 L80,32 C82.209139,32 84,33.790861 84,36 C84,38.209139 82.209139,40 80,40 L26,40 C23.790861,40 22,38.209139 22,36 C22,33.790861 23.790861,32 26,32 Z M4,0 L6,0 L6,0 C8.209139,-4.05812251e-16 10,1.790861 10,4 L10,4 C10,6.209139 8.209139,8 6,8 L4,8 C1.790861,8 2.705415e-16,6.209139 0,4 L0,4 L0,4 C-2.705415e-16,1.790861 1.790861,4.05812251e-16 4,0 L4,0 Z M93,32 L95,32 C97.209139,32 99,33.790861 99,36 C99,38.209139 97.209139,40 95,40 L93,40 C90.790861,40 89,38.209139 89,36 C89,33.790861 90.790861,32 93,32 Z" id="Combined-Shape-Copy-2" fill="#FCEAEA" transform="translate(49.500000, 20.000000) rotate(180.000000) translate(-49.500000, -20.000000) "></path>
                </g>
                <g id="Group-2" transform="translate(59.000000, 8.000000)">
                    <g id="Oval" filter="url(#filter-1)">
                        <mask id="mask-3" fill="white">
                            <use xlink:href="#path-2"></use>
                        </mask>
                        <use id="Mask" fill="#EC3A50" xlink:href="#path-2"></use>
                        <circle fill="#FFFFFF" opacity="0.06" mask="url(#mask-3)" cx="60" cy="29" r="27"></circle>
                        <circle id="Oval-Copy" fill="#FFFFFF" opacity="0.08" mask="url(#mask-3)" cx="24" cy="62" r="39"></circle>
                    </g>
                </g>
                <circle id="Oval-2" stroke="#E83131" stroke-width="2" opacity="0.100000001" cx="70" cy="4" r="4"></circle>
                <circle id="Oval-2-Copy-2" fill="#E83131" opacity="0.100000001" cx="122.5" cy="66.5" r="4.5"></circle>
                <circle id="Oval-2-Copy" stroke="#E83131" stroke-width="2" opacity="0.400000006" cx="47" cy="34" r="4"></circle>
                <path d="M127.5,17.5 L124,17.5 L124,19.5 L127.5,19.5 L127.5,23 L129.5,23 L129.5,19.5 L133,19.5 L133,17.5 L129.5,17.5 L129.5,14 L127.5,14 L127.5,17.5 Z" id="Combined-Shape" fill="#E83131" opacity="0.5"></path>
                <path d="M50.5,63.5 L46,63.5 L46,65.5 L50.5,65.5 L50.5,70 L52.5,70 L52.5,65.5 L57,65.5 L57,63.5 L52.5,63.5 L52.5,59 L50.5,59 L50.5,63.5 Z" id="Combined-Shape-Copy" fill="#E83131" opacity="0.5"></path>
                <g id="Group-3" transform="translate(85.000000, 23.000000)" fill="#FFFFFF">
                    <rect id="Rectangle-19" x="0" y="0" width="6" height="19.5" rx="3"></rect>
                    <rect id="Rectangle-19" x="0" y="21.75" width="6" height="6" rx="3"></rect>
                </g>
            </g>
        </g>
    </g>
</svg>