<?xml version="1.0" standalone="no"?>
<!DOCTYPE svg PUBLIC "-//W3C//DTD SVG 1.1//EN" "http://www.w3.org/Graphics/SVG/1.1/DTD/svg11.dtd" >
<svg xmlns="http://www.w3.org/2000/svg" xmlns:xlink="http://www.w3.org/1999/xlink" version="1.1">
<metadata>
Created by FontForge 20161003 at Mon Feb  6 11:50:17 2017
 By www-data
Copyright (c) 1992-95 ElseWare.  All rights reserved.
</metadata>
<defs>
<font id="UNVR57X" horiz-adv-x="831" >
  <font-face 
    font-family="UNVR57X"
    font-weight="400"
    font-stretch="condensed"
    units-per-em="2048"
    panose-1="2 11 6 6 2 2 2 6 2 4"
    ascent="1638"
    descent="-410"
    x-height="982"
    cap-height="1411"
    bbox="-478 -512 1684 1896"
    underline-thickness="105"
    underline-position="-563"
    unicode-range="U+0020-EFF9"
  />
<missing-glyph horiz-adv-x="669" 
d="M0 1274h569v-1274h-569v1274zM100 1174v-1074h369v1074h-369z" />
    <glyph glyph-name=".notdef" horiz-adv-x="669" 
d="M0 1274h569v-1274h-569v1274zM100 1174v-1074h369v1074h-369z" />
    <glyph glyph-name="glyph1" horiz-adv-x="0" 
 />
    <glyph glyph-name="nonmarkingreturn" horiz-adv-x="682" 
 />
    <glyph glyph-name="space" unicode=" " horiz-adv-x="453" 
 />
    <glyph glyph-name="exclam" unicode="!" horiz-adv-x="604" 
d="M239 361l-38 1053h216l-38 -1053h-140zM201 215h216v-215h-216v215z" />
    <glyph glyph-name="quotedbl" unicode="&#x22;" horiz-adv-x="755" 
d="M166 967l-39 443h202l-38 -443h-125zM477 967l-39 443h202l-38 -443h-125z" />
    <glyph glyph-name="numbersign" unicode="#" horiz-adv-x="944" 
d="M892 1425l-360 -1498h-129l360 1498h129zM556 1425l-360 -1498h-129l360 1498h129zM205 1004h697l-28 -115h-697zM86 505h697l-28 -115h-697z" />
    <glyph glyph-name="dollar" unicode="$" horiz-adv-x="944" 
d="M597 903v42q2 59 -27.5 91t-86.5 32t-82 -28t-25 -91q0 -37 27 -65q26 -27 122 -87q142 -91 200 -160q57 -68 57 -147q0 -143 -75.5 -214.5t-227.5 -71.5q-165 0 -236 64q-68 61 -67 192v18v42h181v-42q-1 -79 25 -109t97 -30q65 0 93.5 31t28.5 101q0 48 -30 81
q-30 32 -138 101q-132 83 -186 156q-53 72 -53 166q0 97 84 164t205 67q170 0 232 -56q58 -52 58 -183v-22v-42h-176zM563 339v-383h-168v383h168zM395 1068v358h168v-358h-168z" />
    <glyph glyph-name="percent" unicode="%" horiz-adv-x="1360" 
d="M363 670q-125 0 -168 48.5t-43 187.5v304q0 122 47.5 172t163.5 50v0q118 0 164.5 -49t46.5 -173v-304q0 -142 -42 -189t-169 -47v0zM363 1328q-37 0 -52.5 -27.5t-15.5 -92.5v-304q0 -82 12.5 -106t55.5 -24v0q40 0 54 26.5t14 103.5v304q0 66 -15.5 93t-52.5 27v0z
M336 -77l559 1530h118l-559 -1530h-118zM1007 -14q-125 0 -168 48.5t-43 187.5v304q0 122 47.5 172t163.5 50v0q118 0 164.5 -49t46.5 -173v-304q0 -142 -42 -189t-169 -47v0zM1007 644q-37 0 -52.5 -27.5t-15.5 -92.5v-304q0 -82 12.5 -106t55.5 -24v0q40 0 54 26.5
t14 103.5v304q0 66 -15.5 93t-52.5 27v0z" />
    <glyph glyph-name="ampersand" unicode="&#x26;" horiz-adv-x="1246" 
d="M239 1150q0 122 94.5 200t243.5 78q159 0 248.5 -72t89.5 -199q0 -138 -82 -238q-63 -79 -194 -149l302 -381q10 39 16 94q12 114 9 335v0h85h85v0q0 -302 -15 -399q-14 -87 -67 -173l195 -246v0h-104h-105v0l-94 118q-47 -41 -103 -72q-118 -63 -263 -63
q-219 0 -342 105.5t-123 293.5q0 153 84 263q66 87 198 166q-79 102 -114 170q-44 86 -44 169zM567 128q95 0 192 54q49 28 87 63l-359 451q-83 -50 -129 -104q-64 -76 -64 -180q0 -125 77 -205q76 -79 196 -79zM414 1132q0 -46 34 -105q29 -49 96 -137q89 47 135 97
q65 69 65 163q0 59 -46 97t-119 38t-119 -43t-46 -110z" />
    <glyph glyph-name="quotesingle" unicode="'" horiz-adv-x="453" 
d="M164 967l-31 443h202l-30 -443h-141z" />
    <glyph glyph-name="parenleft" unicode="(" horiz-adv-x="453" 
d="M102 606q0 137 37 325t120 476h130q-63 -245 -90.5 -433.5t-27.5 -367.5q0 -209 27.5 -397t90.5 -404h-130q-83 288 -120 477q-37 188 -37 324z" />
    <glyph glyph-name="parenright" unicode=")" horiz-adv-x="453" 
d="M374 606q0 -135 -37 -323.5t-121 -477.5h-130q63 248 91 436t28 365q0 207 -28 395.5t-91 405.5h130q84 -290 121 -479q37 -188 37 -322z" />
    <glyph glyph-name="asterisk" unicode="*" horiz-adv-x="944" 
d="M677 1362l-137 -193v0l234 25v-125l-234 26v0l141 -189l-108 -64l-99 215v0l-94 -217l-109 62l137 193v0l-234 -25v125l234 -26v0l-141 189l108 64l99 -215v0l94 217z" />
    <glyph glyph-name="plus" unicode="+" horiz-adv-x="1360" 
d="M622 509h-334v124h334v334h124v-334h334v-124h-334v-334h-124v334z" />
    <glyph glyph-name="comma" unicode="," horiz-adv-x="453" 
d="M57 -211l96 442h204l-174 -442h-126z" />
    <glyph glyph-name="hyphen" unicode="-" horiz-adv-x="453" 
d="M95 583h272v-154h-272v154z" />
    <glyph glyph-name="period" unicode="." horiz-adv-x="453" 
d="M127 215h216v-215h-216v215z" />
    <glyph glyph-name="slash" unicode="/" horiz-adv-x="453" 
d="M401 1411l-203 -1566h-124l203 1566h124z" />
    <glyph glyph-name="zero" unicode="0" horiz-adv-x="944" 
d="M479 -21q-179 0 -276 105t-97 299v665q0 192 91.5 284.5t281.5 92.5q198 0 286 -88.5t88 -288.5v-665q0 -198 -95.5 -301t-278.5 -103v0zM479 138q94 0 142.5 62.5t48.5 182.5v665q0 118 -45 170t-146 52q-106 0 -148 -49t-42 -173v-665q0 -125 46.5 -185t143.5 -60v0z
" />
    <glyph glyph-name="one" unicode="1" horiz-adv-x="944" 
d="M446 0v1191v0l-36 -27q-69 -50 -176 -105v169q80 42 132 80q53 39 117 103h146v0v-1411v0h-91h-92v0z" />
    <glyph glyph-name="two" unicode="2" horiz-adv-x="944" 
d="M845 1086q0 -168 -129 -381q-116 -190 -419 -551v0h561v-154h-741v86v86q305 357 425 558t120 354q0 86 -48 138t-126 52q-101 0 -139 -44.5t-35 -157.5v-42h-183v42q-11 177 78 265t279 88q175 0 266 -87q91 -86 91 -252z" />
    <glyph glyph-name="three" unicode="3" horiz-adv-x="944" 
d="M665 1077q0 105 -41 149.5t-138 44.5q-88 0 -133.5 -54.5t-42.5 -154.5v-42h-183v42q-11 174 82.5 268.5t277.5 94.5q177 0 269 -80.5t92 -235.5v-41q0 -180 -81 -254q-46 -43 -132 -60v0q93 -17 137 -59q76 -71 76 -276v-78q0 -181 -96.5 -271.5t-290.5 -90.5
q-177 0 -269.5 98t-86.5 279v42h181v-42q-2 -113 40.5 -167.5t131.5 -54.5q107 0 158 57.5t51 176.5v78q0 106 -51 165.5t-142 59.5h-54v162h19q118 0 172 48.5t54 154.5v41z" />
    <glyph glyph-name="four" unicode="4" horiz-adv-x="944" 
d="M553 346h-509v73v73l438 919h127h127v-911v0h162v-154h-162v0v-346h-183v346v0zM553 500v0v736v0v0l-347 -736v0h347z" />
    <glyph glyph-name="five" unicode="5" horiz-adv-x="944" 
d="M844 413q0 -239 -80.5 -336.5t-277.5 -97.5q-195 0 -271.5 71t-85.5 259v42h181v-42q6 -89 43.5 -130.5t113.5 -41.5q116 0 156 61.5t40 239.5v94q0 133 -36.5 185.5t-129.5 52.5q-89 0 -132.5 -47.5t-41.5 -142.5h-187l13 831v0h660v-159h-493v0l-7 -449v0q47 47 78 70
q70 51 171 51q160 0 223 -91.5t63 -325.5v-94z" />
    <glyph glyph-name="six" unicode="6" horiz-adv-x="944" 
d="M508 1425q192 0 276.5 -89.5t75.5 -284.5v-29h-181v29q0 108 -43.5 164t-127.5 56q-128 0 -167 -108q-34 -93 -37 -366v0q121 92 264 92q161 0 230 -96.5t69 -322.5v-54q0 -219 -93.5 -328t-280.5 -109q-194 0 -283.5 110t-89.5 348v169q1 508 75 664q73 155 313 155z
M303 412q0 -159 40 -216.5t150 -57.5q103 0 147 63t44 211v54q0 140 -45 202t-146 62q-93 0 -141.5 -67.5t-48.5 -196.5v-54z" />
    <glyph glyph-name="seven" unicode="7" horiz-adv-x="944" 
d="M210 0l472 1257v0h-542v154h705v-77v-77l-418 -1257h-217z" />
    <glyph glyph-name="eight" unicode="8" horiz-adv-x="944" 
d="M474 -21q-189 0 -280 100t-91 309v-30q0 217 84 306q52 55 150 75v0q-80 22 -128 68q-84 82 -84 260v-28q0 185 91.5 285.5t260.5 100.5q184 0 268.5 -92.5t84.5 -293.5v28q0 -178 -77 -261q-45 -48 -119 -68v0q92 -20 136 -67q76 -81 76 -313v30q0 -192 -98.5 -300.5
t-273.5 -108.5v0zM477 817q87 0 128.5 60t41.5 185v-28q0 126 -40 181.5t-130 55.5q-84 0 -126.5 -59.5t-42.5 -177.5v28q0 -125 42 -185q41 -60 127 -60zM474 659q-102 0 -145 -62.5t-43 -208.5v30q0 -162 39.5 -221t148.5 -59q102 0 145.5 64.5t43.5 215.5v-30
q0 157 -40 214q-39 57 -149 57z" />
    <glyph glyph-name="nine" unicode="9" horiz-adv-x="944" 
d="M463 -21q-192 0 -276.5 89.5t-75.5 284.5v29h181v-29q0 -108 43.5 -164t127.5 -56q141 0 177 96q32 86 35 386v0q-121 -101 -256 -100q-170 0 -242.5 96.5t-72.5 322.5v54q0 219 91.5 328t275.5 109q225 0 303.5 -120t77.5 -465v-169q-1 -408 -81 -550
q-79 -142 -308 -142zM669 992q0 159 -40 216.5t-151 57.5q-103 0 -147 -63t-44 -211v-54q0 -140 45 -202t146 -62q94 0 142.5 67.5t48.5 196.5v54z" />
    <glyph glyph-name="colon" unicode=":" horiz-adv-x="453" 
d="M127 215h216v-215h-216v215zM127 953h216v-215h-216v215z" />
    <glyph glyph-name="semicolon" unicode=";" horiz-adv-x="453" 
d="M57 -211l96 443h204l-174 -443h-126zM131 953h216v-215h-216v215z" />
    <glyph glyph-name="less" unicode="&#x3c;" horiz-adv-x="2039" 
d="M410 542v72v72l1225 549v-145l-1066 -475v0l1066 -479v-145z" />
    <glyph glyph-name="equal" unicode="=" horiz-adv-x="1360" 
d="M288 518h792v-125h-792v125zM288 737h792v-125h-792v125z" />
    <glyph glyph-name="greater" unicode="&#x3e;" horiz-adv-x="2039" 
d="M1635 542l-1225 -551v145l1066 479v0l-1066 475v145l1225 -549v-72v-72z" />
    <glyph glyph-name="question" unicode="?" horiz-adv-x="868" 
d="M454 1279q-69 0 -98 -48.5t-26 -158.5v-42h-193v42q-11 185 65 270.5t252 85.5q181 0 249 -72t68 -262q0 -123 -37 -197t-170 -215q-32 -34 -41.5 -92.5t-9.5 -226.5h-158q0 236 11 288t80 135q85 103 108.5 158t23.5 150q0 105 -27 145q-26 40 -97 40zM326 215h216v-215
h-216v215z" />
    <glyph glyph-name="at" unicode="@" horiz-adv-x="1360" 
d="M1032 282q26 0 37 36.5t11 122.5v397q0 242 -91 345.5t-305 103.5t-305.5 -107t-91.5 -359v-516q0 -222 90.5 -316.5t302.5 -94.5q80 0 162.5 14.5t121.5 35.5v-139q-47 -25 -137 -42t-174 -17q-287 0 -409 127t-121 425v515q1 334 130 476.5t431 142.5q303 0 432 -136.5
t128 -457.5v-397q0 -166 -51.5 -236.5t-172.5 -70.5q-125 0 -175 167v0q-12 -55 -35 -89q-52 -78 -179 -78q-119 0 -173.5 75t-54.5 237v267q0 148 52.5 222t158.5 74q123 1 182 -76v0v55v0h172v-610q0 -52 14.5 -74t49.5 -22zM682 866q-54 0 -82 -39.5t-28 -115.5v-267
q0 -95 23.5 -131t85.5 -36q64 0 88 44t24 160v181q0 116 -24 160t-87 44z" />
    <glyph glyph-name="A" unicode="A" horiz-adv-x="1057" 
d="M81 0l323 1411h128h129l322 -1411v0h-102h-103v0l-65 320v0h-378v0l-66 -320v0h-94h-94v0zM526 1237l-157 -758v0h313v0l-156 758v0v0z" />
    <glyph glyph-name="B" unicode="B" horiz-adv-x="1020" 
d="M140 0v1411v0h96v0h247q213 0 315.5 -86.5t102.5 -267.5v-7q0 -180 -92 -260q-57 -49 -160 -68v0q129 -17 191 -67q97 -76 97 -279v-7q0 -199 -96.5 -284t-323.5 -85h-281v0h-96v0zM333 1251v-450v0h164q112 0 161.5 51t49.5 166v7q0 115 -55 170.5t-170 55.5h-150v0z
M333 642v-483v0h184q120 0 173.5 57t53.5 186v7q0 128 -55.5 180.5t-191.5 52.5h-164v0z" />
    <glyph glyph-name="C" unicode="C" horiz-adv-x="1020" 
d="M899 459v-42q7 -230 -80 -332t-289 -102q-199 0 -294.5 94.5t-95.5 291.5v628q0 228 93.5 329.5t304.5 101.5q200 0 286 -92q77 -80 76 -245l-1 -47v-42h-193v42q4 128 -31.5 176.5t-134.5 48.5q-110 0 -158.5 -56t-48.5 -183v-628q0 -148 41 -204t150 -56
q99 0 141.5 64.5t40.5 210.5v42h193z" />
    <glyph glyph-name="D" unicode="D" horiz-adv-x="1057" 
d="M138 0v1411v0h96v0h248q244 0 352.5 -98t108.5 -319v-550q0 -235 -83 -339.5t-271 -104.5h-355v0h-96v0zM331 159v0h196q125 0 174 62t49 220v550q0 146 -53.5 203.5t-190.5 57.5h-175v0v-1093z" />
    <glyph glyph-name="E" unicode="E" horiz-adv-x="868" 
d="M133 0v0v1411v0h632v0v-79v-80v0h-439v0v-447v0h413v-79v-80v0h-413v0v-487v0h452v0v-79v-80v0h-645z" />
    <glyph glyph-name="F" unicode="F" 
d="M135 0v1411v0h616v0v-79v-80v0h-423v0v-447v0h404v-79v-80v0h-404v0v-646h-96h-97z" />
    <glyph glyph-name="G" unicode="G" horiz-adv-x="1057" 
d="M544 -17q-235 0 -324 102.5t-89 373.5v520q0 238 97 343.5t316 105.5q205 0 298.5 -89t90.5 -281v-42h-193v42q2 112 -44.5 161.5t-151.5 49.5q-117 0 -168.5 -69t-51.5 -224v-520q0 -179 47.5 -246.5t172.5 -67.5q110 1 196 33v0v414v0h-216v159h409v-699v0
q-140 -65 -389 -66z" />
    <glyph glyph-name="H" unicode="H" horiz-adv-x="1057" 
d="M133 0v1411v0h96h97v0v-606v0h408v0v606v0h96h97v0v-1411v0h-96h-97v0v646v0h-408v0v-646v0h-96h-97v0z" />
    <glyph glyph-name="I" unicode="I" horiz-adv-x="453" 
d="M130 0v1411v0h96h97v0v-1411v0h-96h-97v0z" />
    <glyph glyph-name="J" unicode="J" horiz-adv-x="868" 
d="M552 1411v0h96h97v0v-1036q0 -204 -84 -298t-265 -94q-187 0 -270.5 91.5t-77.5 289.5v42h193v-42q-2 -111 36.5 -166.5t117.5 -55.5q88 0 122.5 58.5t34.5 208.5v0v1002z" />
    <glyph glyph-name="K" unicode="K" horiz-adv-x="1020" 
d="M341 0v0h-96h-97v0v1411v0h96h97v0v-650v0l407 650v0h106h107v0l-420 -633v0l420 -778v0h-114h-114v0l-392 762v0v-762z" />
    <glyph glyph-name="L" unicode="L" horiz-adv-x="793" 
d="M134 0v0v1411v0h96h97v0v-1252v0h410v0v-79v-80v0h-603z" />
    <glyph glyph-name="M" unicode="M" horiz-adv-x="1397" 
d="M314 0v0h-89h-90v0v1411v0h157h157v0l256 -1137v0v0l247 1137v0h157h157v0v-1411v0h-89h-90v0v1225v0l-289 -1225h-97h-97l-290 1229v0v-1229z" />
    <glyph glyph-name="N" unicode="N" horiz-adv-x="1095" 
d="M312 0v0h-92h-92v0v1411v0h152h153v0l364 -1220v0v0v1220v0h89h90v0v-1411h-151h-152l-361 1210v0v0v-1210z" />
    <glyph glyph-name="O" unicode="O" horiz-adv-x="1057" 
d="M535 -17q-229 0 -315 102.5t-86 373.5v520q0 238 94 343.5t307 105.5q217 0 309 -105t92 -351v-592q0 -210 -94 -303.5t-307 -93.5v0zM535 142q110 0 159 65.5t49 212.5v592q0 146 -44.5 201.5t-163.5 55.5q-110 0 -159 -69t-49 -224v-520q0 -179 44.5 -246.5
t163.5 -67.5v0z" />
    <glyph glyph-name="P" unicode="P" horiz-adv-x="944" 
d="M135 0v1411v0h96v0h222q243 0 335 -84.5t92 -308.5v15q0 -216 -100.5 -312t-326.5 -96h-125v0v-625v0h-96h-97v0zM328 784v0h125q136 0 185 51.5t49 193.5v-15q0 136 -50.5 187t-183.5 51h-125v0v-468z" />
    <glyph glyph-name="Q" unicode="Q" horiz-adv-x="1057" 
d="M530 1424q209 0 305 -97t96 -308v-520q1 -223 -108 -342v0l207 9v-166h-200l-341 -21v0q-205 0 -282.5 102.5t-77.5 373.5v520q0 225 100 337t301 112v0zM530 1265q-110 0 -159 -69t-49 -224v-520q0 -179 44.5 -246.5t163.5 -67.5q116 0 162 69t46 245v520
q0 167 -44.5 230t-163.5 63v0z" />
    <glyph glyph-name="R" unicode="R" horiz-adv-x="1020" 
d="M135 0v1411v0h97v0h350q175 0 259 -86t84 -266v14q0 -193 -95 -279q-63 -58 -182 -77v0q128 -9 178 -60q59 -61 62 -236q2 -127 12 -213l4 -33q7 -55 14.5 -94t19.5 -80h-101h-101q-14 65 -20.5 101t-8.5 59l-3 30q-9 88 -11 195q-2 137 -51.5 195t-162.5 58h-150v0v-639
v0h-97h-97v0zM329 798v0h153q145 0 197.5 55.5t52.5 209.5v-14q0 116 -53.5 159.5t-196.5 43.5h-153v0v-454z" />
    <glyph glyph-name="S" unicode="S" horiz-adv-x="982" 
d="M691 1002v42q0 122 -39.5 173.5t-132.5 51.5q-104 0 -150.5 -47t-46.5 -152q0 -85 41 -131t183 -121q220 -116 290 -200q69 -84 69 -231q0 -202 -103 -303t-309 -101q-221 0 -312 103q-84 95 -84 307l1 38v42h196v-42q-2 -165 40.5 -227t158.5 -62q117 0 169 53.5
t52 174.5q0 92 -47 144q-47 51 -209 136q-189 100 -263 189q-73 88 -73 214q0 188 99 281.5t298 93.5q208 0 290 -86q76 -80 77 -266l-1 -32v-42h-194z" />
    <glyph glyph-name="T" unicode="T" horiz-adv-x="982" 
d="M399 0v1252v0h-325v0v79v80v0h843v0v-79v-80v0h-325v0v-1252v0h-96h-97v0z" />
    <glyph glyph-name="U" unicode="U" horiz-adv-x="1057" 
d="M927 358q0 -188 -98.5 -281.5t-295.5 -93.5q-198 0 -296.5 93.5t-98.5 281.5v1053v0h96h97v0v-1000q0 -141 48.5 -206t153.5 -65q107 0 154 63.5t47 207.5v1000v0h96h97v0v-1053z" />
    <glyph glyph-name="V" unicode="V" horiz-adv-x="944" 
d="M55 1411v0h102h102v0l224 -1202v0v0l216 1202v0h94h94v0l-297 -1411h-118h-119z" />
    <glyph glyph-name="W" unicode="W" horiz-adv-x="1397" 
d="M311 0l-238 1411v0h94h94v0l165 -1129v0v0l167 1129h116h116l164 -1116v0v0l169 1116v0h93h93v0l-241 -1411h-111h-111l-173 1164v0v0l-175 -1164h-111h-111z" />
    <glyph glyph-name="X" unicode="X" horiz-adv-x="1057" 
d="M70 0l354 746v0l-313 665v0h105h106v0l216 -511v0v0l226 511v0h98h99v0l-317 -678v0l333 -733v0h-103h-104v0l-238 560v0v0l-257 -560v0h-102h-103v0z" />
    <glyph glyph-name="Y" unicode="Y" horiz-adv-x="944" 
d="M388 593v0l-324 818v0h109h109v0l212 -625v0l211 625v0h99h100v0l-323 -816v0v-595h-96h-97v593z" />
    <glyph glyph-name="Z" unicode="Z" horiz-adv-x="944" 
d="M95 206l554 999l27 47v0h-581v0v79v80v0h761v-103v-103l-554 -999l-27 -47v0h581v0v-79v-80v0h-761v103v103z" />
    <glyph glyph-name="bracketleft" unicode="[" horiz-adv-x="453" 
d="M107 -198v1605v0h300v-91h-146v0v-1423v0h146v-91h-300v0z" />
    <glyph glyph-name="backslash" unicode="\" horiz-adv-x="453" 
d="M277 -155l-203 1566h124l203 -1566h-124z" />
    <glyph glyph-name="bracketright" unicode="]" horiz-adv-x="453" 
d="M356 -198v0h-301v91h147v0v1423v0h-147v91h301v0v-1605z" />
    <glyph glyph-name="asciicircum" unicode="^" horiz-adv-x="1020" 
d="M564 1536q69 -158 144 -252q76 -95 216 -197v-94q-232 105 -368 219l-46 41v0l-44 -40q-136 -114 -367 -220v94q139 102 214 196q76 95 145 253h53h53z" />
    <glyph glyph-name="underscore" unicode="_" horiz-adv-x="1020" 
d="M0 -512v105h1020v-105h-1020z" />
    <glyph glyph-name="grave" unicode="`" horiz-adv-x="944" 
d="M444 1095l-187 309h218l115 -309h-146z" />
    <glyph glyph-name="a" unicode="a" 
d="M326 -21q-112 0 -170 71t-58 207v-2q0 195 95 271.5t336 76.5h23v0v117q0 70 -31.5 107.5t-90.5 37.5q-62 0 -95.5 -42t-33.5 -120v0h-181v0q-4 141 77 220.5t230 79.5q160 0 234 -72t74 -227v-704v0v0h-183v0v102v0q-6 -17 -17 -33q-59 -90 -209 -90zM552 376v91v0h-40
q-112 0 -170.5 -52.5t-58.5 -152.5v2q0 -79 26 -113t86 -34q81 0 121 66t36 193v0z" />
    <glyph glyph-name="b" unicode="b" 
d="M101 1411v0h91h92v0v-503v0l3 5q57 90 199 90q132 0 193 -77t61 -243v-364q0 -187 -57.5 -263.5t-197.5 -76.5q-132 0 -193 96l-8 13v0v-88v0h-183v0v1411zM428 117q69 0 99.5 38t30.5 123v395q0 96 -34 143t-103 47q-80 0 -109.5 -55.5t-27.5 -203.5v0v-228v0
q0 -133 35 -196t109 -63z" />
    <glyph glyph-name="c" unicode="c" horiz-adv-x="793" 
d="M714 309v-29q5 -154 -68 -227.5t-230 -73.5q-163 0 -238.5 79.5t-75.5 252.5v327q0 197 72 281t242 84q153 0 222 -71q64 -67 64 -204v-21v-29h-183v29q4 82 -21.5 119.5t-83.5 37.5q-72 0 -100.5 -41.5t-28.5 -146.5v-358q0 -115 27 -158t99 -43q65 0 94.5 40t25.5 123
v29h183z" />
    <glyph glyph-name="d" unicode="d" 
d="M360 -21q-136 0 -198.5 80t-62.5 254v313q0 192 64 284.5t197 92.5q122 0 192 -87v0v495v0h91h92v0v-1411v0h-91h-92v0v86v0q-80 -107 -192 -107zM418 860q-72 0 -103 -46t-31 -155v-354q0 -112 25 -149t100 -37q82 0 112.5 57.5t30.5 209.5v289q5 93 -28.5 139
t-105.5 46z" />
    <glyph glyph-name="e" unicode="e" horiz-adv-x="793" 
d="M404 -21q-177 0 -249 85.5t-72 293.5v286q0 183 78.5 271t242.5 88q167 0 244.5 -86t77.5 -273v-217v0h-460v0v-72q0 -145 27 -191.5t111 -46.5q72 0 105.5 36.5t30.5 112.5v29h183v-29q7 -146 -71.5 -216.5t-247.5 -70.5zM543 563v0v78q0 128 -30 176t-109 48
q-73 0 -105.5 -52.5t-32.5 -171.5v-78v0h277z" />
    <glyph glyph-name="f" unicode="f" horiz-adv-x="604" 
d="M386 847v0v-847v0h-91h-92v0v847v0h-130v135h130v0v184q0 137 49.5 197.5t160.5 60.5q71 0 132 -11v-129l-49 2q-56 0 -83 -29.5t-27 -90.5v-184v0h159v-135h-159z" />
    <glyph glyph-name="g" unicode="g" 
d="M402 -248q83 0 115.5 35.5t32.5 125.5v188v0l-9 -13q-62 -88 -196 -88q-131 0 -191 83.5t-60 263.5v367q0 145 63 217t189 72q126 1 204 -97v0v76v0h183v-1047q0 -162 -80 -242.5t-240 -80.5q-154 0 -226 70.5t-67 216.5v29h155v-29q-4 -81 24.5 -114t102.5 -33zM413 863
q-67 0 -102 -47.5t-35 -138.5v-337q0 -114 29 -157t107 -43q79 0 108.5 54t29.5 197v221q0 143 -29.5 197t-107.5 54z" />
    <glyph glyph-name="h" unicode="h" 
d="M108 0v1411v0h91h92v0v-517v0v0l4 4q95 105 211 105q115 0 177 -62t62 -177v-764v0h-89h-90v0v707q0 77 -32 117.5t-94 40.5q-76 0 -112.5 -52.5t-36.5 -161.5v0v-651v0h-91h-92v0z" />
    <glyph glyph-name="i" unicode="i" horiz-adv-x="378" 
d="M102 0v982v0h91h92v0v-982v0h-91h-92v0zM97 1409h192v-183h-192v183z" />
    <glyph glyph-name="j" unicode="j" horiz-adv-x="378" 
d="M107 982v0h91h92v0v-1143q0 -123 -45.5 -175t-151.5 -52q-56 0 -100 13v127l38 -2q49 0 62.5 23.5t13.5 107.5v0v1101zM103 1409h192v-183h-192v183z" />
    <glyph glyph-name="k" unicode="k" 
d="M305 1411v-1411v0h-91h-92v0v1411v0h91h92v0zM587 0l-282 540v0l259 442v0h96h97v0l-257 -442v0l277 -540v0h-95h-95v0z" />
    <glyph glyph-name="l" unicode="l" horiz-adv-x="378" 
d="M104 0v1411v0h91h92v0v-1411v0h-91h-92v0z" />
    <glyph glyph-name="m" unicode="m" horiz-adv-x="1246" 
d="M83 0v982v0h91h92v0v-89v0v0l5 5q95 105 212 105q106 0 173 -67q29 -29 45 -64v0l10 12q112 119 219 119q120 0 184.5 -64.5t64.5 -184.5v-754v0h-89h-90v0v706q0 78 -32.5 118.5t-94.5 40.5q-77 0 -113.5 -52.5t-36.5 -161.5v0v-651v0h-91h-92v0v707q0 77 -32 117.5
t-94 40.5q-75 0 -111.5 -52.5t-36.5 -161.5v0v-651v0h-91h-92v0z" />
    <glyph glyph-name="n" unicode="n" 
d="M102 0v982v0h91h92v0v-82v0v0l4 4q92 98 217 98q113 0 174.5 -61.5t61.5 -174.5v-766v0h-89h-90v0v704q0 78 -32.5 119t-95.5 41q-77 0 -113.5 -52t-36.5 -161v0v-651v0h-91h-92v0z" />
    <glyph glyph-name="o" unicode="o" 
d="M419 -21q-165 0 -241.5 91t-76.5 288v286q0 172 82.5 265.5t235.5 93.5q165 0 241.5 -86t76.5 -273v-286q0 -201 -74.5 -290t-243.5 -89v0zM419 117q72 0 103.5 52.5t31.5 170.5v286q0 124 -32.5 181.5t-102.5 57.5q-72 0 -103.5 -54.5t-31.5 -177.5v-286
q0 -131 29 -180.5t106 -49.5v0z" />
    <glyph glyph-name="p" unicode="p" 
d="M108 982v0h91h92v0v-108l1 1q94 128 216 128q120 0 179.5 -80t59.5 -240v-364q0 -177 -61 -258.5t-193 -81.5q-131 0 -192 78l-10 13v0v-437v0h-91h-92v0v1349zM435 117q64 0 97 54.5t33 158.5v364q0 85 -32 127t-97 42q-74 0 -110.5 -56t-34.5 -168v0v-335v0
q0 -96 35 -141.5t109 -45.5z" />
    <glyph glyph-name="q" unicode="q" 
d="M345 -21q-120 0 -185 73.5t-65 209.5v477q0 124 66.5 194t184.5 70q114 0 203 -96v0v75v0h183v0v-1349v0h-91h-92v0v430v0q-85 -83 -204 -84zM411 863q-73 0 -105.5 -45.5t-32.5 -147.5v-344q0 -108 33 -157.5t104 -49.5q78 0 108.5 49t30.5 174v335q0 93 -34.5 139.5
t-103.5 46.5z" />
    <glyph glyph-name="r" unicode="r" horiz-adv-x="566" 
d="M108 0v982v0h91h92v0v-118v0v0l25 35q83 102 203 104v-183q-127 0 -177.5 -61.5t-50.5 -217.5v0v-541v0h-91h-92v0z" />
    <glyph glyph-name="s" unicode="s" horiz-adv-x="755" 
d="M490 697v29q3 72 -22 105.5t-82 33.5q-52 0 -78 -24.5t-26 -73.5q0 -50 26 -82q26 -31 121 -98q153 -108 205 -172q51 -64 51 -147q0 -139 -79.5 -214t-225.5 -75q-157 0 -233 73q-73 68 -72 202v17v29h180v-29q-4 -77 27.5 -115.5t97.5 -38.5q63 0 94 30t31 90
q0 53 -35 95t-139 115q-137 96 -183 157t-46 145q0 122 74 188t210 66q152 0 220 -66q65 -62 64 -192v-19v-29h-180z" />
    <glyph glyph-name="t" unicode="t" horiz-adv-x="604" 
d="M525 -7q-69 -15 -115 -14q-118 0 -166 47t-48 161v660v0h-128v135h128v0v177l183 76v-253v0h146v-135h-146v0v-631q0 -55 32 -77t114 -22v0v-124z" />
    <glyph glyph-name="u" unicode="u" 
d="M282 982v-727q0 -68 28 -103t82 -35q82 0 121.5 52.5t39.5 161.5v0v651v0h91h92v0v-982v0h-91h-92v0v82l-1 -1v0q-92 -102 -214 -102q-115 0 -177 62t-62 177v764v0h91h92v0z" />
    <glyph glyph-name="v" unicode="v" horiz-adv-x="793" 
d="M65 982v0h94h94v0l155 -795v0v0l151 795v0h92h92v0l-222 -982h-116h-117z" />
    <glyph glyph-name="w" unicode="w" horiz-adv-x="1322" 
d="M256 0l-200 982v0h92h93v0l153 -851v0v0l146 851h125h126l161 -856v0v0l152 856v0h82h83v0l-198 -982h-126h-127l-160 823v0v0l-146 -823h-128h-128z" />
    <glyph glyph-name="x" unicode="x" horiz-adv-x="793" 
d="M59 0l251 503v0l-221 479v0h97h97v0l130 -321v0v0l122 321v0h88h88v0l-217 -493v0l221 -489v0h-93h-94v0l-135 349v0v0l-155 -349v0h-89h-90v0z" />
    <glyph glyph-name="y" unicode="y" 
d="M405 -363v0h-85h-85v0l103 343v0l-271 1002v0h93h93v0l169 -728v0v0l177 728v0h87h87v0z" />
    <glyph glyph-name="z" unicode="z" horiz-adv-x="680" 
d="M75 154l360 690l1 2h-333v0v68v68v0h508v-69v-69l-351 -690l-9 -18v0h365v0v-68v-68v0h-541v77v77z" />
    <glyph glyph-name="braceleft" unicode="{" horiz-adv-x="906" 
d="M761 -470q-234 0 -306 71t-72 304v266q0 134 -38 194t-148 100v157q97 22 142 94t45 207v266q0 214 81 294.5t296 80.5v-155q-127 0 -160 -37.5t-33 -182.5v-266q0 -201 -89 -314q-26 -33 -63 -61v0q38 -31 64 -67q89 -120 89 -310v-266q0 -136 36.5 -178t155.5 -42v-155
z" />
    <glyph glyph-name="bar" unicode="|" horiz-adv-x="1020" 
d="M458 -512v2048h105v-2048h-105z" />
    <glyph glyph-name="braceright" unicode="}" horiz-adv-x="906" 
d="M145 -470v155q119 0 155.5 42t36.5 178v266q0 190 89 310q26 36 64 67v0q-37 28 -63 61q-89 113 -89 314v266q0 145 -33 182.5t-160 37.5v155q215 0 296 -80.5t81 -294.5v-266q0 -135 45 -207t142 -94v-157q-110 -40 -148 -100t-38 -194v-266q0 -233 -72 -304t-306 -71z
" />
    <glyph glyph-name="asciitilde" unicode="~" horiz-adv-x="2039" 
d="M414 500q93 133 166 187t158 54q53 0 127.5 -13.5t204.5 -46.5q161 -41 235 -58t95 -17q74 0 130.5 29t119.5 101l34 -36q-63 -134 -136 -189t-188 -55q-67 0 -141.5 13.5t-190.5 47.5q-137 40 -208 56t-107 16q-76 0 -136 -27.5t-132 -94.5z" />
    <glyph glyph-name="uni00A0" unicode="&#xa0;" horiz-adv-x="453" 
 />
    <glyph glyph-name="exclamdown" unicode="&#xa1;" horiz-adv-x="604" 
d="M379 617l38 -1053h-216l38 1053h140zM417 763h-216v215h216v-215z" />
    <glyph glyph-name="cent" unicode="&#xa2;" horiz-adv-x="944" 
d="M790 530v-29q5 -166 -60 -231t-235 -65q-177 0 -244 66t-67 242v356q0 163 82.5 251t235.5 88q154 0 223 -71q66 -66 65 -204v-20v-29h-183v29q4 82 -22 119.5t-85 37.5q-70 0 -101.5 -43t-31.5 -139v-356q0 -112 26.5 -154t96.5 -42t95.5 36.5t21.5 128.5v29h183z
M571 336v-386h-168v386h168zM403 1070v355h168v-355h-168z" />
    <glyph glyph-name="sterling" unicode="&#xa3;" horiz-adv-x="944" 
d="M790 0h-585v154h58v550h-82v148h82v294q0 149 62.5 215.5t204.5 66.5q149 0 213 -82t53 -260v-42h-183v42q3 105 -14.5 144.5t-68.5 39.5q-45 0 -64.5 -29t-19.5 -95v-294h168v-148h-168v-550h344v0v-77v-77v0z" />
    <glyph glyph-name="currency" unicode="&#xa4;" horiz-adv-x="944" 
d="M809 728q0 137 -94.5 231.5t-231.5 94.5t-231 -94.5t-94 -231.5t94 -231t231 -94t231.5 94t94.5 231zM483 283q-158 0 -275 92v0l-137 -137l-79 79l137 137v0q-90 117 -91 274q0 159 92 275v0l-138 138l79 79l138 -138v0q117 93 274 92q157 0 274 -92v0l138 138l79 -79
l-138 -138v0q93 -116 93 -275q0 -156 -92 -274v0l137 -137l-79 -79l-137 137v0q-116 -91 -275 -92z" />
    <glyph glyph-name="yen" unicode="&#xa5;" horiz-adv-x="944" 
d="M170 341v108h217v0v136v0l-296 826v0h94h95v0l208 -624v0l208 624v0h89h89v0l-294 -808v0v-154v0h216v-108h-216v0v-104v0h216v-108h-216v0v-129v0h-96h-97v0v129v0h-217v108h217v0v104v0h-217z" />
    <glyph glyph-name="brokenbar" unicode="&#xa6;" horiz-adv-x="1020" 
d="M458 -461v919h105v-919h-105zM458 564v919h105v-919h-105z" />
    <glyph glyph-name="section" unicode="&#xa7;" horiz-adv-x="944" 
d="M537 1422q38 0 79.5 -5.5t92.5 -16.5v0v-132v0q-64 12 -101 16.5t-71 4.5q-67 0 -107.5 -32.5t-40.5 -86.5q0 -48 42.5 -91.5t130.5 -84.5q131 -62 183 -116.5t52 -129.5q0 -113 -87 -182q-45 -35 -107 -53q81 -44 120 -84q62 -64 62 -160q0 -145 -92.5 -217.5
t-277.5 -72.5q-60 0 -107.5 6t-91.5 20v0v127v0q43 -11 85.5 -15.5t113.5 -4.5q90 0 145 42.5t55 111.5q0 47 -41.5 89t-126.5 80q-156 71 -218.5 133t-62.5 147q0 115 97 180q45 30 107 47q-56 36 -88 69q-63 66 -63 157q0 127 80 191q79 63 238 63zM627 714
q0 50 -30.5 88.5t-92.5 67.5l-17 8q-47 -11 -90 -44q-61 -47 -61 -103q0 -52 42 -95q36 -36 104 -68l-1 1q51 0 98.5 47t47.5 98z" />
    <glyph glyph-name="dieresis" unicode="&#xa8;" horiz-adv-x="944" 
d="M215 1341h194v-182h-194v182zM534 1341h194v-182h-194v182z" />
    <glyph glyph-name="copyright" unicode="&#xa9;" horiz-adv-x="1020" 
d="M540 1529q201 0 339.5 -138.5t138.5 -339.5q0 -200 -138.5 -338.5t-339.5 -138.5q-200 0 -338.5 138.5t-138.5 338.5q0 201 138.5 339.5t338.5 138.5v0zM953 1051q0 173 -120 293t-293 120t-292.5 -120t-119.5 -293t119.5 -292.5t292.5 -119.5t293 119.5t120 292.5v0z
M770 866q-24 -34 -81 -57t-115 -23q-110 0 -186.5 79.5t-76.5 194.5q0 116 75.5 195.5t184.5 79.5q58 0 114.5 -22t79.5 -54l-58 -62q-19 26 -58.5 44.5t-77.5 18.5q-78 0 -131.5 -58t-53.5 -142t54.5 -141.5t133.5 -57.5q37 0 77 19.5t61 47.5z" />
    <glyph glyph-name="ordfeminine" unicode="&#xaa;" horiz-adv-x="566" 
d="M216 783q-84 0 -123 43.5t-39 137.5q0 127 57.5 176.5t203.5 49.5h53v0v56q0 39 -16 60.5t-46 21.5q-37 0 -57.5 -22.5t-20.5 -64.5v0h-158v0q-3 86 56.5 135t168.5 49q118 0 172 -45.5t54 -143.5v-446v0v0h-153v0v75v0l-10 -14q-49 -68 -142 -68zM368 1044v57v0h-42
q-55 0 -84 -29.5t-29 -86.5q0 -61 13 -82t51 -21q47 0 70 41.5t21 120.5v0z" />
    <glyph glyph-name="guillemotleft" unicode="&#xab;" horiz-adv-x="906" 
d="M487 854l-206 -359v0l206 -360h-149l-228 360v0l223 359h154zM809 854l-206 -359v0l206 -360h-149l-228 360v0l223 359h154z" />
    <glyph glyph-name="logicalnot" unicode="&#xac;" horiz-adv-x="1360" 
d="M955 669h-667v125h792v-458h-125v333z" />
    <glyph glyph-name="uni00AD" unicode="&#xad;" horiz-adv-x="453" 
d="M95 583h272v-154h-272v154z" />
    <glyph glyph-name="registered" unicode="&#xae;" horiz-adv-x="1020" 
d="M540 1524q201 0 339.5 -138.5t138.5 -339.5q0 -200 -138.5 -338.5t-339.5 -138.5q-200 0 -338.5 138.5t-138.5 338.5q0 201 138.5 339.5t338.5 138.5v0zM953 1046q0 173 -120 293t-293 120t-292.5 -120t-119.5 -293t119.5 -292.5t292.5 -119.5t293 119.5t120 292.5v0z
M373 807v506h187q62 0 104.5 -42.5t42.5 -104.5t-43 -105q-20 -20 -46 -31l89 -223h-91l-84 212v0h-84v-212h-75zM632 1166q0 30 -21 51t-51 21h-112v0v-72v-72h112q30 0 51 21t21 51z" />
    <glyph glyph-name="macron" unicode="&#xaf;" horiz-adv-x="1020" 
d="M0 1534v106h1020v-106h-1020z" />
    <glyph glyph-name="degree" unicode="&#xb0;" horiz-adv-x="944" 
d="M476 1428q143 0 223.5 -84.5t80.5 -234.5t-80.5 -234.5t-223.5 -84.5t-223.5 84.5t-80.5 234.5t80.5 234.5t223.5 84.5zM640 1109q0 96 -43.5 150.5t-120.5 54.5t-120.5 -54.5t-43.5 -150.5t43.5 -150.5t120.5 -54.5t120.5 54.5t43.5 150.5z" />
    <glyph glyph-name="plusminus" unicode="&#xb1;" horiz-adv-x="1360" 
d="M622 509h-334v124h334v314h124v-314h334v-124h-334v-314h-124v314zM288 112h792v-125h-792v125z" />
    <glyph glyph-name="uni00B2" unicode="&#xb2;" horiz-adv-x="566" 
d="M502 1242q0 -109 -60 -201q-50 -76 -220 -256v0h287v-108h-437v59v59q162 183 226 279q63 96 63 157q0 41 -19 65.5t-51 24.5q-37 0 -54.5 -21t-15.5 -65v-22h-141v22q-6 95 43.5 142.5t154.5 47.5q110 0 167 -47q57 -46 57 -136z" />
    <glyph glyph-name="uni00B3" unicode="&#xb3;" horiz-adv-x="566" 
d="M355 1226q0 50 -15 71.5t-50 21.5q-30 0 -46 -16t-15 -46v-22h-141v22q-5 89 42.5 128.5t160.5 39.5q100 0 152.5 -44.5t52.5 -129.5v-18q0 -99 -46 -140q-28 -24 -81 -34v0q57 -10 84 -35q43 -40 43 -156q0 -103 -54.5 -154t-164.5 -51q-108 0 -156.5 44t-45.5 140v22
h140v-22q-1 -40 14.5 -59.5t47.5 -19.5q40 0 59.5 29.5t19.5 91.5q0 55 -19.5 86t-53.5 31h-53v106h8q61 0 89 23t28 73v18z" />
    <glyph glyph-name="acute" unicode="&#xb4;" horiz-adv-x="944" 
d="M362 1095l117 309h216l-187 -309h-146z" />
    <glyph glyph-name="mu" unicode="&#xb5;" horiz-adv-x="1133" 
d="M506 980l-190 -635q-29 -99 14.5 -162.5t141.5 -63.5q105 0 187.5 105t143.5 316v0l128 440h190l-153 -529q-30 -103 -50 -234t-18 -217h-185q-1 78 7 172v0v0l-35 -53q-103 -140 -228 -140q-110 0 -165 88q-22 38 -31 80v0l-178 -484h-210q83 200 135 338t74 215
l222 764h200z" />
    <glyph glyph-name="paragraph" unicode="&#xb6;" horiz-adv-x="944" 
d="M535 566v0q-215 39 -333 163t-118 316q0 216 161.5 348.5t425.5 132.5h260v-80h-138v0v-1772h-80v1772v0h-98v0v-1772h-80v892z" />
    <glyph glyph-name="periodcentered" unicode="&#xb7;" horiz-adv-x="453" 
d="M127 836h216v-215h-216v215z" />
    <glyph glyph-name="cedilla" unicode="&#xb8;" horiz-adv-x="944" 
d="M289 -366l157 269h145l-95 -269h-207z" />
    <glyph glyph-name="uni00B9" unicode="&#xb9;" horiz-adv-x="566" 
d="M253 677v593v0l-22 -23q-41 -39 -113 -77v135q50 24 79 49t61 71h135v0v-748v0h-70h-70v0z" />
    <glyph glyph-name="ordmasculine" unicode="&#xba;" horiz-adv-x="566" 
d="M284 783q-129 0 -182 55.5t-53 191.5v160q0 122 56.5 178.5t178.5 56.5q127 0 181 -54t54 -181v-160q0 -126 -57.5 -186.5t-177.5 -60.5v0zM284 882q42 0 61 34.5t19 111.5v160q0 76 -18 107t-62 31q-41 0 -60.5 -34t-19.5 -104v-160q0 -86 16.5 -116t63.5 -30v0z" />
    <glyph glyph-name="guillemotright" unicode="&#xbb;" horiz-adv-x="906" 
d="M109 135l206 359v0l-206 360h149l228 -360v0l-223 -359h-154zM431 135l206 359v0l-206 360h149l228 -360v0l-223 -359h-154z" />
    <glyph glyph-name="onequarter" unicode="&#xbc;" horiz-adv-x="1360" 
d="M985 1453l-554 -1524h-118l554 1524h118zM340 677v593v0l-22 -23q-41 -39 -113 -77v135q50 24 79 49t61 71h135v0v-748v0h-70h-70v0zM951 161h-258v66v67l196 440h102h103v-465v0h100v-108h-100v0v-161h-143v161v0zM951 269v0v353v0v0l-137 -328l-11 -25v0h148z" />
    <glyph glyph-name="onehalf" unicode="&#xbd;" horiz-adv-x="1360" 
d="M955 1453l-554 -1524h-118l554 1524h118zM299 677v593v0l-22 -23q-41 -39 -113 -77v135q50 24 79 49t61 71h135v0v-748v0h-70h-70v0zM1180 565q0 -109 -60 -201q-50 -76 -220 -256v0h287v-108h-437v59v59q162 183 226 279q63 96 63 157q0 41 -19 65.5t-51 24.5
q-37 0 -54.5 -21t-15.5 -65v-22h-141v22q-6 95 43.5 142.5t154.5 47.5q110 0 167 -47q57 -46 57 -136z" />
    <glyph glyph-name="threequarters" unicode="&#xbe;" horiz-adv-x="1360" 
d="M1045 1453l-554 -1524h-118l554 1524h118zM447 1226q0 50 -15 71.5t-50 21.5q-30 0 -46 -16t-15 -46v-22h-141v22q-5 89 42.5 128.5t160.5 39.5q100 0 152.5 -44.5t52.5 -129.5v-18q0 -99 -46 -140q-28 -24 -81 -34v0q57 -10 84 -35q43 -40 43 -156q0 -103 -54.5 -154
t-164.5 -51q-108 0 -156.5 44t-45.5 140v22h140v-22q-1 -40 14.5 -59.5t47.5 -19.5q40 0 59.5 29.5t19.5 91.5q0 55 -19.5 86t-53.5 31h-53v106h8q61 0 89 23t28 73v18zM1007 161h-258v66v67l196 440h102h103v-465v0h100v-108h-100v0v-161h-143v161v0zM1007 269v0v353v0v0
l-137 -328l-11 -25v0h148z" />
    <glyph glyph-name="questiondown" unicode="&#xbf;" horiz-adv-x="868" 
d="M454 -320q69 0 98.5 50t25.5 163v42h193v-42q11 -188 -65 -275t-252 -87q-181 0 -249 73t-68 266q0 126 37.5 201.5t172.5 218.5q34 37 44 96.5t10 228.5h158q0 -238 -11.5 -291t-82.5 -138q-87 -105 -111 -161.5t-24 -154.5q0 -108 27 -149q26 -41 97 -41zM588 765h-216
v215h216v-215z" />
    <glyph glyph-name="Agrave" unicode="&#xc0;" horiz-adv-x="1057" 
d="M81 0l323 1411h128h129l322 -1411v0h-102h-103v0l-65 320v0h-378v0l-66 -320v0h-94h-94v0zM526 1237l-157 -758v0h313v0l-156 758v0v0zM471 1521l-181 309h213l110 -309h-142z" />
    <glyph glyph-name="Aacute" unicode="&#xc1;" horiz-adv-x="1057" 
d="M81 0l323 1411h128h129l322 -1411v0h-102h-103v0l-65 320v0h-378v0l-66 -320v0h-94h-94v0zM526 1237l-157 -758v0h313v0l-156 758v0v0zM425 1521l114 309h210l-182 -309h-142z" />
    <glyph glyph-name="Acircumflex" unicode="&#xc2;" horiz-adv-x="1057" 
d="M81 0l323 1411h128h129l322 -1411v0h-102h-103v0l-65 320v0h-378v0l-66 -320v0h-94h-94v0zM526 1237l-157 -758v0h313v0l-156 758v0v0zM655 1811l110 -290h-128l-105 206v0l-105 -206h-128l110 290h123h123z" />
    <glyph glyph-name="Atilde" unicode="&#xc3;" horiz-adv-x="1057" 
d="M81 0l323 1411h128h129l322 -1411v0h-102h-103v0l-65 320v0h-378v0l-66 -320v0h-94h-94v0zM526 1237l-157 -758v0h313v0l-156 758v0v0zM296 1549q0 127 23.5 181.5t78.5 54.5q38 0 73 -15.5t96 -59.5q16 -12 32 -20t23 -8q23 0 34.5 27t6.5 66h105q0 -132 -22.5 -184
t-79.5 -52q-25 0 -76.5 23t-92.5 52q-41 28 -55 28q-19 0 -29 -23t-12 -70h-105z" />
    <glyph glyph-name="Adieresis" unicode="&#xc4;" horiz-adv-x="1057" 
d="M81 0l323 1411h128h129l322 -1411v0h-102h-103v0l-65 320v0h-378v0l-66 -320v0h-94h-94v0zM526 1237l-157 -758v0h313v0l-156 758v0v0zM275 1755h194v-193h-194v193zM596 1755h194v-193h-194v193z" />
    <glyph glyph-name="Aring" unicode="&#xc5;" horiz-adv-x="1057" 
d="M81 0l323 1411h128h129l322 -1411v0h-102h-103v0l-65 320v0h-378v0l-66 -320v0h-94h-94v0zM526 1237l-157 -758v0h313v0l-156 758v0v0zM532 1524q-78 0 -132 54t-54 132t54 132t132 54t132 -54t54 -132t-54 -132t-132 -54v0zM532 1620q38 0 64 26t26 64t-26 64t-64 26
t-64 -26t-26 -64t26 -64t64 -26v0z" />
    <glyph glyph-name="AE" unicode="&#xc6;" horiz-adv-x="1435" 
d="M837 0v0l-38 320v0h-414v0l-112 -320v0h-100h-101v0l523 1411v0h269v0h469v0v-79v-80v0h-450v0l53 -447v0h397v-79v-80v0h-378v0l58 -487v0h320v0v-79v-80v0h-301v0h-195zM694 1197l-253 -718v0h341v0l-88 718v0z" />
    <glyph glyph-name="Ccedilla" unicode="&#xc7;" horiz-adv-x="1020" 
d="M899 459v-42q7 -230 -80 -332t-289 -102q-199 0 -294.5 94.5t-95.5 291.5v628q0 228 93.5 329.5t304.5 101.5q200 0 286 -92q77 -80 76 -245l-1 -47v-42h-193v42q4 128 -31.5 176.5t-134.5 48.5q-110 0 -158.5 -56t-48.5 -183v-628q0 -148 41 -204t150 -56
q99 0 141.5 64.5t40.5 210.5v42h193zM301 -366l157 269h145l-95 -269h-207z" />
    <glyph glyph-name="Egrave" unicode="&#xc8;" horiz-adv-x="868" 
d="M133 0v0v1411v0h632v0v-79v-80v0h-439v0v-447v0h413v-79v-80v0h-413v0v-487v0h452v0v-79v-80v0h-645zM356 1521l-181 309h213l110 -309h-142z" />
    <glyph glyph-name="Eacute" unicode="&#xc9;" horiz-adv-x="868" 
d="M133 0v0v1411v0h632v0v-79v-80v0h-439v0v-447v0h413v-79v-80v0h-413v0v-487v0h452v0v-79v-80v0h-645zM310 1521l114 309h210l-182 -309h-142z" />
    <glyph glyph-name="Ecircumflex" unicode="&#xca;" horiz-adv-x="868" 
d="M133 0v0v1411v0h632v0v-79v-80v0h-439v0v-447v0h413v-79v-80v0h-413v0v-487v0h452v0v-79v-80v0h-645zM540 1811l110 -290h-128l-105 206v0l-105 -206h-128l110 290h123h123z" />
    <glyph glyph-name="Edieresis" unicode="&#xcb;" horiz-adv-x="868" 
d="M133 0v0v1411v0h632v0v-79v-80v0h-439v0v-447v0h413v-79v-80v0h-413v0v-487v0h452v0v-79v-80v0h-645zM160 1755h194v-193h-194v193zM481 1755h194v-193h-194v193z" />
    <glyph glyph-name="Igrave" unicode="&#xcc;" horiz-adv-x="453" 
d="M127 0v1411v0h96h97v0v-1411v0h-96h-97v0zM190 1521l-181 309h213l110 -309h-142z" />
    <glyph glyph-name="Iacute" unicode="&#xcd;" horiz-adv-x="453" 
d="M130 0v1411v0h96h97v0v-1411v0h-96h-97v0zM119 1521l114 309h210l-182 -309h-142z" />
    <glyph glyph-name="Icircumflex" unicode="&#xce;" horiz-adv-x="453" 
d="M133 0v1411v0h96h97v0v-1411v0h-96h-97v0zM352 1811l110 -290h-128l-105 206v0l-105 -206h-128l110 290h123h123z" />
    <glyph glyph-name="Idieresis" unicode="&#xcf;" horiz-adv-x="453" 
d="M135 0v1411v0h96h97v0v-1411v0h-96h-97v0zM-26 1755h194v-193h-194v193zM295 1755h194v-193h-194v193z" />
    <glyph glyph-name="Eth" unicode="&#xd0;" horiz-adv-x="1057" 
d="M147 0v0v634v0h-119v143h119v0v634v0h93v0h244q243 0 351 -98t108 -319v-550q0 -235 -83 -339.5t-270 -104.5h-350v0h-93zM334 1252v0v-475v0h183v-143h-183v0v-475v0h195q124 0 172.5 62t48.5 220v550q0 146 -53 203.5t-189 57.5h-174z" />
    <glyph glyph-name="Ntilde" unicode="&#xd1;" horiz-adv-x="1095" 
d="M312 0v0h-92h-92v0v1411v0h152h153v0l364 -1220v0v0v1220v0h89h90v0v-1411h-151h-152l-361 1210v0v0v-1210zM316 1549q0 127 23.5 181.5t78.5 54.5q38 0 73 -15.5t96 -59.5q16 -12 32 -20t23 -8q23 0 34.5 27t6.5 66h105q0 -132 -22.5 -184t-79.5 -52q-25 0 -76.5 23
t-92.5 52q-41 28 -55 28q-19 0 -29 -23t-12 -70h-105z" />
    <glyph glyph-name="Ograve" unicode="&#xd2;" horiz-adv-x="1057" 
d="M535 -17q-229 0 -315 102.5t-86 373.5v520q0 238 94 343.5t307 105.5q217 0 309 -105t92 -351v-592q0 -210 -94 -303.5t-307 -93.5v0zM535 142q110 0 159 65.5t49 212.5v592q0 146 -44.5 201.5t-163.5 55.5q-110 0 -159 -69t-49 -224v-520q0 -179 44.5 -246.5
t163.5 -67.5v0zM474 1521l-181 309h213l110 -309h-142z" />
    <glyph glyph-name="Oacute" unicode="&#xd3;" horiz-adv-x="1057" 
d="M535 -17q-229 0 -315 102.5t-86 373.5v520q0 238 94 343.5t307 105.5q217 0 309 -105t92 -351v-592q0 -210 -94 -303.5t-307 -93.5v0zM535 142q110 0 159 65.5t49 212.5v592q0 146 -44.5 201.5t-163.5 55.5q-110 0 -159 -69t-49 -224v-520q0 -179 44.5 -246.5
t163.5 -67.5v0zM428 1521l114 309h210l-182 -309h-142z" />
    <glyph glyph-name="Ocircumflex" unicode="&#xd4;" horiz-adv-x="1057" 
d="M535 -17q-229 0 -315 102.5t-86 373.5v520q0 238 94 343.5t307 105.5q217 0 309 -105t92 -351v-592q0 -210 -94 -303.5t-307 -93.5v0zM535 142q110 0 159 65.5t49 212.5v592q0 146 -44.5 201.5t-163.5 55.5q-110 0 -159 -69t-49 -224v-520q0 -179 44.5 -246.5
t163.5 -67.5v0zM658 1811l110 -290h-128l-105 206v0l-105 -206h-128l110 290h123h123z" />
    <glyph glyph-name="Otilde" unicode="&#xd5;" horiz-adv-x="1057" 
d="M535 -17q-229 0 -315 102.5t-86 373.5v520q0 238 94 343.5t307 105.5q217 0 309 -105t92 -351v-592q0 -210 -94 -303.5t-307 -93.5v0zM535 142q110 0 159 65.5t49 212.5v592q0 146 -44.5 201.5t-163.5 55.5q-110 0 -159 -69t-49 -224v-520q0 -179 44.5 -246.5
t163.5 -67.5v0zM299 1549q0 127 23.5 181.5t78.5 54.5q38 0 73 -15.5t96 -59.5q16 -12 32 -20t23 -8q23 0 34.5 27t6.5 66h105q0 -132 -22.5 -184t-79.5 -52q-25 0 -76.5 23t-92.5 52q-41 28 -55 28q-19 0 -29 -23t-12 -70h-105z" />
    <glyph glyph-name="Odieresis" unicode="&#xd6;" horiz-adv-x="1057" 
d="M535 -17q-229 0 -315 102.5t-86 373.5v520q0 238 94 343.5t307 105.5q217 0 309 -105t92 -351v-592q0 -210 -94 -303.5t-307 -93.5v0zM535 142q110 0 159 65.5t49 212.5v592q0 146 -44.5 201.5t-163.5 55.5q-110 0 -159 -69t-49 -224v-520q0 -179 44.5 -246.5
t163.5 -67.5v0zM278 1755h194v-193h-194v193zM599 1755h194v-193h-194v193z" />
    <glyph glyph-name="multiply" unicode="&#xd7;" horiz-adv-x="1360" 
d="M679 481l-279 -279l-89 89l279 279l-280 279l92 92l279 -280l279 279l89 -89l-279 -279l280 -279l-92 -92z" />
    <glyph glyph-name="Oslash" unicode="&#xd8;" horiz-adv-x="1057" 
d="M233 -114l532 1666l84 -27l-532 -1666zM541 -17q-229 0 -315 102.5t-86 373.5v520q0 238 94 343.5t307 105.5q229 0 315 -96.5t86 -352.5v-520q0 -252 -94 -364t-307 -112v0zM541 142q110 0 159 74t49 240v520q0 167 -44.5 230t-163.5 63q-110 0 -159 -69t-49 -224v-520
q0 -179 44.5 -246.5t163.5 -67.5v0z" />
    <glyph glyph-name="Ugrave" unicode="&#xd9;" horiz-adv-x="1057" 
d="M927 358q0 -188 -98.5 -281.5t-295.5 -93.5q-198 0 -296.5 93.5t-98.5 281.5v1053v0h96h97v0v-1000q0 -141 48.5 -206t153.5 -65q107 0 154 63.5t47 207.5v1000v0h96h97v0v-1053zM471 1521l-181 309h213l110 -309h-142z" />
    <glyph glyph-name="Uacute" unicode="&#xda;" horiz-adv-x="1057" 
d="M927 358q0 -188 -98.5 -281.5t-295.5 -93.5q-198 0 -296.5 93.5t-98.5 281.5v1053v0h96h97v0v-1000q0 -141 48.5 -206t153.5 -65q107 0 154 63.5t47 207.5v1000v0h96h97v0v-1053zM425 1521l114 309h210l-182 -309h-142z" />
    <glyph glyph-name="Ucircumflex" unicode="&#xdb;" horiz-adv-x="1057" 
d="M927 358q0 -188 -98.5 -281.5t-295.5 -93.5q-198 0 -296.5 93.5t-98.5 281.5v1053v0h96h97v0v-1000q0 -141 48.5 -206t153.5 -65q107 0 154 63.5t47 207.5v1000v0h96h97v0v-1053zM655 1811l110 -290h-128l-105 206v0l-105 -206h-128l110 290h123h123z" />
    <glyph glyph-name="Udieresis" unicode="&#xdc;" horiz-adv-x="1057" 
d="M927 358q0 -188 -98.5 -281.5t-295.5 -93.5q-198 0 -296.5 93.5t-98.5 281.5v1053v0h96h97v0v-1000q0 -141 48.5 -206t153.5 -65q107 0 154 63.5t47 207.5v1000v0h96h97v0v-1053zM275 1755h194v-193h-194v193zM596 1755h194v-193h-194v193z" />
    <glyph glyph-name="Yacute" unicode="&#xdd;" horiz-adv-x="944" 
d="M388 593v0l-324 818v0h109h109v0l212 -625v0l211 625v0h99h100v0l-323 -816v0v-595h-96h-97v593zM377 1521l114 309h210l-182 -309h-142z" />
    <glyph glyph-name="Thorn" unicode="&#xde;" horiz-adv-x="944" 
d="M139 0v1411v0h96h97v0v-318v0h140q231 0 321.5 -82t90.5 -290q0 -222 -91.5 -320t-298.5 -98h-162v0v-303v0h-96h-97v0zM691 702q0 132 -54 182t-198 50h-107v0v-472v0h157q117 0 160 51q42 50 42 189z" />
    <glyph glyph-name="germandbls" unicode="&#xdf;" horiz-adv-x="906" 
d="M293 1055v-1055v0h-91h-92v0v1055v0q0 188 83 278.5t256 90.5q152 0 231.5 -68t79.5 -199q0 -84 -22 -135t-82 -107q-51 -48 -70 -74t-19 -48q0 -29 24 -60t100 -100q104 -95 144 -169t40 -172q0 -155 -76 -229t-235 -74q-77 0 -117.5 0.5t-49.5 2.5v0v130v0q8 -2 128 -2
q87 0 129 36.5t42 112.5q0 51 -27 111t-65 95q-131 119 -172 177.5t-41 126.5q0 52 23.5 94t88.5 102q47 44 64 81t17 94q0 61 -37.5 98.5t-99.5 37.5q-71 0 -112.5 -47t-41.5 -128v-56z" />
    <glyph glyph-name="agrave" unicode="&#xe0;" 
d="M326 -21q-112 0 -170 71t-58 207v-2q0 195 95 271.5t336 76.5h23v0v117q0 70 -31.5 107.5t-90.5 37.5q-62 0 -95.5 -42t-33.5 -120v0h-181v0q-4 141 77 220.5t230 79.5q160 0 234 -72t74 -227v-704v0v0h-183v0v102v0q-6 -17 -17 -33q-59 -90 -209 -90zM552 376v91v0h-40
q-112 0 -170.5 -52.5t-58.5 -152.5v2q0 -79 26 -113t86 -34q81 0 121 66t36 193v0zM373 1095l-187 309h218l115 -309h-146z" />
    <glyph glyph-name="aacute" unicode="&#xe1;" 
d="M326 -21q-112 0 -170 71t-58 207v-2q0 195 95 271.5t336 76.5h23v0v117q0 70 -31.5 107.5t-90.5 37.5q-62 0 -95.5 -42t-33.5 -120v0h-181v0q-4 141 77 220.5t230 79.5q160 0 234 -72t74 -227v-704v0v0h-183v0v102v0q-6 -17 -17 -33q-59 -90 -209 -90zM552 376v91v0h-40
q-112 0 -170.5 -52.5t-58.5 -152.5v2q0 -79 26 -113t86 -34q81 0 121 66t36 193v0zM326 1095l117 309h216l-187 -309h-146z" />
    <glyph glyph-name="acircumflex" unicode="&#xe2;" 
d="M326 -21q-112 0 -170 71t-58 207v-2q0 195 95 271.5t336 76.5h23v0v117q0 70 -31.5 107.5t-90.5 37.5q-62 0 -95.5 -42t-33.5 -120v0h-181v0q-4 141 77 220.5t230 79.5q160 0 234 -72t74 -227v-704v0v0h-183v0v102v0q-6 -17 -17 -33q-59 -90 -209 -90zM552 376v91v0h-40
q-112 0 -170.5 -52.5t-58.5 -152.5v2q0 -79 26 -113t86 -34q81 0 121 66t36 193v0zM571 1385l96 -290h-132l-99 206v0l-99 -206h-132l96 290h135h135z" />
    <glyph glyph-name="atilde" unicode="&#xe3;" 
d="M326 -21q-112 0 -170 71t-58 207v-2q0 195 95 271.5t336 76.5h23v0v117q0 70 -31.5 107.5t-90.5 37.5q-62 0 -95.5 -42t-33.5 -120v0h-181v0q-4 141 77 220.5t230 79.5q160 0 234 -72t74 -227v-704v0v0h-183v0v102v0q-6 -17 -17 -33q-59 -90 -209 -90zM552 376v91v0h-40
q-112 0 -170.5 -52.5t-58.5 -152.5v2q0 -79 26 -113t86 -34q81 0 121 66t36 193v0zM199 1142q0 127 23.5 181.5t79.5 54.5q38 0 73 -15.5t96 -59.5q16 -12 32 -20t24 -8q23 0 34.5 27t6.5 66h105q0 -132 -22.5 -184t-80.5 -52q-25 0 -76.5 23t-92.5 52q-17 12 -33.5 20
t-22.5 8q-19 0 -29 -23t-12 -70h-105z" />
    <glyph glyph-name="adieresis" unicode="&#xe4;" 
d="M326 -21q-112 0 -170 71t-58 207v-2q0 195 95 271.5t336 76.5h23v0v117q0 70 -31.5 107.5t-90.5 37.5q-62 0 -95.5 -42t-33.5 -120v0h-181v0q-4 141 77 220.5t230 79.5q160 0 234 -72t74 -227v-704v0v0h-183v0v102v0q-6 -17 -17 -33q-59 -90 -209 -90zM552 376v91v0h-40
q-112 0 -170.5 -52.5t-58.5 -152.5v2q0 -79 26 -113t86 -34q81 0 121 66t36 193v0zM180 1341h194v-182h-194v182zM499 1341h194v-182h-194v182z" />
    <glyph glyph-name="aring" unicode="&#xe5;" 
d="M326 -21q-112 0 -170 71t-58 207v-2q0 195 95 271.5t336 76.5h23v0v117q0 70 -31.5 107.5t-90.5 37.5q-62 0 -95.5 -42t-33.5 -120v0h-181v0q-4 141 77 220.5t230 79.5q160 0 234 -72t74 -227v-704v0v0h-183v0v102v0q-6 -17 -17 -33q-59 -90 -209 -90zM552 376v91v0h-40
q-112 0 -170.5 -52.5t-58.5 -152.5v2q0 -79 26 -113t86 -34q81 0 121 66t36 193v0zM436 1098q-78 0 -131.5 53.5t-53.5 131.5t53.5 132t131.5 54t132 -54t54 -132t-54 -131.5t-132 -53.5v0zM436 1194q38 0 64 26t26 63q0 38 -26 64t-64 26q-37 0 -63 -26t-26 -64
q0 -37 26 -63t63 -26v0z" />
    <glyph glyph-name="ae" unicode="&#xe6;" horiz-adv-x="1284" 
d="M413 1003q164 0 232 -97l16 -27v0l21 29q70 95 216 95q149 0 218 -86t69 -273v-202v0h-445v0v-50q0 -168 25.5 -221.5t105.5 -53.5q68 0 99.5 36.5t28.5 112.5v29h183v-29q7 -146 -63 -216.5t-221 -70.5q-157 0 -222 79q-28 35 -44 91v0q-19 -49 -42 -83
q-67 -87 -235 -87q-128 0 -194.5 69.5t-66.5 202.5v-2q0 203 87 271t349 68h23v0v132q0 70 -32 107.5t-92 37.5q-64 0 -98.5 -38t-34.5 -109v0h-181v0q-4 134 75 209.5t223 75.5zM553 360v86v0h-41q-128 0 -180.5 -43.5t-52.5 -149.5v2q0 -75 26.5 -106.5t88.5 -31.5
q82 0 122.5 62t36.5 181v0zM1002 578v0v100q0 107 -28 147t-103 40q-69 0 -100 -44t-31 -143v-100v0h262z" />
    <glyph glyph-name="ccedilla" unicode="&#xe7;" horiz-adv-x="793" 
d="M714 309v-29q5 -154 -68 -227.5t-230 -73.5q-163 0 -238.5 79.5t-75.5 252.5v327q0 197 72 281t242 84q153 0 222 -71q64 -67 64 -204v-21v-29h-183v29q4 82 -21.5 119.5t-83.5 37.5q-72 0 -100.5 -41.5t-28.5 -146.5v-358q0 -115 27 -158t99 -43q65 0 94.5 40t25.5 123
v29h183zM187 -366l157 269h145l-95 -269h-207z" />
    <glyph glyph-name="egrave" unicode="&#xe8;" horiz-adv-x="793" 
d="M404 -21q-177 0 -249 85.5t-72 293.5v286q0 183 78.5 271t242.5 88q167 0 244.5 -86t77.5 -273v-217v0h-460v0v-72q0 -145 27 -191.5t111 -46.5q72 0 105.5 36.5t30.5 112.5v29h183v-29q7 -146 -71.5 -216.5t-247.5 -70.5zM543 563v0v78q0 128 -30 176t-109 48
q-73 0 -105.5 -52.5t-32.5 -171.5v-78v0h277zM354 1095l-187 309h218l115 -309h-146z" />
    <glyph glyph-name="eacute" unicode="&#xe9;" horiz-adv-x="793" 
d="M404 -21q-177 0 -249 85.5t-72 293.5v286q0 183 78.5 271t242.5 88q167 0 244.5 -86t77.5 -273v-217v0h-460v0v-72q0 -145 27 -191.5t111 -46.5q72 0 105.5 36.5t30.5 112.5v29h183v-29q7 -146 -71.5 -216.5t-247.5 -70.5zM543 563v0v78q0 128 -30 176t-109 48
q-73 0 -105.5 -52.5t-32.5 -171.5v-78v0h277zM307 1095l117 309h216l-187 -309h-146z" />
    <glyph glyph-name="ecircumflex" unicode="&#xea;" horiz-adv-x="793" 
d="M404 -21q-177 0 -249 85.5t-72 293.5v286q0 183 78.5 271t242.5 88q167 0 244.5 -86t77.5 -273v-217v0h-460v0v-72q0 -145 27 -191.5t111 -46.5q72 0 105.5 36.5t30.5 112.5v29h183v-29q7 -146 -71.5 -216.5t-247.5 -70.5zM543 563v0v78q0 128 -30 176t-109 48
q-73 0 -105.5 -52.5t-32.5 -171.5v-78v0h277zM552 1385l96 -290h-132l-99 206v0l-99 -206h-132l96 290h135h135z" />
    <glyph glyph-name="edieresis" unicode="&#xeb;" horiz-adv-x="793" 
d="M404 -21q-177 0 -249 85.5t-72 293.5v286q0 183 78.5 271t242.5 88q167 0 244.5 -86t77.5 -273v-217v0h-460v0v-72q0 -145 27 -191.5t111 -46.5q72 0 105.5 36.5t30.5 112.5v29h183v-29q7 -146 -71.5 -216.5t-247.5 -70.5zM543 563v0v78q0 128 -30 176t-109 48
q-73 0 -105.5 -52.5t-32.5 -171.5v-78v0h277zM161 1341h194v-182h-194v182zM480 1341h194v-182h-194v182z" />
    <glyph glyph-name="igrave" unicode="&#xec;" horiz-adv-x="453" 
d="M124 0v982v0h91h92v0v-982v0h-91h-92v0zM152 1095l-187 309h218l115 -309h-146z" />
    <glyph glyph-name="iacute" unicode="&#xed;" horiz-adv-x="453" 
d="M135 0v982v0h91h92v0v-982v0h-91h-92v0zM116 1095l117 309h216l-187 -309h-146z" />
    <glyph glyph-name="icircumflex" unicode="&#xee;" horiz-adv-x="453" 
d="M124 0v982v0h91h92v0v-982v0h-91h-92v0zM350 1385l96 -290h-132l-99 206v0l-99 -206h-132l96 290h135h135z" />
    <glyph glyph-name="idieresis" unicode="&#xef;" horiz-adv-x="453" 
d="M135 0v982v0h91h92v0v-982v0h-91h-92v0zM-30 1341h194v-182h-194v182zM289 1341h194v-182h-194v182z" />
    <glyph glyph-name="eth" unicode="&#xf0;" 
d="M419 -21q-165 0 -241.5 83.5t-76.5 263.5v347q0 157 74.5 242.5t211.5 85.5q70 0 143 -41l-2 2q-81 253 -244 411l135 66q159 -145 238.5 -332t79.5 -416v-259q0 -249 -71.5 -351t-246.5 -102zM284 324q0 -118 29.5 -162.5t108.5 -44.5q69 0 103.5 51.5t34.5 155.5v347
q0 109 -29.5 150.5t-108.5 41.5q-73 0 -105.5 -45t-32.5 -147v-347zM242 1181l447 230l42 -92l-447 -230z" />
    <glyph glyph-name="ntilde" unicode="&#xf1;" 
d="M102 0v982v0h91h92v0v-82v0v0l4 4q92 98 217 98q113 0 174.5 -61.5t61.5 -174.5v-766v0h-89h-90v0v704q0 78 -32.5 119t-95.5 41q-77 0 -113.5 -52t-36.5 -161v0v-651v0h-91h-92v0zM185 1142q0 127 23.5 181.5t79.5 54.5q38 0 73 -15.5t96 -59.5q16 -12 32 -20t24 -8
q23 0 34.5 27t6.5 66h105q0 -132 -22.5 -184t-80.5 -52q-25 0 -76.5 23t-92.5 52q-17 12 -33.5 20t-22.5 8q-19 0 -29 -23t-12 -70h-105z" />
    <glyph glyph-name="ograve" unicode="&#xf2;" 
d="M419 -21q-165 0 -241.5 91t-76.5 288v286q0 172 82.5 265.5t235.5 93.5q165 0 241.5 -86t76.5 -273v-286q0 -201 -74.5 -290t-243.5 -89v0zM419 117q72 0 103.5 52.5t31.5 170.5v286q0 124 -32.5 181.5t-102.5 57.5q-72 0 -103.5 -54.5t-31.5 -177.5v-286
q0 -131 29 -180.5t106 -49.5v0zM356 1095l-187 309h218l115 -309h-146z" />
    <glyph glyph-name="oacute" unicode="&#xf3;" 
d="M419 -21q-165 0 -241.5 91t-76.5 288v286q0 172 82.5 265.5t235.5 93.5q165 0 241.5 -86t76.5 -273v-286q0 -201 -74.5 -290t-243.5 -89v0zM419 117q72 0 103.5 52.5t31.5 170.5v286q0 124 -32.5 181.5t-102.5 57.5q-72 0 -103.5 -54.5t-31.5 -177.5v-286
q0 -131 29 -180.5t106 -49.5v0zM309 1095l117 309h216l-187 -309h-146z" />
    <glyph glyph-name="ocircumflex" unicode="&#xf4;" 
d="M419 -21q-165 0 -241.5 91t-76.5 288v286q0 172 82.5 265.5t235.5 93.5q165 0 241.5 -86t76.5 -273v-286q0 -201 -74.5 -290t-243.5 -89v0zM419 117q72 0 103.5 52.5t31.5 170.5v286q0 124 -32.5 181.5t-102.5 57.5q-72 0 -103.5 -54.5t-31.5 -177.5v-286
q0 -131 29 -180.5t106 -49.5v0zM554 1385l96 -290h-132l-99 206v0l-99 -206h-132l96 290h135h135z" />
    <glyph glyph-name="otilde" unicode="&#xf5;" 
d="M419 -21q-165 0 -241.5 91t-76.5 288v286q0 172 82.5 265.5t235.5 93.5q165 0 241.5 -86t76.5 -273v-286q0 -201 -74.5 -290t-243.5 -89v0zM419 117q72 0 103.5 52.5t31.5 170.5v286q0 124 -32.5 181.5t-102.5 57.5q-72 0 -103.5 -54.5t-31.5 -177.5v-286
q0 -131 29 -180.5t106 -49.5v0zM182 1142q0 127 23.5 181.5t79.5 54.5q38 0 73 -15.5t96 -59.5q16 -12 32 -20t24 -8q23 0 34.5 27t6.5 66h105q0 -132 -22.5 -184t-80.5 -52q-25 0 -76.5 23t-92.5 52q-17 12 -33.5 20t-22.5 8q-19 0 -29 -23t-12 -70h-105z" />
    <glyph glyph-name="odieresis" unicode="&#xf6;" 
d="M419 -21q-165 0 -241.5 91t-76.5 288v286q0 172 82.5 265.5t235.5 93.5q165 0 241.5 -86t76.5 -273v-286q0 -201 -74.5 -290t-243.5 -89v0zM419 117q72 0 103.5 52.5t31.5 170.5v286q0 124 -32.5 181.5t-102.5 57.5q-72 0 -103.5 -54.5t-31.5 -177.5v-286
q0 -131 29 -180.5t106 -49.5v0zM163 1341h194v-182h-194v182zM482 1341h194v-182h-194v182z" />
    <glyph glyph-name="divide" unicode="&#xf7;" horiz-adv-x="1360" 
d="M685 439q41 0 69.5 -28.5t28.5 -70.5q0 -41 -28.5 -69.5t-69.5 -28.5t-69.5 28.5t-28.5 69.5q0 42 28.5 70.5t69.5 28.5zM291 631h788v-125h-788v125zM685 895q41 0 69.5 -28.5t28.5 -70.5q0 -41 -28.5 -69.5t-69.5 -28.5t-69.5 28.5t-28.5 69.5q0 42 28.5 70.5
t69.5 28.5z" />
    <glyph glyph-name="oslash" unicode="&#xf8;" 
d="M209 -138l354 1238l66 -19l-354 -1238zM419 -21q-165 0 -241.5 91t-76.5 288v286q0 172 82.5 265.5t235.5 93.5q165 0 241.5 -86t76.5 -273v-286q0 -182 -82.5 -280.5t-235.5 -98.5v0zM419 117q72 0 103.5 56t31.5 182v286q0 128 -29 176t-106 48q-72 0 -103.5 -52.5
t-31.5 -171.5v-286q0 -136 29 -187t106 -51v0z" />
    <glyph glyph-name="ugrave" unicode="&#xf9;" 
d="M282 982v-727q0 -68 28 -103t82 -35q82 0 121.5 52.5t39.5 161.5v0v651v0h91h92v0v-982v0h-91h-92v0v82l-1 -1v0q-92 -102 -214 -102q-115 0 -177 62t-62 177v764v0h91h92v0zM354 1095l-187 309h218l115 -309h-146z" />
    <glyph glyph-name="uacute" unicode="&#xfa;" 
d="M282 982v-727q0 -68 28 -103t82 -35q82 0 121.5 52.5t39.5 161.5v0v651v0h91h92v0v-982v0h-91h-92v0v82l-1 -1v0q-92 -102 -214 -102q-115 0 -177 62t-62 177v764v0h91h92v0zM307 1095l117 309h216l-187 -309h-146z" />
    <glyph glyph-name="ucircumflex" unicode="&#xfb;" 
d="M282 982v-727q0 -68 28 -103t82 -35q82 0 121.5 52.5t39.5 161.5v0v651v0h91h92v0v-982v0h-91h-92v0v82l-1 -1v0q-92 -102 -214 -102q-115 0 -177 62t-62 177v764v0h91h92v0zM552 1385l96 -290h-132l-99 206v0l-99 -206h-132l96 290h135h135z" />
    <glyph glyph-name="udieresis" unicode="&#xfc;" 
d="M282 982v-727q0 -68 28 -103t82 -35q82 0 121.5 52.5t39.5 161.5v0v651v0h91h92v0v-982v0h-91h-92v0v82l-1 -1v0q-92 -102 -214 -102q-115 0 -177 62t-62 177v764v0h91h92v0zM161 1341h194v-182h-194v182zM480 1341h194v-182h-194v182z" />
    <glyph glyph-name="yacute" unicode="&#xfd;" 
d="M405 -363v0h-85h-85v0l103 343v0l-271 1002v0h93h93v0l169 -728v0v0l177 728v0h87h87v0zM310 1095l117 309h216l-187 -309h-146z" />
    <glyph glyph-name="thorn" unicode="&#xfe;" 
d="M108 1411v0h91h92v0v-536v0q95 128 202 128q132 0 193 -77t61 -243v-364q0 -187 -57.5 -263.5t-197.5 -76.5q-132 0 -193 96q-3 8 -8 12v0v-454v0h-91h-92v0v1778zM435 117q69 0 99.5 45t30.5 147v333q0 128 -29 174.5t-108 46.5q-66 0 -102.5 -68.5t-34.5 -190.5v0v-228
v0q0 -133 35 -196t109 -63z" />
    <glyph glyph-name="ydieresis" unicode="&#xff;" 
d="M405 -363v0h-85h-85v0l103 343v0l-271 1002v0h93h93v0l169 -728v0v0l177 728v0h87h87v0zM164 1341h194v-182h-194v182zM483 1341h194v-182h-194v182z" />
    <glyph glyph-name="Amacron" unicode="&#x100;" horiz-adv-x="1057" 
d="M81 0l323 1411h128h129l322 -1411v0h-102h-103v0l-65 320v0h-378v0l-66 -320v0h-94h-94v0zM526 1237l-157 -758v0h313v0l-156 758v0v0zM280 1694h504v-133h-504v133z" />
    <glyph glyph-name="amacron" unicode="&#x101;" 
d="M326 -21q-112 0 -170 71t-58 207v-2q0 195 95 271.5t336 76.5h23v0v117q0 70 -31.5 107.5t-90.5 37.5q-62 0 -95.5 -42t-33.5 -120v0h-181v0q-4 141 77 220.5t230 79.5q160 0 234 -72t74 -227v-704v0v0h-183v0v102v0q-6 -17 -17 -33q-59 -90 -209 -90zM552 376v91v0h-40
q-112 0 -170.5 -52.5t-58.5 -152.5v2q0 -79 26 -113t86 -34q81 0 121 66t36 193v0zM210 1271h452v-113h-452v113z" />
    <glyph glyph-name="Abreve" unicode="&#x102;" horiz-adv-x="1057" 
d="M81 0l323 1411h128h129l322 -1411v0h-102h-103v0l-65 320v0h-378v0l-66 -320v0h-94h-94v0zM526 1237l-157 -758v0h313v0l-156 758v0v0zM532 1521q-141 0 -201.5 66.5t-60.5 223.5h139q0 -90 29 -130t94 -40q67 0 96 40t27 130h139q7 -148 -57 -219t-205 -71z" />
    <glyph glyph-name="abreve" unicode="&#x103;" 
d="M326 -21q-112 0 -170 71t-58 207v-2q0 195 95 271.5t336 76.5h23v0v117q0 70 -31.5 107.5t-90.5 37.5q-62 0 -95.5 -42t-33.5 -120v0h-181v0q-4 141 77 220.5t230 79.5q160 0 234 -72t74 -227v-704v0v0h-183v0v102v0q-6 -17 -17 -33q-59 -90 -209 -90zM552 376v91v0h-40
q-112 0 -170.5 -52.5t-58.5 -152.5v2q0 -79 26 -113t86 -34q81 0 121 66t36 193v0zM436 1098q-139 0 -198.5 66.5t-59.5 223.5h139q0 -90 28 -130t91 -40q65 0 93.5 40t26.5 130h139q9 -152 -52.5 -221t-206.5 -69z" />
    <glyph glyph-name="Aogonek" unicode="&#x104;" horiz-adv-x="1057" 
d="M81 0l323 1411h128h129l322 -1411v0h-102h-103v0l-65 320v0h-378v0l-66 -320v0h-94h-94v0zM526 1237l-157 -758v0h313v0l-156 758v0v0zM523 -187q0 89 73.5 155.5t209.5 101.5l9 -58q-67 -18 -105 -58t-38 -92q0 -40 32 -64.5t85 -24.5q13 0 28 -1l30 -2v-124
q-21 -2 -46 -3t-45 -1q-105 0 -169 47t-64 124z" />
    <glyph glyph-name="aogonek" unicode="&#x105;" 
d="M326 -21q-112 0 -170 71t-58 207v-2q0 195 95 271.5t336 76.5h23v0v117q0 70 -31.5 107.5t-90.5 37.5q-62 0 -95.5 -42t-33.5 -120v0h-181v0q-4 141 77 220.5t230 79.5q160 0 234 -72t74 -227v-704v0v0h-183v0v102v0q-6 -17 -17 -33q-59 -90 -209 -90zM552 376v91v0h-40
q-112 0 -170.5 -52.5t-58.5 -152.5v2q0 -79 26 -113t86 -34q81 0 121 66t36 193v0zM443 -159q0 54 38.5 103.5t107.5 82.5h117q-61 -37 -89 -70.5t-28 -69.5q0 -34 29 -55t76 -21q-42 0 -28.5 -1t79.5 -3v-113q-18 -3 -41.5 -4.5t-43.5 -1.5q-98 0 -158 42q-59 42 -59 111z
" />
    <glyph glyph-name="Cacute" unicode="&#x106;" horiz-adv-x="1020" 
d="M899 459v-42q7 -230 -80 -332t-289 -102q-199 0 -294.5 94.5t-95.5 291.5v628q0 228 93.5 329.5t304.5 101.5q200 0 286 -92q77 -80 76 -245l-1 -47v-42h-193v42q4 128 -31.5 176.5t-134.5 48.5q-110 0 -158.5 -56t-48.5 -183v-628q0 -148 41 -204t150 -56
q99 0 141.5 64.5t40.5 210.5v42h193zM431 1521l114 309h210l-182 -309h-142z" />
    <glyph glyph-name="cacute" unicode="&#x107;" horiz-adv-x="793" 
d="M714 309v-29q5 -154 -68 -227.5t-230 -73.5q-163 0 -238.5 79.5t-75.5 252.5v327q0 197 72 281t242 84q153 0 222 -71q64 -67 64 -204v-21v-29h-183v29q4 82 -21.5 119.5t-83.5 37.5q-72 0 -100.5 -41.5t-28.5 -146.5v-358q0 -115 27 -158t99 -43q65 0 94.5 40t25.5 123
v29h183zM306 1095l117 309h216l-187 -309h-146z" />
    <glyph glyph-name="Ccaron" unicode="&#x10c;" horiz-adv-x="1020" 
d="M899 459v-42q7 -230 -80 -332t-289 -102q-199 0 -294.5 94.5t-95.5 291.5v628q0 228 93.5 329.5t304.5 101.5q200 0 286 -92q77 -80 76 -245l-1 -47v-42h-193v42q4 128 -31.5 176.5t-134.5 48.5q-110 0 -158.5 -56t-48.5 -183v-628q0 -148 41 -204t150 -56
q99 0 141.5 64.5t40.5 210.5v42h193zM415 1521l-110 290h128l105 -206v0l105 206h128l-110 -290h-123h-123z" />
    <glyph glyph-name="ccaron" unicode="&#x10d;" horiz-adv-x="793" 
d="M714 309v-29q5 -154 -68 -227.5t-230 -73.5q-163 0 -238.5 79.5t-75.5 252.5v327q0 197 72 281t242 84q153 0 222 -71q64 -67 64 -204v-21v-29h-183v29q4 82 -21.5 119.5t-83.5 37.5q-72 0 -100.5 -41.5t-28.5 -146.5v-358q0 -115 27 -158t99 -43q65 0 94.5 40t25.5 123
v29h183zM281 1095l-96 290h132l99 -206v0l99 206h132l-96 -290h-135h-135z" />
    <glyph glyph-name="Dcaron" unicode="&#x10e;" horiz-adv-x="1057" 
d="M138 0v1411v0h96v0h248q244 0 352.5 -98t108.5 -319v-550q0 -235 -83 -339.5t-271 -104.5h-355v0h-96v0zM331 159v0h196q125 0 174 62t49 220v550q0 146 -53.5 203.5t-190.5 57.5h-175v0v-1093zM337 1521l-110 290h128l105 -206v0l105 206h128l-110 -290h-123h-123z" />
    <glyph glyph-name="dcaron" unicode="&#x10f;" horiz-adv-x="1057" 
d="M360 -21q-136 0 -198.5 80t-62.5 254v313q0 192 64 284.5t197 92.5q122 0 192 -87v0v495v0h91h92v0v-1411v0h-91h-92v0v86v0q-80 -107 -192 -107zM418 860q-72 0 -103 -46t-31 -155v-354q0 -112 25 -149t100 -37q82 0 112.5 57.5t30.5 209.5v289q5 93 -28.5 139
t-105.5 46zM823 1067l76 344h161l-137 -344h-100z" />
    <glyph glyph-name="Dcroat" unicode="&#x110;" horiz-adv-x="1057" 
d="M147 0v0v634v0h-119v143h119v0v634v0h93v0h244q243 0 351 -98t108 -319v-550q0 -235 -83 -339.5t-270 -104.5h-350v0h-93zM334 1252v0v-475v0h183v-143h-183v0v-475v0h195q124 0 172.5 62t48.5 220v550q0 146 -53 203.5t-189 57.5h-174z" />
    <glyph glyph-name="dcroat" unicode="&#x111;" 
d="M360 -21q-136 0 -198.5 87t-62.5 275v310q0 174 64 258t197 84q131 1 192 -86v0v504v0h91h92v0v-1411v0h-91h-92v0v93v0l-3 -4q-72 -110 -189 -110zM414 858q-71 0 -104 -49.5t-33 -156.5v-310q0 -125 29 -172.5t107 -47.5q79 0 109 55t30 200v226q0 161 -25.5 208
t-112.5 47zM378 1241h489v-136h-489v136z" />
    <glyph glyph-name="Emacron" unicode="&#x112;" horiz-adv-x="868" 
d="M133 0v0v1411v0h632v0v-79v-80v0h-439v0v-447v0h413v-79v-80v0h-413v0v-487v0h452v0v-79v-80v0h-645zM165 1694h504v-133h-504v133z" />
    <glyph glyph-name="emacron" unicode="&#x113;" horiz-adv-x="793" 
d="M404 -21q-177 0 -249 85.5t-72 293.5v286q0 183 78.5 271t242.5 88q167 0 244.5 -86t77.5 -273v-217v0h-460v0v-72q0 -145 27 -191.5t111 -46.5q72 0 105.5 36.5t30.5 112.5v29h183v-29q7 -146 -71.5 -216.5t-247.5 -70.5zM543 563v0v78q0 128 -30 176t-109 48
q-73 0 -105.5 -52.5t-32.5 -171.5v-78v0h277zM191 1271h452v-113h-452v113z" />
    <glyph glyph-name="Edotaccent" unicode="&#x116;" horiz-adv-x="868" 
d="M133 0v0v1411v0h632v0v-79v-80v0h-439v0v-447v0h413v-79v-80v0h-413v0v-487v0h452v0v-79v-80v0h-645zM355 1770h208v-208h-208v208z" />
    <glyph glyph-name="edotaccent" unicode="&#x117;" horiz-adv-x="793" 
d="M404 -21q-177 0 -249 85.5t-72 293.5v286q0 183 78.5 271t242.5 88q167 0 244.5 -86t77.5 -273v-217v0h-460v0v-72q0 -145 27 -191.5t111 -46.5q72 0 105.5 36.5t30.5 112.5v29h183v-29q7 -146 -71.5 -216.5t-247.5 -70.5zM543 563v0v78q0 128 -30 176t-109 48
q-73 0 -105.5 -52.5t-32.5 -171.5v-78v0h277zM313 1368h208v-208h-208v208z" />
    <glyph glyph-name="Eogonek" unicode="&#x118;" horiz-adv-x="868" 
d="M133 0v0v1411v0h632v0v-79v-80v0h-439v0v-447v0h413v-79v-80v0h-413v0v-487v0h452v0v-79v-80v0h-645zM366 -187q0 89 73.5 155.5t209.5 101.5l9 -58q-67 -18 -105 -58t-38 -92q0 -40 32 -64.5t85 -24.5q13 0 28 -1l30 -2v-124q-21 -2 -46 -3t-45 -1q-105 0 -169 47
t-64 124z" />
    <glyph glyph-name="eogonek" unicode="&#x119;" horiz-adv-x="793" 
d="M404 -21q-177 0 -249 85.5t-72 293.5v286q0 183 78.5 271t242.5 88q167 0 244.5 -86t77.5 -273v-217v0h-460v0v-72q0 -145 27 -191.5t111 -46.5q72 0 105.5 36.5t30.5 112.5v29h183v-29q7 -146 -71.5 -216.5t-247.5 -70.5zM543 563v0v78q0 128 -30 176t-109 48
q-73 0 -105.5 -52.5t-32.5 -171.5v-78v0h277zM368 -159q0 54 38.5 103.5t107.5 82.5h117q-61 -37 -89 -70.5t-28 -69.5q0 -34 29 -55t76 -21q-42 0 -28.5 -1t79.5 -3v-113q-18 -3 -41.5 -4.5t-43.5 -1.5q-98 0 -158 42q-59 42 -59 111z" />
    <glyph glyph-name="Ecaron" unicode="&#x11a;" horiz-adv-x="868" 
d="M133 0v0v1411v0h632v0v-79v-80v0h-439v0v-447v0h413v-79v-80v0h-413v0v-487v0h452v0v-79v-80v0h-645zM336 1521l-110 290h128l105 -206v0l105 206h128l-110 -290h-123h-123z" />
    <glyph glyph-name="ecaron" unicode="&#x11b;" horiz-adv-x="793" 
d="M404 -21q-177 0 -249 85.5t-72 293.5v286q0 183 78.5 271t242.5 88q167 0 244.5 -86t77.5 -273v-217v0h-460v0v-72q0 -145 27 -191.5t111 -46.5q72 0 105.5 36.5t30.5 112.5v29h183v-29q7 -146 -71.5 -216.5t-247.5 -70.5zM543 563v0v78q0 128 -30 176t-109 48
q-73 0 -105.5 -52.5t-32.5 -171.5v-78v0h277zM282 1095l-96 290h132l99 -206v0l99 206h132l-96 -290h-135h-135z" />
    <glyph glyph-name="Gbreve" unicode="&#x11e;" horiz-adv-x="1057" 
d="M544 -17q-235 0 -324 102.5t-89 373.5v520q0 238 97 343.5t316 105.5q205 0 298.5 -89t90.5 -281v-42h-193v42q2 112 -44.5 161.5t-151.5 49.5q-117 0 -168.5 -69t-51.5 -224v-520q0 -179 47.5 -246.5t172.5 -67.5q110 1 196 33v0v414v0h-216v159h409v-699v0
q-140 -65 -389 -66zM544 1521q-141 0 -201.5 66.5t-60.5 223.5h139q0 -90 29 -130t94 -40q67 0 96 40t27 130h139q7 -148 -57 -219t-205 -71z" />
    <glyph glyph-name="gbreve" unicode="&#x11f;" 
d="M402 -248q83 0 115.5 35.5t32.5 125.5v188v0l-9 -13q-62 -88 -196 -88q-131 0 -191 83.5t-60 263.5v367q0 145 63 217t189 72q126 1 204 -97v0v76v0h183v-1047q0 -162 -80 -242.5t-240 -80.5q-154 0 -226 70.5t-67 216.5v29h155v-29q-4 -81 24.5 -114t102.5 -33zM413 863
q-67 0 -102 -47.5t-35 -138.5v-337q0 -114 29 -157t107 -43q79 0 108.5 54t29.5 197v221q0 143 -29.5 197t-107.5 54zM397 1098q-139 0 -198.5 66.5t-59.5 223.5h139q0 -90 28 -130t91 -40q65 0 93.5 40t26.5 130h139q9 -152 -52.5 -221t-206.5 -69z" />
    <glyph glyph-name="uni0122" unicode="&#x122;" horiz-adv-x="1057" 
d="M544 -17q-235 0 -324 102.5t-89 373.5v520q0 238 97 343.5t316 105.5q205 0 298.5 -89t90.5 -281v-42h-193v42q2 112 -44.5 161.5t-151.5 49.5q-117 0 -168.5 -69t-51.5 -224v-520q0 -179 47.5 -246.5t172.5 -67.5q110 1 196 33v0v414v0h-216v159h409v-699v0
q-140 -65 -389 -66zM315 -366l157 269h145l-95 -269h-207z" />
    <glyph glyph-name="uni0123" unicode="&#x123;" 
d="M402 -248q83 0 115.5 35.5t32.5 125.5v188v0l-9 -13q-62 -88 -196 -88q-131 0 -191 83.5t-60 263.5v367q0 145 63 217t189 72q126 1 204 -97v0v76v0h183v-1047q0 -162 -80 -242.5t-240 -80.5q-154 0 -226 70.5t-67 216.5v29h155v-29q-4 -81 24.5 -114t102.5 -33zM413 863
q-67 0 -102 -47.5t-35 -138.5v-337q0 -114 29 -157t107 -43q79 0 108.5 54t29.5 197v221q0 143 -29.5 197t-107.5 54zM575 1363l-93 -268h-204l154 268h143z" />
    <glyph glyph-name="Imacron" unicode="&#x12a;" horiz-adv-x="453" 
d="M131 0v1411v0h96h97v0v-1411v0h-96h-97v0zM-25 1694h504v-133h-504v133z" />
    <glyph glyph-name="imacron" unicode="&#x12b;" horiz-adv-x="378" 
d="M100 0v982v0h91h92v0v-982v0h-91h-92v0zM-35 1271h452v-113h-452v113z" />
    <glyph glyph-name="Iogonek" unicode="&#x12e;" horiz-adv-x="453" 
d="M131 0v1411v0h96h97v0v-1411v0h-96h-97v0zM0 -187q0 89 73.5 155.5t209.5 101.5l9 -58q-67 -18 -105 -58t-38 -92q0 -40 32 -64.5t85 -24.5q13 0 28 -1l30 -2v-124q-21 -2 -46 -3t-45 -1q-105 0 -169 47t-64 124z" />
    <glyph glyph-name="iogonek" unicode="&#x12f;" horiz-adv-x="378" 
d="M107 0v982v0h91h92v0v-982v0h-91h-92v0zM102 1409h192v-183h-192v183zM10 -159q0 54 38.5 103.5t107.5 82.5h117q-61 -37 -89 -70.5t-28 -69.5q0 -34 29 -55t76 -21q-42 0 -28.5 -1t79.5 -3v-113q-18 -3 -41.5 -4.5t-43.5 -1.5q-98 0 -158 42q-59 42 -59 111z" />
    <glyph glyph-name="Idotaccent" unicode="&#x130;" horiz-adv-x="453" 
d="M138 0v1411v0h96h97v0v-1411v0h-96h-97v0zM130 1770h208v-208h-208v208z" />
    <glyph glyph-name="dotlessi" unicode="&#x131;" horiz-adv-x="453" 
d="M137 0v982v0h91h92v0v-982v0h-91h-92v0z" />
    <glyph glyph-name="uni0136" unicode="&#x136;" horiz-adv-x="1020" 
d="M341 0v0h-96h-97v0v1411v0h96h97v0v-650v0l407 650v0h106h107v0l-420 -633v0l420 -778v0h-114h-114v0l-392 762v0v-762zM308 -366l157 269h145l-95 -269h-207z" />
    <glyph glyph-name="uni0137" unicode="&#x137;" 
d="M305 1411v-1411v0h-91h-92v0v1411v0h91h92v0zM587 0l-282 540v0l259 442v0h96h97v0l-257 -442v0l277 -540v0h-95h-95v0zM217 -366l157 269h145l-95 -269h-207z" />
    <glyph glyph-name="Lacute" unicode="&#x139;" horiz-adv-x="793" 
d="M134 0v0v1411v0h96h97v0v-1252v0h410v0v-79v-80v0h-603zM194 1521l114 309h210l-182 -309h-142z" />
    <glyph glyph-name="lacute" unicode="&#x13a;" horiz-adv-x="378" 
d="M104 0v1411v0h91h92v0v-1411v0h-91h-92v0zM116 1521l114 309h210l-182 -309h-142z" />
    <glyph glyph-name="uni013B" unicode="&#x13b;" horiz-adv-x="793" 
d="M134 0v0v1411v0h96h97v0v-1252v0h410v0v-79v-80v0h-603zM206 -366l157 269h145l-95 -269h-207z" />
    <glyph glyph-name="uni013C" unicode="&#x13c;" horiz-adv-x="378" 
d="M88 0v1411v0h91h92v0v-1411v0h-91h-92v0zM-50 -366l157 269h145l-95 -269h-207z" />
    <glyph glyph-name="Lcaron" unicode="&#x13d;" horiz-adv-x="793" 
d="M134 0v0v1411v0h96h97v0v-1252v0h410v0v-79v-80v0h-603zM440 1067l76 344h161l-137 -344h-100z" />
    <glyph glyph-name="lcaron" unicode="&#x13e;" horiz-adv-x="604" 
d="M104 0v1411v0h91h92v0v-1411v0h-91h-92v0zM385 1067l76 344h161l-137 -344h-100z" />
    <glyph glyph-name="Lslash" unicode="&#x141;" horiz-adv-x="793" 
d="M134 0v0v1411v0h96h97v0v-1252v0h410v0v-79v-80v0h-603zM14 661l503 421v-206l-503 -421v206z" />
    <glyph glyph-name="lslash" unicode="&#x142;" horiz-adv-x="378" 
d="M99 0v1411v0h91h92v0v-1411v0h-91h-92v0zM-9 680l397 386v-194l-397 -386v194z" />
    <glyph glyph-name="Nacute" unicode="&#x143;" horiz-adv-x="1095" 
d="M312 0v0h-92h-92v0v1411v0h152h153v0l364 -1220v0v0v1220v0h89h90v0v-1411h-151h-152l-361 1210v0v0v-1210zM501 1521l114 309h210l-182 -309h-142z" />
    <glyph glyph-name="nacute" unicode="&#x144;" 
d="M102 0v982v0h91h92v0v-82v0v0l4 4q92 98 217 98q113 0 174.5 -61.5t61.5 -174.5v-766v0h-89h-90v0v704q0 78 -32.5 119t-95.5 41q-77 0 -113.5 -52t-36.5 -161v0v-651v0h-91h-92v0zM312 1095l117 309h216l-187 -309h-146z" />
    <glyph glyph-name="uni0145" unicode="&#x145;" horiz-adv-x="1095" 
d="M312 0v0h-92h-92v0v1411v0h152h153v0l364 -1220v0v0v1220v0h89h90v0v-1411h-151h-152l-361 1210v0v0v-1210zM323 -366l157 269h145l-95 -269h-207z" />
    <glyph glyph-name="uni0146" unicode="&#x146;" 
d="M102 0v982v0h91h92v0v-82v0v0l4 4q92 98 217 98q113 0 174.5 -61.5t61.5 -174.5v-766v0h-89h-90v0v704q0 78 -32.5 119t-95.5 41q-77 0 -113.5 -52t-36.5 -161v0v-651v0h-91h-92v0zM193 -366l157 269h145l-95 -269h-207z" />
    <glyph glyph-name="Ncaron" unicode="&#x147;" horiz-adv-x="1095" 
d="M312 0v0h-92h-92v0v1411v0h152h153v0l364 -1220v0v0v1220v0h89h90v0v-1411h-151h-152l-361 1210v0v0v-1210zM485 1521l-110 290h128l105 -206v0l105 206h128l-110 -290h-123h-123z" />
    <glyph glyph-name="ncaron" unicode="&#x148;" 
d="M102 0v982v0h91h92v0v-82v0v0l4 4q92 98 217 98q113 0 174.5 -61.5t61.5 -174.5v-766v0h-89h-90v0v704q0 78 -32.5 119t-95.5 41q-77 0 -113.5 -52t-36.5 -161v0v-651v0h-91h-92v0zM287 1095l-96 290h132l99 -206v0l99 206h132l-96 -290h-135h-135z" />
    <glyph glyph-name="Omacron" unicode="&#x14c;" horiz-adv-x="1057" 
d="M535 -17q-229 0 -315 102.5t-86 373.5v520q0 238 94 343.5t307 105.5q217 0 309 -105t92 -351v-592q0 -210 -94 -303.5t-307 -93.5v0zM535 142q110 0 159 65.5t49 212.5v592q0 146 -44.5 201.5t-163.5 55.5q-110 0 -159 -69t-49 -224v-520q0 -179 44.5 -246.5
t163.5 -67.5v0zM283 1694h504v-133h-504v133z" />
    <glyph glyph-name="omacron" unicode="&#x14d;" 
d="M419 -21q-165 0 -241.5 91t-76.5 288v286q0 172 82.5 265.5t235.5 93.5q165 0 241.5 -86t76.5 -273v-286q0 -201 -74.5 -290t-243.5 -89v0zM419 117q72 0 103.5 52.5t31.5 170.5v286q0 124 -32.5 181.5t-102.5 57.5q-72 0 -103.5 -54.5t-31.5 -177.5v-286
q0 -131 29 -180.5t106 -49.5v0zM193 1271h452v-113h-452v113z" />
    <glyph glyph-name="Ohungarumlaut" unicode="&#x150;" horiz-adv-x="1057" 
d="M535 -17q-229 0 -315 102.5t-86 373.5v520q0 238 94 343.5t307 105.5q217 0 309 -105t92 -351v-592q0 -210 -94 -303.5t-307 -93.5v0zM535 142q110 0 159 65.5t49 212.5v592q0 146 -44.5 201.5t-163.5 55.5q-110 0 -159 -69t-49 -224v-520q0 -179 44.5 -246.5
t163.5 -67.5v0zM335 1521l114 309h210l-182 -309h-142zM610 1521l114 309h210l-182 -309h-142z" />
    <glyph glyph-name="ohungarumlaut" unicode="&#x151;" 
d="M419 -21q-165 0 -241.5 91t-76.5 288v286q0 172 82.5 265.5t235.5 93.5q165 0 241.5 -86t76.5 -273v-286q0 -201 -74.5 -290t-243.5 -89v0zM419 117q72 0 103.5 52.5t31.5 170.5v286q0 124 -32.5 181.5t-102.5 57.5q-72 0 -103.5 -54.5t-31.5 -177.5v-286
q0 -131 29 -180.5t106 -49.5v0zM211 1095l117 309h216l-187 -309h-146zM501 1095l117 309h216l-187 -309h-146z" />
    <glyph glyph-name="OE" unicode="&#x152;" horiz-adv-x="1397" 
d="M549 1418q111 0 123 -3q6 -2 42 -3t81 -1h101v0h393v0v-79v-80v0h-393v0v-447v0h393v-79v-80v0h-393v0v-487v0h393v0v-79v-80v0h-378q-69 0 -121.5 -1t-59.5 -3q-11 -3 -181 -3q-237 0 -326 101t-89 369v512q0 235 98 339q97 104 317 104zM549 1259q-118 0 -170 -67.5
t-52 -219.5v-512q0 -176 47.5 -242t174.5 -66q105 0 154 12v0v1087v0q-50 8 -154 8z" />
    <glyph glyph-name="oe" unicode="&#x153;" horiz-adv-x="1284" 
d="M382 1003q150 0 219 -77q30 -32 47 -83v0q18 42 41 72q70 88 216 88q149 0 218 -86t69 -273v-197v0h-458v0v-92q0 -117 36 -177.5t106 -60.5q69 0 101 36.5t29 112.5v29h183v-29q6 -132 -75.5 -209.5t-225.5 -77.5q-148 0 -209 86q-23 33 -37 82v0q-17 -46 -47 -80
q-75 -88 -213 -88q-149 0 -218 91t-69 288v286q0 172 75 266q74 93 212 93zM413 865q-72 0 -103.5 -52.5t-31.5 -171.5v-286q0 -136 29 -187t106 -51q72 0 103.5 56t31.5 182v286q0 128 -29 176t-106 48zM1009 583v0v58q0 128 -29.5 176t-108.5 48q-73 0 -105 -52.5
t-32 -171.5v-58v0h275z" />
    <glyph glyph-name="Racute" unicode="&#x154;" horiz-adv-x="1020" 
d="M135 0v1411v0h97v0h350q175 0 259 -86t84 -266v14q0 -193 -95 -279q-63 -58 -182 -77v0q128 -9 178 -60q59 -61 62 -236q2 -127 12 -213l4 -33q7 -55 14.5 -94t19.5 -80h-101h-101q-14 65 -20.5 101t-8.5 59l-3 30q-9 88 -11 195q-2 137 -51.5 195t-162.5 58h-150v0v-639
v0h-97h-97v0zM329 798v0h153q145 0 197.5 55.5t52.5 209.5v-14q0 116 -53.5 159.5t-196.5 43.5h-153v0v-454zM384 1521l114 309h210l-182 -309h-142z" />
    <glyph glyph-name="racute" unicode="&#x155;" horiz-adv-x="566" 
d="M108 0v982v0h91h92v0v-118v0v0l25 35q83 102 203 104v-183q-127 0 -177.5 -61.5t-50.5 -217.5v0v-541v0h-91h-92v0zM203 1095l117 309h216l-187 -309h-146z" />
    <glyph glyph-name="uni0156" unicode="&#x156;" horiz-adv-x="1020" 
d="M135 0v1411v0h97v0h350q175 0 259 -86t84 -266v14q0 -193 -95 -279q-63 -58 -182 -77v0q128 -9 178 -60q59 -61 62 -236q2 -127 12 -213l4 -33q7 -55 14.5 -94t19.5 -80h-101h-101q-14 65 -20.5 101t-8.5 59l-3 30q-9 88 -11 195q-2 137 -51.5 195t-162.5 58h-150v0v-639
v0h-97h-97v0zM329 798v0h153q145 0 197.5 55.5t52.5 209.5v-14q0 116 -53.5 159.5t-196.5 43.5h-153v0v-454zM303 -366l157 269h145l-95 -269h-207z" />
    <glyph glyph-name="uni0157" unicode="&#x157;" horiz-adv-x="566" 
d="M108 0v982v0h91h92v0v-118v0v0l25 35q83 102 203 104v-183q-127 0 -177.5 -61.5t-50.5 -217.5v0v-541v0h-91h-92v0zM-30 -366l157 269h145l-95 -269h-207z" />
    <glyph glyph-name="Rcaron" unicode="&#x158;" horiz-adv-x="1020" 
d="M135 0v1411v0h97v0h350q175 0 259 -86t84 -266v14q0 -193 -95 -279q-63 -58 -182 -77v0q128 -9 178 -60q59 -61 62 -236q2 -127 12 -213l4 -33q7 -55 14.5 -94t19.5 -80h-101h-101q-14 65 -20.5 101t-8.5 59l-3 30q-9 88 -11 195q-2 137 -51.5 195t-162.5 58h-150v0v-639
v0h-97h-97v0zM329 798v0h153q145 0 197.5 55.5t52.5 209.5v-14q0 116 -53.5 159.5t-196.5 43.5h-153v0v-454zM368 1521l-110 290h128l105 -206v0l105 206h128l-110 -290h-123h-123z" />
    <glyph glyph-name="rcaron" unicode="&#x159;" horiz-adv-x="566" 
d="M103 0v982v0h91h92v0v-118v0v0l25 35q83 102 203 104v-183q-127 0 -177.5 -61.5t-50.5 -217.5v0v-541v0h-91h-92v0zM173 1095l-96 290h132l99 -206v0l99 206h132l-96 -290h-135h-135z" />
    <glyph glyph-name="Sacute" unicode="&#x15a;" horiz-adv-x="982" 
d="M691 1002v42q0 122 -39.5 173.5t-132.5 51.5q-104 0 -150.5 -47t-46.5 -152q0 -85 41 -131t183 -121q220 -116 290 -200q69 -84 69 -231q0 -202 -103 -303t-309 -101q-221 0 -312 103q-84 95 -84 307l1 38v42h196v-42q-2 -165 40.5 -227t158.5 -62q117 0 169 53.5
t52 174.5q0 92 -47 144q-47 51 -209 136q-189 100 -263 189q-73 88 -73 214q0 188 99 281.5t298 93.5q208 0 290 -86q76 -80 77 -266l-1 -32v-42h-194zM412 1521l114 309h210l-182 -309h-142z" />
    <glyph glyph-name="sacute" unicode="&#x15b;" horiz-adv-x="755" 
d="M490 697v29q3 72 -22 105.5t-82 33.5q-52 0 -78 -24.5t-26 -73.5q0 -50 26 -82q26 -31 121 -98q153 -108 205 -172q51 -64 51 -147q0 -139 -79.5 -214t-225.5 -75q-157 0 -233 73q-73 68 -72 202v17v29h180v-29q-4 -77 27.5 -115.5t97.5 -38.5q63 0 94 30t31 90
q0 53 -35 95t-139 115q-137 96 -183 157t-46 145q0 122 74 188t210 66q152 0 220 -66q65 -62 64 -192v-19v-29h-180zM276 1095l117 309h216l-187 -309h-146z" />
    <glyph glyph-name="Scedilla" unicode="&#x15e;" horiz-adv-x="982" 
d="M691 1002v42q0 122 -39.5 173.5t-132.5 51.5q-104 0 -150.5 -47t-46.5 -152q0 -85 41 -131t183 -121q220 -116 290 -200q69 -84 69 -231q0 -202 -103 -303t-309 -101q-221 0 -312 103q-84 95 -84 307l1 38v42h196v-42q-2 -165 40.5 -227t158.5 -62q117 0 169 53.5
t52 174.5q0 92 -47 144q-47 51 -209 136q-189 100 -263 189q-73 88 -73 214q0 188 99 281.5t298 93.5q208 0 290 -86q76 -80 77 -266l-1 -32v-42h-194zM264 -366l157 269h145l-95 -269h-207z" />
    <glyph glyph-name="scedilla" unicode="&#x15f;" horiz-adv-x="755" 
d="M490 697v29q3 72 -22 105.5t-82 33.5q-52 0 -78 -24.5t-26 -73.5q0 -50 26 -82q26 -31 121 -98q153 -108 205 -172q51 -64 51 -147q0 -139 -79.5 -214t-225.5 -75q-157 0 -233 73q-73 68 -72 202v17v29h180v-29q-4 -77 27.5 -115.5t97.5 -38.5q63 0 94 30t31 90
q0 53 -35 95t-139 115q-137 96 -183 157t-46 145q0 122 74 188t210 66q152 0 220 -66q65 -62 64 -192v-19v-29h-180zM151 -366l157 269h145l-95 -269h-207z" />
    <glyph glyph-name="Scaron" unicode="&#x160;" horiz-adv-x="982" 
d="M691 1002v42q0 122 -39.5 173.5t-132.5 51.5q-104 0 -150.5 -47t-46.5 -152q0 -85 41 -131t183 -121q220 -116 290 -200q69 -84 69 -231q0 -202 -103 -303t-309 -101q-221 0 -312 103q-84 95 -84 307l1 38v42h196v-42q-2 -165 40.5 -227t158.5 -62q117 0 169 53.5
t52 174.5q0 92 -47 144q-47 51 -209 136q-189 100 -263 189q-73 88 -73 214q0 188 99 281.5t298 93.5q208 0 290 -86q76 -80 77 -266l-1 -32v-42h-194zM396 1521l-110 290h128l105 -206v0l105 206h128l-110 -290h-123h-123z" />
    <glyph glyph-name="scaron" unicode="&#x161;" horiz-adv-x="755" 
d="M490 697v29q3 72 -22 105.5t-82 33.5q-52 0 -78 -24.5t-26 -73.5q0 -50 26 -82q26 -31 121 -98q153 -108 205 -172q51 -64 51 -147q0 -139 -79.5 -214t-225.5 -75q-157 0 -233 73q-73 68 -72 202v17v29h180v-29q-4 -77 27.5 -115.5t97.5 -38.5q63 0 94 30t31 90
q0 53 -35 95t-139 115q-137 96 -183 157t-46 145q0 122 74 188t210 66q152 0 220 -66q65 -62 64 -192v-19v-29h-180zM251 1095l-96 290h132l99 -206v0l99 206h132l-96 -290h-135h-135z" />
    <glyph glyph-name="uni0162" unicode="&#x162;" horiz-adv-x="982" 
d="M399 0v1252v0h-325v0v79v80v0h843v0v-79v-80v0h-325v0v-1252v0h-96h-97v0zM266 -366l157 269h145l-95 -269h-207z" />
    <glyph glyph-name="uni0163" unicode="&#x163;" horiz-adv-x="604" 
d="M525 -7q-69 -15 -115 -14q-118 0 -166 47t-48 161v660v0h-128v135h128v0v177l183 76v-253v0h146v-135h-146v0v-631q0 -55 32 -77t114 -22v0v-124zM122 -366l157 269h145l-95 -269h-207z" />
    <glyph glyph-name="Tcaron" unicode="&#x164;" horiz-adv-x="982" 
d="M399 0v1252v0h-325v0v79v80v0h843v0v-79v-80v0h-325v0v-1252v0h-96h-97v0zM372 1521l-110 290h128l105 -206v0l105 206h128l-110 -290h-123h-123z" />
    <glyph glyph-name="tcaron" unicode="&#x165;" horiz-adv-x="680" 
d="M525 -7q-69 -15 -115 -14q-118 0 -166 47t-48 161v660v0h-128v135h128v0v177l183 76v-253v0h146v-135h-146v0v-631q0 -55 32 -77t114 -22v0v-124zM445 1070l76 344h161l-137 -344h-100z" />
    <glyph glyph-name="Umacron" unicode="&#x16a;" horiz-adv-x="1057" 
d="M927 358q0 -188 -98.5 -281.5t-295.5 -93.5q-198 0 -296.5 93.5t-98.5 281.5v1053v0h96h97v0v-1000q0 -141 48.5 -206t153.5 -65q107 0 154 63.5t47 207.5v1000v0h96h97v0v-1053zM280 1694h504v-133h-504v133z" />
    <glyph glyph-name="umacron" unicode="&#x16b;" 
d="M282 982v-727q0 -68 28 -103t82 -35q82 0 121.5 52.5t39.5 161.5v0v651v0h91h92v0v-982v0h-91h-92v0v82l-1 -1v0q-92 -102 -214 -102q-115 0 -177 62t-62 177v764v0h91h92v0zM191 1271h452v-113h-452v113z" />
    <glyph glyph-name="Uring" unicode="&#x16e;" horiz-adv-x="1057" 
d="M927 358q0 -188 -98.5 -281.5t-295.5 -93.5q-198 0 -296.5 93.5t-98.5 281.5v1053v0h96h97v0v-1000q0 -141 48.5 -206t153.5 -65q107 0 154 63.5t47 207.5v1000v0h96h97v0v-1053zM532 1524q-78 0 -132 54t-54 132t54 132t132 54t132 -54t54 -132t-54 -132t-132 -54v0z
M532 1620q38 0 64 26t26 64t-26 64t-64 26t-64 -26t-26 -64t26 -64t64 -26v0z" />
    <glyph glyph-name="uring" unicode="&#x16f;" 
d="M282 982v-727q0 -68 28 -103t82 -35q82 0 121.5 52.5t39.5 161.5v0v651v0h91h92v0v-982v0h-91h-92v0v82l-1 -1v0q-92 -102 -214 -102q-115 0 -177 62t-62 177v764v0h91h92v0zM417 1098q-78 0 -131.5 53.5t-53.5 131.5t53.5 132t131.5 54t132 -54t54 -132t-54 -131.5
t-132 -53.5v0zM417 1194q38 0 64 26t26 63q0 38 -26 64t-64 26q-37 0 -63 -26t-26 -64q0 -37 26 -63t63 -26v0z" />
    <glyph glyph-name="Uhungarumlaut" unicode="&#x170;" horiz-adv-x="1057" 
d="M927 358q0 -188 -98.5 -281.5t-295.5 -93.5q-198 0 -296.5 93.5t-98.5 281.5v1053v0h96h97v0v-1000q0 -141 48.5 -206t153.5 -65q107 0 154 63.5t47 207.5v1000v0h96h97v0v-1053zM332 1521l114 309h210l-182 -309h-142zM607 1521l114 309h210l-182 -309h-142z" />
    <glyph glyph-name="uhungarumlaut" unicode="&#x171;" 
d="M282 982v-727q0 -68 28 -103t82 -35q82 0 121.5 52.5t39.5 161.5v0v651v0h91h92v0v-982v0h-91h-92v0v82l-1 -1v0q-92 -102 -214 -102q-115 0 -177 62t-62 177v764v0h91h92v0zM209 1095l117 309h216l-187 -309h-146zM499 1095l117 309h216l-187 -309h-146z" />
    <glyph glyph-name="Uogonek" unicode="&#x172;" horiz-adv-x="1057" 
d="M927 358q0 -188 -98.5 -281.5t-295.5 -93.5q-198 0 -296.5 93.5t-98.5 281.5v1053v0h96h97v0v-1000q0 -141 48.5 -206t153.5 -65q107 0 154 63.5t47 207.5v1000v0h96h97v0v-1053zM421 -187q0 89 73.5 155.5t209.5 101.5l9 -58q-67 -18 -105 -58t-38 -92q0 -40 32 -64.5
t85 -24.5q13 0 28 -1l30 -2v-124q-21 -2 -46 -3t-45 -1q-105 0 -169 47t-64 124z" />
    <glyph glyph-name="uogonek" unicode="&#x173;" 
d="M282 982v-727q0 -68 28 -103t82 -35q82 0 121.5 52.5t39.5 161.5v0v651v0h91h92v0v-982v0h-91h-92v0v82l-1 -1v0q-92 -102 -214 -102q-115 0 -177 62t-62 177v764v0h91h92v0zM444 -159q0 54 38.5 103.5t107.5 82.5h117q-61 -37 -89 -70.5t-28 -69.5q0 -34 29 -55t76 -21
q-42 0 -28.5 -1t79.5 -3v-113q-18 -3 -41.5 -4.5t-43.5 -1.5q-98 0 -158 42q-59 42 -59 111z" />
    <glyph glyph-name="Ydieresis" unicode="&#x178;" horiz-adv-x="944" 
d="M388 593v0l-324 818v0h109h109v0l212 -625v0l211 625v0h99h100v0l-323 -816v0v-595h-96h-97v593zM227 1755h194v-193h-194v193zM548 1755h194v-193h-194v193z" />
    <glyph glyph-name="Zacute" unicode="&#x179;" horiz-adv-x="944" 
d="M95 206l554 999l27 47v0h-581v0v79v80v0h761v-103v-103l-554 -999l-27 -47v0h581v0v-79v-80v0h-761v103v103zM421 1521l114 309h210l-182 -309h-142z" />
    <glyph glyph-name="zacute" unicode="&#x17a;" horiz-adv-x="680" 
d="M75 154l360 690l1 2h-333v0v68v68v0h508v-69v-69l-351 -690l-9 -18v0h365v0v-68v-68v0h-541v77v77zM279 1095l117 309h216l-187 -309h-146z" />
    <glyph glyph-name="Zdotaccent" unicode="&#x17b;" horiz-adv-x="944" 
d="M95 206l554 999l27 47v0h-581v0v79v80v0h761v-103v-103l-554 -999l-27 -47v0h581v0v-79v-80v0h-761v103v103zM424 1770h208v-208h-208v208z" />
    <glyph glyph-name="zdotaccent" unicode="&#x17c;" horiz-adv-x="680" 
d="M75 154l360 690l1 2h-333v0v68v68v0h508v-69v-69l-351 -690l-9 -18v0h365v0v-68v-68v0h-541v77v77zM285 1368h208v-208h-208v208z" />
    <glyph glyph-name="Zcaron" unicode="&#x17d;" horiz-adv-x="944" 
d="M95 206l554 999l27 47v0h-581v0v79v80v0h761v-103v-103l-554 -999l-27 -47v0h581v0v-79v-80v0h-761v103v103zM405 1521l-110 290h128l105 -206v0l105 206h128l-110 -290h-123h-123z" />
    <glyph glyph-name="zcaron" unicode="&#x17e;" horiz-adv-x="680" 
d="M75 154l360 690l1 2h-333v0v68v68v0h508v-69v-69l-351 -690l-9 -18v0h365v0v-68v-68v0h-541v77v77zM254 1095l-96 290h132l99 -206v0l99 206h132l-96 -290h-135h-135z" />
    <glyph glyph-name="florin" unicode="&#x192;" horiz-adv-x="944" 
d="M589 847v0l-260 -847v0h-94h-94v0l260 847v0h-142l42 135h142v0l73 240q29 93 104 147.5t174 54.5q72 0 127 -12l-39 -127l-47 1q-65 0 -95.5 -24.5t-52.5 -95.5l-56 -184v0h173l-42 -135h-173z" />
    <glyph glyph-name="circumflex" unicode="&#x2c6;" horiz-adv-x="944" 
d="M611 1385l96 -290h-132l-99 206v0l-99 -206h-132l96 290h135h135z" />
    <glyph glyph-name="caron" unicode="&#x2c7;" horiz-adv-x="944" 
d="M362 1095l-96 290h132l99 -206v0l99 206h132l-96 -290h-135h-135z" />
    <glyph glyph-name="uni02C9" unicode="&#x2c9;" horiz-adv-x="944" 
d="M249 1271h452v-113h-452v113z" />
    <glyph glyph-name="breve" unicode="&#x2d8;" horiz-adv-x="944" 
d="M476 1098q-139 0 -198.5 66.5t-59.5 223.5h139q0 -90 28 -130t91 -40q65 0 93.5 40t26.5 130h139q9 -152 -52.5 -221t-206.5 -69z" />
    <glyph glyph-name="dotaccent" unicode="&#x2d9;" horiz-adv-x="944" 
d="M372 1368h208v-208h-208v208z" />
    <glyph glyph-name="ring" unicode="&#x2da;" horiz-adv-x="944" 
d="M481 1098q-78 0 -131.5 53.5t-53.5 131.5t53.5 132t131.5 54t132 -54t54 -132t-54 -131.5t-132 -53.5v0zM481 1194q38 0 64 26t26 63q0 38 -26 64t-64 26q-37 0 -63 -26t-26 -64q0 -37 26 -63t63 -26v0z" />
    <glyph glyph-name="ogonek" unicode="&#x2db;" horiz-adv-x="944" 
d="M502 -159q0 54 38.5 103.5t107.5 82.5h117q-61 -37 -89 -70.5t-28 -69.5q0 -34 29 -55t76 -21q-42 0 -28.5 -1t79.5 -3v-113q-18 -3 -41.5 -4.5t-43.5 -1.5q-98 0 -158 42q-59 42 -59 111z" />
    <glyph glyph-name="tilde" unicode="&#x2dc;" horiz-adv-x="944" 
d="M265 1142q0 127 23.5 181.5t79.5 54.5q38 0 73 -15.5t96 -59.5q16 -12 32 -20t24 -8q23 0 34.5 27t6.5 66h105q0 -132 -22.5 -184t-80.5 -52q-25 0 -76.5 23t-92.5 52q-17 12 -33.5 20t-22.5 8q-19 0 -29 -23t-12 -70h-105z" />
    <glyph glyph-name="hungarumlaut" unicode="&#x2dd;" horiz-adv-x="944" 
d="M251 1095l117 309h216l-187 -309h-146zM541 1095l117 309h216l-187 -309h-146z" />
    <glyph glyph-name="uni0401" unicode="&#x401;" horiz-adv-x="868" 
d="M133 0v0v1411v0h632v0v-79v-80v0h-439v0v-447v0h413v-79v-80v0h-413v0v-487v0h452v0v-79v-80v0h-645zM160 1755h194v-193h-194v193zM481 1755h194v-193h-194v193z" />
    <glyph glyph-name="uni0402" unicode="&#x402;" horiz-adv-x="1231" 
d="M776 772q-57 0 -111.5 -18t-72.5 -43v0v-711v0h-96h-97v0v1252v0h-325v0v79v80v0h843v0v-79v-80v0h-325v0v-378v0v0l36 18q114 58 191 58q163 0 242.5 -109.5t83.5 -337.5q1 -276 -77.5 -398t-255.5 -122q-72 0 -80 3v0v160v0q11 -4 68 -4q81 0 116.5 77t35.5 251
q0 157 -42 229.5t-134 72.5z" />
    <glyph glyph-name="uni0403" unicode="&#x403;" horiz-adv-x="898" 
d="M326 0v0h-96h-97v0v1411v0h684v-79v-80v0h-491v0v-1252zM365 1521l117 309h216l-187 -309h-146z" />
    <glyph glyph-name="uni0404" unicode="&#x404;" horiz-adv-x="1020" 
d="M899 459v-42q7 -230 -80 -332t-289 -102q-199 0 -294.5 94.5t-95.5 291.5v628q0 228 93.5 329.5t304.5 101.5q200 0 286 -92q77 -80 76 -245l-1 -47v-42h-193v42q4 128 -31.5 176.5t-134.5 48.5q-110 0 -158.5 -56t-48.5 -183v-225v0h283v-159h-283v0v-244
q0 -148 41 -204t150 -56q99 0 141.5 64.5t40.5 210.5v42h193z" />
    <glyph glyph-name="uni0405" unicode="&#x405;" horiz-adv-x="982" 
d="M691 1002v42q0 122 -39.5 173.5t-132.5 51.5q-104 0 -150.5 -47t-46.5 -152q0 -85 41 -131t183 -121q220 -116 290 -200q69 -84 69 -231q0 -202 -103 -303t-309 -101q-221 0 -312 103q-84 95 -84 307l1 38v42h196v-42q-2 -165 40.5 -227t158.5 -62q117 0 169 53.5
t52 174.5q0 92 -47 144q-47 51 -209 136q-189 100 -263 189q-73 88 -73 214q0 188 99 281.5t298 93.5q208 0 290 -86q76 -80 77 -266l-1 -32v-42h-194z" />
    <glyph glyph-name="uni0406" unicode="&#x406;" horiz-adv-x="453" 
d="M130 0v1411v0h96h97v0v-1411v0h-96h-97v0z" />
    <glyph glyph-name="uni0407" unicode="&#x407;" horiz-adv-x="453" 
d="M135 0v1411v0h96h97v0v-1411v0h-96h-97v0zM-26 1755h194v-193h-194v193zM295 1755h194v-193h-194v193z" />
    <glyph glyph-name="uni0408" unicode="&#x408;" horiz-adv-x="868" 
d="M552 1411v0h96h97v0v-1036q0 -204 -84 -298t-265 -94q-187 0 -270.5 91.5t-77.5 289.5v42h193v-42q-2 -111 36.5 -166.5t117.5 -55.5q88 0 122.5 58.5t34.5 208.5v0v1002z" />
    <glyph glyph-name="uni0409" unicode="&#x409;" horiz-adv-x="1568" 
d="M687 1252v0h-284v0v-908q0 -173 -75 -267t-214 -94h-66v170h44q63 0 90.5 45t27.5 146v0v1067v0h670v0v-581v0h143q258 0 359.5 -88.5t101.5 -314.5v-8q0 -218 -115.5 -318.5t-365.5 -100.5h-220h-96v0v1252zM880 671v-512v0h123q150 0 219 61.5t69 195.5v8
q0 138 -59 192.5t-209 54.5h-143v0z" />
    <glyph glyph-name="uni040A" unicode="&#x40a;" horiz-adv-x="1614" 
d="M133 0v1411v0h96h97v0v-606v0h408v0v606v0h96h97v0v-605v0h143q258 0 359.5 -86t101.5 -305v-8q0 -212 -115.5 -309.5t-365.5 -97.5h-220h-96v0v646v0h-408v0v-646v0h-96h-97v0zM927 647v-488v0h123q150 0 219 58.5t69 185.5v8q0 132 -59 184t-209 52h-143v0z" />
    <glyph glyph-name="uni040B" unicode="&#x40b;" horiz-adv-x="1231" 
d="M776 772q-57 0 -111.5 -18t-72.5 -43v0v-711v0h-96h-97v0v1252v0h-325v0v79v80v0h843v0v-79v-80v0h-325v0v-378v0v0l36 18q114 58 191 58q166 0 246 -80t80 -246v-624v0h-96h-97v0v552q0 114 -42 167t-134 53z" />
    <glyph glyph-name="uni040C" unicode="&#x40c;" horiz-adv-x="1020" 
d="M148 0v1411v0h96h97v0v-573v0h90q123 0 175.5 59.5t52.5 199.5v46q0 147 47 207.5t163 60.5h72v-174h-42q-31 0 -44 -34t-13 -117v-27q0 -188 -85 -253q-33 -25 -88 -41v0q77 -14 120 -50q82 -67 103 -261l30 -279q6 -52 14.5 -91t24.5 -83h-98h-99q-15 27 -23.5 63
t-15.5 97l-28 254q-16 141 -63 201.5t-143 60.5h-150v0v-677v0h-96h-97v0zM431 1521l117 309h216l-187 -309h-146z" />
    <glyph glyph-name="uni040E" unicode="&#x40e;" horiz-adv-x="944" 
d="M444 0v0h-99h-99v0l141 432v0l-323 979v0h105h105v0l206 -686v0v0l218 686v0h99h99v0zM480 1521q-141 0 -201.5 66.5t-60.5 223.5h139q0 -90 29 -130t94 -40q67 0 96 40t27 130h139q7 -148 -57 -219t-205 -71z" />
    <glyph glyph-name="uni040F" unicode="&#x40f;" horiz-adv-x="1057" 
d="M133 0v0v1411v0h96h97v0v-1252v0h408v0v1252v0h96h97v0v-1411v0h-301v-295h-193v295h-300z" />
    <glyph glyph-name="uni0410" unicode="&#x410;" horiz-adv-x="1057" 
d="M81 0l323 1411h128h129l322 -1411v0h-102h-103v0l-65 320v0h-378v0l-66 -320v0h-94h-94v0zM526 1237l-157 -758v0h313v0l-156 758v0v0z" />
    <glyph glyph-name="uni0411" unicode="&#x411;" horiz-adv-x="1020" 
d="M140 0v1411v0h716v0v-79v-80v0h-523v0v-422v0h143q258 0 359.5 -88.5t101.5 -314.5v-8q0 -218 -115.5 -318.5t-365.5 -100.5h-220h-96zM333 671v-512v0h123q150 0 219 61.5t69 195.5v8q0 138 -59 192.5t-209 54.5h-143v0z" />
    <glyph glyph-name="uni0412" unicode="&#x412;" horiz-adv-x="1020" 
d="M140 0v1411v0h96v0h247q213 0 315.5 -86.5t102.5 -267.5v-7q0 -180 -92 -260q-57 -49 -160 -68v0q129 -17 191 -67q97 -76 97 -279v-7q0 -199 -96.5 -284t-323.5 -85h-281v0h-96v0zM333 1251v-450v0h164q112 0 161.5 51t49.5 166v7q0 115 -55 170.5t-170 55.5h-150v0z
M333 642v-483v0h184q120 0 173.5 57t53.5 186v7q0 128 -55.5 180.5t-191.5 52.5h-164v0z" />
    <glyph glyph-name="uni0413" unicode="&#x413;" horiz-adv-x="898" 
d="M326 0v0h-96h-97v0v1411v0h684v-79v-80v0h-491v0v-1252z" />
    <glyph glyph-name="uni0414" unicode="&#x414;" horiz-adv-x="1109" 
d="M294 1411v0h654v0v-1252h96v-454h-193v295h-610v-295h-193v454h104h1q38 110 70 293q71 409 71 959zM755 1252v0h-269v0q-10 -450 -70 -800q-32 -182 -70 -293v0h409v0v1093z" />
    <glyph glyph-name="uni0415" unicode="&#x415;" horiz-adv-x="868" 
d="M133 0v0v1411v0h632v0v-79v-80v0h-439v0v-447v0h413v-79v-80v0h-413v0v-487v0h452v0v-79v-80v0h-645z" />
    <glyph glyph-name="uni0416" unicode="&#x416;" horiz-adv-x="1505" 
d="M864 677v-677h-96h-97v0v677v0h-145q-94 0 -139.5 -60.5t-58.5 -201.5l-24 -254q-6 -60 -14 -96t-23 -64h-98h-99q15 44 23 83t13 91l26 279q18 194 99 261q42 35 119 51v0q-53 16 -83 40q-81 65 -81 253v27q0 83 -12.5 117t-42.5 34h-41v174h70q115 0 162 -60.5
t47 -207.5v-46q0 -140 49.5 -199.5t165.5 -59.5h87v0v573v0h96h97v0v-573v0h86q116 0 165.5 59.5t49.5 199.5v46q0 147 47 207.5t163 60.5h70v-174h-41q-31 0 -43.5 -34t-12.5 -117v-27q0 -188 -82 -253q-31 -23 -82 -40v0q76 -16 119 -51q81 -67 99 -261l26 -279
q5 -52 13 -91t23 -83h-98h-99q-15 28 -23 64t-14 96l-24 254q-13 141 -58.5 201.5t-139.5 60.5h-144v0z" />
    <glyph glyph-name="uni0417" unicode="&#x417;" horiz-adv-x="982" 
d="M500 -17q-237 0 -323.5 93.5t-79.5 340.5v42h193v-42q-2 -157 43 -216t167 -59q116 0 163.5 53.5t47.5 184.5v46q0 130 -45.5 179t-165.5 49h-121v158h134q105 0 151.5 50t46.5 162v43q0 113 -43.5 157.5t-154.5 44.5q-109 0 -155.5 -53t-42.5 -172v-42h-193v42
q-12 184 90 284t301 100q203 0 297 -79.5t94 -252.5v-43q0 -182 -92 -263q-40 -35 -101 -55v0q67 -22 106 -55q87 -76 87 -280v-46q0 -186 -101 -278.5t-303 -92.5v0z" />
    <glyph glyph-name="uni0418" unicode="&#x418;" horiz-adv-x="1057" 
d="M438 0h-152h-153v1411v0h91h92v0v-1230v0v0l306 1230h152h153v-1411v0h-91h-92v0v1230v0v0z" />
    <glyph glyph-name="uni0419" unicode="&#x419;" horiz-adv-x="1057" 
d="M438 0h-152h-153v1411v0h91h92v0v-1230v0v0l306 1230h152h153v-1411v0h-91h-92v0v1230v0v0zM530 1521q-141 0 -201.5 66.5t-60.5 223.5h139q0 -90 29 -130t94 -40q67 0 96 40t27 130h139q7 -148 -57 -219t-205 -71z" />
    <glyph glyph-name="uni041A" unicode="&#x41a;" horiz-adv-x="1020" 
d="M148 0v1411v0h96h97v0v-573v0h90q123 0 175.5 59.5t52.5 199.5v46q0 147 47 207.5t163 60.5h72v-174h-42q-31 0 -44 -34t-13 -117v-27q0 -188 -85 -253q-33 -25 -88 -41v0q77 -14 120 -50q82 -67 103 -261l30 -279q6 -52 14.5 -91t24.5 -83h-98h-99q-15 27 -23.5 63
t-15.5 97l-28 254q-16 141 -63 201.5t-143 60.5h-150v0v-677v0h-96h-97v0z" />
    <glyph glyph-name="uni041B" unicode="&#x41b;" horiz-adv-x="1041" 
d="M717 1252v0h-314v0v-908q0 -173 -75 -267t-214 -94h-66v170h44q63 0 90.5 45t27.5 146v0v1067v0h700v0v-1411h-96h-97v0v1252z" />
    <glyph glyph-name="uni041C" unicode="&#x41c;" horiz-adv-x="1397" 
d="M314 0v0h-89h-90v0v1411v0h157h157v0l256 -1137v0v0l247 1137v0h157h157v0v-1411v0h-89h-90v0v1225v0l-289 -1225h-97h-97l-290 1229v0v-1229z" />
    <glyph glyph-name="uni041D" unicode="&#x41d;" horiz-adv-x="1057" 
d="M133 0v1411v0h96h97v0v-606v0h408v0v606v0h96h97v0v-1411v0h-96h-97v0v646v0h-408v0v-646v0h-96h-97v0z" />
    <glyph glyph-name="uni041E" unicode="&#x41e;" horiz-adv-x="1057" 
d="M535 -17q-229 0 -315 102.5t-86 373.5v520q0 238 94 343.5t307 105.5q217 0 309 -105t92 -351v-592q0 -210 -94 -303.5t-307 -93.5v0zM535 142q110 0 159 65.5t49 212.5v592q0 146 -44.5 201.5t-163.5 55.5q-110 0 -159 -69t-49 -224v-520q0 -179 44.5 -246.5
t163.5 -67.5v0z" />
    <glyph glyph-name="uni041F" unicode="&#x41f;" horiz-adv-x="1057" 
d="M326 0h-96h-97v0v1411v0h794v0v-1411v0h-96h-97v0v1252v0h-408v0v-1252v0z" />
    <glyph glyph-name="uni0420" unicode="&#x420;" horiz-adv-x="944" 
d="M135 0v1411v0h96v0h222q243 0 335 -84.5t92 -308.5v15q0 -216 -100.5 -312t-326.5 -96h-125v0v-625v0h-96h-97v0zM328 784v0h125q136 0 185 51.5t49 193.5v-15q0 136 -50.5 187t-183.5 51h-125v0v-468z" />
    <glyph glyph-name="uni0421" unicode="&#x421;" horiz-adv-x="1020" 
d="M899 459v-42q7 -230 -80 -332t-289 -102q-199 0 -294.5 94.5t-95.5 291.5v628q0 228 93.5 329.5t304.5 101.5q200 0 286 -92q77 -80 76 -245l-1 -47v-42h-193v42q4 128 -31.5 176.5t-134.5 48.5q-110 0 -158.5 -56t-48.5 -183v-628q0 -148 41 -204t150 -56
q99 0 141.5 64.5t40.5 210.5v42h193z" />
    <glyph glyph-name="uni0422" unicode="&#x422;" horiz-adv-x="982" 
d="M399 0v1252v0h-325v0v79v80v0h843v0v-79v-80v0h-325v0v-1252v0h-96h-97v0z" />
    <glyph glyph-name="uni0423" unicode="&#x423;" horiz-adv-x="944" 
d="M444 0v0h-99h-99v0l141 432v0l-323 979v0h105h105v0l206 -686v0v0l218 686v0h99h99v0z" />
    <glyph glyph-name="uni0424" unicode="&#x424;" horiz-adv-x="1238" 
d="M722 1411v0v-140v0q215 -11 299 -89q95 -87 95 -320v-293q0 -227 -104 -328q-91 -89 -290 -99v0v-142v0h-96h-97v0v142v0q-213 8 -300 91q-95 92 -95 336v293q0 216 104 312q94 86 291 96v0v141v0h96h97zM923 860q0 143 -54 197q-42 44 -147 53v0v-807v0q96 9 143 60
q58 62 58 204v0v293zM529 1109v0q-96 -9 -144 -57q-58 -59 -58 -192v-293q0 -152 54 -210q46 -47 148 -56v0v808z" />
    <glyph glyph-name="uni0425" unicode="&#x425;" horiz-adv-x="1057" 
d="M70 0l354 746v0l-313 665v0h105h106v0l216 -511v0v0l226 511v0h98h99v0l-317 -678v0l333 -733v0h-103h-104v0l-238 560v0v0l-257 -560v0h-102h-103v0z" />
    <glyph glyph-name="uni0426" unicode="&#x426;" horiz-adv-x="1057" 
d="M133 0v0v1411v0h96h97v0v-1252v0h408v0v1252v0h96h97v0v-1252h96v-454h-193v295h-697z" />
    <glyph glyph-name="uni0427" unicode="&#x427;" horiz-adv-x="951" 
d="M474 732q52 0 102 16t66 39v0v623v0h96h97v0v-1411v0h-96h-97v0v584v0v0q-107 -39 -186 -39q-172 0 -254.5 82.5t-82.5 254.5v529v0h96h97v0v-475q0 -106 39 -154.5t123 -48.5z" />
    <glyph glyph-name="uni0428" unicode="&#x428;" horiz-adv-x="1657" 
d="M133 0v0v1411v0h96h97v0v-1252v0h408v0v1252v0h96h97v0v-1252v0h407v0v1252v0h96h97v0v-1411v0h-1394z" />
    <glyph glyph-name="uni0429" unicode="&#x429;" horiz-adv-x="1657" 
d="M133 0v0v1411v0h96h97v0v-1252v0h408v0v1252v0h96h97v0v-1252v0h407v0v1252v0h96h97v0v-1252h96v-454h-193v295h-1297z" />
    <glyph glyph-name="uni042A" unicode="&#x42a;" horiz-adv-x="1225" 
d="M119 1411h418v0v-581v0h143q258 0 359.5 -88.5t101.5 -314.5v-8q0 -218 -115.5 -318.5t-365.5 -100.5h-220v0h-96v0v1252v0h-225v0v79v80v0zM537 671v-512v0h123q150 0 219 61.5t69 195.5v8q0 138 -59 192.5t-209 54.5h-143v0z" />
    <glyph glyph-name="uni042B" unicode="&#x42b;" horiz-adv-x="1473" 
d="M140 0v1411v0h96h97v0v-581v0h143q258 0 359.5 -88.5t101.5 -314.5v-8q0 -218 -115.5 -318.5t-365.5 -100.5h-220v0h-96v0zM333 671v-512v0h123q150 0 219 61.5t69 195.5v8q0 138 -59 192.5t-209 54.5h-143v0zM1150 0v1411v0h96h97v0v-1411v0h-96h-97v0z" />
    <glyph glyph-name="uni042C" unicode="&#x42c;" horiz-adv-x="1020" 
d="M140 0v1411v0h96h97v0v-581v0h143q258 0 359.5 -88.5t101.5 -314.5v-8q0 -218 -115.5 -318.5t-365.5 -100.5h-220v0h-96v0zM333 671v-512v0h123q150 0 219 61.5t69 195.5v8q0 138 -59 192.5t-209 54.5h-143v0z" />
    <glyph glyph-name="uni042D" unicode="&#x42d;" horiz-adv-x="1020" 
d="M141 459h193v-42q-2 -146 40.5 -210.5t141.5 -64.5q109 0 150 56t41 204v244v0h-283v159h283v0v225q0 127 -45 183t-146 56q-99 0 -142.5 -53.5t-39.5 -171.5v-42h-193v42l-1 40q-1 159 87 246q97 98 295 98q200 0 289 -101.5t89 -329.5v-628q0 -197 -95.5 -291.5
t-294.5 -94.5q-202 0 -289 102t-80 332v42z" />
    <glyph glyph-name="uni042E" unicode="&#x42e;" horiz-adv-x="1439" 
d="M130 0v1411v0h96h97v0v-606v0h193v0v174q0 238 94 343.5t307 105.5q229 0 315 -96.5t86 -352.5v-520q0 -252 -94 -364t-307 -112q-229 0 -315 102.5t-86 373.5v187v0h-193v0v-646v0h-96h-97v0zM917 1269q-110 0 -159 -69t-49 -224v-520q0 -179 44.5 -246.5t163.5 -67.5
q110 0 159 74t49 240v520q0 167 -44.5 230t-163.5 63v0z" />
    <glyph glyph-name="uni042F" unicode="&#x42f;" horiz-adv-x="990" 
d="M873 0v1411v0h-97v0h-350q-175 0 -259 -86t-84 -266v14q0 -193 95 -279q63 -58 182 -77v0q-128 -9 -178 -60q-59 -61 -62 -236q-2 -127 -12 -213l-4 -33q-7 -55 -14.5 -94t-19.5 -80h101h101q14 65 20.5 101t8.5 59l3 30q9 88 11 195q2 137 51.5 195t162.5 58h150v0v-639
v0h97h97v0zM679 798v0h-153q-145 0 -197.5 55.5t-52.5 209.5v-14q0 116 53.5 159.5t196.5 43.5h153v0v-454z" />
    <glyph glyph-name="uni0430" unicode="&#x430;" 
d="M326 -21q-112 0 -170 71t-58 207v-2q0 195 95 271.5t336 76.5h23v0v117q0 70 -31.5 107.5t-90.5 37.5q-62 0 -95.5 -42t-33.5 -120v0h-181v0q-4 141 77 220.5t230 79.5q160 0 234 -72t74 -227v-704v0v0h-183v0v102v0q-6 -17 -17 -33q-59 -90 -209 -90zM552 376v91v0h-40
q-112 0 -170.5 -52.5t-58.5 -152.5v2q0 -79 26 -113t86 -34q81 0 121 66t36 193v0z" />
    <glyph glyph-name="uni0431" unicode="&#x431;" 
d="M419 -21q-182 0 -251 128q-66 126 -67 454v10q1 434 68 600.5t244 175.5q78 4 116.5 24t38.5 57h138q-8 -105 -78 -160t-205 -62q-99 -5 -136 -141q-16 -57 -25 -151v0q69 89 188 89q149 0 218 -86t69 -273v-286q0 -182 -83 -281q-82 -98 -235 -98zM419 865
q-72 0 -103.5 -52.5t-31.5 -171.5v-286q0 -136 29 -187t106 -51q72 0 103.5 56t31.5 182v286q0 128 -29 176t-106 48z" />
    <glyph glyph-name="uni0432" unicode="&#x432;" horiz-adv-x="706" 
d="M85 0v982v0h91v0h152q140 0 207 -58.5t67 -179.5v-24q0 -120 -61 -174q-33 -29 -92 -43v0q77 -13 115 -44q63 -51 63 -187v-25q0 -133 -64.5 -190t-215.5 -57h-171v0h-91v0zM268 843v-272v0h66q45 0 65 28.5t20 92.5v24q0 65 -22.5 96t-68.5 31h-60v0zM268 433v-295v0h79
q51 0 74 32.5t23 105.5v25q0 73 -24 102.5t-82 29.5h-70v0z" />
    <glyph glyph-name="uni0433" unicode="&#x433;" horiz-adv-x="741" 
d="M285 0v0h-91h-92v0v982v0h568v-68v-68v0h-385v0v-846z" />
    <glyph glyph-name="uni0434" unicode="&#x434;" horiz-adv-x="853" 
d="M212 982v0h492v0v-846h96v-341h-183v205h-401v-205h-183v341h105q17 69 33 174q41 284 41 672zM521 846v0h-127v0q-7 -301 -41 -537q-15 -101 -32 -173v0h200v0v710z" />
    <glyph glyph-name="uni0435" unicode="&#x435;" horiz-adv-x="793" 
d="M404 -21q-177 0 -249 85.5t-72 293.5v286q0 183 78.5 271t242.5 88q167 0 244.5 -86t77.5 -273v-217v0h-460v0v-72q0 -145 27 -191.5t111 -46.5q72 0 105.5 36.5t30.5 112.5v29h183v-29q7 -146 -71.5 -216.5t-247.5 -70.5zM543 563v0v78q0 128 -30 176t-109 48
q-73 0 -105.5 -52.5t-32.5 -171.5v-78v0h277z" />
    <glyph glyph-name="uni0436" unicode="&#x436;" horiz-adv-x="1098" 
d="M653 466v-466h-91h-92v0v466v0h-39q-68 0 -100 -38.5t-41 -128.5l-13 -138q-6 -60 -14 -96t-23 -64h-90h-91q15 44 23 83t13 91l14 152q13 139 79 188q20 15 53 26v0l-25 10q-67 35 -67 138v67q0 45 -7 63.5t-24 18.5h-27v144h47q96 0 135.5 -42t39.5 -145v-79
q0 -62 37.5 -87.5t119.5 -26.5v0v380v0h91h92v0v-380v0q82 2 119 27t37 87v79q0 103 40 145t137 42h47v-144h-27q-18 0 -25.5 -18.5t-7.5 -63.5v-67q0 -103 -68 -139l-24 -10v0q33 -10 53 -26q66 -48 79 -187l14 -152q5 -52 13 -91t23 -83h-90h-91q-15 28 -23 64t-14 96
l-13 138q-9 90 -41 128.5t-100 38.5h-38v0z" />
    <glyph glyph-name="uni0437" unicode="&#x437;" horiz-adv-x="755" 
d="M380 -21q-179 0 -244.5 64t-60.5 234v42h183v-42q-1 -91 25 -125.5t97 -34.5q72 0 97 26.5t25 103.5v71q0 71 -26 97.5t-96 26.5h-91v136h100q64 0 88.5 24.5t24.5 88.5v66q0 60 -25 84t-88 24q-61 0 -87.5 -29.5t-24.5 -96.5v-42h-183v42q-8 127 69 195.5t226 68.5
q139 0 217.5 -54.5t78.5 -151.5v-92q0 -119 -67 -168q-25 -17 -64 -30v0q33 -12 58 -30q73 -53 73 -168v-99q0 -120 -73 -175.5t-232 -55.5v0z" />
    <glyph glyph-name="uni0438" unicode="&#x438;" 
d="M335 0h-116h-117v982v0h79h80v0v-766v0v0l245 766h116h117v-982v0h-79h-80v0v766v0v0z" />
    <glyph glyph-name="uni0439" unicode="&#x439;" 
d="M335 0h-116h-117v982v0h79h80v0v-766v0v0l245 766h116h117v-982v0h-79h-80v0v766v0v0zM420 1098q-139 0 -198.5 66.5t-59.5 223.5h139q0 -90 28 -130t91 -40q65 0 93.5 40t26.5 130h139q9 -152 -52.5 -221t-206.5 -69z" />
    <glyph glyph-name="uni043A" unicode="&#x43a;" 
d="M122 0v982v0h91h92v0v-379v0q106 -1 154 25t49 88l1 79q2 103 42.5 145t138.5 42h54v-144h-31q-21 0 -30 -18.5t-10 -63.5l-1 -67q-2 -103 -79 -139l-25 -9v0q38 -12 62 -27q76 -48 91 -187l17 -152q7 -55 16 -94t23 -80h-90h-91q-15 28 -24 64t-16 96l-15 138
q-10 90 -54 128.5t-137 38.5h-45v0v-466v0h-91h-92v0z" />
    <glyph glyph-name="uni043B" unicode="&#x43b;" horiz-adv-x="819" 
d="M544 846v0h-243v0v-581q0 -137 -65 -211.5t-185 -74.5h-58v156h23q54 0 78 30.5t24 99.5v0v717v0h609v0v-982h-91h-92v0v846z" />
    <glyph glyph-name="uni043C" unicode="&#x43c;" horiz-adv-x="1187" 
d="M284 0v0h-85h-85v0v982v0h149h149v0l187 -737v0v0l179 737v0h149h149v0v-982v0h-85h-85v0v610q0 40 2 134.5t3 101.5q-1 -8 -24 -100t-33 -129l-162 -617h-97h-97l-162 617q-10 38 -33 130t-24 99q1 -8 3 -102t2 -134v-610z" />
    <glyph glyph-name="uni043D" unicode="&#x43d;" 
d="M102 0v982v0h91h92v0v-404v0h271v0v404v0h91h92v0v-982v0h-91h-92v0v442v0h-271v0v-442v0h-91h-92v0z" />
    <glyph glyph-name="uni043E" unicode="&#x43e;" 
d="M419 -21q-165 0 -241.5 91t-76.5 288v286q0 172 82.5 265.5t235.5 93.5q165 0 241.5 -86t76.5 -273v-286q0 -201 -74.5 -290t-243.5 -89v0zM419 117q72 0 103.5 52.5t31.5 170.5v286q0 124 -32.5 181.5t-102.5 57.5q-72 0 -103.5 -54.5t-31.5 -177.5v-286
q0 -131 29 -180.5t106 -49.5v0z" />
    <glyph glyph-name="uni043F" unicode="&#x43f;" 
d="M285 0h-91h-92v0v982v0h637v0v-982v0h-91h-92v0v846v0h-271v0v-846v0z" />
    <glyph glyph-name="uni0440" unicode="&#x440;" 
d="M108 982v0h91h92v0v-108l1 1q94 128 216 128q120 0 179.5 -80t59.5 -240v-364q0 -177 -61 -258.5t-193 -81.5q-131 0 -192 78l-10 13v0v-437v0h-91h-92v0v1349zM435 117q64 0 97 54.5t33 158.5v364q0 85 -32 127t-97 42q-74 0 -110.5 -56t-34.5 -168v0v-335v0
q0 -96 35 -141.5t109 -45.5z" />
    <glyph glyph-name="uni0441" unicode="&#x441;" horiz-adv-x="793" 
d="M714 309v-29q5 -154 -68 -227.5t-230 -73.5q-163 0 -238.5 79.5t-75.5 252.5v327q0 197 72 281t242 84q153 0 222 -71q64 -67 64 -204v-21v-29h-183v29q4 82 -21.5 119.5t-83.5 37.5q-72 0 -100.5 -41.5t-28.5 -146.5v-358q0 -115 27 -158t99 -43q65 0 94.5 40t25.5 123
v29h183z" />
    <glyph glyph-name="uni0442" unicode="&#x442;" horiz-adv-x="721" 
d="M274 0v846v0h-227v0v68v68v0h637v0v-68v-68v0h-227v0v-846v0h-91h-92v0z" />
    <glyph glyph-name="uni0443" unicode="&#x443;" 
d="M405 -363v0h-85h-85v0l103 343v0l-271 1002v0h93h93v0l169 -728v0v0l177 728v0h87h87v0z" />
    <glyph glyph-name="uni0444" unicode="&#x444;" horiz-adv-x="1231" 
d="M527 1411v0h91h92v0v-496v0q57 88 190 88q123 0 180 -77t57 -243v-364q0 -187 -53.5 -263.5t-184.5 -76.5q-125 0 -183 96l-6 9v0v-451v0h-91h-92v0v451v0l-6 -9q-58 -96 -183 -96q-123 0 -180 87.5t-57 277.5v313q0 190 53.5 268t183.5 78q135 0 189 -90v0v498zM955 673
v0q0 96 -29.5 143t-90.5 47q-74 0 -100.5 -55.5t-24.5 -203.5v0v-228v0q0 -133 32 -196t99 -63q60 0 87 38t27 123v0v395zM283 363v0q0 -124 28 -185t85 -61q75 0 103 55.5t28 203.5v0v228v0q2 148 -24.5 203.5t-99.5 55.5q-64 0 -92 -44t-28 -143v0v-313z" />
    <glyph glyph-name="uni0445" unicode="&#x445;" horiz-adv-x="793" 
d="M59 0l251 503v0l-221 479v0h97h97v0l130 -321v0v0l122 321v0h88h88v0l-217 -493v0l221 -489v0h-93h-94v0l-135 349v0v0l-155 -349v0h-89h-90v0z" />
    <glyph glyph-name="uni0446" unicode="&#x446;" 
d="M102 0v0v982v0h91h92v0v-846v0h271v0v846v0h91h92v0v-846h96v-341h-183v205h-550z" />
    <glyph glyph-name="uni0447" unicode="&#x447;" horiz-adv-x="789" 
d="M403 530q33 0 69 17t53 40v0v395v0h91h92v0v-982v0h-91h-92v0v408v0v0q-87 -36 -148 -36q-140 0 -207.5 67.5t-67.5 207.5v335v0h91h92v0v-304q0 -77 28.5 -112.5t89.5 -35.5z" />
    <glyph glyph-name="uni0448" unicode="&#x448;" horiz-adv-x="1285" 
d="M102 0v0v982v0h91h92v0v-846v0h271v0v846v0h91h92v0v-846v0h271v0v846v0h91h92v0v-982v0h-1091z" />
    <glyph glyph-name="uni0449" unicode="&#x449;" horiz-adv-x="1285" 
d="M102 0v0v982v0h91h92v0v-846v0h271v0v846v0h91h92v0v-846v0h271v0v846v0h91h92v0v-846h96v-341h-183v205h-1004z" />
    <glyph glyph-name="uni044A" unicode="&#x44a;" horiz-adv-x="907" 
d="M74 982h349v0v-403v0h72q181 0 249 -58t68 -212v-28q0 -149 -77 -215t-251 -66h-153v0h-91v0v846v0h-166v0v68v68v0zM423 441v-303v0h61q77 0 111 33t34 107v28q0 77 -29 106t-105 29h-72v0z" />
    <glyph glyph-name="uni044B" unicode="&#x44b;" horiz-adv-x="1038" 
d="M101 0v982v0h91h92v0v-403v0h72q181 0 249 -58t68 -212v-28q0 -149 -77 -215t-251 -66h-153v0h-91v0zM284 441v-303v0h61q77 0 111 33t34 107v28q0 77 -29 106t-105 29h-72v0zM768 0v982v0h91h92v0v-982v0h-91h-92v0z" />
    <glyph glyph-name="uni044C" unicode="&#x44c;" horiz-adv-x="767" 
d="M101 0v982v0h91h92v0v-403v0h72q181 0 249 -58t68 -212v-28q0 -149 -77 -215t-251 -66h-153v0h-91v0zM284 441v-303v0h61q77 0 111 33t34 107v28q0 77 -29 106t-105 29h-72v0z" />
    <glyph glyph-name="uni044D" unicode="&#x44d;" horiz-adv-x="793" 
d="M102 309h183v-29q-4 -83 25.5 -123t94.5 -40q72 0 99 43t27 157v106v0h-215v136h215v0v121q0 98 -32 141.5t-104 43.5q-61 0 -87.5 -38t-22.5 -120v-29h-183v29v21q-1 137 65 204q70 71 226 71q170 0 245.5 -81.5t75.5 -265.5v-363q0 -160 -77 -237t-237 -77
q-157 0 -230 73.5t-68 227.5v29z" />
    <glyph glyph-name="uni044E" unicode="&#x44e;" horiz-adv-x="1193" 
d="M97 0v982v0h91h92v0v-404v0h183v0v66q0 172 82.5 265.5t235.5 93.5q165 0 241.5 -86t76.5 -273v-286q0 -182 -82.5 -280.5t-235.5 -98.5q-165 0 -241.5 91t-76.5 288v84v0h-183v0v-442v0h-91h-92v0zM781 865q-72 0 -103.5 -52.5t-31.5 -171.5v-286q0 -136 29 -187
t106 -51q72 0 103.5 56t31.5 182v286q0 128 -29 176t-106 48v0z" />
    <glyph glyph-name="uni044F" unicode="&#x44f;" horiz-adv-x="816" 
d="M732 0v982v0h-92v0h-293q-137 0 -217.5 -62t-80.5 -167v-24q0 -131 79 -185q49 -33 142 -46v0q-97 -6 -137 -40q-50 -42 -54 -164q-2 -68 -8 -119q-8 -61 -15.5 -100t-17.5 -74h93h93q10 45 16 81t12 79q6 51 7 108q3 87 41 124.5t124 37.5h124v0v-431v0h92h92v0z
M548 569v0h-120q-106 0 -151 33t-45 111v24q0 58 45 82.5t151 24.5h120v0v-275z" />
    <glyph glyph-name="uni0451" unicode="&#x451;" horiz-adv-x="793" 
d="M404 -21q-177 0 -249 85.5t-72 293.5v286q0 183 78.5 271t242.5 88q167 0 244.5 -86t77.5 -273v-217v0h-460v0v-72q0 -145 27 -191.5t111 -46.5q72 0 105.5 36.5t30.5 112.5v29h183v-29q7 -146 -71.5 -216.5t-247.5 -70.5zM543 563v0v78q0 128 -30 176t-109 48
q-73 0 -105.5 -52.5t-32.5 -171.5v-78v0h277zM161 1341h194v-182h-194v182zM480 1341h194v-182h-194v182z" />
    <glyph glyph-name="uni0452" unicode="&#x452;" horiz-adv-x="840" 
d="M111 0v1411v0h91h92v0v-487v0v0q92 79 199 79q122 0 188.5 -66.5t66.5 -188.5v-898q0 -136 -42.5 -187t-155.5 -51q-54 0 -100 14v126l25 -2q57 0 73.5 26.5t16.5 116.5v766q0 76 -32 116t-93 40q-74 0 -110 -40t-36 -124v0v-651v0h-91h-92v0zM-25 1147v136h510v-136
h-510z" />
    <glyph glyph-name="uni0453" unicode="&#x453;" horiz-adv-x="741" 
d="M285 0v0h-91h-92v0v982v0h568v-68v-68v0h-385v0v-846zM276 1095l117 309h216l-187 -309h-146z" />
    <glyph glyph-name="uni0454" unicode="&#x454;" horiz-adv-x="793" 
d="M714 309v-29q5 -154 -68 -227.5t-230 -73.5q-160 0 -237 77t-77 237v363q0 184 75.5 265.5t245.5 81.5q156 0 226 -71q66 -67 65 -204v-21v-29h-183v29q4 82 -22.5 120t-87.5 38q-72 0 -104 -43.5t-32 -141.5v-121v0h215v-136h-215v0v-106q0 -114 27 -157t99 -43
q65 0 94.5 40t25.5 123v29h183z" />
    <glyph glyph-name="uni0455" unicode="&#x455;" horiz-adv-x="755" 
d="M490 697v29q3 72 -22 105.5t-82 33.5q-52 0 -78 -24.5t-26 -73.5q0 -50 26 -82q26 -31 121 -98q153 -108 205 -172q51 -64 51 -147q0 -139 -79.5 -214t-225.5 -75q-157 0 -233 73q-73 68 -72 202v17v29h180v-29q-4 -77 27.5 -115.5t97.5 -38.5q63 0 94 30t31 90
q0 53 -35 95t-139 115q-137 96 -183 157t-46 145q0 122 74 188t210 66q152 0 220 -66q65 -62 64 -192v-19v-29h-180z" />
    <glyph glyph-name="uni0456" unicode="&#x456;" horiz-adv-x="378" 
d="M102 0v982v0h91h92v0v-982v0h-91h-92v0zM97 1409h192v-183h-192v183z" />
    <glyph glyph-name="uni0457" unicode="&#x457;" horiz-adv-x="453" 
d="M135 0v982v0h91h92v0v-982v0h-91h-92v0zM-30 1341h194v-182h-194v182zM289 1341h194v-182h-194v182z" />
    <glyph glyph-name="uni0458" unicode="&#x458;" horiz-adv-x="378" 
d="M107 982v0h91h92v0v-1143q0 -123 -45.5 -175t-151.5 -52q-56 0 -100 13v127l38 -2q49 0 62.5 23.5t13.5 107.5v0v1101zM103 1409h192v-183h-192v183z" />
    <glyph glyph-name="uni0459" unicode="&#x459;" horiz-adv-x="1199" 
d="M533 846v0h-232v0v-581q0 -137 -65 -211.5t-185 -74.5h-58v156h23q54 0 78 30.5t24 99.5v0v717v0h598v0v-403v0h72q181 0 249 -58t68 -212v-28q0 -149 -77 -215t-251 -66h-153h-91v0v846zM716 441v-303v0h61q77 0 111 33t34 107v28q0 77 -29 106t-105 29h-72v0z" />
    <glyph glyph-name="uni045A" unicode="&#x45a;" horiz-adv-x="1211" 
d="M102 0v982v0h91h92v0v-404v0h259v0v404v0h91h92v0v-403v0h72q181 0 249 -58t68 -212v-28q0 -149 -77 -215t-251 -66h-153h-91v0v442v0h-259v0v-442v0h-91h-92v0zM727 441v-303v0h61q77 0 111 33t34 107v28q0 77 -29 106t-105 29h-72v0z" />
    <glyph glyph-name="uni045B" unicode="&#x45b;" horiz-adv-x="840" 
d="M111 0v1411v0h91h92v0v-487v0v0q92 79 199 79q122 0 188.5 -66.5t66.5 -188.5v-748v0h-91h-92v0v659q0 76 -32 116t-93 40q-74 0 -110 -40t-36 -124v0v-651v0h-91h-92v0zM-25 1147v136h510v-136h-510z" />
    <glyph glyph-name="uni045C" unicode="&#x45c;" 
d="M122 0v982v0h91h92v0v-379v0q106 -1 154 25t49 88l1 79q2 103 42.5 145t138.5 42h54v-144h-31q-21 0 -30 -18.5t-10 -63.5l-1 -67q-2 -103 -79 -139l-25 -9v0q38 -12 62 -27q76 -48 91 -187l17 -152q7 -55 16 -94t23 -80h-90h-91q-15 28 -24 64t-16 96l-15 138
q-10 90 -54 128.5t-137 38.5h-45v0v-466v0h-91h-92v0zM329 1095l117 309h216l-187 -309h-146z" />
    <glyph glyph-name="uni045E" unicode="&#x45e;" 
d="M405 -363v0h-85h-85v0l103 343v0l-271 1002v0h93h93v0l169 -728v0v0l177 728v0h87h87v0zM420 1098q-139 0 -198.5 66.5t-59.5 223.5h139q0 -90 28 -130t91 -40q65 0 93.5 40t26.5 130h139q9 -152 -52.5 -221t-206.5 -69z" />
    <glyph glyph-name="uni045F" unicode="&#x45f;" 
d="M102 0v0v982v0h91h92v0v-846v0h271v0v846v0h91h92v0v-982v0h-228v-205h-183v205h-226z" />
    <glyph glyph-name="uni0490" unicode="&#x490;" horiz-adv-x="855" 
d="M326 0v0h-96h-97v0v1411v0h544v0v282h110v-441h-461v0v-1252z" />
    <glyph glyph-name="uni0491" unicode="&#x491;" horiz-adv-x="703" 
d="M285 0v0h-91h-92v0v982v0h428v0v196h110v-332h-355v0v-846z" />
    <glyph glyph-name="endash" unicode="&#x2013;" horiz-adv-x="944" 
d="M57 566h838v-140h-838v140z" />
    <glyph glyph-name="emdash" unicode="&#x2014;" horiz-adv-x="1360" 
d="M97 566h1168v-140h-1168v140z" />
    <glyph glyph-name="quoteleft" unicode="&#x2018;" horiz-adv-x="453" 
d="M380 1410l-96 -443h-203l174 443h125z" />
    <glyph glyph-name="quoteright" unicode="&#x2019;" horiz-adv-x="453" 
d="M93 967l96 443h203l-174 -443h-125z" />
    <glyph glyph-name="quotesinglbase" unicode="&#x201a;" horiz-adv-x="453" 
d="M93 -211l96 442h203l-174 -442h-125z" />
    <glyph glyph-name="quotedblleft" unicode="&#x201c;" horiz-adv-x="718" 
d="M380 1410l-96 -443h-203l174 443h125zM671 1410l-96 -443h-203l174 443h125z" />
    <glyph glyph-name="quotedblright" unicode="&#x201d;" horiz-adv-x="718" 
d="M93 967l96 443h203l-174 -443h-125zM384 967l96 443h203l-174 -443h-125z" />
    <glyph glyph-name="quotedblbase" unicode="&#x201e;" horiz-adv-x="718" 
d="M93 -211l96 443h203l-174 -443h-125zM384 -211l96 443h203l-174 -443h-125z" />
    <glyph glyph-name="dagger" unicode="&#x2020;" horiz-adv-x="944" 
d="M164 1056h247v0v355h125v-355v0h249v-125h-249v0v-931h-125v931v0h-247v125z" />
    <glyph glyph-name="daggerdbl" unicode="&#x2021;" horiz-adv-x="944" 
d="M164 1056h247v0v355h125v-355v0h249v-125h-249v0v-453v0h249v-125h-249v0v-353h-125v353v0h-247v125h247v0v453v0h-247v125z" />
    <glyph glyph-name="bullet" unicode="&#x2022;" horiz-adv-x="1020" 
d="M510 1103q155 0 262.5 -107.5t107.5 -262.5t-107.5 -262.5t-262.5 -107.5t-262.5 107.5t-107.5 262.5t107.5 262.5t262.5 107.5z" />
    <glyph glyph-name="ellipsis" unicode="&#x2026;" horiz-adv-x="1360" 
d="M149 182h172v-182h-172v182zM593 182h172v-182h-172v182zM1038 182h172v-182h-172v182z" />
    <glyph glyph-name="perthousand" unicode="&#x2030;" horiz-adv-x="1737" 
d="M280 670q-123 0 -165.5 48.5t-42.5 187.5v304q0 122 47 172t161 50v0q117 0 163 -49t46 -173v-304q0 -142 -42 -189t-167 -47v0zM280 1328q-35 0 -50 -27.5t-15 -92.5v-304q0 -82 12 -106t53 -24v0q39 0 52.5 26.5t13.5 103.5v304q0 66 -15 93t-51 27v0zM250 -77
l559 1530h118l-559 -1530h-118zM916 -14q-123 0 -165.5 48.5t-42.5 187.5v304q0 122 47 172t161 50v0q117 0 163 -49t46 -173v-304q0 -142 -42 -189t-167 -47v0zM916 644q-35 0 -50 -27.5t-15 -92.5v-304q0 -82 12 -106t53 -24v0q39 0 52.5 26.5t13.5 103.5v304q0 66 -15 93
t-51 27v0zM1455 -14q-123 0 -165.5 48.5t-42.5 187.5v304q0 122 47 172t161 50v0q117 0 163 -49t46 -173v-304q0 -142 -42 -189t-167 -47v0zM1455 644q-35 0 -50 -27.5t-15 -92.5v-304q0 -82 12 -106t53 -24v0q39 0 52.5 26.5t13.5 103.5v304q0 66 -15 93t-51 27v0z" />
    <glyph glyph-name="guilsinglleft" unicode="&#x2039;" horiz-adv-x="491" 
d="M444 854l-206 -359v0l206 -360h-149l-228 360v0l223 359h154z" />
    <glyph glyph-name="guilsinglright" unicode="&#x203a;" horiz-adv-x="491" 
d="M68 135l206 359v0l-206 360h149l228 -360v0l-223 -359h-154z" />
    <glyph glyph-name="uni2074" unicode="&#x2074;" horiz-adv-x="566" 
d="M297 838h-258v66v67l196 440h102h103v-465v0h100v-108h-100v0v-161h-143v161v0zM297 946v0v353v0v0l-137 -328l-11 -25v0h148z" />
    <glyph glyph-name="uni2116" unicode="&#x2116;" horiz-adv-x="1659" 
d="M317 0v0h-92h-92v0v1411v0h144h145v0l380 -1184v0v0v1184v0h89h90v0v-1411h-136h-136l-392 1222v0v0v-1222zM1341 385q-129 0 -182 55.5t-53 191.5v160q0 122 56.5 178.5t178.5 56.5q127 0 181 -54t54 -181v-160q0 -126 -57.5 -186.5t-177.5 -60.5v0zM1341 487
q33 0 48 33.5t15 109.5v160q0 74 -14 104.5t-49 30.5q-32 0 -47.5 -33t-15.5 -102v-160q0 -84 13 -113.5t50 -29.5v0zM1111 244h460v-166h-460v166z" />
    <glyph glyph-name="trademark" unicode="&#x2122;" horiz-adv-x="1246" 
d="M59 1388h393v-89h-152v-518h-89v518h-152v89zM515 781v607h160l112 -486l112 486h160v-607h-89v559l-129 -559h-108l-129 559v-559h-89z" />
    <glyph glyph-name="uni2215" unicode="&#x2215;" horiz-adv-x="189" 
d="M426 1453l-554 -1524h-118l554 1524h118z" />
    <glyph glyph-name="uni2219" unicode="&#x2219;" horiz-adv-x="453" 
d="M127 836h216v-215h-216v215z" />
    <glyph glyph-name="uniEFED" unicode="&#xefed;" horiz-adv-x="944" 
d="M370 1770h208v-208h-208v208z" />
    <glyph glyph-name="uniEFEE" unicode="&#xefee;" horiz-adv-x="944" 
d="M496 1521q-141 0 -201.5 66.5t-60.5 223.5h139q0 -90 29 -130t94 -40q67 0 96 40t27 130h139q7 -148 -57 -219t-205 -71z" />
    <glyph glyph-name="uniEFEF" unicode="&#xefef;" horiz-adv-x="944" 
d="M224 1694h504v-133h-504v133z" />
    <glyph glyph-name="uniEFF0" unicode="&#xeff0;" horiz-adv-x="944" 
d="M273 1521l114 309h210l-182 -309h-142zM548 1521l114 309h210l-182 -309h-142z" />
    <glyph glyph-name="uniEFF1" unicode="&#xeff1;" horiz-adv-x="944" 
d="M516 -187q0 89 73.5 155.5t209.5 101.5l9 -58q-67 -18 -105 -58t-38 -92q0 -40 32 -64.5t85 -24.5q13 0 28 -1l30 -2v-124q-21 -2 -46 -3t-45 -1q-105 0 -169 47t-64 124z" />
    <glyph glyph-name="uniEFF2" unicode="&#xeff2;" horiz-adv-x="944" 
d="M273 -366l157 269h145l-95 -269h-207z" />
    <glyph glyph-name="uniEFF3" unicode="&#xeff3;" horiz-adv-x="944" 
d="M492 1524q-78 0 -132 54t-54 132t54 132t132 54t132 -54t54 -132t-54 -132t-132 -54v0zM492 1620q38 0 64 26t26 64t-26 64t-64 26t-64 -26t-26 -64t26 -64t64 -26v0z" />
    <glyph glyph-name="uniEFF4" unicode="&#xeff4;" horiz-adv-x="944" 
d="M357 1521l-110 290h128l105 -206v0l105 206h128l-110 -290h-123h-123z" />
    <glyph glyph-name="uniEFF5" unicode="&#xeff5;" horiz-adv-x="944" 
d="M233 1549q0 127 23.5 181.5t78.5 54.5q38 0 73 -15.5t96 -59.5q16 -12 32 -20t23 -8q23 0 34.5 27t6.5 66h105q0 -132 -22.5 -184t-79.5 -52q-25 0 -76.5 23t-92.5 52q-41 28 -55 28q-19 0 -29 -23t-12 -70h-105z" />
    <glyph glyph-name="uniEFF6" unicode="&#xeff6;" horiz-adv-x="944" 
d="M219 1755h194v-193h-194v193zM540 1755h194v-193h-194v193z" />
    <glyph glyph-name="uniEFF7" unicode="&#xeff7;" horiz-adv-x="944" 
d="M599 1811l110 -290h-128l-105 206v0l-105 -206h-128l110 290h123h123z" />
    <glyph glyph-name="uniEFF8" unicode="&#xeff8;" horiz-adv-x="944" 
d="M436 1521l-181 309h213l110 -309h-142z" />
    <glyph glyph-name="uniEFF9" unicode="&#xeff9;" horiz-adv-x="944" 
d="M411 1521l114 309h210l-182 -309h-142z" />
    <glyph glyph-name="glyph106" horiz-adv-x="0" 
d="M-1 1529q201 0 339.5 -138.5t138.5 -339.5q0 -200 -138.5 -338.5t-339.5 -138.5q-200 0 -338.5 138.5t-138.5 338.5q0 201 138.5 339.5t338.5 138.5v0zM412 1051q0 173 -120 293t-293 120t-292.5 -120t-119.5 -293t119.5 -292.5t292.5 -119.5t293 119.5t120 292.5v0z" />
    <glyph glyph-name="glyph107" horiz-adv-x="0" 
d="M215 866q-24 -34 -81 -57t-115 -23q-110 0 -186.5 79.5t-76.5 194.5q0 116 75.5 195.5t184.5 79.5q58 0 114.5 -22t79.5 -54l-58 -62q-19 26 -58.5 44.5t-77.5 18.5q-78 0 -131.5 -58t-53.5 -142t54.5 -141.5t133.5 -57.5q37 0 77 19.5t61 47.5z" />
    <glyph glyph-name="glyph113" horiz-adv-x="0" 
d="M-1 1524q201 0 339.5 -138.5t138.5 -339.5q0 -200 -138.5 -338.5t-339.5 -138.5q-200 0 -338.5 138.5t-138.5 338.5q0 201 138.5 339.5t338.5 138.5v0zM412 1046q0 173 -120 293t-293 120t-292.5 -120t-119.5 -293t119.5 -292.5t292.5 -119.5t293 119.5t120 292.5v0z" />
    <glyph glyph-name="glyph114" horiz-adv-x="0" 
d="M-160 807v506h187q62 0 104.5 -42.5t42.5 -104.5t-43 -105q-20 -20 -46 -31l89 -223h-91l-84 212v0h-84v-212h-75zM99 1166q0 30 -21 51t-51 21h-112v0v-72v-72h112q30 0 51 21t21 51z" />
    <glyph glyph-name="glyph135" horiz-adv-x="0" 
d="M-61 0l-181 309h213l110 -309h-142z" />
    <glyph glyph-name="glyph137" horiz-adv-x="0" 
d="M-107 0l114 309h210l-182 -309h-142z" />
    <glyph glyph-name="glyph139" horiz-adv-x="0" 
d="M123 290l110 -290h-128l-105 206v0l-105 -206h-128l110 290h123h123z" />
    <glyph glyph-name="glyph141" horiz-adv-x="0" 
d="M-236 28q0 127 23.5 181.5t78.5 54.5q38 0 73 -15.5t96 -59.5q16 -12 32 -20t23 -8q23 0 34.5 27t6.5 66h105q0 -132 -22.5 -184t-79.5 -52q-25 0 -76.5 23t-92.5 52q-41 28 -55 28q-19 0 -29 -23t-12 -70h-105z" />
    <glyph glyph-name="glyph143" horiz-adv-x="0" 
d="M-257 234h194v-193h-194v193zM64 234h194v-193h-194v193z" />
    <glyph glyph-name="glyph145" horiz-adv-x="0" 
d="M0 3q-78 0 -132 54t-54 132t54 132t132 54t132 -54t54 -132t-54 -132t-132 -54v0zM0 99q38 0 64 26t26 64t-26 64t-64 26t-64 -26t-26 -64t26 -64t64 -26v0z" />
    <glyph glyph-name="glyph148" horiz-adv-x="0" 
d="M-229 -366l157 269h145l-95 -269h-207z" />
    <glyph glyph-name="glyph174" horiz-adv-x="0" 
d="M-63 0l-187 309h218l115 -309h-146z" />
    <glyph glyph-name="glyph176" horiz-adv-x="0" 
d="M-110 0l117 309h216l-187 -309h-146z" />
    <glyph glyph-name="glyph178" horiz-adv-x="0" 
d="M135 290l96 -290h-132l-99 206v0l-99 -206h-132l96 290h135h135z" />
    <glyph glyph-name="glyph180" horiz-adv-x="0" 
d="M-237 47q0 127 23.5 181.5t79.5 54.5q38 0 73 -15.5t96 -59.5q16 -12 32 -20t24 -8q23 0 34.5 27t6.5 66h105q0 -132 -22.5 -184t-80.5 -52q-25 0 -76.5 23t-92.5 52q-17 12 -33.5 20t-22.5 8q-19 0 -29 -23t-12 -70h-105z" />
    <glyph glyph-name="glyph182" horiz-adv-x="0" 
d="M-256 246h194v-182h-194v182zM63 246h194v-182h-194v182z" />
    <glyph glyph-name="glyph184" horiz-adv-x="0" 
d="M0 3q-78 0 -131.5 53.5t-53.5 131.5t53.5 132t131.5 54t132 -54t54 -132t-54 -131.5t-132 -53.5v0zM0 99q38 0 64 26t26 63q0 38 -26 64t-64 26q-37 0 -63 -26t-26 -64q0 -37 26 -63t63 -26v0z" />
    <glyph glyph-name="glyph187" horiz-adv-x="0" 
d="M-229 -366l157 269h145l-95 -269h-207z" />
    <glyph glyph-name="glyph214" horiz-adv-x="0" 
d="M-252 173h504v-133h-504v133z" />
    <glyph glyph-name="glyph216" horiz-adv-x="0" 
d="M-226 176h452v-113h-452v113z" />
    <glyph glyph-name="glyph218" horiz-adv-x="0" 
d="M0 0q-141 0 -201.5 66.5t-60.5 223.5h139q0 -90 29 -130t94 -40q67 0 96 40t27 130h139q7 -148 -57 -219t-205 -71z" />
    <glyph glyph-name="glyph220" horiz-adv-x="0" 
d="M0 3q-139 0 -198.5 66.5t-59.5 223.5h139q0 -90 28 -130t91 -40q65 0 93.5 40t26.5 130h139q9 -152 -52.5 -221t-206.5 -69z" />
    <glyph glyph-name="glyph222" horiz-adv-x="0" 
d="M-283 -187q0 89 73.5 155.5t209.5 101.5l9 -58q-67 -18 -105 -58t-38 -92q0 -40 32 -64.5t85 -24.5q13 0 28 -1l30 -2v-124q-21 -2 -46 -3t-45 -1q-105 0 -169 47t-64 124z" />
    <glyph glyph-name="glyph224" horiz-adv-x="0" 
d="M-146 -159q0 54 38.5 103.5t107.5 82.5h117q-61 -37 -89 -70.5t-28 -69.5q0 -34 29 -55t76 -21q-42 0 -28.5 -1t79.5 -3v-113q-18 -3 -41.5 -4.5t-43.5 -1.5q-98 0 -158 42q-59 42 -59 111z" />
    <glyph glyph-name="glyph228" horiz-adv-x="0" 
d="M-123 0l-110 290h128l105 -206v0l105 206h128l-110 -290h-123h-123z" />
    <glyph glyph-name="glyph230" horiz-adv-x="0" 
d="M-135 0l-96 290h132l99 -206v0l99 206h132l-96 -290h-135h-135z" />
    <glyph glyph-name="glyph233" horiz-adv-x="0" 
d="M-192 -21q-136 0 -198.5 80t-62.5 254v313q0 192 64 284.5t197 92.5q122 0 192 -87v0v495v0h91h92v0v-1411v0h-91h-92v0v86v0q-80 -107 -192 -107zM-134 860q-72 0 -103 -46t-31 -155v-354q0 -112 25 -149t100 -37q82 0 112.5 57.5t30.5 209.5v289q5 93 -28.5 139
t-105.5 46z" />
    <glyph glyph-name="glyph234" horiz-adv-x="0" 
d="M0 0l76 344h161l-137 -344h-100z" />
    <glyph glyph-name="glyph240" horiz-adv-x="0" 
d="M-104 249h208v-208h-208v208z" />
    <glyph glyph-name="glyph242" horiz-adv-x="0" 
d="M-104 273h208v-208h-208v208z" />
    <glyph glyph-name="glyph250" horiz-adv-x="0" 
d="M-229 -366l157 269h145l-95 -269h-207z" />
    <glyph glyph-name="glyph252" horiz-adv-x="0" 
d="M178 268l-93 -268h-204l154 268h143z" />
    <glyph glyph-name="glyph277" horiz-adv-x="0" 
d="M-200 0l114 309h210l-182 -309h-142zM75 0l114 309h210l-182 -309h-142z" />
    <glyph glyph-name="glyph279" horiz-adv-x="0" 
d="M-208 0l117 309h216l-187 -309h-146zM82 0l117 309h216l-187 -309h-146z" />
    <glyph glyph-name="glyph295" horiz-adv-x="0" 
d="M-229 -366l157 269h145l-95 -269h-207z" />
    <glyph glyph-name="glyph297" horiz-adv-x="0" 
d="M-229 -366l157 269h145l-95 -269h-207z" />
    <glyph glyph-name="glyph342" horiz-adv-x="0" 
d="M0 0q-141 0 -201.5 66.5t-60.5 223.5h139q0 -90 29 -130t94 -40q67 0 96 40t27 130h139q7 -148 -57 -219t-205 -71z" />
    <glyph glyph-name="glyph368" horiz-adv-x="0" 
d="M-398 0v1411v0h96h97v0v-581v0h143q258 0 359.5 -88.5t101.5 -314.5v-8q0 -218 -115.5 -318.5t-365.5 -100.5h-220v0h-96v0zM-205 671v-512v0h123q150 0 219 61.5t69 195.5v8q0 138 -59 192.5t-209 54.5h-143v0z" />
    <glyph glyph-name="glyph369" horiz-adv-x="0" 
d="M-96 0v1411v0h96h97v0v-1411v0h-96h-97v0z" />
    <glyph glyph-name="glyph384" horiz-adv-x="0" 
d="M0 3q-139 0 -198.5 66.5t-59.5 223.5h139q0 -90 28 -130t91 -40q65 0 93.5 40t26.5 130h139q9 -152 -52.5 -221t-206.5 -69z" />
    <glyph glyph-name="glyph403" horiz-adv-x="0" 
d="M-286 0v982v0h91h92v0v-403v0h72q181 0 249 -58t68 -212v-28q0 -149 -77 -215t-251 -66h-153v0h-91v0zM-103 441v-303v0h61q77 0 111 33t34 107v28q0 77 -29 106t-105 29h-72v0z" />
    <glyph glyph-name="glyph404" horiz-adv-x="0" 
d="M-91 0v982v0h91h92v0v-982v0h-91h-92v0z" />
    <glyph glyph-name="glyph441" horiz-adv-x="0" 
d="M184 0v0h-92h-92v0v1411v0h144h145v0l380 -1184v0v0v1184v0h89h90v0v-1411h-136h-136l-392 1222v0v0v-1222z" />
    <glyph glyph-name="glyph442" horiz-adv-x="0" 
d="M235 392q-129 0 -182 55.5t-53 191.5v160q0 122 56.5 178.5t178.5 56.5q127 0 181 -54t54 -181v-160q0 -126 -57.5 -186.5t-177.5 -60.5v0zM235 494q33 0 48 33.5t15 109.5v160q0 74 -14 104.5t-49 30.5q-32 0 -47.5 -33t-15.5 -102v-160q0 -84 13 -113.5t50 -29.5v0z
" />
    <glyph glyph-name="glyph443" horiz-adv-x="0" 
d="M0 265h460v-166h-460v166z" />
    <glyph glyph-name="glyph445" horiz-adv-x="0" 
d="M0 1388h393v-89h-152v-518h-89v518h-152v89z" />
    <glyph glyph-name="glyph446" horiz-adv-x="0" 
d="M0 781v607h160l112 -486l112 486h160v-607h-89v559l-129 -559h-108l-129 559v-559h-89z" />
  </font>
</defs>
</svg>
