<?xml version="1.0" encoding="utf-8"?>
<!-- Generator: Adobe Illustrator 24.3.0, SVG Export Plug-In . SVG Version: 6.00 Build 0)  -->
<svg version="1.1" id="图层_1" xmlns="http://www.w3.org/2000/svg" xmlns:xlink="http://www.w3.org/1999/xlink" x="0px" y="0px"
	 viewBox="0 0 45 14" style="enable-background:new 0 0 45 14;" xml:space="preserve">
<style type="text/css">
	.st0{fill:#FFF000;}
	.st1{fill:#E62129;}
</style>
<g id="图层_1-2">
	<path id="矩形" class="st0" d="M22.5,0.1h20.2c0.5,0,0.9,0.4,0.9,0.9v6.1c0,3.9-3.1,7-7,7H16.4c-0.5,0-0.9-0.4-0.9-0.9V7.1
		C15.5,3.3,18.6,0.1,22.5,0.1C22.5,0.1,22.5,0.1,22.5,0.1z"/>
	<path id="路径-2" class="st1" d="M24.7,11.4c0.4,0,0.8-0.3,0.8-0.7c0,0,0-0.1,0-0.1l0,0V4.5c0-0.4-0.4-0.8-0.8-0.8
		c-0.4,0-0.8,0.4-0.8,0.8c0,0,0,0,0,0l0,0v4l0,0L20.5,4c-0.2-0.2-0.4-0.3-0.7-0.4c-0.4,0-0.8,0.3-0.8,0.7c0,0,0,0.1,0,0.1l0,0v6.1
		c0,0.4,0.4,0.8,0.8,0.8c0.4,0,0.8-0.4,0.8-0.8c0,0,0,0,0,0l0,0v-4l0,0L24,11C24.2,11.2,24.5,11.3,24.7,11.4z M37.6,11.4
		c0.5,0,1-0.3,1.1-0.8l0,0L40,4.7c0-0.1,0-0.2,0-0.4c0-0.4-0.4-0.7-0.8-0.7c0,0,0,0,0,0c-0.5,0-0.8,0.3-0.9,0.7c0,0,0,0,0,0l0,0
		l-0.9,4.5l0,0l-1.4-4.7C36,3.8,35.4,3.6,35,3.7c-0.2,0.1-0.4,0.3-0.5,0.5l0,0l-1.4,4.7l0,0l-0.9-4.5c0-0.5-0.4-0.8-0.9-0.8
		c0,0,0,0,0,0c-0.4,0-0.7,0.3-0.8,0.7c0,0,0,0,0,0c0,0.1,0,0.2,0,0.4l0,0l1.4,5.8c0.1,0.5,0.5,0.8,1.1,0.8c0.5,0,0.9-0.3,1.1-0.8
		l0,0l1.2-4.1l0,0l1.2,4.1C36.6,11.1,37.1,11.4,37.6,11.4z M29.6,11.3c0.4,0,0.7-0.3,0.8-0.7c0,0,0,0,0,0c0-0.4-0.3-0.7-0.7-0.7
		c0,0,0,0-0.1,0h-2V8.2h1.8c0.4,0,0.8-0.3,0.8-0.7c0,0,0,0,0,0c0-0.4-0.3-0.7-0.7-0.7c0,0,0,0-0.1,0h-1.8V5.2h1.9
		c0.4,0,0.7-0.3,0.8-0.7c0,0,0,0,0,0c0-0.4-0.3-0.7-0.7-0.7c0,0,0,0-0.1,0h-2.7c-0.6,0-0.8,0.4-0.8,0.9l0,0v5.9
		c0,0.4,0.3,0.8,0.7,0.8c0,0,0,0,0.1,0L29.6,11.3L29.6,11.3z"/>
</g>
</svg>
