<?xml version="1.0" encoding="UTF-8"?>
<svg width="20px" height="20px" viewBox="0 0 20 20" version="1.1" xmlns="http://www.w3.org/2000/svg" xmlns:xlink="http://www.w3.org/1999/xlink">
    <title>header_search_icon01</title>
    <g id="效果图" stroke="none" stroke-width="1" fill="none" fill-rule="evenodd">
        <g id="211020-首页" transform="translate(-1238.000000, -106.000000)" fill="#065498" fill-rule="nonzero">
            <g id="search" transform="translate(932.000000, 99.000000)">
                <g id="header_search_icon01" transform="translate(306.000000, 7.000000)">
                    <rect id="矩形" opacity="0" x="0" y="0" width="20" height="20"></rect>
                    <path d="M9.16666666,15 C5.91666666,15 3.33333334,12.4166667 3.33333334,9.16666666 C3.33333334,5.91666666 5.91666668,3.33333334 9.16666666,3.33333334 C12.4166666,3.33333334 15,5.91666668 15,9.16666666 C15,12.4166666 12.4166667,15 9.16666666,15 Z M9.16666666,13.3333333 C11.5,13.3333333 13.3333333,11.5 13.3333333,9.16666666 C13.3333333,6.83333332 11.5,5 9.16666666,5 C6.83333332,5 5,6.83333334 5,9.16666666 C5,11.5 6.83333334,13.3333333 9.16666666,13.3333333 Z M14.0833333,13.3333333 L16.4166667,15.6666667 L15.25,16.8333333 L12.9166667,14.5 L14.0833333,13.3333333 Z" id="形状"></path>
                </g>
            </g>
        </g>
    </g>
</svg>