<?xml version="1.0" standalone="no"?>
<!DOCTYPE svg PUBLIC "-//W3C//DTD SVG 1.1//EN" "http://www.w3.org/Graphics/SVG/1.1/DTD/svg11.dtd" >
<svg xmlns="http://www.w3.org/2000/svg">
  <metadata>Created by iconfont</metadata>
  <defs>
  <font id="iconfont" horiz-adv-x="1024">
    <font-face
      font-family="iconfont"
      font-weight="400"
      font-stretch="normal"
      units-per-em="1024"
      ascent="896"
      descent="-128"
    />
      <missing-glyph />
      
      <glyph glyph-name="qq" unicode="&#59522;" d="M891.62334815 261.18068148c-19.41807408 62.38056297-41.74885925 114.80936297-76.09457778 200.61297777C820.86874075 687.16468148 727.17653333 869.45185185 511.39318518 869.45185185 293.18257778 869.45185185 201.55354075 683.52379259 207.37896297 461.79365925c-34.46708148-85.92497778-56.6765037-137.98968889-76.09457779-200.61297777-41.26340741-132.89244445-27.91348148-187.86986667-17.71899259-189.0834963 21.84533333-2.66998518 85.07543703 100.00308148 85.07543704 100.00308149 0-59.46785185 30.58346667-137.01878518 96.84764445-192.96711112-32.03982222-9.8304-104.00805925-36.28752592-86.89588149-65.29327407 13.83537778-23.42305185 238.11413333-14.92764445 302.80059259-7.64586666 64.68645925-7.28177778 288.96521482-15.77718518 302.8005926 7.64586666 17.11217778 28.88438518-54.97742222 55.46287408-86.89588148 65.29327407 66.26417778 56.06968889 96.84764445 133.62062222 96.84764445 192.96711112 0 0 63.2301037-102.67306667 85.07543703-100.00308149 10.31585185 1.33499259 23.66577778 56.31241482-17.59762963 189.0834963z"  horiz-adv-x="1024" />
      
      <glyph glyph-name="app" unicode="&#58962;" d="M502.647516 480.507916l0-85.939251 24.592418 0c33.344949 0 50.001413 14.500589 50.001413 43.484813 0 28.312691-16.485048 42.453497-49.486226 42.453497l-25.107605 0zM833.388274 591.992729l0 240.005651c0 35.359548-28.656463 64.001884-64.001884 64.001884l-512.019779 0c-35.343537 0-64.001884-28.641394-64.001884-64.001884l0-240.005651-119.386861 0 0-400.008477 119.386861 0 0-256.005651c0-35.344478 28.657405-64.001884 64.001884-64.001884l512.019779 0c35.344478 0 64.001884 28.656463 64.001884 64.001884l0 256.005651 118.225571 0 0 400.008477-118.225571 0zM769.388274 815.99838l0-224.005651-512.012244 0-0.006593 224.005651 512.020721 0zM636.899458 440.287525c0-27.265364-10.000471-49.126442-30.000471-65.564398-20.000942-16.453968-45.002119-24.330586-75.031787-23.6421l-29.218743 0 0-92.813751-56.720509 0 0 266.241582 91.626089 0c66.218978 0 99.343537-28.079115 99.343537-84.221333zM226.280198 319.28352199999995l-19.593125-61.01813-61.540852 0 97.455145 266.24064 66.696492 0 95.564869-266.24064-61.876148 0-19.936897 61.01813-96.767601 0zM513.382623-96.02233999999999c-17.671768 0-32.016953 14.329174-32.016953 32.000942s14.345185 32.000942 32.016953 32.000942 32.000942-14.329174 32.000942-32.000942-14.329174-32.000942-32.000942-32.000942zM769.388274-0.020456999999964864l-512.020721 0 0.006593 192.003767 512.011302 0 0-192.003767zM830.857547 374.723127c-19.984931-16.453968-45.002119-24.330586-75.01766-23.6421l-29.218743 0 0-92.813751-56.719567 0 0 266.241582 91.595008 0c66.251943 0 99.348246-28.078173 99.348246-84.221333-0.000942-27.265364-9.986343-49.126442-29.988227-65.564398zM751.714622 480.507916l-25.09442 0 0-85.939251 24.562279 0c33.344949 0 50.033435 14.500589 50.033435 43.484813 0.000942 28.312691-16.50106 42.454438-49.501295 42.454438zM275.267247 478.615757l-1.562515 0c-0.687544-7.780551-2.218036-15.297386-4.625383-22.5166l-30.429951-92.98705 70.995055 0-30.250059 92.298564c-1.954321 5.845067-3.328467 13.58041-4.126207 23.204144z"  horiz-adv-x="1024" />
      
      <glyph glyph-name="kuaishou" unicode="&#58990;" d="M677.70089876 853.48588027a193.31771479 193.31771479 0 0 1-132.83688674-53.30045663 220.93453212 220.93453212 0 1 1 0-280.03451893A193.31771479 193.31771479 0 1 1 677.70089876 853.48588027zM373.91591727 549.70089876a110.46726541 110.46726541 0 1 0 110.46726671 110.46726542 110.46726541 110.46726541 0 0 0-110.46726671-110.46726542z m303.78498149 27.61681603a82.85044939 82.85044939 0 1 0 82.85044939 82.85044939 82.85044939 82.85044939 0 0 0-82.85044939-82.85044939z m151.34015464-138.08408144h-303.7849815a180.0616429 180.0616429 0 0 1-165.70089876-110.4672667l-138.08408274 80.91727266A138.08408273 138.08408273 0 0 1 14.8973037 290.37899218999996V24.981386430000043a138.08408273 138.08408273 0 0 1 208.23079568-119.02847937l140.84576397 82.85044939A179.78547517 179.78547517 0 0 1 526.36074413-113.10269630000005h303.7849815A180.0616429 180.0616429 0 0 1 1009.1026963 66.95894659999999v193.31771609A180.0616429 180.0616429 0 0 1 829.0410534 439.23363335z m-662.80359506-437.45037273A27.61681602 27.61681602 0 0 0 152.98138643-2.6354308799999444a27.61681602 27.61681602 0 0 0-27.61681731 27.61681731v265.39760576a27.61681602 27.61681602 0 0 0 27.61681731 27.61681604 27.61681602 27.61681602 0 0 0 13.80840737-4.14252248l179.50930744-105.22007071V107.83183582000004zM898.63543088 66.95894659999999A69.59437748 69.59437748 0 0 0 829.0410534-2.6354308799999444h-303.7849815A69.59437748 69.59437748 0 0 0 456.76636665 66.95894659999999v193.31771609A69.59437748 69.59437748 0 0 0 526.36074413 328.76636665h303.7849815A69.59437748 69.59437748 0 0 0 898.63543088 259.17198915999995z"  horiz-adv-x="1024" />
      
      <glyph glyph-name="xiaochengxu" unicode="&#58925;" d="M740.672 858.496c156.352 0 283.52-115.584 283.52-258.496 0-44.416-13.056-87.872-36.608-127.04-35.648-57.216-92.672-99.584-161.664-119.744a161.408 161.408 0 0 0-45.184-7.36 52.8 52.8 0 0 0-53.76 52.928c0 29.76 23.68 52.864 53.76 52.864 2.112 0 6.528 0 11.904 2.048 46.336 12.8 82.944 39.168 103.424 74.24 13.952 22.144 20.48 46.72 20.48 72.064 0 83.84-78.72 152.512-174.72 152.512a197.76 197.76 0 0 1-94.72-24.32c-50.816-28.544-80.896-76.16-80.896-128.192v-443.904c0-89.984-50.752-172.672-134.848-219.328-45.184-25.408-96-38.272-147.712-38.272-156.288 0-283.52 115.648-283.52 258.56 0 44.352 13.12 87.872 36.608 127.04 35.648 57.216 92.736 99.584 161.664 119.68 19.328 5.312 32.384 7.36 45.184 7.36 30.272 0 53.824-23.36 53.824-52.864a52.8 52.8 0 0 0-53.76-52.928c-2.176 0-6.592 0-11.904-2.048-46.4-13.76-82.944-40.32-103.424-74.176-14.016-22.208-20.48-46.72-20.48-72.128 0-83.84 78.72-152.448 175.616-152.448a197.76 197.76 0 0 1 94.784 24.256c50.752 28.608 80.832 76.224 80.832 128.192V599.808c0 89.984 50.752 172.608 134.848 219.328a283.52 283.52 0 0 0 146.752 39.36z"  horiz-adv-x="1025" />
      
      <glyph glyph-name="douyin" unicode="&#59611;" d="M937.4 472.1c-84 0-165.7 27.3-232.9 77.8v-352.3c0-179.9-138.6-325.6-309.6-325.6S85.3 17.700000000000045 85.3 197.60000000000002c0 179.9 138.6 325.6 309.6 325.6 17.1 0 33.7-1.5 49.9-4.3v-186.6c-15.5 6.1-32 9.2-48.6 9.2-76.3 0-138.2-65-138.2-145.3 0-80.2 61.9-145.3 138.2-145.3 76.2 0 138.1 65.1 138.1 145.3V896H707c0-134.5 103.7-243.5 231.6-243.5v-180.3l-1.2-0.1"  horiz-adv-x="1024" />
      
      <glyph glyph-name="jinritoutiao" unicode="&#59021;" d="M1012.8 747.2v-620.8h-32c-19.2 0-36.8-3.2-56-3.2l-49.6-3.2-84.8-3.2-52.8-3.2-81.6-3.2-52.8-3.2-78.4-3.2c-19.2 0-33.6-3.2-52.8-3.2l-84.8-6.4c-19.2 0-33.6-3.2-52.8-3.2l-84.8-3.2c-19.2 0-33.6-3.2-52.8-3.2l-81.6-6.4c-19.2 0-33.6-3.2-52.8-3.2l-56-3.2v624h19.2c32 3.2 59.2 3.2 88 3.2l56 3.2 88 3.2 59.2 3.2 88 3.2 52.8 3.2 59.2 3.2 59.2 3.2 84.8 3.2 56 3.2 59.2 3.2 59.2 3.2 59.2 3.2 56 3.2c3.2 3.2 62.4 6.4 62.4 6.4zM785.6 484.8c9.6 3.2 16 9.6 25.6 12.8 28.8 12.8 56 28.8 81.6 40 9.6 3.2 12.8 9.6 12.8 19.2v70.4c-6.4 0-12.8-3.2-16-3.2-28.8-3.2-56-3.2-84.8-3.2-16 0-33.6-3.2-49.6-3.2-25.6 0-46.4-3.2-72-3.2H664c-19.2 9.6-36.8 16-56 25.6l-3.2-3.2c-22.4-36.8-46.4-72-68.8-108.8-3.2-6.4 0-6.4 3.2-6.4 16-6.4 32-12.8 46.4-19.2 9.6-3.2 12.8 0 16 6.4 9.6 16 22.4 33.6 32 49.6 0 3.2 3.2 3.2 6.4 3.2 9.6 0 16 0 25.6 3.2 16 0 33.6 3.2 49.6 3.2 25.6 0 46.4 3.2 72 3.2h9.6c12.8 0 25.6 0 36.8 3.2 3.2-9.6 0-9.6-6.4-12.8-32-16-65.6-32-96-46.4-3.2 0-6.4-3.2-9.6 0-22.4 6.4-43.2 16-62.4 25.6-16 6.4-16 6.4-25.6-9.6 0-3.2-3.2-3.2-3.2-6.4-6.4-9.6-12.8-16-16-25.6l49.6-19.2c-28.8-12.8-52.8-28.8-81.6-40-3.2-3.2-6.4-3.2-9.6-3.2h-25.6v-46.4h43.2c3.2 0 6.4 0 9.6 3.2 36.8 19.2 72 33.6 108.8 52.8 12.8 6.4 25.6 9.6 40 3.2 28.8-12.8 56-22.4 84.8-32 16-6.4 28.8-12.8 43.2-12.8 6.4 0 12.8 0 19.2 3.2l19.2 3.2v49.6c-6.4 0-12.8-3.2-19.2-3.2h-19.2c-12.8 3.2-25.6 9.6-33.6 12.8-27.2 4.8-43.2 8-57.6 14.4z m-459.2 108.8V384c-19.2 0-36.8-3.2-56-3.2-28.8-3.2-56-3.2-84.8-3.2-16 0-28.8 0-43.2-3.2-9.6 0-19.2 0-28.8-3.2v-49.6l147.2 9.6c-19.2-25.6-36.8-46.4-52.8-72-6.4-9.6-16-16-28.8-16H142.4c-9.6 0-19.2 0-28.8-3.2v-43.2c0-3.2 3.2-3.2 6.4-3.2 28.8 3.2 56 3.2 88 6.4 12.8 0 28.8 0 40 3.2 3.2 0 3.2 0 6.4 3.2 9.6 12.8 16 22.4 25.6 33.6 22.4 28.8 43.2 56 62.4 84.8 6.4 6.4 9.6 16 22.4 16 28.8 0 56 3.2 84.8 3.2 12.8 0 25.6 0 33.6 3.2 3.2 0 6.4 3.2 6.4 3.2v40l-3.2 3.2c-16 0-32 0-46.4-3.2-12.8 0-25.6-3.2-36.8-3.2V596.8l-76.8-3.2z m206.4-268.8h6.4c16 0 32 3.2 43.2 3.2 16 0 32 0 46.4 3.2h9.6l43.2 3.2v-102.4l75.2 3.2v102.4c6.4 0 12.8 3.2 19.2 3.2 19.2 0 33.6 3.2 52.8 3.2 25.6 0 46.4 3.2 72 3.2h6.4v49.6c-12.8 0-28.8-3.2-40-3.2-25.6 0-46.4-3.2-72-3.2h-6.4c-9.6 0-19.2 0-32-3.2v25.6l-75.2-3.2V384c-19.2 0-36.8-3.2-56-3.2-25.6 0-46.4-3.2-72-3.2-6.4 0-12.8 0-19.2-3.2-1.6-1.6-1.6-49.6-1.6-49.6z m-172.8 3.2l56-115.2 81.6 3.2v3.2c-16 33.6-33.6 65.6-49.6 99.2-3.2 9.6-9.6 12.8-19.2 9.6-9.6 0-19.2 0-28.8-3.2-11.2 3.2-24 3.2-40 3.2z m172.8-108.8h9.6c19.2 0 36.8 3.2 56 3.2 6.4 0 6.4 3.2 9.6 6.4 12.8 22.4 25.6 43.2 33.6 68.8 3.2 6.4 6.4 16 12.8 22.4-6.4 0-12.8-3.2-19.2-3.2-16 0-28.8 0-43.2-3.2-6.4 0-12.8-3.2-16-9.6-3.2-9.6-9.6-16-12.8-22.4l-30.4-62.4z m387.2 22.4v3.2l-46.4 81.6c-3.2 3.2-6.4 6.4-9.6 6.4-19.2-3.2-36.8-3.2-56-3.2-3.2 0-9.6 0-12.8-3.2 16-28.8 33.6-56 49.6-84.8 0-3.2 3.2-6.4 6.4-6.4h46.4c9.6 6.4 16 6.4 22.4 6.4zM286.4 409.6c-16 22.4-32 40-46.4 59.2-6.4 9.6-12.8 16-25.6 16-16-3.2-32-3.2-46.4-3.2-6.4 0-12.8 0-16-3.2v-3.2c16-19.2 32-40 46.4-59.2 6.4-9.6 12.8-12.8 25.6-12.8 19.2 3.2 36.8 3.2 59.2 3.2 0 0 0 3.2 3.2 3.2z m1.6 91.2c-3.2 3.2-3.2 6.4-6.4 9.6-12.8 16-25.6 32-36.8 49.6-9.6 9.6-16 19.2-32 16-12.8-3.2-25.6 0-36.8-3.2-9.6 0-16 0-25.6-3.2 19.2-25.6 36.8-49.6 56-72 0-3.2 3.2-3.2 6.4-3.2 16 0 32 3.2 46.4 3.2 1.6 0 28.8 3.2 28.8 3.2z"  horiz-adv-x="1024" />
      
      <glyph glyph-name="WIFI" unicode="&#59244;" d="M0 543.168l93.12-98.752c231.296 245.44 606.464 245.44 837.76 0L1024 543.168C741.44 842.944 283.008 842.944 0 543.168z m372.352-395.008L512 0l139.648 148.16c-76.8 81.92-202.048 81.92-279.296 0zM186.24 345.6l93.12-98.752c128.448 136.32 336.96 136.32 465.408 0L837.824 345.6c-179.648 190.592-471.488 190.592-651.648 0z"  horiz-adv-x="1024" />
      
      <glyph glyph-name="key" unicode="&#59253;" d="M443.25546667 409.25866667c-29.35466667 47.104-41.09653333 99.9424-41.09653334 158.72A291.0208 291.0208 0 0 0 695.97866667 861.86666667 291.0208 291.0208 0 0 0 989.86666667 567.9786666699999a291.0208 291.0208 0 0 0-293.888-293.81973334c-64.64853333 0-117.48693333 17.6128-170.3936 52.90666667l-135.168-135.168 64.64853333-64.7168-82.3296-82.26133333-64.64853333 64.64853333-41.09653334-41.1648 64.64853334-64.64853333-82.3296-82.26133334L102.4 68.40319999999997l340.85546667 340.92373333z m252.7232 335.0528c-99.87413333 0-176.26453333-76.45866667-176.26453334-176.3328s76.3904-176.26453333 176.26453334-176.26453334c99.9424 0 176.3328 76.3904 176.3328 176.26453334 0 99.9424-82.26133333 176.3328-176.3328 176.3328z"  horiz-adv-x="1024" />
      
      <glyph glyph-name="safety-certificate" unicode="&#59254;" d="M512 807.296L149.312 656.576v-225.088c0-54.528 9.536-107.328 28.672-158.72a516.48 516.48 0 0 1 202.24-253.696A460.8 460.8 0 0 1 512-40.256a460.928 460.928 0 0 1 131.712 59.2 517.504 517.504 0 0 1 202.304 253.76 451.52 451.52 0 0 1 28.672 158.72V656.576L512 807.296z m448-122.24v-253.568c0-64.64-11.328-127.424-33.92-188.352a602.368 602.368 0 0 0-235.52-295.36A548.544 548.544 0 0 0 512-128a548.416 548.416 0 0 0-178.56 75.776A601.664 601.664 0 0 0 97.92 243.2 536.192 536.192 0 0 0 64 431.488V684.992c0 17.28 10.368 32.768 26.24 39.36L495.68 892.672a42.752 42.752 0 0 0 32.768 0l405.312-168.32c15.936-6.592 26.304-22.144 26.304-39.36zM460.8 331.584L699.712 576 768 506.24 460.8 192 256 401.472l68.288 69.76L460.8 331.712z"  horiz-adv-x="1024" />
      
      <glyph glyph-name="mobile-alt" unicode="&#59290;" d="M272 810.688v-853.376h480V810.688h-480zM232 896h560c22.08 0 40-19.072 40-42.688v-938.624c0-23.616-17.92-42.688-40-42.688h-560C209.92-128 192-108.928 192-85.312V853.312C192 876.928 209.92 896 232 896z m40-810.688h480v-170.624h-480v170.624z m240-128c22.08 0 40 19.136 40 42.688 0 23.552-17.92 42.688-40 42.688s-40-19.136-40-42.688c0-23.552 17.92-42.688 40-42.688z"  horiz-adv-x="1024" />
      
      <glyph glyph-name="account" unicode="&#59415;" d="M512 725.568a117.568 117.568 0 1 0 0-235.136 117.568 117.568 0 0 0 0 235.136z m0-504c166.336 0 341.632-81.728 341.632-117.568v-61.632H170.368v61.632c0 35.84 175.232 117.632 341.568 117.632zM512 832a223.936 223.936 0 0 1-224-224C288 484.224 388.224 384 512 384s224 100.224 224 224S635.776 832 512 832z m0-512c-149.504 0-448-73.536-448-219.456V-64h896v164.544C960 246.464 661.504 320 512 320z"  horiz-adv-x="1024" />
      
      <glyph glyph-name="redo" unicode="&#59441;" d="M1019.880673 448.550313l0.063994-0.511956h-132.468657l-0.063995 0.511956H572.750958l208.110181 206.382328A383.967123 383.967123 0 1 1 870.965424 256.054795h136.820284a511.956164 511.956164 0 1 0-134.388493 490.581994L1023.912328 896v-447.449687h-4.031655z"  horiz-adv-x="1024" />
      
      <glyph glyph-name="browse" unicode="&#58982;" d="M512 59.733333C230.4 59.733333 74.666667 362.666667 68.266667 375.466667c-4.266667 8.533333-4.266667 19.2 0 29.866666 6.4 12.8 164.266667 315.733333 443.733333 315.733334 281.6 0 437.333333-305.066667 443.733333-317.866667 4.266667-8.533333 4.266667-19.2 0-29.866667-6.4-10.666667-162.133333-313.6-443.733333-313.6zM132.266667 390.4c34.133333-57.6 170.666667-266.666667 379.733333-266.666667s345.6 209.066667 379.733333 266.666667c-34.133333 57.6-170.666667 266.666667-379.733333 266.666667S166.4 448 132.266667 390.4zM512 245.333333c-76.8 0-138.666667 61.866667-138.666667 138.666667s61.866667 138.666667 138.666667 138.666667 138.666667-61.866667 138.666667-138.666667-61.866667-138.666667-138.666667-138.666667z m0 213.333334c-40.533333 0-74.666667-34.133333-74.666667-74.666667s34.133333-74.666667 74.666667-74.666667 74.666667 34.133333 74.666667 74.666667-34.133333 74.666667-74.666667 74.666667z"  horiz-adv-x="1024" />
      
      <glyph glyph-name="eye-close" unicode="&#58991;" d="M955.733333 403.2c-6.4 12.8-162.133333 317.866667-443.733333 317.866667-23.466667 0-46.933333-2.133333-70.4-6.4-17.066667-4.266667-29.866667-19.2-25.6-36.266667 4.266667-17.066667 19.2-29.866667 36.266667-25.6 19.2 4.266667 38.4 4.266667 57.6 4.266667 209.066667 0 345.6-209.066667 379.733333-266.666667-10.666667-19.2-32-53.333333-64-91.733333-10.666667-12.8-8.533333-34.133333 4.266667-44.8 6.4-4.266667 12.8-6.4 21.333333-6.4s19.2 4.266667 25.6 10.666666c51.2 61.866667 78.933333 115.2 78.933333 117.333334 6.4 8.533333 6.4 19.2 0 27.733333zM215.466667 770.133333c-12.8 12.8-32 12.8-44.8 0-12.8-12.8-12.8-32 0-44.8l91.733333-91.733333C138.666667 541.866667 72.533333 411.733333 68.266667 405.333333c-4.266667-8.533333-4.266667-19.2 0-29.866666 6.4-12.8 162.133333-315.733333 443.733333-315.733334 83.2 0 164.266667 27.733333 241.066667 81.066667l96-96c6.4-6.4 14.933333-8.533333 23.466666-8.533333s17.066667 2.133333 23.466667 8.533333c12.8 12.8 12.8 32 0 44.8L215.466667 770.133333z m243.2-334.933333l104.533333-104.533333c-12.8-12.8-32-21.333333-51.2-21.333334-40.533333 0-74.666667 34.133333-74.666667 74.666667 0 19.2 8.533333 38.4 21.333334 51.2zM512 123.733333c-209.066667 0-345.6 209.066667-379.733333 266.666667 21.333333 36.266667 81.066667 130.133333 174.933333 196.266667l104.533333-104.533334c-25.6-25.6-38.4-59.733333-38.4-96 0-76.8 61.866667-138.666667 138.666667-138.666666 36.266667 0 70.4 14.933333 96 38.4l98.133333-98.133334c-61.866667-42.666667-128-64-194.133333-64z"  horiz-adv-x="1024" />
      
      <glyph glyph-name="email" unicode="&#58992;" d="M874.666667 714.666667H149.333333c-40.533333 0-74.666667-34.133333-74.666666-74.666667v-512c0-40.533333 34.133333-74.666667 74.666666-74.666667h725.333334c40.533333 0 74.666667 34.133333 74.666666 74.666667V640c0 40.533333-34.133333 74.666667-74.666666 74.666667z m-725.333334-64h725.333334c6.4 0 10.666667-4.266667 10.666666-10.666667v-25.6L512 379.733333l-373.333333 234.666667V640c0 6.4 4.266667 10.666667 10.666666 10.666667z m725.333334-533.333334H149.333333c-6.4 0-10.666667 4.266667-10.666666 10.666667V539.733333l356.266666-224c4.266667-4.266667 10.666667-4.266667 17.066667-4.266666s12.8 2.133333 17.066667 4.266666l356.266666 224V128c0-6.4-4.266667-10.666667-10.666666-10.666667z"  horiz-adv-x="1024" />
      
      <glyph glyph-name="forward" unicode="&#58993;" d="M853.333333 138.666667H170.666667c-6.4 0-10.666667 4.266667-10.666667 10.666666V576c0 6.4 4.266667 10.666667 10.666667 10.666667h599.466666l-83.2-83.2c-12.8-12.8-12.8-34.133333 0-46.933334 6.4-6.4 14.933333-10.666667 23.466667-10.666666s17.066667 4.266667 23.466667 10.666666l145.066666 145.066667c12.8 12.8 12.8 34.133333 0 46.933333l-145.066666 145.066667c-12.8 12.8-34.133333 12.8-46.933334 0-12.8-12.8-12.8-34.133333 0-46.933333l93.866667-93.866667H170.666667c-40.533333 0-74.666667-34.133333-74.666667-74.666667v-426.666666c0-40.533333 34.133333-74.666667 74.666667-74.666667h682.666666c17.066667 0 32 14.933333 32 32s-14.933333 29.866667-32 29.866667z"  horiz-adv-x="1024" />
      
      <glyph glyph-name="lock" unicode="&#58998;" d="M785.066667 480h-61.866667v121.6c0 108.8-91.733333 198.4-202.666667 198.4s-202.666667-89.6-202.666666-198.4v-121.6h-78.933334c-55.466667 0-100.266667-44.8-100.266666-100.266667v-311.466666c0-55.466667 44.8-100.266667 100.266666-100.266667h546.133334c55.466667 0 100.266667 44.8 100.266666 100.266667V379.733333c0 55.466667-44.8 100.266667-100.266666 100.266667z m-403.2 121.6c0 74.666667 61.866667 134.4 138.666666 134.4s138.666667-59.733333 138.666667-134.4v-121.6h-277.333333v121.6z m439.466666-533.333333c0-19.2-17.066667-36.266667-36.266666-36.266667H238.933333c-19.2 0-36.266667 17.066667-36.266666 36.266667V379.733333c0 19.2 17.066667 36.266667 36.266666 36.266667h546.133334c19.2 0 36.266667-17.066667 36.266666-36.266667v-311.466666zM512 352c-17.066667 0-32-14.933333-32-32v-106.666667c0-17.066667 14.933333-32 32-32s32 14.933333 32 32v106.666667c0 17.066667-14.933333 32-32 32z"  horiz-adv-x="1024" />
      
      <glyph glyph-name="switch" unicode="&#59007;" d="M128 373.333333c17.066667 0 32 14.933333 32 32v170.666667c0 6.4 4.266667 10.666667 10.666667 10.666667h652.8l-83.2-83.2c-12.8-12.8-12.8-34.133333 0-46.933334 6.4-6.4 14.933333-10.666667 23.466666-10.666666s17.066667 4.266667 23.466667 10.666666l145.066667 145.066667c12.8 12.8 12.8 34.133333 0 46.933333l-145.066667 145.066667c-12.8 12.8-34.133333 12.8-46.933333 0-12.8-12.8-12.8-34.133333 0-46.933333l93.866666-93.866667H170.666667c-40.533333 0-74.666667-34.133333-74.666667-74.666667v-170.666666c0-19.2 14.933333-34.133333 32-34.133334zM906.666667 394.666667c-17.066667 0-32-14.933333-32-32v-170.666667c0-6.4-4.266667-10.666667-10.666667-10.666667H211.2l83.2 83.2c12.8 12.8 12.8 34.133333 0 46.933334-12.8 12.8-34.133333 12.8-46.933333 0l-145.066667-145.066667c-12.8-12.8-12.8-34.133333 0-46.933333l145.066667-145.066667c6.4-6.4 14.933333-10.666667 23.466666-10.666667s17.066667 4.266667 23.466667 10.666667c12.8 12.8 12.8 34.133333 0 46.933333l-93.866667 93.866667h663.466667c40.533333 0 74.666667 34.133333 74.666667 74.666667v170.666666c0 19.2-12.8 34.133333-32 34.133334z"  horiz-adv-x="1024" />
      
      <glyph glyph-name="unlock" unicode="&#59010;" d="M785.066667 480H381.866667v121.6c0 74.666667 61.866667 134.4 138.666666 134.4 59.733333 0 113.066667-36.266667 132.266667-91.733333 6.4-17.066667 23.466667-25.6 40.533333-19.2 17.066667 6.4 25.6 23.466667 19.2 40.533333-27.733333 81.066667-104.533333 134.4-192 134.4-110.933333 0-202.666667-89.6-202.666666-198.4v-121.6h-78.933334c-55.466667 0-100.266667-44.8-100.266666-100.266667v-311.466666c0-55.466667 44.8-100.266667 100.266666-100.266667h546.133334c55.466667 0 100.266667 44.8 100.266666 100.266667V379.733333c0 55.466667-44.8 100.266667-100.266666 100.266667z m36.266666-411.733333c0-19.2-17.066667-36.266667-36.266666-36.266667H238.933333c-19.2 0-36.266667 17.066667-36.266666 36.266667V379.733333c0 19.2 17.066667 36.266667 36.266666 36.266667h546.133334c19.2 0 36.266667-17.066667 36.266666-36.266667v-311.466666zM512 352c-17.066667 0-32-14.933333-32-32v-106.666667c0-17.066667 14.933333-32 32-32s32 14.933333 32 32v106.666667c0 17.066667-14.933333 32-32 32z"  horiz-adv-x="1024" />
      
      <glyph glyph-name="user1" unicode="&#59011;" d="M512 821.333333C270.933333 821.333333 74.666667 625.066667 74.666667 384S270.933333-53.333333 512-53.333333 949.333333 142.933333 949.333333 384 753.066667 821.333333 512 821.333333zM288 85.333333c0 123.733333 100.266667 224 224 224S736 209.066667 736 85.333333c-61.866667-46.933333-140.8-74.666667-224-74.666666s-162.133333 27.733333-224 74.666666z m128 384c0 53.333333 42.666667 96 96 96s96-42.666667 96-96-42.666667-96-96-96-96 42.666667-96 96z m377.6-328.533333c-19.2 96-85.333333 174.933333-174.933333 211.2 32 29.866667 51.2 70.4 51.2 117.333333 0 87.466667-72.533333 160-160 160s-160-72.533333-160-160c0-46.933333 19.2-87.466667 51.2-117.333333-89.6-36.266667-155.733333-115.2-174.933334-211.2-55.466667 66.133333-91.733333 149.333333-91.733333 243.2 0 204.8 168.533333 373.333333 373.333333 373.333333S885.333333 588.8 885.333333 384c0-93.866667-34.133333-177.066667-91.733333-243.2z"  horiz-adv-x="1024" />
      
      <glyph glyph-name="heart" unicode="&#59023;" d="M488 728l22.2-24 24 23.96C601.2 793.26 694 822.98 785.2 807.8c137.8-22.96 238.8-142.2 238.8-282v-11.6c0-83-34.4-162.4-95.2-219L567.4-42.2c-15-14-34.8-21.8-55.4-21.8s-40.4 7.8-55.4 21.8L95.18 295.2C34.46 351.8 0 431.2 0 514.2v11.6c0 139.8 101.04 259.04 238.8 282 89.4 15.18 184-14.54 249.2-79.8-1.8 0 0-0.02 0 0z m22.2-159.8l-90 93.6c-43.4 41.64-105 61.4-165.6 51.32C163.1 697.86 96 618.6 96 525.8v-11.6c0-56.4 23.42-110.4 64.68-148.8L512 37.4l351.4 328c41.2 38.4 64.6 92.4 64.6 148.8v11.6c0 92.8-67.2 172.06-158.6 187.32-60.6 10.08-122.2-9.68-165.6-51.32l-93.6-93.6z"  horiz-adv-x="1024" />
      
      <glyph glyph-name="message" unicode="&#59032;" d="M896 896h-768C57.5 896 0 838.5 0 769.8v-574.2c0-70.5 57.5-126.2 128-126.2h192v-167.96c0-19.672 22.04-31.1 38.24-19.4l249.8 187.36h288c70.5 0 128 57.5 128 126.2V769.8C1024 838.5 968.2 896 896 896zM929.8 192c0-17.5-14.5-32-32-32H577.8l-160-120v120H129.8c-17.5 0-32 14.5-32 32V768c0 17.5 14.5 32 32 32h768c17.5 0 32-14.5 32-32v-576z"  horiz-adv-x="1025" />
      
      <glyph glyph-name="paper-plane" unicode="&#59036;" d="M32.20358 375.596243c-45.199663-25.799808-40.999694-94.599294 7.199946-114.599145L320.001432 143.997971v-206.598459c0-36.19973 29.199782-65.399512 65.399513-65.399512 19.399855 0 37.799718 8.599936 50.199625 23.599824l123.999075 148.598891 247.798151-103.19923c37.799718-15.799882 81.599391 8.999933 87.799345 49.399632l127.999045 831.993792c3.799972 24.199819-6.799949 48.599637-26.999799 62.399535s-46.599652 14.999888-67.999492 2.799979l-895.993315-511.99618z m104.199222-50.99962L819.397707 714.793712 380.200983 223.997374l2.399982-1.999985-246.198163 102.599234z m670.195-279.397915l-333.197514 138.998963 428.196805 478.596429-94.999291-617.595392z"  horiz-adv-x="1024" />
      
      <glyph glyph-name="paste" unicode="&#59037;" d="M160 704v-32c0-35.4 28.6-64 64-64h121.6c33.2 57.4 95.2 96 166.4 96h124c-14.2 55.2-64.4 96-124 96h-81.2C423.2 854.2 376.4 896 320 896s-103.2-41.8-110.8-96H128C57.4 800 0 742.6 0 672v-544c0-70.6 57.4-128 128-128h192v96H128c-17.6 0-32 14.4-32 32V672c0 17.6 14.4 32 32 32h32z m128 80a32 32 0 1 0 64 0 32 32 0 1 0-64 0z m224-816c-17.6 0-32 14.4-32 32V512c0 17.6 14.4 32 32 32h256v-96c0-35.4 28.6-64 64-64h96v-384c0-17.6-14.4-32-32-32H512z m384-96c70.6 0 128 57.4 128 128V440.2c0 25.4-10.2 49.8-28.2 67.8L892 611.8c-18 18-42.4 28.2-67.8 28.2H512c-70.6 0-128-57.4-128-128v-512c0-70.6 57.4-128 128-128h384z"  horiz-adv-x="1024" />
      
      <glyph glyph-name="pen-to-square" unicode="&#59038;" d="M746.2 846.06c56.2 56.234 147.4 56.234 203.6 0L974 821.82c56.2-56.24 56.2-147.42 0-203.62L579.6 223.6c-17.4-17.2-38.8-29.8-62.4-36.6l-200-57.2c-16.8-4.8-34.8 0-47.2 14-12.2 10.6-17 28.6-12.2 45.4l57.2 200c6.8 23.6 19.4 45 36.6 62.4L746.2 846.06z m134-67.88c-17 18.74-47.4 18.74-66.2 0L755.8 720l92.2-92.2 58.2 60c18.8 17 18.8 47.4 0 66.14l-26 24.24zM407.4 362.8l-33.6-117 117 33.6c8 2.2 15 6.4 20.8 12.2L780.2 560 688 652.2 419.6 383.6c-5.8-5.8-10-12.8-12.2-20.8zM400 768c26.6 0 48-21.5 48-48 0-26.6-21.4-48-48-48H176c-44.18 0-80-35.8-80-80v-544c0-44.2 35.82-80 80-80h544c44.2 0 80 35.8 80 80V272c0 26.6 21.4 48 48 48s48-21.4 48-48v-224c0-97.2-78.8-176-176-176H176c-97.2 0-176 78.8-176 176V592c0 97.2 78.8 176 176 176h224z"  horiz-adv-x="1024" />
      
      <glyph glyph-name="rectangle-list1" unicode="&#59039;" d="M256 512c-35.4 0-64 28.6-64 64s28.6 64 64 64 64-28.6 64-64-28.6-64-64-64z m144 64c0 26.6 21.4 48 48 48h448c26.6 0 48-21.4 48-48s-21.4-48-48-48H448c-26.6 0-48 21.4-48 48z m0-192c0 26.6 21.4 48 48 48h448c26.6 0 48-21.4 48-48s-21.4-48-48-48H448c-26.6 0-48 21.4-48 48z m0-192c0 26.6 21.4 48 48 48h448c26.6 0 48-21.4 48-48s-21.4-48-48-48H448c-26.6 0-48 21.4-48 48z m-144 256c35.4 0 64-28.6 64-64s-28.6-64-64-64-64 28.6-64 64 28.6 64 64 64z m0-320c-35.4 0-64 28.6-64 64s28.6 64 64 64 64-28.6 64-64-28.6-64-64-64zM0 704c0 70.7 57.3 128 128 128h896c70.6 0 128-57.3 128-128v-640c0-70.6-57.4-128-128-128H128c-70.7 0-128 57.4-128 128V704z m96 0v-640c0-17.6 14.32-32 32-32h896c17.6 0 32 14.4 32 32V704c0 17.68-14.4 32-32 32H128c-17.68 0-32-14.32-32-32z"  horiz-adv-x="1152" />
      
      <glyph glyph-name="share-from-square1" unicode="&#59040;" d="M800 385.2V480c0 17.6-14.4 32-32 32h-189c-101.8 0-187.8-67-216.6-159.2-6.6 18.8-10.4 39.6-10.4 63.2 0 123.8 100.2 224 224 224h192c17.6 0 32 14.4 32 32V766.8L1012 576l-212-190.8zM672 416h32v-96c0-35.4 28.6-64 64-64h7.4c15.8 0 31 5.8 42.8 16.4l278 250.2c15.2 13.6 23.8 33 23.8 53.4s-8.6 39.8-23.8 53.4L819.8 878.2C807 889.6 790.6 896 773.4 896 735 896 704 865 704 826.6V736h-128c-176.8 0-320-143.2-320-320 0-120.8 69.2-198.2 127.8-241.8 11.8-8.8 23-16.2 33.4-22.4 8.8-5.4 17-9.8 23.8-13.2 6.8-3.4 12.4-6 16.4-7.8 4.4-2 9.2-2.8 14.2-2.8h5c19.6 0 35.6 16 35.6 35.6 0 15.6-10.6 29.4-23.2 39-0.8 0.6-1.4 1-2.2 1.6-3.4 2.2-6.8 5-10 8.2-1.6 1.6-3.4 3.2-5 5.2s-3.2 3.8-4.8 5.8c-3.6 5-7 10.6-10 17-5.2 12-8.6 26.6-8.6 44.8 0 72.2 58.6 131 131 131H672zM144 832C64.4 832 0 767.6 0 688v-672c0-79.6 64.4-144 144-144h672c79.6 0 144 64.4 144 144v128c0 26.6-21.4 48-48 48s-48-21.4-48-48v-128c0-26.6-21.4-48-48-48H144c-26.6 0-48 21.4-48 48V688c0 26.6 21.4 48 48 48h128c26.6 0 48 21.4 48 48s-21.4 48-48 48H144z"  horiz-adv-x="1152" />
      
      <glyph glyph-name="square" unicode="&#59041;" d="M832 832c70.6 0 128-57.3 128-128v-640c0-70.6-57.4-128-128-128H192c-70.7 0-128 57.4-128 128V704c0 70.7 57.3 128 128 128h640z m0-96H192c-17.68 0-32-14.32-32-32v-640c0-17.6 14.32-32 32-32h640c17.6 0 32 14.4 32 32V704c0 17.68-14.4 32-32 32z"  horiz-adv-x="1024" />
      
      <glyph glyph-name="square-caret-down" unicode="&#59042;" d="M704 512H320c-19 0-36.4-11.4-45.8-28.8-5.8-17.4-2.4-37.8 10.6-51.8l192-208c9-9.8 21.8-15.4 35.2-15.4s26.18 5.624 35.24 15.438l192 208c12.938 14 16.376 34.38 8.75 51.82C740.4 500.6 723 512 704 512z m128 320H192C121.3 832 64 774.68 64 704v-640c0-70.68 57.3-128 128-128h640c70.7 0 128 57.32 128 128V704c0 70.68-57.4 128-128 128z m32-768c0-17.64-14.356-32-32-32H192c-17.644 0-32 14.36-32 32V704c0 17.64 14.356 32 32 32h640c17.644 0 32-14.36 32-32v-640z"  horiz-adv-x="1024" />
      
      <glyph glyph-name="square-caret-left" unicode="&#59043;" d="M832 832H192C121.32 832 64 774.68 64 704v-640c0-70.68 57.32-128 128-128h640c70.68 0 128 57.32 128 128V704c0 70.68-57.4 128-128 128z m32-768c0-17.64-14.36-32-32-32H192c-17.64 0-32 14.36-32 32V704c0 17.64 14.36 32 32 32h640c17.64 0 32-14.36 32-32v-640zM611.2 620c-17.438 7.624-37.82 4.188-51.82-8.75l-208-192C341.6 410.2 336 397.4 336 384s5.624-26.18 15.438-35.24l208-192c14-12.938 34.38-16.376 51.82-8.75C628.6 155.6 640 173 640 192V576c0 19-11.4 36.4-28.8 44z"  horiz-adv-x="1024" />
      
      <glyph glyph-name="square-caret-right" unicode="&#59044;" d="M464.6 611.2c-14 13-34.4 16.4-51.8 8.8-17.4-7.6-28.8-25-28.8-42.2v-384c0-20.8 11.4-38.2 28.8-45.8 17.438-7.624 37.82-4.188 51.82 8.75l208 192C682.4 357.8 688 370.6 688 384s-5.624 26.18-15.438 35.24L464.6 611.2zM832 832H192C121.32 832 64 774.68 64 704v-640c0-70.68 57.32-128 128-128h640c70.68 0 128 57.32 128 128V704c0 70.68-57.4 128-128 128z m32-768c0-17.64-14.36-32-32-32H192c-17.64 0-32 14.36-32 32V704c0 17.64 14.36 32 32 32h640c17.64 0 32-14.36 32-32v-640z"  horiz-adv-x="1024" />
      
      <glyph glyph-name="square-caret-up" unicode="&#59045;" d="M547.2 544.6c-9 9.8-21.8 15.4-35.2 15.4s-26.2-5.6-35.2-15.4l-192-208c-12.938-14-16.376-34.38-8.75-51.82C283.6 267.4 301 256 318.2 256h384c19.062 0 36.32 11.312 44 28.76 7.626 17.438 4.188 37.82-8.75 51.82L547.2 544.6zM832 832H192C121.3 832 64 774.68 64 704v-640c0-70.68 57.3-128 128-128h640c70.7 0 128 57.32 128 128V704c0 70.68-57.4 128-128 128z m32-768c0-17.64-14.356-32-32-32H192c-17.644 0-32 14.36-32 32V704c0 17.64 14.356 32 32 32h640c17.644 0 32-14.36 32-32v-640z"  horiz-adv-x="1024" />
      
      <glyph glyph-name="square-check" unicode="&#59046;" d="M487.6 216.4c-21.8-21.8-57.4-21.8-79.2 0l-128 128c-21.86 21.8-21.86 57.4 0 79.2 21.8 21.8 57.4 21.8 79.2 0l88.4-88.4 216.4 216.4c21.8 21.8 57.4 21.8 79.2 0 21.8-21.8 21.8-57.4 0-79.2l-256-256zM64 704c0 70.7 57.3 128 128 128h640c70.6 0 128-57.3 128-128v-640c0-70.6-57.4-128-128-128H192c-70.7 0-128 57.4-128 128V704z m96 0v-640c0-17.6 14.32-32 32-32h640c17.6 0 32 14.4 32 32V704c0 17.68-14.4 32-32 32H192c-17.68 0-32-14.32-32-32z"  horiz-adv-x="1024" />
      
      <glyph glyph-name="square-full" unicode="&#59047;" d="M1024 896v-1024H0V896h1024z m-96-96H96v-832h832V800z"  horiz-adv-x="1024" />
      
      <glyph glyph-name="square-minus" unicode="&#59048;" d="M688 432c26.6 0 48-21.4 48-48s-21.4-48-48-48H336c-26.6 0-48 21.4-48 48s21.4 48 48 48h352zM64 704c0 70.7 57.3 128 128 128h640c70.6 0 128-57.3 128-128v-640c0-70.6-57.4-128-128-128H192c-70.7 0-128 57.4-128 128V704z m96 0v-640c0-17.6 14.32-32 32-32h640c17.6 0 32 14.4 32 32V704c0 17.68-14.4 32-32 32H192c-17.68 0-32-14.32-32-32z"  horiz-adv-x="1024" />
      
      <glyph glyph-name="square-plus" unicode="&#59049;" d="M464 208v128h-128c-26.6 0-48 21.4-48 48s21.4 48 48 48h128v128c0 26.6 21.4 48 48 48s48-21.4 48-48v-128h128c26.6 0 48-21.4 48-48s-21.4-48-48-48h-128v-128c0-26.6-21.4-48-48-48s-48 21.4-48 48zM64 704c0 70.7 57.3 128 128 128h640c70.6 0 128-57.3 128-128v-640c0-70.6-57.4-128-128-128H192c-70.7 0-128 57.4-128 128V704z m96 0v-640c0-17.6 14.32-32 32-32h640c17.6 0 32 14.4 32 32V704c0 17.68-14.4 32-32 32H192c-17.68 0-32-14.32-32-32z"  horiz-adv-x="1024" />
      
      <glyph glyph-name="star" unicode="&#59050;" d="M575.8 896c18.4 0 35.2-10.5 43.2-27.04l137.2-282.56 306.6-45.4c18-2.6 32.8-15.2 38.6-32.4 5.6-17.4 1-36.4-11.8-49L867.2 239.2l52.6-311c3-18-4.4-36.4-19.4-47-14.8-10.6-36.2-12-50.6-3.4l-274 146.4-275.6-146.4c-14.4-8.6-34-7.2-49 3.4-14.8 10.6-22.2 29-21 47l54.2 311L62.22 459.6c-12.92 12.6-17.5 31.6-11.82 49 5.66 17.2 20.6 29.8 38.58 32.4l306.42 45.4 137.2 282.56C540.8 885.502 557.4 896 575.8 896z m0-157.9L470.8 521.6c-7-14.2-20.6-24.2-36.2-26.6L197.96 460.2 369.8 290c11-11 16-26.8 13.4-42.2l-40.4-239.2 210.4 112.4c14.2 7.6 31.2 7.6 45.2 0l210.4-112.4-40.4 239.2c-2.6 15.4 2.6 31.2 13.6 42.2l171.8 170.2-236.6 34.8c-15.8 2.4-29.4 12.4-36.2 26.6L575.8 738.1z"  horiz-adv-x="1152" />
      
      <glyph glyph-name="audio-description" unicode="&#59129;" d="M128 832C57.4 832 0 774.6 0 704v-640c0-70.6 57.4-128 128-128h896c70.6 0 128 57.4 128 128V704c0 70.6-57.4 128-128 128H128z m299-282.6l144-288c11.8-23.8 2.2-52.6-21.4-64.4s-52.6-2.2-64.4 21.4l-18.8 37.8h-164.6l-18.8-37.8c-11.8-23.8-40.6-33.4-64.4-21.4s-33.4 40.6-21.4 64.4l144 288c8.2 16.2 24.8 26.6 43 26.6s34.8-10.2 43-26.6z m-0.8-213.2L384 420.6l-42.2-84.4h84.4zM608 528c0 26.6 21.4 48 48 48h112c106 0 192-86 192-192s-86-192-192-192h-112c-26.6 0-48 21.4-48 48V528z m96-48v-192h64c53 0 96 43 96 96s-43 96-96 96h-64z"  horiz-adv-x="1152" />
      
      <glyph glyph-name="compress" unicode="&#59361;" d="M384 768c0 35.4-28.6 64-64 64S256 803.4 256 768v-128H128c-35.4 0-64-28.6-64-64s28.6-64 64-64h192c35.4 0 64 28.6 64 64V768zM128 256c-35.4 0-64-28.6-64-64s28.6-64 64-64h128v-128c0-35.4 28.6-64 64-64s64 28.6 64 64v192c0 35.4-28.6 64-64 64H128zM768 768c0 35.4-28.6 64-64 64s-64-28.6-64-64v-192c0-35.4 28.6-64 64-64h192c35.4 0 64 28.6 64 64s-28.6 64-64 64h-128V768z m-64-512c-35.4 0-64-28.6-64-64v-192c0-35.4 28.6-64 64-64s64 28.6 64 64v128h128c35.4 0 64 28.6 64 64s-28.6 64-64 64h-192z"  horiz-adv-x="1024" />
      
      <glyph glyph-name="computer" unicode="&#59362;" d="M768 704v-448H128V704h640zM128 832C57.4 832 0 774.6 0 704v-448c0-70.6 57.4-128 128-128h234.6l-21.4-64H192c-35.4 0-64-28.6-64-64s28.6-64 64-64h512c35.4 0 64 28.6 64 64s-28.6 64-64 64h-149.4l-21.4 64H768c70.6 0 128 57.4 128 128V704c0 70.6-57.4 128-128 128H128z m928 0c-53 0-96-43-96-96v-704c0-53 43-96 96-96h128c53 0 96 43 96 96V736c0 53-43 96-96 96h-128z m32-128h64c17.6 0 32-14.4 32-32s-14.4-32-32-32h-64c-17.6 0-32 14.4-32 32s14.4 32 32 32z m-32-160c0 17.6 14.4 32 32 32h64c17.6 0 32-14.4 32-32s-14.4-32-32-32h-64c-17.6 0-32 14.4-32 32z m64-448c-35.4 0-64 28.6-64 64s28.6 64 64 64 64-28.6 64-64-28.6-64-64-64z"  horiz-adv-x="1280" />
      
      <glyph glyph-name="cubes-stacked" unicode="&#59379;" d="M448 768v-128c0-35.4 28.6-64 64-64h128c35.4 0 64 28.6 64 64V768c0 35.4-28.6 64-64 64h-128c-35.4 0-64-28.6-64-64zM229.4 482c-30.6-17.6-41-56.8-23.4-87.4l64-110.8c17.6-30.6 56.8-41 87.4-23.4l110.8 64c30.6 17.6 41 56.8 23.4 87.4l-64 110.8c-17.6 30.6-56.8 41-87.4 23.4l-110.8-64zM640 512c-35.4 0-64-28.6-64-64v-128c0-35.4 28.6-64 64-64h128c35.4 0 64 28.6 64 64v128c0 35.4-28.6 64-64 64h-128z m128-320c-35.4 0-64-28.6-64-64v-128c0-35.4 28.6-64 64-64h128c35.4 0 64 28.6 64 64v128c0 35.4-28.6 64-64 64h-128z m-384-64v-128c0-35.4 28.6-64 64-64h128c35.4 0 64 28.6 64 64v128c0 35.4-28.6 64-64 64h-128c-35.4 0-64-28.6-64-64zM128 192c-35.4 0-64-28.6-64-64v-128c0-35.4 28.6-64 64-64h128c35.4 0 64 28.6 64 64v128c0 35.4-28.6 64-64 64H128z"  horiz-adv-x="1024" />
      
      <glyph glyph-name="desktop" unicode="&#59383;" d="M128 896C57.4 896 0 838.6 0 768v-576c0-70.6 57.4-128 128-128h352l-21.4-64H320c-35.4 0-64-28.6-64-64s28.6-64 64-64h512c35.4 0 64 28.6 64 64s-28.6 64-64 64h-138.6L672 64h352c70.6 0 128 57.4 128 128V768c0 70.6-57.4 128-128 128H128z m896-128v-448H128V768h896z"  horiz-adv-x="1152" />
      
      <glyph glyph-name="dharmachakra" unicode="&#59384;" d="M675.6 484.6l97.2 85c27.6-38.6 46.8-83.8 54.8-132.4l-128.8-8.6c-4.8 20.2-12.8 39-23.2 56z m280.2-39c-10.6 77.6-41.2 149-86.4 208.6l1.6 1.4C898 679.2 899.4 720.8 874 746s-66.8 24-90.4-3l-1.4-1.6c-59.6 45.2-131 75.8-208.6 86.4l0.2 2.2c2.4 35.8-26 66-61.8 66s-64.2-30.4-61.8-66l0.2-2.2c-77.6-10.6-149-41.2-208.6-86.4l-1.4 1.6C216.8 770 175.2 771.4 150 746s-24-66.8 3-90.4l1.6-1.4c-45.2-59.6-75.8-131-86.4-208.6l-2.2 0.2c-35.8 2.4-66-26-66-61.8s30.4-64.2 66-61.8l2.2 0.2c10.6-77.6 41.2-149 86.4-208.6l-1.6-1.4C126 88.8 124.6 47.2 150 22s66.8-24 90.4 3l1.4 1.6c59.6-45.2 131-75.8 208.6-86.4l-0.2-2.2c-2.4-35.8 26-66 61.8-66s64.2 30.4 61.8 66l-0.2 2.2c77.6 10.6 149 41.2 208.6 86.4l1.4-1.6c23.6-27 65-28.4 90.4-3s24 66.8-3 90.4l-1.6 1.4c45.2 59.6 75.8 131 86.4 208.6l2.2-0.2c35.8-2.4 66 26 66 61.8s-30.4 64.2-66 61.8l-2.2-0.2z m-629.4 199.2c38.6 27.6 83.8 46.8 132.4 55l8.6-128.8c-20-4.8-39-12.8-56-23.2l-85 97.2z m-130-207.6c8.2 48.8 27.4 93.8 55 132.4l97.2-85c-10.6-17-18.4-36-23.2-56l-128.8 8.6z m55-238.8a319.04 319.04 0 0 0-55 132.4l128.8 8.6c4.8-20 12.8-39 23.2-56l-97.2-85z m207.6-130c-48.8 8.2-93.8 27.4-132.4 54.8l85 97.2c17-10.6 36-18.4 56-23.2l-8.6-128.8z m238.8 54.8c-38.6-27.6-83.8-46.8-132.4-54.8l-8.6 128.8c20 4.8 39 12.8 56 23.2l85-97.2z m130 207.6c-8.2-48.8-27.4-93.8-54.8-132.4l-97.2 85c10.6 17 18.4 36 23.2 56l128.8-8.6z m-130 313.8l-85-97.2c-17.2 10.6-36 18.4-56 23.2l8.6 128.8c48.8-8.2 93.8-27.4 132.4-55zM512 320c-35.4 0-64 28.6-64 64s28.6 64 64 64 64-28.6 64-64-28.6-64-64-64z"  horiz-adv-x="1024" />
      
      <glyph glyph-name="diagram-next" unicode="&#59385;" d="M1024 576c0-70.6-57.4-128-128-128H560v-128h92.2c42.8 0 64.2-51.8 34-82L546 98c-18.8-18.8-49.2-18.8-67.8 0L338 238c-30.2 30.2-8.8 82 34 82h92v128H128c-70.6 0-128 57.4-128 128V704c0 70.6 57.4 128 128 128h768c70.6 0 128-57.4 128-128v-128z m-128-512v128h-165.4l0.8 0.8c36.8 36.8 40.8 87.4 22 127.2H896c70.6 0 128-57.4 128-128v-128c0-70.6-57.4-128-128-128H128c-70.6 0-128 57.4-128 128v128c0 70.6 57.4 128 128 128h142.6c-18.8-39.8-14.8-90.4 22-127.2l0.8-0.8H128v-128h293.4l11.4-11.4c43.8-43.8 114.6-43.8 158.4 0l11.4 11.4H896z"  horiz-adv-x="1024" />
      
      <glyph glyph-name="weibo" unicode="&#58958;" d="M814 540.8c15.2 48-26.8 93.6-74.8 83.4-44-9.6-57.6 56.2-14.2 65.6 100.2 21.8 184.6-74.2 153-169.6-13.6-42.4-77.6-21.6-64 20.6zM429.6 2.6C217 2.6 0 105.4 0 275.2c0 88.6 56 190.8 152.6 287.4C352 762 559 764.4 499.8 574c-8-26.2 24.6-11.4 24.6-12 159 67.2 281 33.6 228-102.8-7.4-18.8 2.2-21.8 16.6-26.2 271.4-84.6 69.6-430.4-339.4-430.4z m287.4 292.6c-10.8 111.4-157 188-326.8 171.4-169.6-17.2-297.6-120.6-286.8-232s157-188 326.8-171.4c169.6 17.2 297.6 120.6 286.8 232zM695.8 825.8c-51.8-11.2-33.6-87.4 16.6-76.6 144.6 30.4 269.6-105.6 223.4-248-14.8-48.4 58.2-74 74.8-24 63.8 199.6-110.2 391.8-314.8 348.6z m-157-622c-34.2-77.6-133.6-120-218.2-92.6-81.6 26.2-116 106.8-80.6 179.4 35.4 70.8 126.2 110.8 206.8 90.2 84-21.6 126.2-100.4 92-177z m-172.6 60c-25.8 10.8-60-0.6-76-25.8-16.6-25.8-8.6-56 17.2-68 26.2-12 61.6-0.6 78.2 25.8 16 26.2 7.4 56.6-19.4 68z m65.2 26.8c-10.2 3.4-22.8-1.2-28.6-10.8-5.8-10.2-2.8-21.2 7.4-25.8 10.2-4 23.4 0.6 29.2 10.8 5.6 10.4 2.2 21.8-8 25.8z"  horiz-adv-x="1024" />
      
      <glyph glyph-name="weixin" unicode="&#58959;" d="M770.4 560.8c12.8 0 25.2-0.6 37.6-2.2C774.8 715.4 606.6 832 415.4 832 201 832 26 686.4 26 501.2c0-106.8 58.6-195 155.8-263.2l-38.6-117.2 136 68.2c48.8-9.6 87.6-19.4 136.4-19.4 12.4 0 24.2 0.6 36.6 1.6-8 25.8-12.4 53.2-12.4 81.6-0.2 169.8 145.8 308 330.6 308z m-209 105.8c29 0 48.4-19.4 48.4-48.8 0-29-19.4-48.4-48.4-48.4-29.6 0-58.6 19.4-58.6 48.4 0.2 29.4 29.2 48.8 58.6 48.8z m-272.8-97.2c-29 0-58.6 19.4-58.6 48.4 0 29.6 29.6 48.8 58.6 48.8 29.6 0 48.8-19.4 48.8-48.8 0-29.2-19.2-48.4-48.8-48.4zM1126 257.2c0 155.8-155.8 282.6-330.8 282.6-185.4 0-330.8-126.8-330.8-282.6S610-25.4 795.2-25.4c38.6 0 77.8 10.2 117.2 19.8l106.8-58.6-29.6 97.2C1068 91.8 1126 169.6 1126 257.2z m-438.2 49c-19.4 0-38.6 19.4-38.6 39.2 0 19.4 19.4 38.6 38.6 38.6 29.6 0 48.8-19.4 48.8-38.6 0-20-19.4-39.2-48.8-39.2z m214.2 0c-19.4 0-38.6 19.4-38.6 39.2 0 19.4 19.4 38.6 38.6 38.6 29 0 48.8-19.4 48.8-38.6 0.2-20-19.8-39.2-48.8-39.2z"  horiz-adv-x="1152" />
      
      <glyph glyph-name="id-card" unicode="&#59027;" d="M736 208h192c26.5 0 48 21.5 48 48s-21.5 48-48 48h-192c-26.5 0-48-21.5-48-48s21.6-48 48-48z m-320 48c70.7 0 128 57.3 128 128s-57.3 128-128 128-128-57.3-128-128c0-70.6 57.4-128 128-128zM1024 832H128C57.3 832 0 774.7 0 704v-640c0-70.7 57.3-128 128-128h896c70.7 0 128 57.3 128 128V704c0 70.7-57.4 128-128 128z m32-768c0-17.644-14.356-32-32-32H640c0 88.36-71.64 160-160 160h-128c-88.4 0-160-71.6-160-160H128c-17.644 0-32 14.356-32 32V576h960v-512zM736 368h192c26.5 0 48 21.5 48 48s-21.5 48-48 48h-192c-26.5 0-48-21.5-48-48s21.6-48 48-48z"  horiz-adv-x="1152" />
      
      <glyph glyph-name="user" unicode="&#59052;" d="M608 288h-192C221.6 288 64 130.4 64-64c0-35.34 28.66-64 64-64h768c35.34 0 64 28.66 64 64 0 194.4-157.6 352-352 352zM161.98-32c15.8 126.2 123.62 224 254.02 224h192c130.32 0 238.2-97.9 254-224H161.98zM512 384c141.38 0 256 114.62 256 256S653.38 896 512 896 256 781.38 256 640c0-141.4 114.6-256 256-256z m0 416c88.22 0 160-71.78 160-160s-71.78-160-160-160-160 71.8-160 160c0 88.22 71.8 160 160 160z"  horiz-adv-x="1024" />
      
      <glyph glyph-name="calculator" unicode="&#59231;" d="M256 896C185.4 896 128 838.6 128 768v-768c0-70.6 57.4-128 128-128h512c70.6 0 128 57.4 128 128V768c0 70.6-57.4 128-128 128H256z m64-128h384c35.4 0 64-28.6 64-64v-64c0-35.4-28.6-64-64-64H320c-35.4 0-64 28.6-64 64V704c0 35.4 28.6 64 64 64zM256 448c0 35.4 28.6 64 64 64s64-28.6 64-64-28.6-64-64-64-64 28.6-64 64z m64-128c35.4 0 64-28.6 64-64s-28.6-64-64-64-64 28.6-64 64 28.6 64 64 64zM256 64c0 35.4 28.6 64 64 64h192c35.4 0 64-28.6 64-64s-28.6-64-64-64H320c-35.4 0-64 28.6-64 64z m256 448c35.4 0 64-28.6 64-64s-28.6-64-64-64-64 28.6-64 64 28.6 64 64 64z m-64-256c0 35.4 28.6 64 64 64s64-28.6 64-64-28.6-64-64-64-64 28.6-64 64z m256 256c35.4 0 64-28.6 64-64s-28.6-64-64-64-64 28.6-64 64 28.6 64 64 64z m-64-256c0 35.4 28.6 64 64 64s64-28.6 64-64-28.6-64-64-64-64 28.6-64 64z m64-128c35.4 0 64-28.6 64-64s-28.6-64-64-64-64 28.6-64 64 28.6 64 64 64z"  horiz-adv-x="1024" />
      
      <glyph glyph-name="calendar-days" unicode="&#59235;" d="M320 896c35.4 0 64-28.6 64-64v-64h256V832c0 35.4 28.6 64 64 64s64-28.6 64-64v-64h96c53 0 96-43 96-96v-96H64v96c0 53 43 96 96 96h96V832c0 35.4 28.6 64 64 64zM64 512h896v-544c0-53-43-96-96-96H160c-53 0-96 43-96 96V512z m128-160v-64c0-17.6 14.4-32 32-32h64c17.6 0 32 14.4 32 32v64c0 17.6-14.4 32-32 32H224c-17.6 0-32-14.4-32-32z m256 0v-64c0-17.6 14.4-32 32-32h64c17.6 0 32 14.4 32 32v64c0 17.6-14.4 32-32 32h-64c-17.6 0-32-14.4-32-32z m288 32c-17.6 0-32-14.4-32-32v-64c0-17.6 14.4-32 32-32h64c17.6 0 32 14.4 32 32v64c0 17.6-14.4 32-32 32h-64zM192 96v-64c0-17.6 14.4-32 32-32h64c17.6 0 32 14.4 32 32v64c0 17.6-14.4 32-32 32H224c-17.6 0-32-14.4-32-32z m288 32c-17.6 0-32-14.4-32-32v-64c0-17.6 14.4-32 32-32h64c17.6 0 32 14.4 32 32v64c0 17.6-14.4 32-32 32h-64z m224-32v-64c0-17.6 14.4-32 32-32h64c17.6 0 32 14.4 32 32v64c0 17.6-14.4 32-32 32h-64c-17.6 0-32-14.4-32-32z"  horiz-adv-x="1024" />
      
      <glyph glyph-name="calendar-plus" unicode="&#59237;" d="M256 832v-64H160C107 768 64 725 64 672v-96h896v96c0 53-43 96-96 96h-96V832c0 35.4-28.6 64-64 64s-64-28.6-64-64v-64H384V832c0 35.4-28.6 64-64 64S256 867.4 256 832z m704-320H64v-544c0-53 43-96 96-96h704c53 0 96 43 96 96V512z m-448-112c26.6 0 48-21.4 48-48v-112h112c26.6 0 48-21.4 48-48s-21.4-48-48-48h-112v-112c0-26.6-21.4-48-48-48s-48 21.4-48 48v112h-112c-26.6 0-48 21.4-48 48s21.4 48 48 48h112v112c0 26.6 21.4 48 48 48z"  horiz-adv-x="1024" />
      
      <glyph glyph-name="calendar-week" unicode="&#59238;" d="M320 896c35.4 0 64-28.6 64-64v-64h256V832c0 35.4 28.6 64 64 64s64-28.6 64-64v-64h96c53 0 96-43 96-96v-96H64v96c0 53 43 96 96 96h96V832c0 35.4 28.6 64 64 64zM64 512h896v-544c0-53-43-96-96-96H160c-53 0-96 43-96 96V512z m160-128c-17.6 0-32-14.4-32-32v-128c0-17.6 14.4-32 32-32h576c17.6 0 32 14.4 32 32v128c0 17.6-14.4 32-32 32H224z"  horiz-adv-x="1024" />
      
      <glyph glyph-name="fingerprint" unicode="&#59524;" d="M96 384c0 229.8 186.2 416 416 416 138.6 0 261.2-67.6 337-172 15.6-21.4 45.6-26.2 67-10.6s26.2 45.6 10.6 67C833.6 812.6 682.6 896 512 896 229.2 896 0 666.8 0 384v-16c0-26.6 21.4-48 48-48s48 21.4 48 48v16z m917 105.8c-5.4 26-31 42.6-56.8 37s-42.6-31-37-56.8c5.8-27.8 9-56.6 9-86.2v-16c0-26.6 21.4-48 48-48s48 21.4 48 48v16c0 36.2-3.8 71.6-11 105.8z m-568.8 149.8c21.6 5.8 44.2 8.8 67.8 8.8 146 0 264.4-118.4 264.4-264.4 0-62.2-3.8-124.8-7.8-172-2-23.6-4-43.2-5.4-56.8-0.8-6.8-1.4-12.2-1.8-15.8l-0.4-4-0.2-1v-0.2c-3.2-26.4 15.4-50.2 41.6-53.6s50.2 15.4 53.6 41.6l-47.6 6 47.6-6v0.4l0.2 1.2 0.6 4.4c0.4 3.8 1 9.6 1.8 16.6 1.6 14.4 3.6 34.8 5.6 59.2 4 48.8 8.2 114.2 8.2 180 0 199-161.4 360.4-360.4 360.4-31.8 0-62.8-4.2-92.4-12-25.6-6.8-41-33-34.2-58.6s33-41 58.6-34.2z m-149-104.2c15.2 21.8 10 51.6-11.8 66.8s-51.6 10-66.8-11.8C175.8 532 151.6 460.8 151.6 384c0-60.2-7.6-117.2-15.2-159.4-3.8-21-7.6-38.2-10.4-49.8-1.4-5.8-2.6-10.4-3.4-13.4-0.4-1.4-0.6-2.6-0.8-3.2l-0.2-0.8v-0.2c-7.2-25.4 7.4-52 33-59.4s52 7.4 59.4 33L167.6 144l46.2-13.2V131.4l0.4 1.2c0.2 1 0.6 2.4 1.2 4.2 1 3.6 2.4 8.8 3.8 15.4 3.2 13.2 7.4 32.2 11.6 55.2 8.4 45.8 16.8 108.8 16.8 176.6 0 56.4 17.6 108.6 47.6 151.4zM512 496c61.8 0 112-50.2 112-112 0-94.2-5.4-172.6-11-227.2-2.8-27.4-5.4-48.6-7.4-63.2-1-7.2-1.8-12.6-2.4-16.2-0.2-1.8-0.4-3.2-0.6-4l-0.2-1v-0.2c-4.6-26.2 13-51 39-55.6s51 12.8 55.6 39l-47.4 8.4 47.2-8.2V56.4l0.2 1.4c0.2 1.2 0.4 2.8 0.8 4.8 0.6 4.2 1.6 10.2 2.6 18 2.2 15.6 5 38.2 8 66.8 5.8 57.4 11.4 139 11.4 236.8 0 114.8-93.2 208-208 208s-208-93.2-208-208c0-93.4-7.8-166.8-15.4-216.8-3.8-25-7.6-43.8-10.4-56.4-1.4-6.2-2.6-11-3.2-13.8-0.4-1.4-0.6-2.6-0.8-3.2l-0.2-0.6c-7.2-25.4 7.4-52 33-59.4s52 7.4 59.4 33L320 80l46.2-13.2v0.2l0.2 0.4 0.4 1.4c0.2 1 0.6 2.6 1.2 4.6 1 4 2.4 9.6 4 16.8 3.2 14.4 7.4 35.6 11.6 62.6 6 38.4 11.8 89.2 14.6 150.6 1.2 25.2 1.8 52 1.8 80.6 0 61.8 50.2 112 112 112z m48-112c0 26.6-21.4 48-48 48s-48-21.4-48-48c0-90.8-5.2-166.8-12.6-229L404-60.6c-10.6-24.2 0.2-52.4 24.4-63.2 24.2-10.8 52.6 0.2 63.4 24.4L448-80l43.8-19.4v0.2l0.2 0.6 0.8 1.8c0.6 1.6 1.4 3.6 2.4 6.2 2 5.4 4.8 13 8 23 6.6 20.2 15 49.8 23.4 89.4 17 79.6 33.4 199 33.4 362.2z m-108.6-229L512 432l-60.6-277z m0 0c-5.4-45-11.8-82.6-18.4-113.2-7.6-36.4-15.2-62.6-20.6-79.6-2.8-8.4-5-14.6-6.4-18.4-0.8-1.8-1.2-3.2-1.6-4l-0.2-0.8 47.2 215.8z"  horiz-adv-x="1024" />
      
      <glyph glyph-name="house-signal" unicode="&#59675;" d="M628.6 879c24.6 22.6 62.4 22.6 86.8 0l416-384c19.4-17.8 25.8-45.8 16.2-70.4S1114.4 384 1088 384h-64v-224c0-53-43-96-96-96H556.2c-37 130.4-122.6 240.2-236.2 308.6V384h-19.8c-33 18-68 32.4-104.6 43.2-8.2 24-1.6 50.6 17 68l416 384zM608 512c-17.6 0-32-14.4-32-32v-128c0-17.6 14.4-32 32-32h128c17.6 0 32 14.4 32 32v128c0 17.6-14.4 32-32 32h-128zM48 384c256.2 0 464-207.8 464-464 0-26.6-21.4-48-48-48s-48 21.4-48 48c0 203.2-164.8 368-368 368-26.6 0-48 21.4-48 48s21.4 48 48 48z m16-512c-35.4 0-64 28.6-64 64s28.6 64 64 64 64-28.6 64-64-28.6-64-64-64zM0 144c0 26.6 21.4 48 48 48 150.2 0 272-121.8 272-272 0-26.6-21.4-48-48-48s-48 21.4-48 48c0 97.2-78.8 176-176 176-26.6 0-48 21.4-48 48z"  horiz-adv-x="1152" />
      
      <glyph glyph-name="house-user" unicode="&#59677;" d="M1151.375122 385.099785c0-35.99297-29.994142-64.187463-63.987502-64.187463h-63.987503l1.399727-320.337434c0.399922-70.986136-56.988869-128.574888-127.975005-128.574888H256.149971c-70.586214 0-127.975005 57.388791-127.975005 127.975005V320.912322H63.987502c-35.99297 0-63.987502 27.994532-63.987502 64.187463 0 17.996485 5.998828 33.993361 19.996095 47.990627L532.695958 880.003124c13.997266 13.997266 29.994142 15.996876 43.991408 15.996876s29.994142-3.999219 41.991798-13.997266l510.700254-448.912322c15.996876-13.997266 23.995313-29.994142 21.995704-47.990627zM703.862527 448.087483c0 70.586214-57.388791 127.975005-127.975005 127.975005s-127.975005-57.388791-127.975005-127.975005 57.388791-127.975005 127.975005-127.975005 127.975005 57.388791 127.975005 127.975005z m-191.962507-191.962507c-88.382738 0-159.968756-71.586018-159.968757-159.968757 0-17.596563 14.397188-31.993751 31.993752-31.993751h383.925014c17.596563 0 31.993751 14.397188 31.993752 31.993751 0 88.382738-71.586018 159.968756-159.968757 159.968757h-127.975004z"  horiz-adv-x="1151" />
      
      <glyph glyph-name="id-card1" unicode="&#59686;" d="M0 704h1152c0 70.6-57.4 128-128 128H128C57.4 832 0 774.6 0 704z m0-64v-576c0-70.6 57.4-128 128-128h896c70.6 0 128 57.4 128 128V640H0z m128-554.6c0 59 47.8 106.6 106.6 106.6h234.8c59 0 106.6-47.8 106.6-106.6 0-11.8-9.6-21.4-21.4-21.4H149.4c-11.8 0-21.4 9.6-21.4 21.4zM352 256c-70.6 0-128 57.4-128 128s57.4 128 128 128 128-57.4 128-128-57.4-128-128-128z m352 224c0 17.6 14.4 32 32 32h256c17.6 0 32-14.4 32-32s-14.4-32-32-32H736c-17.6 0-32 14.4-32 32z m0-128c0 17.6 14.4 32 32 32h256c17.6 0 32-14.4 32-32s-14.4-32-32-32H736c-17.6 0-32 14.4-32 32z m0-128c0 17.6 14.4 32 32 32h256c17.6 0 32-14.4 32-32s-14.4-32-32-32H736c-17.6 0-32 14.4-32 32z"  horiz-adv-x="1152" />
      
      <glyph glyph-name="indent" unicode="&#59693;" d="M64 768c0 35.4 28.6 64 64 64h768c35.4 0 64-28.6 64-64s-28.6-64-64-64H128C92.6 704 64 732.6 64 768z m384-256c0 35.4 28.6 64 64 64h384c35.4 0 64-28.6 64-64s-28.6-64-64-64H512c-35.4 0-64 28.6-64 64z m64-192h384c35.4 0 64-28.6 64-64s-28.6-64-64-64H512c-35.4 0-64 28.6-64 64s28.6 64 64 64zM64 0c0 35.4 28.6 64 64 64h768c35.4 0 64-28.6 64-64s-28.6-64-64-64H128c-35.4 0-64 28.6-64 64z m255.6 358.8l-204-158.6c-21-16.4-51.6-1.4-51.6 25.2V542.6c0 26.6 30.6 41.6 51.6 25.2l203.8-158.6c16.4-12.8 16.4-37.8 0-50.6z"  horiz-adv-x="1024" />
      
      <glyph glyph-name="rectangle-ad" unicode="&#59950;" d="M128 832C57.4 832 0 774.6 0 704v-640c0-70.6 57.4-128 128-128h896c70.6 0 128 57.4 128 128V704c0 70.6-57.4 128-128 128H128z m331-282.6l144-288c11.8-23.8 2.2-52.6-21.4-64.4s-52.6-2.2-64.4 21.4l-10.8 21.6h-180.8l-10.8-21.4c-11.8-23.8-40.6-33.4-64.4-21.4s-33.4 40.6-21.4 64.4l144 288c8.2 16.2 24.8 26.6 43 26.6s34.8-10.2 43-26.6zM416 420.6L373.6 336h84.6L416 420.6zM784 384c-26.6 0-48-21.4-48-48s21.4-48 48-48 48 21.4 48 48-21.4 48-48 48z m48 87.8V528c0 26.6 21.4 48 48 48s48-21.4 48-48v-288c0-26.6-21.4-48-48-48-13.2 0-25.2 5.4-34 14-18.8-9-39.8-14-62-14-79.6 0-144 64.4-144 144s64.4 144 144 144c16.8 0 33-2.8 48-8.2z"  horiz-adv-x="1152" />
      
      <glyph glyph-name="rectangle-list" unicode="&#59951;" d="M0 704c0 70.6 57.4 128 128 128h896c70.6 0 128-57.4 128-128v-640c0-70.6-57.4-128-128-128H128c-70.6 0-128 57.4-128 128V704z m256-384c35.4 0 64 28.6 64 64s-28.6 64-64 64-64-28.6-64-64 28.6-64 64-64z m64 256c0 35.4-28.6 64-64 64s-64-28.6-64-64 28.6-64 64-64 64 28.6 64 64z m-64-448c35.4 0 64 28.6 64 64s-28.6 64-64 64-64-28.6-64-64 28.6-64 64-64z m192 496c-26.6 0-48-21.4-48-48s21.4-48 48-48h448c26.6 0 48 21.4 48 48s-21.4 48-48 48H448z m0-192c-26.6 0-48-21.4-48-48s21.4-48 48-48h448c26.6 0 48 21.4 48 48s-21.4 48-48 48H448z m0-192c-26.6 0-48-21.4-48-48s21.4-48 48-48h448c26.6 0 48 21.4 48 48s-21.4 48-48 48H448z"  horiz-adv-x="1152" />
      
      <glyph glyph-name="retweet" unicode="&#59958;" d="M544 64c35.4 0 64 28.6 64 64s-28.6 64-64 64H320c-35.4 0-64 28.6-64 64V512h64c25.8 0 49.2 15.6 59.2 39.6s4.4 51.4-13.8 69.8l-128 128c-25 25-65.6 25-90.6 0l-128-128c-18.4-18.4-23.8-45.8-13.8-69.8S38.2 512 64.2 512h64v-256c0-106 86-192 192-192H544z m64 640c-35.4 0-64-28.6-64-64s28.6-64 64-64h224c35.4 0 64-28.6 64-64v-256h-64c-25.8 0-49.2-15.6-59.2-39.6s-4.4-51.4 13.8-69.8l128-128c25-25 65.6-25 90.6 0l128 128c18.4 18.4 23.8 45.8 13.8 69.8S1113.8 256 1087.8 256h-64V512c0 106-86 192-192 192H608z"  horiz-adv-x="1152" />
      
      <glyph glyph-name="right-from-bracket" unicode="&#59960;" d="M320 704c35.4 0 64 28.6 64 64s-28.6 64-64 64H192C86 832 0 746 0 640v-512c0-106 86-192 192-192h128c35.4 0 64 28.6 64 64s-28.6 64-64 64H192c-35.4 0-64 28.6-64 64V640c0 35.4 28.6 64 64 64h128z m689-354.8c9.6 9 15 21.6 15 34.8s-5.4 25.8-15 34.8l-288 272c-14 13.2-34.4 16.8-52 9.2S640 675 640 656v-144H384c-35.4 0-64-28.6-64-64v-128c0-35.4 28.6-64 64-64h256v-144c0-19.2 11.4-36.4 29-44s38-4 52 9.2l288 272z"  horiz-adv-x="1024" />
      
      <glyph glyph-name="right-left" unicode="&#59961;" d="M64.186086 703.930428h639.860855V831.902599c0 25.794391 15.596608 49.189303 39.59139 59.187129s51.388825 4.399043 69.784825-13.797l191.958256-191.958256c11.997391-11.997391 18.795913-28.193869 18.795913-45.190173s-6.798522-33.192782-18.795913-45.190173l-191.958256-191.958257c-18.396-18.396-45.790042-23.794826-69.784825-13.797S704.046941 422.391651 704.046941 448.385999V575.958257H64.186086c-35.392304 0-63.986086 28.593782-63.986086 63.986085s28.593782 63.986086 63.986086 63.986086z m895.805197-511.888685c35.392304 0 63.986086-28.593782 63.986085-63.986085s-28.593782-63.986086-63.986085-63.986086H320.130428v-127.972171c0-25.794391-15.596608-49.189303-39.591391-59.187129s-51.388825-4.399043-69.784824 13.797l-191.958257 191.958256c-11.997391 11.997391-18.795913 28.193869-18.795913 45.190173s6.798522 33.192782 18.795913 45.190173l191.958257 191.958257c18.396 18.396 45.790042 23.794826 69.784824 13.797s39.59139-33.192782 39.591391-59.18713v-127.972171h639.860855z"  horiz-adv-x="1024" />
      
      <glyph glyph-name="right-long" unicode="&#59962;" d="M669 68c17.6-7.6 38-4 52 9.2l288 272c9.6 9 15 21.6 15 34.8s-5.4 25.8-15 34.8l-288 272c-14 13.2-34.4 16.8-52 9.2S640 675 640 656v-176H64c-35.4 0-64-28.6-64-64v-64c0-35.4 28.6-64 64-64h576v-176c0-19.2 11.4-36.4 29-44z"  horiz-adv-x="1024" />
      
      <glyph glyph-name="right-to-bracket" unicode="&#59963;" d="M704 704h128c35.4 0 64-28.6 64-64v-512c0-35.4-28.6-64-64-64h-128c-35.4 0-64-28.6-64-64s28.6-64 64-64h128c106 0 192 86 192 192V640c0 106-86 192-192 192h-128c-35.4 0-64-28.6-64-64s28.6-64 64-64z m-15-354.8c9.6 9 15 21.6 15 34.8s-5.4 25.8-15 34.8l-288 272c-14 13.2-34.4 16.8-52 9.2S320 675 320 656v-144H64c-35.4 0-64-28.6-64-64v-128c0-35.4 28.6-64 64-64h256v-144c0-19.2 11.4-36.4 29-44s38-4 52 9.2l288 272z"  horiz-adv-x="1024" />
      
      <glyph glyph-name="rotate" unicode="&#59974;" d="M285.8 610.2c124.4 124.4 325.4 125 450.6 2L654 530c-13.8-13.8-17.8-34.4-10.4-52.4S668.6 448 688 448h256c26.6 0 48 21.4 48 48V752c0 19.4-11.6 37-29.6 44.4S923.8 799.8 910 786l-83.2-83.2c-175.2 173-457.4 172.4-631.6-2-48.8-48.8-84-106.2-105.6-167.6-11.8-33.4 5.8-69.8 39-81.6s69.8 5.8 81.6 39c15.4 43.6 40.4 84.6 75.6 119.6zM32 272v-256c0-19.4 11.6-37 29.6-44.4s38.6-3.4 52.4 10.4l83.2 83.2c175.2-173 457.4-172.4 631.6 2 48.8 48.8 84.2 106.2 105.8 167.4 11.8 33.4-5.8 69.8-39 81.6s-69.8-5.8-81.6-39c-15.4-43.6-40.4-84.6-75.6-119.6-124.4-124.4-325.4-125-450.6-2L370 238c13.8 13.8 17.8 34.4 10.4 52.4S355.4 320 336 320H80c-26.6 0-48-21.4-48-48z"  horiz-adv-x="1024" />
      
      <glyph glyph-name="rss" unicode="&#59978;" d="M64 768c0 35.4 28.6 64 64 64 459.6 0 832-372.4 832-832 0-35.4-28.6-64-64-64s-64 28.6-64 64C832 388.8 516.8 704 128 704 92.6 704 64 732.6 64 768z m256-704c0-70.6-57.4-128-128-128S64-6.6 64 64s57.4 128 128 128 128-57.4 128-128zM128 576c318.2 0 576-257.8 576-576 0-35.4-28.6-64-64-64s-64 28.6-64 64c0 247.4-200.6 448-448 448-35.4 0-64 28.6-64 64s28.6 64 64 64z"  horiz-adv-x="1024" />
      
      <glyph glyph-name="share" unicode="&#60008;" d="M614 826.4c-23-10.2-38-33.2-38-58.4v-128H352C157.6 640 0 482.4 0 288c0-226.6 163-327.8 200.4-348.2 5-2.8 10.6-3.8 16.2-3.8 21.8 0 39.4 17.8 39.4 39.4 0 15-8.6 28.8-19.6 39-18.8 17.8-44.4 52.8-44.4 113.6 0 106 86 192 192 192h192v-128c0-25.2 14.8-48.2 38-58.4s50-6 68.8 10.8l320 288c13.4 12.2 21.2 29.4 21.2 47.6s-7.6 35.4-21.2 47.6l-320 288a63.52 63.52 0 0 1-68.8 10.8z"  horiz-adv-x="1024" />
      
      <glyph glyph-name="share-from-square" unicode="&#60009;" d="M704 448h-93c-90 0-163-73-163-163 0-44.6 20.6-68.6 38.4-81 13.6-9.4 25.6-24 25.6-40.6 0-19.6-16-35.6-35.6-35.6h-5c-4.8 0-9.6 0.8-14.2 2.8C421.6 146.4 256 229.2 256 416c0 159 129 288 288 288h160V826.6C704 865 735 896 773.4 896c17.2 0 33.6-6.4 46.4-17.8l276.4-248.8c15.2-13.6 23.8-33 23.8-53.4s-8.6-39.8-23.8-53.4l-278-250.2c-11.8-10.6-27-16.4-42.8-16.4H768c-35.4 0-64 28.6-64 64v128zM160 704c-17.6 0-32-14.4-32-32v-640c0-17.6 14.4-32 32-32h640c17.6 0 32 14.4 32 32v96c0 35.4 28.6 64 64 64s64-28.6 64-64v-96c0-88.4-71.6-160-160-160H160c-88.4 0-160 71.6-160 160V672c0 88.4 71.6 160 160 160h96c35.4 0 64-28.6 64-64s-28.6-64-64-64H160z"  horiz-adv-x="1152" />
      
      <glyph glyph-name="share-nodes" unicode="&#60010;" d="M768 448c106 0 192 86 192 192s-86 192-192 192-192-86-192-192c0-8 0.4-16 1.4-23.8l-188.2-94C354.8 555.6 307.8 576 256 576c-106 0-192-86-192-192s86-192 192-192c51.8 0 98.8 20.4 133.2 53.8l188.2-94c-1-7.8-1.4-15.6-1.4-23.8 0-106 86-192 192-192s192 86 192 192-86 192-192 192c-51.8 0-98.8-20.4-133.2-53.8l-188.2 94c1 7.8 1.4 15.6 1.4 23.8s-0.4 16-1.4 23.8l188.2 94c34.4-33.4 81.4-53.8 133.2-53.8z"  horiz-adv-x="1024" />
      
      <glyph glyph-name="sitemap" unicode="&#60034;" d="M416 736c0 53 43 96 96 96h128c53 0 96-43 96-96v-128c0-53-43-96-96-96h-16v-80h304c61.8 0 112-50.2 112-112v-64h16c53 0 96-43 96-96v-128c0-53-43-96-96-96h-128c-53 0-96 43-96 96v128c0 53 43 96 96 96h16v64c0 8.8-7.2 16-16 16H624v-80h16c53 0 96-43 96-96v-128c0-53-43-96-96-96h-128c-53 0-96 43-96 96v128c0 53 43 96 96 96h16v80H224c-8.8 0-16-7.2-16-16v-64h16c53 0 96-43 96-96v-128c0-53-43-96-96-96H96c-53 0-96 43-96 96v128c0 53 43 96 96 96h16v64c0 61.8 50.2 112 112 112h304v80h-16c-53 0-96 43-96 96V736z"  horiz-adv-x="1152" />
      
      <glyph glyph-name="sliders" unicode="&#60039;" d="M0 64c0 35.4 28.6 64 64 64h109.4c24.6 56.6 81 96 146.6 96s122-39.4 146.6-96H960c35.4 0 64-28.6 64-64s-28.6-64-64-64H466.6c-24.6-56.6-81-96-146.6-96s-122 39.4-146.6 96H64c-35.4 0-64 28.6-64 64z m384 0c0 35.4-28.6 64-64 64s-64-28.6-64-64 28.6-64 64-64 64 28.6 64 64z m384 320c0 35.4-28.6 64-64 64s-64-28.6-64-64 28.6-64 64-64 64 28.6 64 64z m-64 160c65.6 0 122-39.4 146.6-96H960c35.4 0 64-28.6 64-64s-28.6-64-64-64h-109.4c-24.6-56.6-81-96-146.6-96s-122 39.4-146.6 96H64c-35.4 0-64 28.6-64 64s28.6 64 64 64h493.4c24.6 56.6 81 96 146.6 96zM384 768c-35.4 0-64-28.6-64-64s28.6-64 64-64 64 28.6 64 64-28.6 64-64 64z m146.6 0H960c35.4 0 64-28.6 64-64s-28.6-64-64-64H530.6c-24.6-56.6-81-96-146.6-96s-122 39.4-146.6 96H64c-35.4 0-64 28.6-64 64s28.6 64 64 64h173.4C262 824.6 318.4 864 384 864s122-39.4 146.6-96z"  horiz-adv-x="1024" />
      
      <glyph glyph-name="qrcode" unicode="&#59246;" d="M85.312 810.688V512H384V810.688H85.312zM0 896h469.248v-469.248H0V896z m170.624-170.624h128v-128h-128v128zM0 341.376h469.248v-469.248H0V341.376z m85.312-85.312v-298.624H384V256.064H85.312z m85.312-85.312h128v-128h-128v128zM554.624 896h469.248v-469.248H554.624V896z m85.312-85.312V512h298.624V810.688H639.936z m383.936-682.56H1024v-85.376h-298.752V256.064H639.936V-127.872H554.624V341.376h255.936v-213.248h128V341.376h85.312v-213.248z m-298.624 597.248h128v-128h-128v128z m298.624-853.248h-85.312v85.312h85.312v-85.312z m-213.312 0h-85.312v85.312h85.312v-85.312z"  horiz-adv-x="1024" />
      
    </font>
</defs>
</svg>
