<?xml version="1.0" encoding="UTF-8"?>
<svg width="20px" height="20px" viewBox="0 0 20 20" version="1.1" xmlns="http://www.w3.org/2000/svg" xmlns:xlink="http://www.w3.org/1999/xlink">
    <title>header_nav_icon02</title>
    <g id="效果图" stroke="none" stroke-width="1" fill="none" fill-rule="evenodd">
        <g id="切图" transform="translate(-313.000000, -55.000000)" fill="#64ADF4">
            <g id="header_nav_icon02" transform="translate(313.000000, 55.000000)">
                <rect id="矩形备份-22" fill-opacity="0" x="0" y="0" width="20" height="20"></rect>
                <path d="M16.2,2.8 L3.8,2.8 C2.42020142,2.8022024 1.3022024,3.92020142 1.3,5.3 L1.3,12.9 C1.3022024,14.2797986 2.42020142,15.3977976 3.8,15.4 L16.2,15.4 C17.5797986,15.3977976 18.6977976,14.2797986 18.7,12.9 L18.7,5.3 C18.6977976,3.92020142 17.5797986,2.8022024 16.2,2.8 Z M17.7,12.9 C17.7,13.7284271 17.0284271,14.4 16.2,14.4 L3.8,14.4 C2.97157288,14.4 2.3,13.7284271 2.3,12.9 L2.3,5.3 C2.3,4.90217527 2.45803526,4.5206444 2.73933983,4.23933983 C3.0206444,3.95803526 3.40217527,3.8 3.8,3.8 L16.2,3.8 C17.0284271,3.8 17.7,4.47157288 17.7,5.3 L17.7,12.9 Z M13.9,16.2 L6.3,16.2 C6.02385763,16.2 5.8,16.4238576 5.8,16.7 C5.8,16.9761424 6.02385763,17.2 6.3,17.2 L13.9,17.2 C14.1761424,17.2 14.4,16.9761424 14.4,16.7 C14.4,16.4238576 14.1761424,16.2 13.9,16.2 Z" id="形状" fill-rule="nonzero"></path>
                <path d="M15.1,5.6 L12.9,5.6 C12.6238576,5.6 12.4,5.82385763 12.4,6.1 C12.4,6.37614237 12.6238576,6.6 12.9,6.6 L13.9,6.6 L10.5,10 L8.632,8.13 C8.43573295,7.93633043 8.12026705,7.93633043 7.924,8.13 L4.446,11.6 C4.31952798,11.726472 4.27013504,11.910809 4.31642701,12.083573 C4.36271898,12.256337 4.49766302,12.391281 4.67042701,12.437573 C4.843191,12.483865 5.02752798,12.434472 5.154,12.308 L8.278,9.184 L10.146,11.054 C10.3422671,11.2476696 10.6577329,11.2476696 10.854,11.054 L14.6,7.308 L14.6,8.308 C14.6,8.58414237 14.8238576,8.808 15.1,8.808 C15.3761424,8.808 15.6000641,8.58414237 15.6000641,8.308 L15.6000641,6.108 C15.6021441,5.97401111 15.5504137,5.84476924 15.4564122,5.74926363 C15.3624106,5.65375802 15.234006,5.6 15.1,5.6 Z" id="路径" fill-rule="nonzero"></path>
            </g>
        </g>
    </g>
</svg>