<?xml version="1.0" encoding="UTF-8"?>
<svg width="20px" height="20px" viewBox="0 0 20 20" version="1.1" xmlns="http://www.w3.org/2000/svg" xmlns:xlink="http://www.w3.org/1999/xlink">
    <title>header_nav_icon03</title>
    <g id="效果图" stroke="none" stroke-width="1" fill="none" fill-rule="evenodd">
        <g id="切图" transform="translate(-435.000000, -55.000000)" fill="#64ADF4">
            <g id="header_nav_icon03" transform="translate(435.000000, 55.000000)">
                <rect id="矩形备份-23" fill-opacity="0" x="0" y="0" width="20" height="20"></rect>
                <g id="编组" transform="translate(2.800000, 1.500000)" fill-rule="nonzero">
                    <path d="M14.2475247,11.4831683 C14.2505554,11.4528809 14.2505554,11.4223666 14.2475247,11.3920792 L14.2475247,2.47524752 C14.2453698,1.11295889 13.1444473,0.00761494592 11.7821782,0 L2.47524752,0 C1.10911032,0.00218059804 0.00218059804,1.10911032 0,2.47524752 L0,14.5544554 C0.00218059804,15.9205927 1.10911032,17.0275224 2.47524752,17.029703 L8.61386139,17.029703 C8.64481565,17.0326256 8.67597642,17.0326256 8.70693068,17.029703 L8.76039604,17.0138614 L8.8,17.0019802 C8.81980197,17.0019802 8.83762377,16.9821782 8.85742574,16.9722772 L8.88514852,16.9564356 C8.91194818,16.9381736 8.93712387,16.9176356 8.96039604,16.8950495 L14.1089109,11.7465346 C14.1385519,11.7145945 14.1644613,11.6793844 14.1861386,11.6415842 C14.1915467,11.6327585 14.1961843,11.6234833 14.2,11.6138614 C14.2229973,11.5732421 14.2390592,11.5290718 14.2475247,11.4831683 Z M0.990099004,14.5544554 L0.990099004,2.47524752 C0.990099004,1.65502264 1.65502264,0.990099004 2.47524752,0.990099004 L11.7821782,0.990099004 C12.6024031,0.990099004 13.2673267,1.65502264 13.2673267,2.47524752 L13.2673267,10.8910891 L10.5940594,10.8910891 C9.22792219,10.8932697 8.12099246,12.0001994 8.11881187,13.3663366 L8.11881187,16.039604 L2.47524752,16.039604 C1.65502264,16.039604 0.990099004,15.3746803 0.990099004,14.5544554 Z M9.1089109,15.3465346 L9.1089109,13.3663366 C9.1089109,12.5461118 9.77383454,11.8811881 10.5940594,11.8811881 L12.5742574,11.8811881 L9.1089109,15.3465346 Z" id="形状"></path>
                    <path d="M3.06930693,4.55445545 L11.1881188,4.55445545 C11.4615271,4.55445545 11.6831683,4.33281423 11.6831683,4.05940594 C11.6831683,3.78599765 11.4615271,3.56435643 11.1881188,3.56435643 L3.06930693,3.56435643 C2.79589865,3.56435643 2.57425744,3.78599765 2.57425744,4.05940594 C2.57425744,4.33281423 2.79589865,4.55445545 3.06930693,4.55445545 L3.06930693,4.55445545 Z M3.06930693,7.52475248 L11.1881188,7.52475248 C11.4615271,7.52475248 11.6831683,7.30311126 11.6831683,7.02970297 C11.6831683,6.75629467 11.4615271,6.53465346 11.1881188,6.53465346 L3.06930693,6.53465346 C2.79589864,6.53465346 2.57425742,6.75629467 2.57425742,7.02970297 C2.57425742,7.30311126 2.79589864,7.52475248 3.06930693,7.52475248 Z M7.22772277,9.50495049 L3.06930693,9.50495049 C2.79589864,9.50495049 2.57425742,9.7265917 2.57425742,10 C2.57425742,10.2734083 2.79589864,10.4950495 3.06930693,10.4950495 L7.22772277,10.4950495 C7.50113107,10.4950495 7.72277229,10.2734083 7.72277229,10 C7.72277229,9.7265917 7.50113107,9.50495049 7.22772277,9.50495049 Z" id="形状"></path>
                </g>
            </g>
        </g>
    </g>
</svg>