<?xml version="1.0" encoding="UTF-8"?>
<svg width="20px" height="20px" viewBox="0 0 20 20" version="1.1" xmlns="http://www.w3.org/2000/svg" xmlns:xlink="http://www.w3.org/1999/xlink">
    <title>header_nav_icon09</title>
    <g id="效果图" stroke="none" stroke-width="1" fill="none" fill-rule="evenodd">
        <g id="切图" transform="translate(-1169.000000, -55.000000)" fill="#64ADF4">
            <g id="header_nav_icon09" transform="translate(1169.000000, 55.000000)">
                <rect id="矩形" fill-opacity="0" x="0" y="0" width="20" height="20"></rect>
                <g id="编组" transform="translate(1.500000, 1.500000)" fill-rule="nonzero">
                    <path d="M16.5345551,16.039604 L15.692971,16.039604 L15.692971,7.52475248 C15.6907904,6.15861527 14.5838607,5.05168554 13.2177234,5.04950494 L11.7820799,5.04950494 L11.7820799,2.46138613 C11.7820799,1.10297029 10.5662383,0 9.07316899,0 L5.97613929,0 C4.48306999,0 3.26722841,1.10297029 3.26722841,2.46138613 L3.26722841,7.62376238 C2.64714598,7.3469112 1.9184321,7.59355282 1.59396108,8.190099 L0.435545224,10.3405941 C-0.12733805,11.3793904 0.0224035502,12.6597206 0.809802665,13.5405941 C1.1942273,13.9719084 1.7098177,14.2648417 2.27712938,14.3742574 L2.27712938,16.039604 L0.494951181,16.039604 C0.22158129,16.0396583 0,16.2612836 0,16.5346535 C0,16.8080234 0.22158129,17.029703 0.494951181,17.029703 L16.5345551,17.029703 C16.807925,17.029703 17.0295063,16.8080234 17.0295063,16.5346535 C17.0295063,16.2612836 16.807925,16.0396583 16.5345551,16.039604 L16.5345551,16.039604 Z M13.2177234,6.03960396 C14.0379483,6.03960396 14.702872,6.7045276 14.702872,7.52475248 L14.702872,8.51485148 L13.3662383,8.51485148 C13.1893507,8.51481635 13.0258848,8.60916457 12.9374309,8.76234785 C12.848977,8.91553112 12.848977,9.10427085 12.9374309,9.25745413 C13.0258848,9.41063741 13.1893507,9.50498562 13.3662383,9.50495049 L14.7008918,9.50495049 L14.7008918,10.6930693 L13.3662383,10.6930693 C13.09283,10.6930693 12.8711888,10.9147105 12.8711888,11.1881188 C12.8711888,11.4615271 13.09283,11.6831683 13.3662383,11.6831683 L14.7008918,11.6831683 L14.7008918,13.0693069 L13.3662383,13.0693069 C13.1893507,13.0692718 13.0258848,13.16362 12.9374309,13.3168033 C12.848977,13.4699866 12.848977,13.6587263 12.9374309,13.8119096 C13.0258848,13.9650929 13.1893507,14.0594411 13.3662383,14.0594059 L14.7008918,14.0594059 L14.7008918,16.039604 L11.7820799,16.039604 L11.7820799,6.03960396 L13.2177234,6.03960396 Z M1.54643632,12.8792079 C1.0387427,12.3095146 0.942902511,11.482596 1.30683235,10.8118812 L2.47514919,8.66732674 C2.52680336,8.56859718 2.62907017,8.50681721 2.74049573,8.50693068 C2.85211291,8.50388156 2.95635999,8.56247298 3.01178286,8.65940594 L4.21178286,10.7524753 C4.62164752,11.455931 4.51319559,12.3462079 3.94643632,12.9306931 C3.64475312,13.2487351 3.22827572,13.4327268 2.79000067,13.4415842 L2.73851554,13.4415842 C2.27981035,13.4298567 1.84718412,13.2257606 1.54643632,12.8792079 L1.54643632,12.8792079 Z M3.26722841,14.3742574 C3.80426105,14.2646188 4.29447938,13.9921985 4.6711888,13.5940594 C5.52972539,12.6925094 5.69101539,11.3328347 5.06722841,10.2554455 L4.25732741,8.85346535 L4.25732741,2.46138613 C4.25732741,1.64950494 5.02762444,0.990099004 5.97613929,0.990099004 L9.07316899,0.990099004 C10.0216838,0.990099004 10.7919809,1.64950494 10.7919809,2.46138613 L10.7919809,16.039604 L9.50485216,16.039604 L9.50485216,13.3663366 C9.50485216,12.6574257 8.87316899,12.0792079 8.09495118,12.0792079 L6.95435712,12.0792079 C6.17613931,12.0792079 5.54445612,12.6574257 5.54445612,13.3663366 L5.54445612,16.039604 L3.26722841,16.039604 L3.26722841,14.3742574 Z M8.51475315,16.039604 L6.53455513,16.039604 L6.53455513,13.3663366 C6.53455513,13.2079208 6.73257493,13.0693069 6.95435712,13.0693069 L8.09495118,13.0693069 C8.31871356,13.0693069 8.51475315,13.2079208 8.51475315,13.3663366 L8.51475315,16.039604 Z" id="形状"></path>
                    <path d="M6.03950563,4.05940594 L9.00980267,4.05940594 C9.28317256,4.05935164 9.50475385,3.83772633 9.50475385,3.56435644 C9.50475385,3.29098654 9.28317256,3.06936123 9.00980267,3.06930693 L6.03950563,3.06930693 C5.76613574,3.06936123 5.54455445,3.29098654 5.54455445,3.56435644 C5.54455445,3.83772633 5.76613574,4.05935164 6.03950563,4.05940594 Z M6.03950563,6.63366336 L9.00980267,6.63366336 C9.28317256,6.63360906 9.50475385,6.41198375 9.50475385,6.13861386 C9.50475385,5.86524396 9.28317256,5.64361865 9.00980267,5.64356436 L6.03950563,5.64356436 C5.76613574,5.64361865 5.54455445,5.86524396 5.54455445,6.13861386 C5.54455445,6.41198375 5.76613574,6.63360906 6.03950563,6.63366336 Z M6.03950563,9.2079208 L9.00980267,9.2079208 C9.28321096,9.2079208 9.50485218,8.98627958 9.50485218,8.71287129 C9.50485218,8.43946299 9.28321096,8.21782178 9.00980267,8.21782178 L6.03950563,8.21782178 C5.76609734,8.21782178 5.54445612,8.43946299 5.54445612,8.71287129 C5.54445612,8.98627958 5.76609734,9.2079208 6.03950563,9.2079208 Z" id="形状"></path>
                </g>
            </g>
        </g>
    </g>
</svg>