<?xml version="1.0" encoding="UTF-8"?>
<svg width="20px" height="20px" viewBox="0 0 20 20" version="1.1" xmlns="http://www.w3.org/2000/svg" xmlns:xlink="http://www.w3.org/1999/xlink">
    <title>header_nav_icon07</title>
    <g id="效果图" stroke="none" stroke-width="1" fill="none" fill-rule="evenodd">
        <g id="切图" transform="translate(-924.000000, -55.000000)" fill="#64ADF4">
            <g id="header_nav_icon07" transform="translate(924.000000, 55.000000)">
                <rect id="矩形备份-35" fill-opacity="0" x="0" y="0" width="20" height="20"></rect>
                <g id="编组" transform="translate(1.400000, 2.900000)" fill-rule="nonzero">
                    <path d="M15.8079208,9.52673268 L15.2356436,9.52673268 L15.2356436,7.93069307 C15.2345879,7.21865608 14.6605228,6.64017512 13.9485148,6.63366336 L9.04158416,6.63366336 L9.04158416,5.54455445 L9.5920792,5.54455445 C10.521215,5.54346328 11.2741563,4.79052197 11.2752475,3.86138613 L11.2752475,1.68316832 C11.2741563,0.75403248 10.521215,0.00109117502 9.5920792,0 L7.41386139,0 C6.48472555,0.00109117502 5.73178424,0.75403248 5.73069307,1.68316832 L5.73069307,3.86138613 C5.73178424,4.79052197 6.48472555,5.54346328 7.41386139,5.54455445 L8.05148514,5.54455445 L8.05148514,6.63366336 L3.06732674,6.63366336 C2.35144918,6.63475381 1.77138748,7.2148155 1.77029703,7.93069307 L1.77029703,9.52673268 L1.28712871,9.52673268 C0.57671931,9.5278231 0.00109042162,10.103452 0,10.8138614 L0,12.9920792 C0,13.333447 0.135607807,13.6608332 0.376991264,13.9022167 C0.618374722,14.1436001 0.945760949,14.2792079 1.28712871,14.2792079 L3.46534652,14.2792079 C4.17575593,14.2781175 4.75138482,13.7024886 4.75247523,12.9920792 L4.75247523,10.8138614 C4.75138481,10.103452 4.17575592,9.5278231 3.46534652,9.52673268 L2.76039604,9.52673268 L2.76039604,7.93069307 C2.75986465,7.84912824 2.79203124,7.7707501 2.8497075,7.71307383 C2.90738377,7.65539757 2.98576192,7.62323099 3.06732674,7.62376238 L8.05148514,7.62376238 L8.05148514,9.52673268 L7.45742574,9.52673268 C6.74701634,9.5278231 6.17138745,10.103452 6.17029703,10.8138614 L6.17029703,12.9920792 C6.17138744,13.7024886 6.74701633,14.2781175 7.45742574,14.2792079 L9.63564355,14.2792079 C9.97701132,14.2792079 10.3043975,14.1436001 10.545781,13.9022167 C10.7871645,13.6608332 10.9227723,13.333447 10.9227723,12.9920792 L10.9227723,10.8138614 C10.9216818,10.103452 10.346053,9.5278231 9.63564355,9.52673268 L9.04158416,9.52673268 L9.04158416,7.62376238 L13.9485148,7.62376238 C14.0300797,7.62323099 14.1084578,7.65539757 14.1661341,7.71307383 C14.2238103,7.7707501 14.2559769,7.84912824 14.2554455,7.93069307 L14.2554455,9.52673268 L13.629703,9.52673268 C12.9192936,9.5278231 12.3436647,10.103452 12.3425743,10.8138614 L12.3425743,12.9920792 C12.3425743,13.333447 12.4781821,13.6608332 12.7195655,13.9022167 C12.960949,14.1436001 13.2883352,14.2792079 13.629703,14.2792079 L15.8079208,14.2792079 C16.5183302,14.2781175 17.0939591,13.7024886 17.0950495,12.9920792 L17.0950495,10.8138614 C17.0939591,10.103452 16.5183302,9.5278231 15.8079208,9.52673268 L15.8079208,9.52673268 Z M6.72079207,3.86138613 L6.72079207,1.68316832 C6.72079207,1.30039671 7.03108977,0.990099004 7.41386139,0.990099004 L9.5920792,0.990099004 C9.97485081,0.990099004 10.2851485,1.30039671 10.2851485,1.68316832 L10.2851485,3.86138613 C10.2851485,4.24415775 9.97485081,4.55445545 9.5920792,4.55445545 L7.41386139,4.55445545 C7.03108977,4.55445545 6.72079207,4.24415775 6.72079207,3.86138613 L6.72079207,3.86138613 Z M3.76237623,10.8138614 L3.76237623,12.9920792 C3.76024324,13.1552325 3.62849982,13.2869759 3.46534652,13.2891089 L1.28712871,13.2891089 C1.12397541,13.2869759 0.992231996,13.1552325 0.990099004,12.9920792 L0.990099004,10.8138614 C0.992231996,10.6507081 1.12397541,10.5189647 1.28712871,10.5168317 L3.46534652,10.5168317 C3.62849982,10.5189647 3.76024324,10.6507081 3.76237623,10.8138614 L3.76237623,10.8138614 Z M9.93267326,10.8138614 L9.93267326,12.9920792 C9.93054027,13.1552325 9.79879685,13.2869759 9.63564355,13.2891089 L7.45742574,13.2891089 C7.29427245,13.2869759 7.16252903,13.1552325 7.16039604,12.9920792 L7.16039604,10.8138614 C7.16252903,10.6507081 7.29427245,10.5189647 7.45742574,10.5168317 L9.63564355,10.5168317 C9.79879685,10.5189647 9.93054027,10.6507081 9.93267326,10.8138614 L9.93267326,10.8138614 Z M16.1049505,12.9920792 C16.1028175,13.1552325 15.9710741,13.2869759 15.8079208,13.2891089 L13.629703,13.2891089 C13.4665497,13.2869759 13.3348063,13.1552325 13.3326733,12.9920792 L13.3326733,10.8138614 C13.3348063,10.6507081 13.4665497,10.5189647 13.629703,10.5168317 L15.8079208,10.5168317 C15.9710741,10.5189647 16.1028175,10.6507081 16.1049505,10.8138614 L16.1049505,12.9920792 Z" id="形状"></path>
                </g>
            </g>
        </g>
    </g>
</svg>