<?xml version="1.0" encoding="UTF-8"?>
<svg width="20px" height="20px" viewBox="0 0 20 20" version="1.1" xmlns="http://www.w3.org/2000/svg" xmlns:xlink="http://www.w3.org/1999/xlink">
    <title>header_nav_icon06</title>
    <g id="效果图" stroke="none" stroke-width="1" fill="none" fill-rule="evenodd">
        <g id="切图" transform="translate(-802.000000, -55.000000)" fill="#64ADF4">
            <g id="header_nav_icon06" transform="translate(802.000000, 55.000000)">
                <rect id="矩形备份-28" fill-opacity="0" x="0" y="0" width="20" height="20"></rect>
                <g id="编组" transform="translate(1.500000, 3.400000)" fill-rule="nonzero">
                    <path d="M15.6715911,1.31743463 C14.8399541,0.474510378 13.7052165,0 12.521096,0 C11.3369755,0 10.2022379,0.474510378 9.37060096,1.31743463 L8.530997,2.15901879 L7.72703661,1.35703859 C5.94358389,-0.390919915 3.08519663,-0.376786976 1.31911581,1.38872176 C0.475199318,2.21982648 0,3.3547633 0,4.53921681 C0,5.72367031 0.475199318,6.85860713 1.31911581,7.68971185 L7.62208612,13.990702 C8.12513776,14.491952 8.93883645,14.491952 9.44188809,13.990702 L15.740898,7.68179107 C16.5682607,6.85935929 17.0312021,5.73945484 17.0260891,4.57288017 C17.0214195,3.35159873 16.5346196,2.18157092 15.6715911,1.31743463 L15.6715911,1.31743463 Z M8.32109602,13.2897119 L2.01812571,6.98872176 C1.36090974,6.3431152 0.990697909,5.46048802 0.990697909,4.53921681 C0.990697909,3.61794559 1.36090974,2.73531841 2.01812571,2.08971185 C2.69108875,1.41886308 3.60255956,1.04216158 4.55277919,1.04216158 C5.48002727,1.0386434 6.37059243,1.40413135 7.02802671,2.05802869 L7.82010591,2.85010789 L7.78050196,2.88971185 C7.45262574,3.21675475 7.26752654,3.66028091 7.26565048,4.12337523 C7.26412125,4.56814427 7.44270009,4.99459055 7.76069997,5.30555344 C8.07436353,5.62337182 8.50228395,5.80227378 8.94881879,5.80227378 C9.39535362,5.80227378 9.82327404,5.62337182 10.1369376,5.30555344 L10.2062445,5.2362465 L13.501294,8.52931582 L12.7824822,9.24812769 L10.4062445,6.87189008 C10.2104252,6.69684526 9.91198749,6.70519742 9.72626473,6.89092018 C9.54054198,7.07664293 9.53218982,7.37508068 9.70723464,7.57089998 L12.0834723,9.9471376 L11.3666406,10.6659495 L7.16466038,6.46396928 C6.970151,6.27661555 6.6613745,6.27972673 6.47067973,6.47096172 C6.27998495,6.66219671 6.27774726,6.97098077 6.46565048,7.16495937 L10.6656505,11.3649594 L9.94881878,12.0837713 L5.74683858,7.87981088 C5.5527187,7.68678462 5.23887474,7.68767119 5.04584848,7.88179107 C4.85282223,8.07591096 4.85370879,8.38975492 5.04782868,8.58278117 L9.24782868,12.7827812 L8.740898,13.2897119 C8.6236381,13.4023684 8.43835592,13.4023684 8.32109602,13.2897119 L8.32109602,13.2897119 Z M15.0418881,6.99070195 L14.2003039,7.83030592 L10.5607,4.18872176 C10.3663762,3.99696971 10.0540337,3.99696971 9.85970987,4.18872176 L9.44188809,4.60852375 C9.3132153,4.74465868 9.13416026,4.82179815 8.94683859,4.82179815 C8.75951692,4.82179815 8.58046188,4.74465868 8.45178909,4.60852375 C8.32468167,4.48309961 8.25332617,4.3118464 8.25376723,4.13327621 C8.25493861,3.9331057 8.33540217,3.7415597 8.47753167,3.60060295 L8.51911581,3.55901879 L10.0597099,2.01842473 C10.7061921,1.36208742 11.588946,0.992521125 12.5102049,0.992521125 C13.4314638,0.992521125 14.3142177,1.36208742 14.9607,2.01842473 C15.6432541,2.69391888 16.0299551,3.61260071 16.0360187,4.57288017 C16.0418224,5.47943537 15.6837177,6.35044299 15.0418881,6.99070195 L15.0418881,6.99070195 Z" id="形状"></path>
                </g>
            </g>
        </g>
    </g>
</svg>