<?xml version="1.0" encoding="UTF-8"?>
<svg width="20px" height="20px" viewBox="0 0 20 20" version="1.1" xmlns="http://www.w3.org/2000/svg" xmlns:xlink="http://www.w3.org/1999/xlink">
    <title>header_nav_icon08</title>
    <g id="效果图" stroke="none" stroke-width="1" fill="none" fill-rule="evenodd">
        <g id="切图" transform="translate(-1047.000000, -55.000000)" fill="#64ADF4" fill-rule="nonzero">
            <g id="header_nav_icon08" transform="translate(1047.000000, 55.000000)">
                <rect id="矩形" opacity="0" x="0" y="0" width="20" height="20"></rect>
                <path d="M14.1591667,3.125 C14.6256264,3.125 15.0639218,3.34821256 15.3383333,3.72541666 L18.0241667,7.41833334 C18.4301562,7.97647143 18.3892931,8.74278577 17.92625,9.25458334 L11.08125,16.8195833 C10.8047827,17.1250544 10.4120033,17.2993286 10,17.2993286 C9.58799671,17.2993286 9.19521731,17.1250544 8.91875,16.8195833 L2.07375,9.25458334 C1.61070689,8.74278577 1.56984375,7.97647143 1.97583334,7.41833334 L4.66166666,3.72541666 C4.93607824,3.34821256 5.37437364,3.125 5.84083334,3.125 L14.1591667,3.125 Z M14.1591667,4.375 L5.84083334,4.375 C5.77422753,4.37505736 5.71166421,4.40695846 5.6725,4.46083334 L2.98666666,8.15375 C2.92861957,8.23356106 2.93453389,8.34314972 3.00083334,8.41625 L9.84583334,15.9804167 C9.88533292,16.0241349 9.94149724,16.0490833 10.0004167,16.0490833 C10.0593361,16.0490833 10.1155004,16.0241349 10.155,15.9804167 L16.9995833,8.41541666 C17.0658828,8.34231637 17.0717971,8.23272771 17.01375,8.15291666 L14.3279167,4.46041666 C14.2887525,4.4065418 14.2261891,4.37458334 14.1595833,4.37458334 L14.1591667,4.375 Z M12.91125,7.93416666 C13.1440837,7.68383621 13.5348444,7.66703189 13.7883093,7.89644949 C14.0417741,8.1258671 14.063876,8.51636401 13.8379167,8.77291666 L10.4633333,12.5025 C10.3448495,12.6333764 10.1765419,12.7080394 10,12.7080394 C9.82345805,12.7080394 9.65515049,12.6333764 9.53666666,12.5025 L6.17333334,8.78541666 C5.94737403,8.52886401 5.96947585,8.1383671 6.22294071,7.90894949 C6.47640556,7.67953189 6.86716629,7.69633621 7.1,7.94666666 L10,11.1516667 L12.91125,7.93416666 Z" id="形状"></path>
            </g>
        </g>
    </g>
</svg>