<?xml version="1.0" encoding="UTF-8"?>
<svg width="20px" height="20px" viewBox="0 0 20 20" version="1.1" xmlns="http://www.w3.org/2000/svg" xmlns:xlink="http://www.w3.org/1999/xlink">
    <title>header_nav_icon05</title>
    <g id="效果图" stroke="none" stroke-width="1" fill="none" fill-rule="evenodd">
        <g id="切图" transform="translate(-680.000000, -55.000000)" fill="#64ADF4" fill-rule="nonzero">
            <g id="header_nav_icon05" transform="translate(680.000000, 55.000000)">
                <rect id="矩形" opacity="0" x="0" y="0" width="20" height="20"></rect>
                <path d="M17.3017794,3.23676547 C17.2836917,3.05388945 17.1741859,2.89225904 17.0115162,2.80719672 C15.1019309,1.80989289 12.8691247,1.30589461 10.3769145,1.30589461 C10.249321,1.30589461 10.1249253,1.3101717 9.99945037,1.31229027 L9.99945037,1.31440883 C9.87399543,1.31015172 9.75065904,1.30589461 9.62306557,1.30589461 C7.13083529,1.30589461 4.89802914,1.81199148 2.98846383,2.80717674 C2.82577414,2.89223906 2.71626838,3.05386947 2.69820063,3.23886406 C2.67269791,3.51319807 2.06664881,10.0159692 3.22344451,13.4884948 C3.24576938,13.5863085 4.11975682,16.761136 10.0005097,18.6941054 L10.0005097,18.6941054 C15.8802432,16.761136 16.7542107,13.5863085 16.7765355,13.4884948 C17.9333312,10.0159692 17.3272821,3.51319805 17.3017794,3.23676547 Z M15.7324234,13.1822824 C15.7239092,13.2099237 14.9413797,15.8021062 9.99943039,17.5394283 L9.99943039,17.5394283 C5.05858029,15.8042247 4.27603086,13.2120422 4.26751662,13.1822824 C3.3063483,10.2966389 3.65297328,4.95280201 3.75716264,3.63865301 C5.45197355,2.8135924 7.42321705,2.39465645 9.62304557,2.39465645 C9.75061906,2.39465645 9.87395545,2.40528924 9.99943037,2.40742779 L9.99943037,2.40742779 L9.99943037,2.40742779 L10.0004896,2.40742779 L10.0004896,2.40742779 C10.1270239,2.40317068 10.2503802,2.39465645 10.3768945,2.39465645 C12.576723,2.39465645 14.5479864,2.8135924 16.2427774,3.63865301 C16.3469867,4.95280199 16.6936117,10.2945203 15.7324234,13.1822824 Z M13.3039899,6.26908955 L8.71188334,10.8538011 L6.69808869,8.82939367 C6.48545285,8.6146193 6.13988715,8.61673785 5.92829061,8.82725512 C5.71459549,9.03991094 5.71459549,9.38441736 5.92619203,9.5970532 L8.25041621,11.9319302 C8.31952936,12.0021026 8.4035124,12.0403766 8.4906933,12.0637808 C8.57043924,12.1062919 8.65550156,12.1360718 8.74268246,12.1360718 C8.88196803,12.1360718 9.02125359,12.0829078 9.1275815,11.9765999 L14.073788,7.03888764 C14.2864238,6.82837037 14.2864238,6.48174537 14.073788,6.26908955 C13.8611321,6.05645373 13.5166257,6.05645373 13.3039899,6.26908955 Z" id="形状"></path>
            </g>
        </g>
    </g>
</svg>