<?xml version="1.0" encoding="UTF-8"?>
<svg width="20px" height="20px" viewBox="0 0 20 20" version="1.1" xmlns="http://www.w3.org/2000/svg" xmlns:xlink="http://www.w3.org/1999/xlink">
    <title>header_nav_icon01</title>
    <g id="效果图" stroke="none" stroke-width="1" fill="none" fill-rule="evenodd">
        <g id="切图" transform="translate(-191.000000, -55.000000)" fill="#64ADF4" fill-rule="nonzero">
            <g id="header_nav_icon01" transform="translate(191.000000, 55.000000)">
                <rect id="矩形" opacity="0" x="0" y="0" width="20" height="20"></rect>
                <path d="M10.2373242,2.29660156 C10.0981836,2.41066406 9.90792969,2.41160156 9.76830078,2.29945312 L17.8675781,8.80546875 C18.0992383,8.9915625 18.4378711,8.95460937 18.6239453,8.72294922 C18.8100391,8.49130859 18.7730859,8.15267578 18.5414453,7.96658203 L10.4421484,1.46058594 C10.1850391,1.25404297 9.80960937,1.25589844 9.55521484,1.46443359 L1.45443359,8.10441406 C1.22462891,8.29277344 1.19103516,8.63175781 1.37939453,8.8615625 C1.56777344,9.09134766 1.90673828,9.12494141 2.13654297,8.93658203 L10.2373242,2.29660156 Z M18.5414453,10.9255859 L10.4421484,4.41957031 C10.1850391,4.21302734 9.80960937,4.21488281 9.55521484,4.42341797 L1.45443359,11.063418 C1.22462891,11.2517773 1.19103516,11.5907617 1.37939453,11.8205664 C1.56777344,12.0503516 1.90673828,12.0839453 2.13654297,11.8955859 L3.27498047,10.9624414 L3.27498047,17.129082 C3.27498047,18.020293 3.99792969,18.7425195 4.88945312,18.7425195 L8.78949219,18.7425195 L8.78949219,14.5256641 C8.78949219,14.3769336 8.90988281,14.2564648 9.05818359,14.2564648 L10.9418359,14.2564648 C11.0901953,14.2564648 11.2105273,14.376875 11.2105273,14.5256641 L11.2105273,18.7425195 L15.1105469,18.7425195 C16.0025391,18.7425195 16.725,18.0204492 16.725,17.129082 L16.725,10.8466211 L17.8675781,11.7644336 C18.0992383,11.9505273 18.4378711,11.9135742 18.6239453,11.6819141 C18.8100195,11.4502734 18.7730859,11.1116406 18.5414453,10.9255664 L18.5414453,10.9255859 Z M15.6490234,17.1290625 C15.6490234,17.4260547 15.408418,17.6664844 15.1105273,17.6664844 L12.2865234,17.6664844 L12.2865234,14.5256641 C12.2865234,13.7827734 11.6846484,13.1804688 10.9418555,13.1804688 L9.05820312,13.1804688 C8.31548828,13.1804688 7.71353516,13.7828125 7.71353516,14.5256445 L7.71353516,17.6664844 L4.88945312,17.6664844 C4.59195312,17.6664844 4.35099609,17.4257617 4.35099609,17.1290625 L4.35099609,10.0804297 L10.0034375,5.44730469 L15.6490234,9.98226563 L15.6490234,17.1291016 L15.6490234,17.1290625 Z" id="形状"></path>
            </g>
        </g>
    </g>
</svg>