<?xml version="1.0" encoding="UTF-8"?>
<svg width="20px" height="20px" viewBox="0 0 20 20" version="1.1" xmlns="http://www.w3.org/2000/svg" xmlns:xlink="http://www.w3.org/1999/xlink">
    <title>header_nav_icon04</title>
    <g id="效果图" stroke="none" stroke-width="1" fill="none" fill-rule="evenodd">
        <g id="切图" transform="translate(-558.000000, -55.000000)" fill="#64ADF4" fill-rule="nonzero">
            <g id="header_nav_icon04" transform="translate(558.000000, 55.000000)">
                <rect id="矩形" opacity="0" x="0" y="0" width="20" height="20"></rect>
                <path d="M2.20396101,15.8733216 L1.33815713,14.8292052 C1.21447085,14.6685176 1.21447085,14.4278391 1.37946641,14.3071469 L2.286338,13.4239534 C2.41752706,13.2986654 2.61498737,13.2662704 2.78108308,13.3427861 C2.86370165,13.3830169 2.94607864,13.4634783 2.98738791,13.5034737 C3.02845562,13.5034737 3.02845562,13.5437044 3.0697649,13.5437044 C4.06022136,14.3466719 5.04874521,14.9489562 6.12061235,15.3103269 C8.18221123,16.0732988 10.2032256,15.9926021 12.1401719,15.0294177 C12.1687287,14.9956161 12.1833657,14.952684 12.1812396,14.9089608 L6.45060345,9.48887195 L6.40929417,9.48887195 L6.36798489,9.52910266 L5.09005449,10.8138976 C5.00743593,10.894359 4.92505893,10.9345897 4.80137267,10.9345897 C4.67768642,10.9345897 4.59530942,10.894359 4.51148298,10.8138976 L2.4097827,8.76707176 C2.33088938,8.69373287 2.2862531,8.59214392 2.2862531,8.48592729 C2.2862531,8.37971067 2.33088938,8.27812172 2.4097827,8.20478283 L2.78084149,7.84341221 L3.97663649,6.63884345 C4.38876301,6.19724666 4.84244038,5.75564988 5.25456689,5.31381782 C5.66669339,4.87198577 6.12037078,4.43062426 6.53273888,3.9887922 C6.61511587,3.90856604 6.78011141,3.82833989 6.90379768,3.86833534 C7.7282923,4.02902293 8.38803292,3.9485615 8.92408727,3.62742158 L9.2538368,3.38650783 C9.41883236,3.26605095 9.62489561,3.30628166 9.74858187,3.42673855 L10.7796229,4.30852052 C10.8619999,4.38898195 10.9030676,4.46920812 10.9030676,4.58966498 C10.9030676,4.71012185 10.8619999,4.79034801 10.7796229,4.87198579 L8.80064257,6.91881158 L8.75933329,6.95880703 L8.80064257,6.99903775 L14.6549649,12.6605109 L14.7786512,12.6605109 L14.8199605,12.6205154 L14.8610282,12.5802847 C14.9436468,12.4195971 15.0260238,12.2189141 15.1086423,12.0582265 C15.5207688,11.0936304 15.6444551,9.97022891 15.4797011,8.64520328 C15.2733963,7.11949463 14.6962742,5.63378141 13.7886779,4.26923087 C13.2115559,3.38580203 12.4694382,2.62235954 11.5212574,1.98055025 C11.364207,1.87127327 11.3117178,1.66719668 11.3973295,1.49872274 C11.4804312,1.33803514 11.6864945,1.21757828 11.85149,1.25780899 C12.7586032,1.45849202 13.6654748,1.81986265 14.6138973,2.42214704 C15.8094507,3.22534972 16.7155975,4.148774 17.3760629,5.23288586 C18.0014681,6.1993303 18.422009,7.27786716 18.6129256,8.40499533 C18.8602981,9.73002096 18.7779211,11.1755035 18.3244853,12.5807553 C18.0358035,13.4239534 17.6647447,14.1466946 17.1286903,14.8292052 C17.0463133,14.949662 17.0873811,14.9898928 17.1286903,14.9898927 C17.2936859,15.1503451 17.4586814,15.3110326 17.6234354,15.4314895 C17.788431,15.5921771 17.953185,15.7138103 18.1181805,15.8733216 L18.4080702,16.1542308 C18.4870909,16.2275015 18.5318169,16.3291159 18.5318169,16.4353752 C18.5318169,16.5416346 18.4870909,16.643249 18.4080702,16.7165197 L16.717047,18.4429114 C16.6344284,18.5231376 16.5520514,18.5633683 16.4271573,18.5633683 C16.3022631,18.5633683 16.2208525,18.5231376 16.1384755,18.4429114 L14.9016128,17.2383427 C14.8192358,17.1581165 14.7779265,17.1581165 14.6542402,17.1983472 C13.4586868,17.8806225 12.3868197,18.3224545 11.314711,18.5231376 C9.62368775,18.8847435 7.83603463,18.8329846 6.18583754,18.2307003 C6.18656226,18.2307003 4.70498435,17.9326166 2.20396101,15.8733216 L2.20396101,15.8733216 Z M4.18294133,16.3149184 L4.30662759,16.3951445 C5.17243148,16.9574334 5.8732398,17.3185688 6.57428973,17.5597178 C8.01721569,18.0815408 9.66644647,18.2019977 11.1506817,17.8808577 C12.1411382,17.6799395 13.1294204,17.2785734 14.2428384,16.6360583 C14.654965,16.3951445 15.1086423,16.4353753 15.4797011,16.7967459 L16.427882,17.7201701 L17.5410584,16.5558321 C17.3760629,16.4353752 17.2113089,16.2735113 17.0463134,16.1142353 C16.8813178,15.9549593 16.7165638,15.8330909 16.5515683,15.6719327 C16.1805095,15.3507928 16.0981325,14.8689653 16.3865727,14.4273686 C16.84826,13.8160458 17.2099181,13.1387573 17.4586814,12.4195971 C17.870808,11.1348022 17.9531849,9.85000731 17.7471217,8.64520328 C17.5410584,7.52109595 17.1699996,6.55744096 16.5928776,5.75447356 C15.9744462,4.75105837 15.14971,3.90856605 14.0780845,3.18511899 C13.9543982,3.10465756 13.7881948,3.02443139 13.6657164,2.94420524 C13.9556061,3.26534515 14.2017707,3.58672033 14.407834,3.94785569 C15.3982904,5.39357346 16.0157555,6.95927756 16.2218188,8.64567381 C16.3868143,10.0913916 16.263128,11.3761865 15.7683829,12.5002938 C15.686006,12.6609814 15.603629,12.821669 15.5210104,13.022352 L15.479218,13.1428089 C15.4794856,13.1535565 15.4752194,13.1639415 15.4674137,13.1715435 C15.4596079,13.1791455 15.4489445,13.1833003 15.4379087,13.1830396 C15.2729131,13.4239534 15.0255406,13.584641 14.7781681,13.584641 C14.4484185,13.6246364 14.1597367,13.5041795 14.0360505,13.3434919 L8.30565593,7.5617972 C8.14090196,7.4011096 8.01721569,7.20042657 8.01721569,6.95927756 C8.01721569,6.71812855 8.09959268,6.51768077 8.30565593,6.35722846 L9.99667914,4.63060149 L9.54324334,4.22900015 L9.41907393,4.30852052 C8.71850717,4.71012186 7.93483869,4.83057874 7.02748394,4.67012641 C6.65642513,5.07149249 6.28536632,5.43286312 5.91430753,5.83446444 C5.50193944,6.27606123 5.04850364,6.71789327 4.63613554,7.15949006 L3.35820515,8.44428497 L4.88374967,9.9314098 L5.87420611,8.92752409 C5.99789239,8.80706721 6.20419721,8.64637963 6.49263745,8.64637961 C6.74000999,8.64637961 6.94615378,8.72676262 7.11106882,8.88752864 L12.8409802,14.3073822 C13.087628,14.5482959 13.1707297,14.7892097 13.087628,15.1103496 C13.005251,15.3512634 12.8815648,15.5921771 12.6752599,15.712634 C12.6642656,15.7124385 12.6536657,15.7166221 12.6459131,15.7242167 C12.6381605,15.7318113 12.633927,15.7421588 12.6341922,15.7528647 C10.4902163,16.7967459 8.18148651,16.9172027 5.91382437,16.0740046 C4.80161425,15.6719327 3.72950553,15.0701189 2.69991397,14.2269208 L2.32764728,14.5882914 C2.88955013,15.5731205 4.18294133,16.3149184 4.18294133,16.3149184 Z" id="形状"></path>
            </g>
        </g>
    </g>
</svg>