<?xml version="1.0" encoding="UTF-8"?>
<svg width="16px" height="16px" viewBox="0 0 16 16" version="1.1" xmlns="http://www.w3.org/2000/svg" xmlns:xlink="http://www.w3.org/1999/xlink">
    <title>footer_fangwen_icon</title>
    <g id="效果图" stroke="none" stroke-width="1" fill="none" fill-rule="evenodd">
        <g id="211020-首页" transform="translate(-630.000000, -2582.000000)" fill-rule="nonzero">
            <g id="编组-29" transform="translate(0.000000, 2135.000000)">
                <g id="编组-22" transform="translate(0.000000, 407.000000)">
                    <g id="footer_fangwen_icon" transform="translate(630.000000, 40.000000)">
                        <rect id="矩形" fill="#000000" opacity="0" x="0" y="0" width="16" height="16"></rect>
                        <path d="M2.00625,13.99375 L2.00625,1.2046875 C2.0046875,1.0984375 1.9203125,1.0109375 1.8140625,1.00625 L1.2,1.00625 C1.0921875,1.0078125 1.00625,1.096875 1.00779153,1.2046875 L1.00779153,14.7953125 C1.00779153,14.9046875 1.096875,14.9921875 1.20625,14.99375 L14.796875,14.99375 C14.903125,14.9921875 14.990625,14.9078125 14.9953125,14.8015625 L14.9953125,14.1875 C14.99375,14.0796875 14.9046875,13.99375 14.796875,13.9953125 L2.00625,13.9953125 L2.00625,13.99375 Z" id="路径" fill="#FFFFFF"></path>
                        <path d="M3.0046875,6.5046875 C3.0046875,6.2265625 3.21875,6.0015625 3.509375,6.0015625 L4.4984375,6.0015625 C4.775,6.003125 5,6.2265625 5.003125,6.5046875 L5.003125,12.4921875 C5.00625,12.765625 4.7875,12.990625 4.5125,12.9953125 L3.509375,12.9953125 C3.23125,12.9953125 3.0046875,12.7625 3.0046875,12.4921875 L3.0046875,6.5046875 L3.0046875,6.5046875 Z" id="路径" fill="#FFFFFF"></path>
                        <path d="M6.0015625,2.50625 C6.0015625,2.2296875 6.215625,2.00625 6.50625,2.00625 L7.4953125,2.00625 C7.7734375,2.00625 8.00000832,2.2359375 8.00000832,2.50625 L8.00000832,12.4953125 C8.0015625,12.76875 7.7828125,12.9921875 7.5078125,12.9953125 L6.50625,12.9953125 C6.228125,12.9953125 6.0015625,12.765625 6.0015625,12.4953125 L6.0015625,2.50625 Z" id="路径" fill="#FFFFFF"></path>
                        <path d="M8.9984375,8.496875 C8.9984375,8.221875 9.2125,8 9.503125,8 L10.4921875,8 C10.765625,7.9953125 10.9921875,8.2125 10.9968833,8.4859375 L10.9968833,12.496875 C10.9984375,12.76875 10.7796875,12.9921875 10.5078125,12.99375 L9.503125,12.99375 C9.225,12.99375 8.9984375,12.7796875 8.9984375,12.496875 L8.9984375,8.496875 Z" id="路径" fill="#FFFFFF"></path>
                        <path d="M11.9953125,5.503125 C11.9953125,5.228125 12.209375,5.003125 12.5,5.003125 L13.4890625,5.003125 C13.7671875,5.003125 13.99375,5.2328125 13.99375,5.503125 L13.99375,12.496875 C13.996875,12.7703125 13.778125,12.99375 13.5046875,12.996875 L12.5,12.996875 C12.221875,12.996875 11.9953125,12.7671875 11.9953125,12.496875 L11.9953125,5.503125 Z" id="路径" fill="#FFFFFF"></path>
                    </g>
                </g>
            </g>
        </g>
    </g>
</svg>