<?xml version="1.0" encoding="utf-8"?>
<!-- Generator: Adobe Illustrator 14.0.0, SVG Export Plug-In . SVG Version: 6.00 Build 43363)  -->
<!DOCTYPE svg PUBLIC "-//W3C//DTD SVG 1.1//EN" "http://www.w3.org/Graphics/SVG/1.1/DTD/svg11.dtd">
<svg version="1.1" id="图层_1" xmlns="http://www.w3.org/2000/svg" xmlns:xlink="http://www.w3.org/1999/xlink" x="0px" y="0px"
	 width="97.517px" height="33.797px" viewBox="0 0 97.517 33.797" enable-background="new 0 0 97.517 33.797" xml:space="preserve">
<g>
	<path fill="#E51C16" d="M170.759,57.842c0,0,1.649,0.297,5.646-1.068c3.998-1.363-3.842-1.176-3.842-1.176L170.759,57.842z"/>
	<g id="XMLID_2_">
		<g>
			<path fill="#DD1615" d="M180.47,41.389c0.737,2.277-0.68,4.128-2.151,5.02c-0.235,0.143-0.565,0.236-0.844,0.407
				c-0.279,0.171-0.547,0.312-0.845,0.408c-0.282,0.092-0.646,0.22-0.97,0.286c-1.642,0.34-3.833,0.455-5.78,0.203
				c-1.081-0.139-2.127-0.559-3.123-0.693c-0.636-0.367-1.465-0.546-2.151-0.856c-2.613-1.188-4.899-3.141-6.329-5.632
				c-0.629-1.096-0.949-2.012-1.265-3.427c-0.05-0.225-0.133-0.419-0.127-0.612c0.024-0.801,0.683-1.654,1.056-2.285
				c0.434-0.737,0.814-1.411,1.434-1.877c0.212-0.692,0.756-1.166,1.309-1.673c0.414-0.381,0.822-0.769,1.266-0.979
				c0.049,0.007,0.076-0.008,0.084-0.041c0.036-0.007,0.041,0.015,0.043,0.041c-0.426,1.072-0.825,2.18-0.929,3.551
				c-0.269,3.574,1.122,6.039,3.038,7.834c0.555,0.519,1.25,0.833,1.73,1.387c0.961,0.377,1.871,0.934,2.996,1.307
				c0.313,0.104,0.618,0.271,0.928,0.367c0.674,0.205,1.922,0.299,2.574,0.449c0.842,0.193,2.176,0.113,3.25,0.04
				c1.79-0.12,3.162-0.401,3.754-1.551c0.252-0.485,0.311-1.366,0.085-2.04c-0.341-1.027-1.228-1.795-1.729-2.366
				c0.607,0.239,1.169,0.592,1.604,1.021C179.814,40.108,180.277,40.788,180.47,41.389z"/>
			<path fill="#DD1615" d="M178.572,29.433c-1.645-0.027-3.004,0.223-4.473,0.367c-3.293,0.78-6.719,2.848-6.75,6.774
				c-0.018,2.263,1.068,4.262,2.615,5.305c0.146,0.098,0.38,0.176,0.549,0.285c0.178,0.115,0.319,0.271,0.463,0.327
				c0.373,0.146,0.79,0.077,1.182,0.244c-0.664,0.413-1.576-0.095-2.32-0.122c-2.596-0.982-4.828-3.33-5.4-6.325
				c-0.535-2.796,0.391-5.482,2.025-7.303c1.367-1.521,4.842-1.874,7.595-1.347C175.747,27.96,177.412,28.519,178.572,29.433z"/>
			<path fill="#DD1615" d="M182.032,41.552c-0.56-1.536-1.892-2.747-3.46-3.429c-0.512-0.221-1.066-0.52-1.604-0.693
				c-0.717-0.232-1.479-0.12-2.193-0.407c4.885-0.474,8.309,1.167,10.043,3.917c0.759,1.205,1.147,2.595,1.139,4.243
				c-0.01,1.591-0.48,2.923-1.056,4.285c-0.492,1.362-1.86,2.747-1.86,2.747s-0.43,0.494-0.672,0.763
				c-0.719,0.765-1.77,1.493-2.785,2.202c-1.32,0.926-2.859,1.572-4.557,2.041c-0.449,0.125-0.889,0.16-1.35,0.246
				c-0.184,0.033-0.362,0.172-0.549,0.203c-0.191,0.031-0.381-0.064-0.549-0.041c-0.143,0.021-0.279,0.145-0.422,0.164
				c-0.947,0.123-2.076,0.078-3.08,0c-1.145-0.09-2.254-0.426-3.291-0.695c-0.81-0.209-1.488-0.523-2.152-0.855
				c-0.221-0.111-0.49-0.146-0.717-0.246c-1.763-0.768-3.219-2.105-4.43-3.427c-2.608-2.845-4.164-6.7-3.84-11.67
				c0.513,0.282,0.678,0.856,0.97,1.306c1.712,2.63,4.29,4.701,7.257,6.243c0.738,0.382,1.213,0.634,2.068,0.897
				c0.691,0.215,1.38,0.562,2.151,0.735c2.823,0.634,6.542,0.761,9.451-0.163c0.704-0.224,1.483-0.625,2.11-0.98
				C180.629,47.818,183.205,44.768,182.032,41.552z"/>
		</g>
	</g>
</g>
<g id="XMLID_1_">
	<g>
		<path fill="#FFFFFF" d="M243.09,30.837c-0.164,1.71-0.475,3.202-1.143,4.606c-1.004,0.034-1.723-0.435-2.572-0.275
			c-0.42-0.996,0.219-2.879-0.383-3.87C239.99,30.571,241.722,30.223,243.09,30.837z"/>
		<path fill="#DD1615" d="M235.469,43.549c-1.049,0.433-1.668,1.277-1.716,2.675c0.399-0.104,0.588-0.521,0.858-0.829
			C235.06,44.885,235.667,44.517,235.469,43.549z M228.894,47.789c-1.354,0.5-3.086,0.492-4.572,0.186c0-0.338,0-0.678,0-1.014
			c0.946-0.65,2.077-0.494,3.049-0.83c0.664-0.229,0.963-0.79,1.523-1.199c1.459-1.059,3.417-1.912,4.479-3.223
			c-0.961-0.734-3.284-1.743-3.716-3.041c-0.286-0.859-0.103-2.178-0.382-3.225c-0.09-0.336-0.346-0.714-0.381-1.014
			c-0.113-0.995,0.36-2.113,0.858-2.764c0.431,0.565,0.568,1.415,1.428,1.566c0.122-0.925,1.443-1.162,1.907-2.027
			c2.6-0.494,5.824-1.582,8.859-1.29c1.875,0.18,2.965,0.253,3.908,1.474c-0.127,0.461,0.047,1.075-0.096,1.567
			c-0.125,0.422-0.496,0.613-0.764,1.013c-0.826,1.226-1.27,2.749-2.191,3.962c-0.051,0.479,0.184,0.684,0.191,1.105
			c-0.912,0.438-2.109,0.602-2.668,1.383c0.203,0.777,0.801,0.42,1.43,0.46c2.701,0.177,6.139,1.026,8.383,1.843
			c0.057,0.545-0.107,0.879-0.285,1.198c-2.125,0.346-4.029,0.225-6.193,0.276c0.701-0.462,2.252-0.098,2.381-1.108
			c-1.195-0.86-3.441-1.403-5.334-1.011c0.605,3.314-0.297,7.592,0,11.607c0.107,1.463,0.926,3.01,0.189,4.701
			c-1.41,0.256-1.857-1.527-2-2.582c-0.527-3.91,0.23-9.707-0.189-13.911c-0.752-0.146-2.007,0.187-2.383,0.921
			c-0.215,0.421-0.099,1.18-0.287,1.844c-0.592,2.094-1.653,5.305-1.904,7.186c-0.13,0.983-0.199,2.23-1.238,2.301
			c-0.98,0.072-1.994-1.517-2.479-2.208c1.035-0.655,0.654-2.772,1.049-4.331c0.164-0.652,0.772-1.105,0.189-1.475
			C230.646,46.301,229.979,47.388,228.894,47.789z M241.947,35.443c0.67-1.404,0.979-2.896,1.143-4.606
			c-1.367-0.614-3.1-0.266-4.098,0.461c0.602,0.99-0.037,2.874,0.383,3.87C240.224,35.008,240.943,35.477,241.947,35.443z
			 M236.802,35.168c-0.138-0.748,0.006-1.211,0-2.027c-1.54,0.665-2.175-0.325-3.812-0.276c0,0.093,0,0.185,0,0.276
			c-0.123,0.984-0.957,2.654-0.189,3.593C233.753,35.844,235.571,35.787,236.802,35.168z M233.468,38.945
			c0.833,0.161,0.892-0.428,1.619-0.369c-0.15-0.684-0.825-0.859-1.524-1.013c0.014-0.228,0.014-0.444-0.096-0.553
			c-0.36-0.071-0.455,0.112-0.762,0.093C232.929,37.744,233.031,38.508,233.468,38.945z"/>
		<path fill="#FFFFFF" d="M236.802,33.141c0.006,0.816-0.138,1.279,0,2.027c-1.23,0.619-3.049,0.676-4.001,1.565
			c-0.768-0.938,0.066-2.608,0.189-3.593c0-0.093,0-0.184,0-0.276C234.626,32.816,235.261,33.806,236.802,33.141z"/>
		<path fill="#FFFFFF" d="M233.753,46.224c0.048-1.397,0.667-2.242,1.716-2.675c0.198,0.968-0.408,1.336-0.857,1.846
			C234.341,45.702,234.152,46.119,233.753,46.224z"/>
		<path fill="#FFFFFF" d="M235.087,38.576c-0.728-0.059-0.786,0.53-1.619,0.369c-0.437-0.438-0.538-1.201-0.763-1.844
			c0.308,0.021,0.402-0.164,0.763-0.092c0.108,0.107,0.108,0.326,0.095,0.553C234.261,37.717,234.936,37.893,235.087,38.576z"/>
		<path fill="#DD1615" d="M187.545,47.237c2.021,3.376,6.59,0.488,8.955-1.382c1.938-1.533,3.796-3.178,4.859-4.699
			c-2.718-0.873-6.25,0.886-8.289-0.461c-0.375-0.248-0.396-0.688-0.666-0.922c-0.604-0.521-1.41-0.506-2.001-1.105
			c3.991-0.896,8.781-1.07,13.435-0.645c1.051-1.029,1.572-2.332,2.477-3.409c0.848-1.011,2.236-1.843,2.383-3.409
			c-0.808,0.049-1.388,0.317-1.906,0.645c-0.26,2.605-3.527,2.79-6.098,2.857c-0.686-2.503-0.26-2.818,1.334-4.607
			c0.949-1.067,1.17-1.979,2.096-2.396c0.064,0,0.127,0,0.19,0c0.733,0.643,0.591,2.132,1.524,2.58
			c3.656-0.437,6.09,0.707,5.621,3.778c-0.27,1.756-2.199,2.936-2.857,4.331c1.004,0.941,2.451,0.891,3.716,1.195
			c1.21,0.297,2.329,0.965,3.431,1.477c2.285,1.06,4.564,1.899,6.287,3.501c-0.728,0.463-1.979,0.419-2.668,0.921
			c-1.908-0.957-4.39-2.607-6.859-3.225c-0.63-0.158-1.297-0.154-2.097-0.276c-1.321-0.204-2.88-1.073-4.478-0.556
			c-0.736,0.241-1.627,1.359-2.287,1.938c-0.791,0.692-1.367,1.394-2.477,1.751c-0.461,0.721-1.223,1.15-2,1.564
			c0.18,0.347,0.502,0.09,0.951,0.277c0.601,0.248,1.301,1.2,1.811,1.197c0.621-0.004,0.664-0.535,1.047-0.829
			c0.945-0.722,2.82-1.886,4.098-2.026c0.318-0.037,0.691,0.1,1.145,0.092c2.021-0.031,2.723-0.236,4,0.829
			c0.24,0.2,1.027,0.833,0.953,1.29c-0.072,0.435-0.688,0.448-1.049,0.736c-1.014,0.805-1.822,2.389-2.857,3.131
			c-0.016,0.633,0.704,0.551,0.857,1.017c-0.699,0.368-1.644,0.499-2.191,1.013c-1.133-0.873-3.033-0.131-4.573-0.368
			c-0.265,1.28-0.062,3.013-0.857,3.778c-0.604-0.346-1.408-1.158-1.62-1.844c-0.135-0.436,0.038-1.195-0.096-1.936
			c-0.105-0.596-0.533-1.205-0.57-1.66c-0.024-0.287,0.155-0.557,0.095-0.826c-0.071-0.324-0.365-0.471-0.477-0.738
			c-0.424-1.021-0.468-2.16-1.715-2.58c-0.775,0.287-1.687,0.843-2.763,1.197c-1.938,0.641-5.115,1.65-7.337,0.462
			C188.036,48.254,187.845,47.78,187.545,47.237z M206.219,50.83c1.36-0.271,2.543-2.525,2.763-3.869
			c-2.659,0.223-4.547,1.193-6.384,2.211c-0.005,0.65,0.387,0.916,0.381,1.566C204.236,50.478,205.233,51.027,206.219,50.83z"/>
		<path fill="#FFFFFF" d="M208.981,46.961c-0.22,1.344-1.402,3.598-2.763,3.869c-0.985,0.197-1.982-0.352-3.24-0.092
			c0.006-0.649-0.385-0.916-0.38-1.566C204.434,48.154,206.322,47.184,208.981,46.961z"/>
	</g>
</g>
<g>
	<path fill="#FFFFFF" d="M17.153,31.434c0,0,1.649,0.297,5.646-1.068c3.997-1.364-3.843-1.175-3.843-1.175L17.153,31.434z"/>
	<g id="XMLID_4_">
		<g>
			<path fill="#FFFFFF" d="M26.865,14.98c0.737,2.278-0.68,4.128-2.152,5.02c-0.236,0.143-0.566,0.236-0.844,0.407
				c-0.279,0.172-0.547,0.313-0.844,0.408c-0.283,0.092-0.646,0.22-0.97,0.286c-1.641,0.34-3.833,0.455-5.78,0.204
				c-1.081-0.139-2.127-0.559-3.123-0.693c-0.636-0.367-1.466-0.547-2.152-0.857c-2.613-1.188-4.899-3.141-6.329-5.631
				c-0.629-1.097-0.95-2.013-1.265-3.428c-0.05-0.225-0.133-0.418-0.127-0.611C3.305,9.284,3.962,8.43,4.335,7.799
				C4.769,7.061,5.15,6.387,5.77,5.922C5.981,5.23,6.526,4.756,7.077,4.249C7.492,3.868,7.9,3.481,8.344,3.27
				c0.049,0.007,0.076-0.009,0.084-0.041C8.464,3.222,8.468,3.245,8.47,3.27C8.045,4.341,7.645,5.45,7.542,6.82
				c-0.269,3.575,1.122,6.04,3.038,7.834c0.554,0.519,1.25,0.833,1.73,1.388c0.962,0.376,1.871,0.934,2.997,1.306
				c0.313,0.104,0.618,0.272,0.928,0.368c0.673,0.205,1.921,0.299,2.574,0.448c0.842,0.194,2.176,0.114,3.25,0.04
				c1.791-0.12,3.163-0.4,3.755-1.551c0.251-0.484,0.31-1.365,0.084-2.039c-0.341-1.027-1.227-1.795-1.729-2.367
				c0.608,0.24,1.169,0.592,1.603,1.021C26.209,13.7,26.672,14.379,26.865,14.98z"/>
			<path fill="#FFFFFF" d="M24.967,3.025c-1.645-0.026-3.004,0.223-4.472,0.367c-3.293,0.78-6.72,2.849-6.751,6.774
				c-0.018,2.262,1.069,4.262,2.616,5.304c0.145,0.099,0.379,0.176,0.548,0.286c0.178,0.115,0.319,0.27,0.463,0.326
				c0.373,0.146,0.79,0.078,1.181,0.244c-0.664,0.414-1.577-0.094-2.32-0.121c-2.596-0.983-4.828-3.331-5.4-6.326
				c-0.535-2.796,0.39-5.482,2.025-7.303c1.368-1.521,4.841-1.874,7.595-1.347C22.141,1.552,23.806,2.11,24.967,3.025z"/>
			<path fill="#FFFFFF" d="M28.427,15.143c-0.559-1.535-1.891-2.747-3.46-3.428c-0.512-0.222-1.067-0.52-1.603-0.693
				c-0.717-0.232-1.479-0.121-2.194-0.408c4.886-0.473,8.309,1.168,10.043,3.918c0.759,1.205,1.148,2.594,1.139,4.242
				c-0.009,1.591-0.48,2.923-1.055,4.285c-0.492,1.363-1.86,2.748-1.86,2.748s-0.43,0.493-0.672,0.762
				c-0.719,0.765-1.77,1.493-2.785,2.203c-1.321,0.926-2.86,1.572-4.557,2.041c-0.45,0.125-0.889,0.16-1.351,0.246
				c-0.183,0.033-0.362,0.172-0.548,0.203c-0.191,0.031-0.382-0.064-0.55-0.041c-0.142,0.021-0.279,0.145-0.421,0.164
				c-0.948,0.123-2.076,0.078-3.08,0c-1.145-0.09-2.254-0.426-3.292-0.695c-0.809-0.209-1.488-0.524-2.152-0.856
				c-0.221-0.11-0.49-0.146-0.716-0.245c-1.763-0.768-3.219-2.106-4.43-3.428c-2.608-2.844-4.164-6.7-3.84-11.67
				c0.513,0.283,0.679,0.857,0.97,1.307c1.712,2.629,4.29,4.7,7.257,6.242c0.737,0.383,1.212,0.634,2.068,0.898
				c0.692,0.215,1.38,0.561,2.151,0.734c2.824,0.635,6.542,0.762,9.451-0.163c0.704-0.224,1.484-0.624,2.11-0.979
				C27.024,21.411,29.599,18.359,28.427,15.143z"/>
		</g>
	</g>
</g>
<g id="XMLID_3_">
	<g>
		<path fill="#FFFFFF" d="M81.864,17.141c-1.049,0.432-1.668,1.277-1.717,2.674c0.4-0.104,0.588-0.521,0.859-0.828
			C81.455,18.477,82.061,18.108,81.864,17.141z M75.289,21.381c-1.354,0.5-3.086,0.492-4.572,0.185c0-0.338,0-0.678,0-1.013
			c0.945-0.65,2.076-0.494,3.049-0.83c0.664-0.23,0.963-0.791,1.523-1.2c1.459-1.058,3.416-1.911,4.479-3.223
			c-0.961-0.734-3.285-1.743-3.717-3.04c-0.285-0.859-0.102-2.178-0.381-3.225c-0.09-0.336-0.346-0.715-0.381-1.014
			c-0.113-0.996,0.359-2.114,0.857-2.764c0.432,0.564,0.568,1.414,1.428,1.565c0.123-0.925,1.443-1.161,1.908-2.026
			c2.6-0.494,5.824-1.582,8.859-1.29c1.875,0.18,2.965,0.253,3.908,1.474c-0.127,0.461,0.047,1.076-0.096,1.567
			c-0.125,0.422-0.496,0.613-0.764,1.013c-0.826,1.227-1.27,2.749-2.191,3.963c-0.051,0.479,0.184,0.683,0.191,1.105
			c-0.912,0.438-2.109,0.602-2.668,1.382c0.203,0.778,0.801,0.42,1.43,0.46c2.701,0.178,6.139,1.027,8.383,1.844
			c0.057,0.545-0.107,0.878-0.285,1.197c-2.125,0.346-4.029,0.225-6.193,0.276c0.701-0.462,2.252-0.097,2.381-1.108
			c-1.195-0.859-3.441-1.402-5.334-1.011c0.605,3.314-0.297,7.593,0,11.608c0.107,1.462,0.926,3.009,0.189,4.701
			c-1.41,0.256-1.857-1.527-2-2.583c-0.527-3.909,0.23-9.706-0.189-13.911c-0.752-0.146-2.008,0.188-2.383,0.922
			c-0.215,0.42-0.1,1.18-0.287,1.844c-0.592,2.093-1.654,5.305-1.904,7.186c-0.131,0.982-0.199,2.229-1.238,2.301
			c-0.98,0.071-1.994-1.518-2.479-2.209c1.035-0.655,0.654-2.771,1.049-4.33c0.164-0.653,0.771-1.105,0.189-1.475
			C77.041,19.893,76.373,20.979,75.289,21.381z M88.342,9.036c0.67-1.404,0.979-2.896,1.143-4.607
			c-1.367-0.613-3.1-0.266-4.097,0.461c0.602,0.99-0.037,2.875,0.383,3.871C86.619,8.6,87.338,9.069,88.342,9.036z M83.196,8.759
			c-0.137-0.748,0.006-1.211,0-2.026c-1.539,0.664-2.174-0.326-3.811-0.277c0,0.093,0,0.185,0,0.277
			c-0.123,0.984-0.957,2.653-0.189,3.592C80.147,9.435,81.965,9.378,83.196,8.759z M79.862,12.537
			c0.834,0.161,0.893-0.427,1.619-0.368c-0.15-0.684-0.824-0.86-1.523-1.014c0.014-0.228,0.014-0.444-0.096-0.553
			c-0.361-0.071-0.455,0.113-0.762,0.093C79.324,11.336,79.426,12.099,79.862,12.537z"/>
		<path fill="#FFFFFF" d="M33.939,20.829c2.022,3.377,6.59,0.488,8.956-1.381c1.937-1.533,3.795-3.179,4.859-4.699
			c-2.718-0.873-6.25,0.885-8.289-0.461c-0.375-0.249-0.397-0.689-0.667-0.922c-0.604-0.522-1.411-0.507-2.001-1.105
			c3.991-0.896,8.781-1.07,13.435-0.646c1.051-1.028,1.572-2.331,2.477-3.409c0.848-1.011,2.236-1.843,2.383-3.408
			c-0.808,0.049-1.388,0.316-1.906,0.645c-0.26,2.605-3.527,2.789-6.098,2.856c-0.686-2.503-0.259-2.817,1.334-4.606
			c0.949-1.067,1.17-1.979,2.096-2.396c0.064,0,0.127,0,0.19,0c0.733,0.643,0.591,2.133,1.524,2.58
			c3.656-0.438,6.09,0.707,5.621,3.777c-0.27,1.756-2.199,2.936-2.857,4.331c1.004,0.942,2.451,0.891,3.716,1.195
			c1.21,0.297,2.329,0.966,3.431,1.478c2.285,1.059,4.565,1.898,6.288,3.5c-0.729,0.463-1.98,0.42-2.668,0.922
			c-1.909-0.958-4.39-2.608-6.86-3.226c-0.63-0.158-1.297-0.153-2.097-0.276c-1.321-0.204-2.88-1.072-4.478-0.555
			c-0.736,0.24-1.627,1.359-2.287,1.938c-0.791,0.693-1.367,1.395-2.477,1.751c-0.46,0.722-1.223,1.151-2,1.565
			c0.18,0.346,0.502,0.09,0.952,0.277c0.601,0.248,1.301,1.199,1.811,1.197c0.621-0.004,0.664-0.535,1.047-0.83
			c0.945-0.722,2.82-1.886,4.098-2.026c0.318-0.036,0.691,0.101,1.145,0.093c2.021-0.031,2.723-0.236,4,0.828
			c0.24,0.2,1.027,0.833,0.953,1.29c-0.072,0.435-0.688,0.448-1.049,0.737c-1.014,0.804-1.822,2.389-2.857,3.131
			c-0.016,0.633,0.704,0.55,0.857,1.016c-0.699,0.368-1.644,0.499-2.191,1.014c-1.133-0.873-3.033-0.131-4.573-0.369
			c-0.265,1.28-0.062,3.014-0.857,3.779c-0.604-0.346-1.408-1.159-1.62-1.844c-0.134-0.435,0.038-1.195-0.095-1.935
			c-0.106-0.596-0.534-1.206-0.571-1.66c-0.024-0.287,0.156-0.557,0.095-0.826c-0.072-0.324-0.365-0.472-0.477-0.738
			c-0.424-1.021-0.468-2.161-1.715-2.58c-0.775,0.287-1.687,0.842-2.763,1.197c-1.938,0.641-5.116,1.649-7.337,0.461
			C34.43,21.845,34.24,21.372,33.939,20.829z M52.613,24.422c1.36-0.271,2.543-2.525,2.763-3.869
			c-2.659,0.223-4.547,1.193-6.384,2.211c-0.005,0.649,0.387,0.916,0.381,1.566C50.631,24.069,51.628,24.62,52.613,24.422z"/>
	</g>
</g>
</svg>
