<?xml version="1.0" standalone="no"?>
<!DOCTYPE svg PUBLIC "-//W3C//DTD SVG 1.1//EN" "http://www.w3.org/Graphics/SVG/1.1/DTD/svg11.dtd" >
<svg xmlns="http://www.w3.org/2000/svg">
<metadata>Generated by IcoMoon</metadata>
<defs>
<font id="icomoon-base" horiz-adv-x="1024">
<font-face units-per-em="1024" ascent="960" descent="-64" />
<missing-glyph horiz-adv-x="1024" />
<glyph unicode="&#x20;" horiz-adv-x="512" d="" />
<glyph unicode="&#xf600;" glyph-name="b-home" d="M1006.97 531.556l-429.030 339.087c-36.932 29.248-94.885 29.214-131.782 0l-428.996-339.087c-14.657-11.611-17.163-32.903-5.584-47.56s32.396-17.163 47.053-5.584l13.372 10.969v-410.005c0-58.123 61.237-101.554 115.094-101.554h677.023c53.214 0 88.013 40.825 88.013 101.554v408.413l12.355-9.377c6.23-4.907 13.879-7.279 21.226-7.279 9.987 0 20.006 4.401 26.675 12.863 11.611 14.657 9.275 35.949-5.416 47.56zM478.214 45.522v187.671c0 9.342 16.926 14.014 33.851 14.014s33.851-4.672 33.851-14.014v-187.671h-67.702zM884.428 79.373c0-22.443-6.195-33.851-20.311-33.851h-249.821c0 0.509-0.677 0.915-0.677 1.421v186.248c0 39.369-31.753 81.751-101.554 81.751s-101.554-42.382-101.554-81.751v-186.248c0-0.509 0.915-0.915 0.915-1.421h-224.332c-21.226 0-47.392 18.346-47.392 33.851v463.524l347.955 274.634c12.491 9.886 35.036 9.886 47.56 0l349.208-276.225v-461.933z" />
<glyph unicode="&#xf601;" glyph-name="b-homefill" d="M17.202 531.303l430.819 337.848c36.839 29.147 94.557 29.113 131.327 0l427.547-337.915c14.606-11.571 17.104-32.791 5.565-47.395s-32.791-17.104-47.395-5.565l-13.831 10.931v-408.589c0-57.922-60.012-101.202-113.718-101.202h-674.683c-53.030 0-88.687 40.683-88.687 101.202v409.6l-15.281-11.977c-6.208-4.859-13.494-7.185-20.779-7.185-10.019 0-19.937 4.419-26.583 12.92-11.504 14.641-8.939 35.859 5.701 47.329zM411.487 117.317v-70.437h202.405v188.845c0 39.233-31.675 81.434-101.202 81.434-69.559 0-101.202-42.201-101.202-81.434v-118.407z" />
<glyph unicode="&#xf602;" glyph-name="b-user" d="M643.556 394.384c80.416 48.011 134.65 136.511 134.65 237.814 0 152.221-122.105 276.074-272.206 276.074s-272.208-123.853-272.208-276.074c0-103.106 56.111-193.037 138.918-240.441-164.377-53.639-286.427-199.697-302.813-381.386-1.783-19.811 12.824-37.323 32.635-39.104 19.855-1.83 37.309 12.822 39.104 32.634 17.385 192.827 176.605 338.248 370.368 338.248s352.983-145.421 370.368-338.248c1.686-18.709 17.394-32.775 35.822-32.775 1.089 0 2.179 0.047 3.283 0.143 19.811 1.781 34.415 19.293 32.634 39.104-16.644 184.571-142.247 332.505-310.552 384.011zM305.811 632.2c0 112.507 89.804 204.057 200.189 204.057s200.185-91.55 200.185-204.057-89.798-204.055-200.185-204.055c-110.385 0-200.189 91.546-200.189 204.055z" />
<glyph unicode="&#xf603;" glyph-name="b-userfill" d="M918.194-28.876c1.088 0 2.178 0.048 3.282 0.144 19.813 1.781 34.418 19.294 32.633 39.104-16.645 184.571-142.245 332.505-310.551 384.011v-0.002c80.416 48.011 134.647 136.512 134.647 237.815 0 152.222-122.105 276.073-272.206 276.073s-272.208-123.851-272.208-276.071c0-103.106 56.112-193.038 138.919-240.441-164.377-53.639-286.427-199.696-302.814-381.385-1.783-19.81 12.823-37.323 32.635-39.104z" />
<glyph unicode="&#xf604;" glyph-name="b-users" d="M517.37 400.859c68.683 41.004 115.006 116.593 115.006 203.122 0 130.017-104.292 235.797-232.498 235.797s-232.498-105.782-232.498-235.797c0-88.069 47.928-164.877 118.649-205.37-140.395-45.81-244.643-170.563-258.636-325.745-1.523-16.922 10.954-31.882 27.875-33.401 16.96-1.563 31.865 10.954 33.4 27.875 14.849 164.694 150.84 288.9 316.336 288.9s301.49-124.206 316.336-288.9c1.444-15.981 14.861-27.996 30.598-27.996 0.928 0 1.861 0.039 2.802 0.122 16.922 1.523 29.398 16.479 27.875 33.401-14.215 157.645-121.495 284-265.247 327.992v0zM228.894 603.981c0 96.093 76.705 174.285 170.985 174.285 94.284 0 170.981-78.191 170.981-174.285 0-96.098-76.696-174.29-170.981-174.29-94.281 0-170.985 78.191-170.985 174.29v0zM996.608 72.867c-14.215 157.645-121.495 284-265.247 327.992 68.683 41.004 115.006 116.593 115.006 203.122 0 130.017-104.292 235.797-232.498 235.797-28.753 0-56.303-5.321-81.744-15.043 22.892-12.478 43.463-28.676 60.909-47.777 6.831 0.851 13.781 1.307 20.834 1.307 94.284 0 170.981-78.191 170.981-174.285 0-96.098-76.696-174.29-170.981-174.29-7.153 0-14.199 0.469-21.121 1.35-8.181-8.583-17.016-16.531-26.408-23.798 21.604-9.712 42.12-21.407 61.34-34.832 9.569-5.422 18.717-11.491 27.361-18.173 148.819-16.528 266.536-134.331 280.291-286.895 1.444-15.981 14.861-27.996 30.598-27.996 0.928 0 1.861 0.039 2.802 0.122 16.922 1.523 29.398 16.479 27.875 33.401z" />
<glyph unicode="&#xf605;" glyph-name="b-user-round" d="M512-36.565c-262.552 0-475.422 212.87-475.422 475.422s212.87 475.422 475.422 475.422 475.422-212.87 475.422-475.422-212.87-475.422-475.422-475.422zM773.007 100.356c-43.858 101.027-143.815 172.103-261.007 172.103s-217.268-70.957-261.126-172.043c72.264-55.862 162.713-89.439 261.126-89.439 98.353 0 188.743 33.517 261.007 89.379zM654.627 486.399c0 78.802-63.825 142.627-142.627 142.627s-142.627-63.825-142.627-142.627 63.825-142.627 142.627-142.627 142.627 63.825 142.627 142.627zM512 866.738c-236.285 0-427.88-191.595-427.88-427.88 0-120.103 49.622-228.5 129.315-306.231 43.501 89.082 125.155 156.057 224.162 178.699-68.045 29.001-115.765 96.451-115.765 175.074 0 105.009 85.16 190.169 190.169 190.169s190.169-85.16 190.169-190.169c0-78.624-47.72-146.073-115.765-175.074 99.007-22.642 180.601-89.676 224.102-178.759 79.694 77.732 129.374 186.128 129.374 306.291 0 236.285-191.595 427.88-427.88 427.88z" />
<glyph unicode="&#xf606;" glyph-name="b-account" d="M781.614 635.78c0 156.337-126.193 283.073-281.866 283.073s-281.866-126.733-281.866-283.073c0-156.337 126.193-283.073 281.866-283.073s281.866 126.733 281.866 283.073zM266.897 635.78c0 129.147 104.249 233.843 232.845 233.843s232.845-104.697 232.845-233.843c0-129.147-104.249-233.843-232.845-233.843s-232.845 104.697-232.845 233.843zM21.795-16.519v-24.618h980.415v24.618c0 221.003-226.826 418.455-490.204 418.455-15.848 0-31.606-0.639-47.241-1.917-13.49-1.102 21.633-12.98 22.728-26.528 14.313 1.169 9.988-20.786 24.509-20.786 237.742 0 441.185-177.102 441.185-369.224l24.509 24.618h-931.392l24.509-24.618c0 130.722 82.16 250.22 214.527 316.77 12.104 6.087 17.006 20.874 10.947 33.029s-20.786 17.075-32.892 10.992c-148.175-74.495-241.605-210.384-241.605-360.793z" />
<glyph unicode="&#xf607;" glyph-name="b-accounts" d="M643.416 592.236c0 131.821-106.869 238.69-238.69 238.69s-238.69-106.869-238.69-238.69 106.869-238.69 238.69-238.69 238.69 106.869 238.69 238.69zM207.539 592.236c0 108.893 88.269 197.187 197.187 197.187s197.187-88.269 197.187-197.187-88.269-197.187-197.187-197.187-197.187 88.294-197.187 197.187zM0.001 42.228v-20.751h830.202v20.751c0 186.357-192.076 352.848-415.102 352.848-13.413 0-26.775-0.531-40.009-1.619-11.413-0.936 18.321-10.932 19.259-22.371 12.122 0.987 8.452-17.537 20.751-17.537 201.313 0 373.599-149.333 373.599-311.32l20.751 20.751h-788.7l20.751-20.751c0 110.235 69.567 210.98 181.65 267.109 10.249 5.138 14.4 17.613 9.262 27.862s-17.613 14.4-27.862 9.262c-125.444-62.836-204.551-177.423-204.551-304.233zM712.529 407.829c74.249 40.465 124.659 119.193 124.659 209.714 0 131.821-106.869 238.69-238.69 238.69-38.011 0-73.794-9.11-105.68-24.902 16.374-5.491 48.487-25.002 49.196-24.801 17.892 5.339 36.846 8.199 56.484 8.199 108.919 0 197.187-88.269 197.187-197.187s-88.269-197.187-197.187-197.187c-2.429 0-4.808 0.279-7.212 0.355l-1.342-1.114c0 0 0 0 0 0s-6.884-8.351-15.614-16.070c-11.084-9.818-24.547-19.536-23.915-19.688 15.563-3.214 31.607-5.011 48.108-5.011 2.809 0 9.566 0 10.376 0 192.658 0 358.314-136.831 372.232-290.568h-139.894c4.151-22.144 3.745-41.503 3.745-41.503h179.018v20.751c-0.051 156.621-135.82 298.767-311.472 340.321z" />
<glyph unicode="&#xf608;" glyph-name="b-usergroup" d="M647.429 467.306c51.205 39.962 84.281 101.87 84.281 171.435 0 120.229-98.454 218.059-219.51 218.059s-219.51-97.828-219.51-218.059c0-69.564 33.074-131.472 84.281-171.435-134.945-53.568-230.61-184.5-230.61-337.377v-72.667c0-20.096 16.366-36.348 36.575-36.348h658.53c20.209 0 36.575 16.253 36.575 36.348v72.667c0 152.934-95.666 283.809-230.61 337.377v0 0zM353.402 639.026c0 87.012 71.215 157.744 158.797 157.744s158.797-70.732 158.797-157.744c0-86.985-71.215-157.744-158.797-157.744s-158.797 70.732-158.797 157.744v0 0zM823.019 80.546h-621.67v38.597c0 170.268 139.442 308.799 310.877 308.799 171.379 0 310.791-138.531 310.791-308.799v-38.597zM228.675 433.606l7.145 1.708c15.341 5.095 26.272 18.472 26.272 34.185 0 15.171-10.218 28.15-24.706 33.616-39.166 17.676-64.441 56.471-64.441 99.224 0 48.444 42.097 89.262 86.158 103.408 7.714 23.654 19.384 45.541 34.242 64.897 2.591 4.27 5.322 8.453 8.169 12.553-2.96 0.142-5.778 0.883-8.824 0.883-100.846 0-182.934-81.519-182.934-181.739 0-45.997 17.647-89.119 47.591-121.909-95.239-49.014-157.346-147.042-157.346-257.935v-56.215c0-20.096 16.366-36.348 36.575-36.348h65.551c0 24.905 2.562 40.874 7.372 64.356h-46.31v28.208c0 100.447 67.971 186.663 165.486 211.113v0 0zM866.654 480.428c29.943 32.79 47.591 75.912 47.591 121.909 0 100.22-82.060 181.768-182.934 181.768-3.045 0-5.864-0.74-8.824-0.883 2.846-4.098 5.579-8.283 8.169-12.553 14.858-19.355 26.528-41.243 34.213-64.897 44.062-14.146 92.25-54.963 92.25-103.408 0-42.752-25.304-81.577-64.441-99.224-14.487-5.465-24.706-18.445-24.706-33.616 0-15.712 10.958-29.089 26.272-34.185l7.145-1.708c97.544-24.479 165.486-110.666 165.486-211.142v-28.208h-52.429c4.839-23.482 7.372-39.451 7.372-64.356h65.551c20.238 0 36.575 16.253 36.575 36.348v56.215c0.057 110.894-62.050 208.921-157.289 257.935v0 0z" />
<glyph unicode="&#xf609;" glyph-name="b-user-tie" d="M336.426 702.224c0 96.967 78.607 175.574 175.574 175.574s175.574-78.606 175.574-175.574c0-96.966-78.607-175.574-175.574-175.574s-175.574 78.607-175.574 175.574zM746.17 468.125h-32.394l-182.070-369.66 68.081 340.398-87.786 87.786-87.786-87.786 68.081-340.398-182.069 369.66h-32.394c-116.981 0-116.981-78.63-116.981-175.574v-292.624h702.296v292.624c0 96.944 0 175.574-116.978 175.574z" />
<glyph unicode="&#xf60a;" glyph-name="b-user-kehus" d="M758.683 70.881c0 0 0.74 61.149-23.274 126.859-21.651 38.919-47.624 47.911-82.061 67.57-0.537 17.206 3.422 43.214 3.422 43.214s-38.575 19.062-52.217 56.76c-28.562 11.144-24.805 18.335-27.593 32.706 0 0-4.886 58.475 14.427 57.246 0 0 17.844 0 14.828 13.452-1.034 22.339-0.649 65.698 0.902 80.609 1.529 14.911 5.785 55.153 37.994 61.119 32.229 5.965 13.639 2.982 24.351 4.448 10.758 1.518 7.675 7.483 27.636 7.483l41.459 8.744c19.898 0 32.681-29.326 43.441-30.846 10.713-1.462 0.497 4.591 22.461 0.584 32.206-5.964 26.333-48.549 27.865-63.458 1.552-14.912 3.015-51.822 0.901-71.664-3.063-13.449 6.525-11.928 6.525-11.928 23.006 0 21.518-57.258 21.518-57.258-3.578-15.149-4.615-17.005-26.017-30.16-13.64-37.645-61.849-60.816-61.849-60.816s-1.172-28.741-1.309-35.537c0.587-2.69 10.108-49.627 81.836-59.601 88.816-12.715 104.121-40.67 120.888-56.223 16.722-15.54 20.391-83.297 20.391-83.297s-120.749 0.001-236.526 0.001zM28.815 70.092c0 0-1.598 95.581 20.21 115.914 21.831 20.29 30.745 56.76 146.657 73.383 115.868 16.624 103.69 75.871 107.494 74.016-0.675 22.482-2.927 54.015-2.927 54.015s-60.41 24.838-78.166 74.028c-37.296 14.562-32.411 23.904-36.034 42.73 0 0-11.299 76.267 13.886 74.701 0 0 16.362 0 12.357 17.498-1.304 29.181-1.304 85.753 0.699 105.21 2.002 19.458 16.858 71.958 58.901 79.733s25.186 3.917 39.208 5.815c14.043 1.959 10.038 9.78 36.058 9.78l54.061 10.704c25.995 0 42.72-41.256 56.72-43.215s17.33 5.92 46.051 0.732c42.041-7.766 36.214-63.357 38.215-82.816 2.005-19.457 5.719-72.304 1.713-89.805-4.006-17.51 8.508-15.552 8.508-15.552 30.024 0 20.573-74.746 20.573-74.746-4.641-19.75-17.154-22.147-45.106-39.309-17.802-49.177-74.569-85.359-74.569-85.359s-0.246-40.772-0.426-49.619c0.765-3.522-6.459-54.222 92.281-68.545 115.911-16.623 135.923-53.096 157.774-73.383 21.855-20.335 24.198-115.914 24.198-115.914h-698.334z" />
<glyph unicode="&#xf60b;" glyph-name="b-user-kehu-group" d="M640.003 821.856c15.726-3.419 28.713-11.794 38.971-25.124 10.254-13.329 16.063-29.909 17.431-49.732 0-6.155 0.341-15.726 1.021-28.713 0.685-12.991 1.027-26.662 1.027-41.018s-0.514-27.344-1.536-38.965c-1.026-11.622-2.909-18.801-5.643-21.533-4.102-4.786-8.034-7.007-11.794-6.664s-5.638-1.54-5.638-5.643c0-2.049-0.513-9.226-1.54-21.533-1.021-12.302-3.931-29.398-8.714-51.272-2.734-11.618-6.664-22.043-11.794-31.275-5.125-9.226-10.424-17.602-15.891-25.122-6.84-8.205-13.676-15.724-20.513-22.559-0.685-8.885-1.026-17.431-1.026-25.638v-21.533c0-7.516 0.341-13.329 1.026-17.431 0.685-8.2 2.734-14.013 6.155-17.431 3.419-3.418 10.254-6.493 20.507-9.226 3.418-1.368 9.569-3.418 18.458-6.155 8.885-2.733 19.48-6.321 31.788-10.766 12.302-4.44 25.122-9.056 38.452-13.843 13.33-4.782 26.15-9.398 38.453-13.842 12.307-4.445 23.245-8.547 32.814-12.302 9.573-3.76 16.753-6.671 21.533-8.718 13.676-6.835 22.732-14.014 27.177-21.533s8.375-17.090 11.794-28.713c1.365-6.151 3.247-17.431 5.638-33.841 2.391-16.405 4.958-33.495 7.69-51.268 2.734-17.779 4.954-34.525 6.664-50.252 1.712-15.719 2.905-25.63 3.59-29.734 0.685-8.888-0.856-16.409-4.616-22.559s-12.474-10.938-26.145-14.356c-11.622-2.733-28.545-5.638-50.758-8.718-22.219-3.075-48.026-5.98-77.423-8.714s-61.697-4.957-96.902-6.664c-35.205-1.711-72.293-2.567-111.258-2.567s-76.223 0.685-111.771 2.054c-35.548 1.365-68.19 3.247-97.929 5.638-29.739 2.395-56.054 5.129-78.958 8.205-22.898 3.075-40.848 6.321-53.834 9.74-2.734 0.685-6.151 2.054-10.253 4.102-4.103 2.054-8.034 4.616-11.794 7.691s-6.665 6.835-8.714 11.28c-2.054 4.444-2.739 9.397-2.054 14.868 0.685 4.782 2.567 15.549 5.643 32.301 3.075 16.746 6.664 34.693 10.767 53.834 4.102 19.138 7.857 37.088 11.279 53.834 3.419 16.746 5.809 27.171 7.179 31.273 2.733 8.205 6.664 16.753 11.789 25.638 5.128 8.888 13.842 18.115 26.148 27.684 6.151 4.786 17.431 9.915 33.841 15.383 16.405 5.471 33.495 10.596 51.268 15.383 17.775 4.782 34.525 8.885 50.246 12.302 15.726 3.419 25.979 5.814 30.765 7.178 10.254 2.054 19.309 4.616 27.171 7.691s11.794 7.349 11.794 12.82v59.473c-7.52 6.151-14.698 12.992-21.533 20.507-6.151 6.155-12.307 13.505-18.458 22.047-6.151 8.547-11.622 17.602-16.405 27.177-9.573 18.458-15.724 35.377-18.458 50.759-2.733 15.378-4.445 24.438-5.128 27.171s-3.247 4.958-7.691 6.664c-4.44 1.711-7.687 5.3-9.74 10.766-5.466 11.624-8.034 23.931-7.691 36.918s1.198 31.445 2.567 55.374c2.049 23.924 5.98 46.828 11.789 68.704 5.814 21.875 18.629 42.042 38.457 60.499 10.253 8.884 23.924 16.233 41.013 22.047 17.090 5.809 34.525 10.083 52.299 12.815 17.773 2.734 34.691 4.103 50.758 4.103 16.063 0 28.2-1.027 36.398-3.075 8.889-2.734 16.068-5.643 21.535-8.718 5.471-3.075 9.744-5.981 12.82-8.714 3.075-2.739 5.638-5.301 7.69-7.691 2.049-2.395 4.103-4.274 6.151-5.643 3.419-2.733 7.863-3.589 13.33-2.561 5.472 1.027 15.040 0.171 28.712-2.561v0zM545.668 259.923l27.684-106.642 45.117 120.998-43.068 30.76-29.734-45.116zM471.836 307.092l-41.019-32.813 46.148-120.998 24.609 107.669-29.737 46.142zM836.888 708.031c9.569-1.365 17.26-6.151 23.069-14.356 5.814-8.199 9.060-18.115 9.744-29.734 0-3.418 0.338-9.060 1.022-16.922 0.685-7.857 1.026-15.891 1.026-24.095s-0.341-15.895-1.026-23.075c-0.685-7.178-1.707-11.446-3.075-12.815-2.734-2.734-5.296-3.931-7.691-3.589-2.391 0.341-3.589-0.856-3.589-3.589 0-1.369-0.171-5.638-0.513-12.816-0.338-7.178-2.221-17.607-5.638-31.279-1.369-6.835-3.419-12.986-6.151-18.458-2.739-5.466-5.814-10.253-9.231-14.356-3.419-4.782-7.52-9.226-12.302-13.329-0.685-5.466-1.027-10.596-1.027-15.383v-23.583c0.685-4.786 2.049-8.205 4.103-10.253 2.048-2.054 6.151-3.76 12.302-5.129 2.738-0.685 9.231-2.734 19.484-6.151 10.254-3.419 21.364-7.349 33.328-11.794 11.96-4.445 23.069-8.542 33.322-12.302 10.26-3.76 17.437-6.669 21.539-8.718 8.2-4.102 13.843-8.375 16.918-12.815 3.075-4.445 5.295-10.43 6.664-17.944 0.685-3.419 1.706-9.915 3.075-19.486 1.369-9.569 2.734-19.828 4.103-30.76 1.368-10.938 2.733-20.854 4.102-29.739 1.365-8.888 2.049-14.698 2.049-17.43 0.684-5.473-0.171-10.088-2.562-13.849-2.391-3.755-7.691-6.322-15.895-7.687-6.835-1.368-15.72-3.080-26.658-5.128-10.94-2.049-25.293-3.76-43.069-5.129-1.368 8.205-3.418 16.067-6.155 23.588-2.048 6.835-4.439 14.013-7.178 21.533-2.734 7.52-6.151 14.013-10.253 19.484-7.52 10.254-15.379 18.454-23.583 24.611-8.205 6.151-16.41 11.279-24.609 15.378-8.205 4.102-16.41 7.349-24.611 9.744-8.204 2.391-16.409 4.954-24.614 7.69-34.862 12.302-62.89 20.851-84.080 25.631-21.191 4.786-33.158 8.888-35.89 12.307-1.369 2.049-2.225 4.445-2.567 7.178s-0.509 5.809-0.509 9.226c0 3.424 0.337 7.179 1.021 11.28 9.573 2.739 16.753 4.445 21.533 5.129 4.786 0.685 8.547 1.369 11.28 2.049 5.471 1.368 10.596 2.909 15.383 4.615 4.786 1.711 7.178 4.274 7.178 7.691v35.888l-6.151 3.075c-1.369 0.685-2.738 2.392-4.102 5.129 4.102 8.885 8.2 19.48 12.302 31.788 3.419 10.938 7.007 24.266 10.769 39.992 3.759 15.719 7.006 34.521 9.744 56.397 2.048 17.089 3.418 32.472 4.097 46.143 0.685 13.671 1.027 25.635 1.027 35.89v31.787c8.204 1.369 16.917 2.054 26.148 2.054 9.226 0 16.575-0.685 22.047-2.054 11.624-3.418 18.629-6.835 21.020-10.253s4.958-6.151 7.691-8.2c2.733-1.369 5.638-1.883 8.714-1.54 3.082 0.34 8.72-0.173 16.924-1.542v0zM784.589 379.899l7.178-27.69 18.46-6.151 14.355 36.918-21.533 18.458-18.459-21.534zM731.268 398.353l-17.43-17.431 1.026-4.102 31.788-9.227 4.102 11.28-19.486 19.48zM275.978 730.592c-10.933 1.368-21.871 1.711-32.809 1.026-9.573-0.685-19.999-2.391-31.279-5.129-11.28-2.733-21.705-7.52-31.275-14.356-8.204-5.466-14.698-11.959-19.484-19.479-4.782-7.52-8.371-15.21-10.767-23.075-2.391-7.862-3.93-15.21-4.61-22.047-0.685-6.835-1.027-12.302-1.027-16.404-0.684-8.889-1.368-16.924-2.048-24.101-0.685-7.179-0.342-13.5 1.021-18.967 1.369-5.471 2.395-9.231 3.075-11.279 0.685-2.054 2.054-3.76 4.102-5.129 2.054-1.365 3.76-2.22 5.129-2.562 1.365-0.341 2.734-4.958 4.103-13.842 0.678-8.889 2.904-17.603 6.664-26.15 3.76-8.542 7.69-15.554 11.794-21.020 2.048-3.419 4.61-6.664 7.686-9.74 3.080-3.075 5.984-6.327 8.718-9.744 2.734-3.419 6.151-6.835 10.253-10.254v-29.739c-0.684-4.097-2.22-7.516-4.615-10.253-2.391-2.734-7.007-4.782-13.843-6.151-3.418-0.685-9.055-2.049-16.917-4.103-7.862-2.048-16.405-4.274-25.638-6.664-9.226-2.391-18.458-4.958-27.684-7.69-9.231-2.734-16.58-5.125-22.047-7.179-19.828-9.569-31.788-25.979-35.89-49.218-2.734-10.938-5.814-24.609-9.231-41.018-3.419-16.405-5.809-28.028-7.178-34.864-1.365-6.835-1.194-14.013 0.513-21.533 1.711-7.52 7.349-12.307 16.922-14.356 4.782-1.369 10.767-2.391 17.944-3.075s14.184-1.711 21.020-3.075c7.52-1.369 15.378-2.395 23.583-3.080 1.369 8.205 3.418 16.409 6.151 24.614 2.054 7.52 4.958 15.036 8.718 22.556s8.375 14.698 13.842 21.533c5.473 6.155 12.137 12.135 19.999 17.944 7.857 5.813 15.549 11.45 23.069 16.922 8.204 6.151 17.093 11.96 26.664 17.431l-10.254 25.638 22.556 17.43 23.586-26.662 12.303 3.075c1.368 0 3.422 0.684 6.155 2.053 1.364 0.685 2.733 1.026 4.102 1.026l19.479 22.556 17.431-14.356c3.419 0.685 6.5 1.369 9.231 2.054 2.734 0.685 5.809 1.365 9.226 2.049l10.254 2.053c7.519 1.365 13.847 2.734 18.971 4.098 5.129 1.368 8.034 4.786 8.718 10.258 0 2.734 0.17 4.954 0.513 6.664 0.337 1.706 0.509 3.247 0.509 4.611v3.080c-6.151 2.048-11.96 4.097-17.431 6.151l-14.355 4.102c-4.782 1.365-8.542 2.734-11.28 4.102-5.466 2.049-8.542 4.955-9.226 8.714s-1.027 8.718-1.027 14.869v10.254c0 3.418 0.342 6.835 1.027 10.253 0 3.419 0.341 7.52 1.026 12.307-5.471 8.205-10.938 17.090-16.409 26.664-4.782 8.2-9.398 17.602-13.843 28.198s-8.034 21.705-10.766 33.322c-3.419 15.726-5.809 32.473-7.179 50.251-1.369 17.773-1.706 33.835-1.026 48.192 0.002 17.090 1.028 33.842 3.077 50.247v0z" />
<glyph unicode="&#xf60c;" glyph-name="b-user-kehu" d="M803.746 0.667h-585.126c-107.7 0-146.28 38.583-146.28 146.28v585.123c0 107.701 38.583 146.28 146.28 146.28h585.126c107.697 0 146.279-38.581 146.279-146.28v-585.123c0-107.7-38.583-146.28-146.279-146.28v0zM794.192 164.997c-0.075 71.223-59.715 129.283-132.819 129.283h-40.689c-34.747 0-63.024 27.753-63.024 61.821 0 14.44 5.791 27.977 16.471 37.979 20.156 19.178 38.732 46.628 52.27 77.315l12.183 27.828 21.887-15.419c7.295 6.693 23.242 34.595 23.242 57.081 0 22.187-1.806 31.665-3.234 35.8l-28.504-7.519-2.783 30.911c-2.181 124.995-46.255 180.727-142.823 180.727-122.515 0-141.092-86.715-142.897-180.352l-0.602-29.408-28.278 5.64c-1.431-4.061-3.158-13.612-3.158-35.8 0-22.186 15.416-49.711 24.592-57.081l19.63 10.904 11.131-24.593c13.763-30.611 31.662-56.858 51.894-76.112 10.38-9.852 16.396-23.689 16.396-37.905 0-34.068-28.28-61.821-63.101-61.821h-40.614c-73.252 0-132.744-57.988-132.744-129.283v-42.719c0-13.238 11.131-24.067 24.894-24.067h525.785c13.766 0 24.894 10.828 24.894 24.067v42.722h-0.001z" />
<glyph unicode="&#xf60d;" glyph-name="b-blacktie" d="M73.156 877.701h877.688v-877.688h-877.688v877.688zM693.169 240.573l-126.315 360.583 126.315 169.687h-362.267l126.315-169.687-126.315-360.583 181.169-173.708z" />
<glyph unicode="&#xf60e;" glyph-name="b-addressbook" d="M129.049 334.416c-19.217 0-34.814 15.562-34.814 34.814v174.068c0 19.217 15.597 34.814 34.814 34.814s34.814-15.597 34.814-34.814v-174.068c0-19.252-15.597-34.814-34.814-34.814zM894.951-13.721h-696.274c-57.582 0-104.441 46.511-104.441 103.71v70.358c0 19.252 15.597 34.814 34.814 34.814s34.814-15.562 34.814-34.814v-70.358c0-18.834 15.631-34.083 34.814-34.083h696.274c19.217 0 34.814 15.597 34.814 34.814v696.274c0 19.182-15.597 34.814-34.814 34.814h-696.274c-20.192 0-34.814-11.036-34.814-18.521v-51.106c0-19.217-15.597-34.814-34.814-34.814s-34.814 15.597-34.814 34.814v51.106c0 48.6 46.859 88.148 104.441 88.148h696.274c57.582 0 104.441-46.859 104.441-104.441v-696.274c0-57.582-46.859-104.441-104.441-104.441zM163.863 612.925h-104.441c-19.217 0-34.814 15.597-34.814 34.814s15.597 34.814 34.814 34.814h104.441c19.217 0 34.814-15.597 34.814-34.814s-15.597-34.814-34.814-34.814zM163.863 229.975h-104.441c-19.217 0-34.814 15.562-34.814 34.814s15.597 34.814 34.814 34.814h104.441c19.217 0 34.814-15.562 34.814-34.814s-15.597-34.814-34.814-34.814zM302.526 124.455c-15.84 0-30.149 10.862-33.874 26.911-4.352 18.73 7.276 37.425 26.041 41.776 4.944 1.149 106.391 24.648 182.493 33.247v21.793c-73.039 62.665-104.441 151.788-104.441 293.653 0 139.081 70.289 209.613 208.882 209.613 172.641 0 208.882-113.597 208.882-208.882 0-151.231-72.064-242.825-138.384-295.046l0.244-21.584c75.372-9.295 175.705-31.646 180.579-32.725 18.765-4.178 30.566-22.803 26.354-41.568-4.143-18.73-22.524-30.706-41.568-26.354-1.288 0.279-132.571 29.557-202.268 34.431-18.103 1.253-32.168 16.223-32.377 34.326l-0.731 70.358c-0.139 11.384 5.292 22.107 14.587 28.686 56.503 40.454 123.937 116.556 123.937 249.475 0 98.906-40.349 139.255-139.255 139.255-100.194 0-139.255-39.235-139.255-139.986 0-127.975 26.284-200.214 90.724-249.405 8.634-6.58 13.717-16.78 13.717-27.642v-70.358c0-18.591-14.587-33.909-33.143-34.779-69.175-3.307-201.885-34.013-203.207-34.291-2.646-0.627-5.292-0.905-7.938-0.905z" />
<glyph unicode="&#xf60f;" glyph-name="b-search" d="M1010.286-10.503l-173.48 185.63c70.316 84.685 108.984 190.249 108.984 301.38 0 260.711-212.148 472.859-472.932 472.859-260.711 0-472.859-212.112-472.859-472.859s212.148-472.859 472.895-472.859c68.315 0.036 134.193 14.296 195.779 42.342 18.297 8.33 26.373 29.902 18.043 48.163-8.33 18.334-30.011 26.446-48.163 18.043-52.128-23.718-107.856-35.758-165.695-35.795-220.624 0-400.106 179.482-400.106 400.106 0 220.587 179.482 400.106 400.106 400.106 220.66 0 400.178-179.482 400.178-400.106 0-103.855-39.614-202.254-111.494-277.080-13.932-14.478-13.459-37.504 0.982-51.436 1.091-1.055 2.51-1.455 3.747-2.364 0.982-1.455 1.491-3.128 2.728-4.438l188.14-201.308c7.13-7.675 16.842-11.531 26.555-11.531 8.912 0 17.825 3.238 24.845 9.822 14.66 13.641 15.46 36.668 1.746 51.327z" />
<glyph unicode="&#xf610;" glyph-name="b-search1" d="M1005.001 36.233l-198.54 198.54c56.023 74.773 89.212 167.644 89.212 268.267 0 247.334-200.503 447.836-447.837 447.836-247.332 0-447.835-200.503-447.835-447.836s200.503-447.836 447.835-447.836c100.596 0 193.444 33.168 268.207 89.166l198.824-198.814c11.569-11.566 27.549-18.72 45.201-18.72 35.308 0 63.933 28.623 63.933 63.932-0.001 17.79-7.273 33.877-19 45.467zM128.063 503.040c0 176.606 143.168 319.773 319.773 319.773s319.774-143.168 319.774-319.773-143.169-319.772-319.775-319.772c-176.604 0-319.772 143.166-319.772 319.772z" />
<glyph unicode="&#xf611;" glyph-name="b-book-1" d="M868.635 795.472v-772.709h-624.121c-49.245 0-89.168 39.925-89.168 89.168s39.905 89.168 89.168 89.168h564.682v713.27h-594.392c-65.373 0-118.878-53.504-118.878-118.878v-713.27c0-65.393 53.504-118.878 118.878-118.878h713.27v832.149h-59.44zM244.571 141.641v0c-0.019 0-0.038 0-0.057 0-16.415 0-29.729-13.315-29.729-29.729s13.315-29.729 29.729-29.729c0.019 0 0.038 0 0.057 0v0h564.568v59.44h-564.568z" />
<glyph unicode="&#xf612;" glyph-name="b-book-2" d="M895.632 720.578v116.271c-330.072 0-380.679-108.666-383.623-115.71-2.943 7.045-53.564 115.71-383.636 115.71v-116.271c-26.867 1.64-55.244 2.565-85.276 2.565v-599.365c0 0 259.278 28.025 387.998-40.242 21.839-11.591 45.308-42.299 80.913-42.482s59.178 30.97 81.082 42.559c128.773 68.19 387.816 40.163 387.816 40.163v599.365c-30.031 0-58.423-0.925-85.276-2.565zM171.010 793.547c252.636-7.905 299.649-85.393 301.889-89.43l9.702-23.22v-517.462c-90.185 51.728-224.285 61.001-307.659 61.001-1.328 0-2.644 0-3.933 0v569.112zM852.98 793.547v-569.124c-1.289 0-2.592 0-3.933 0-83.974 0-219.453-9.417-309.6-62.133v513.88l11.656 27.947c2.214 3.972 49.123 81.524 301.876 89.43z" />
<glyph unicode="&#xf613;" glyph-name="b-book-3" d="M954.769 838.058h-274.321c-51.991 0-100.846-19.203-137.683-54.211-12.54-11.887-22.338-25.603-30.829-39.841-8.491 14.239-18.288 27.824-30.959 39.841-36.838 35.009-85.693 54.211-137.683 54.211h-274.061c-14.5 0-26.257-11.104-26.257-24.95v-689.461c0-13.847 11.757-24.95 26.257-24.95h246.758c10.32 0 20.77-0.784 31.219-2.743 10.581-1.959 20.639-4.703 30.175-8.36l125.012-46.243c0.261-0.131 0.523 0 0.784-0.131 2.874-0.914 5.748-1.568 8.752-1.568s5.878 0.523 8.752 1.568c0.131 0.131 0.523 0.131 0.653 0.131l120.048 44.414c11.495 4.18 23.252 7.446 35.401 9.667 11.887 2.090 24.297 3.266 36.576 3.266h241.403c14.5 0 26.257 11.234 26.257 24.95v689.592c0 13.716-11.757 24.82-26.257 24.82v0zM356.748 145.071c-13.455 2.351-27.171 3.527-40.756 3.527h-220.632v639.691h248.065c38.013 0 73.805-14.108 100.715-39.841 26.91-25.603 41.801-59.567 41.801-95.882v-551.386l-89.481 33.049c-13.194 4.833-26.518 8.36-39.71 10.842v0zM928.643 148.598h-215.147c-15.676 0-31.35-1.306-46.243-4.050-15.153-2.874-30.306-6.923-44.675-12.279l-84.387-31.090v551.516c0 36.184 14.761 70.279 41.671 95.882s62.702 39.841 100.715 39.841h248.196v-639.822h-0.131z" />
<glyph unicode="&#xf614;" glyph-name="b-mortarboard" d="M500.976 360.377l-244.992 76s0-96 0-160 115.008-96 256-96 256 32 256 96 0 160 0 160l-244.992-76c-7.008-2.016-15.008-2.016-23.008 0h0.992zM518.992 769.369c-4 0.992-8.992 0.992-12.992 0l-488.992-152c-20.992-7.008-20.992-36 0-43.008l111.008-35.008v-112.992c-19.008-11.008-32-32-32-55.008 0-12 3.008-23.008 8.992-32-4.992-8.992-8.992-20-8.992-32v-164.992c0-35.008 128-35.008 128 0v164.992c0 12-3.008 23.008-8.992 32 4.992 8.992 8.992 20 8.992 32 0 24-12.992 44-32 55.008v92.992l312.992-98.016c4-0.992 8.992-0.992 12.992 0l488.992 152c20.992 7.008 20.992 36 0 43.008l-488 152.992zM512.976 564.377c-35.008 0-64 14.016-64 32s28.992 32 64 32 64-14.016 64-32-28.992-32-64-32z" />
<glyph unicode="&#xf615;" glyph-name="b-diamond" d="M853.335 823.394l-176.836 88.418h-335.166l-174.779-84.307-166.554-176.832 509.944-684.769 514.056 688.883-170.664 168.612zM609.846 642.914l20.553-123.381h-253.596l20.553 123.381h212.489zM616.829 450.989l-109.439-286.744-109.439 286.744h218.878zM323.916 455.277l127.311-311.825-304.285 424.666 176.976-112.84zM689.235 450.989h1.462l184.16 118.538-310.303-426.076 124.683 307.536zM908.403 672.634l-211.355-136.045-19.211 115.336 163.096 87.368 67.468-66.659zM357.001 843.266h303.316l115.618-57.807-136.945-73.035-5.816-0.968h-259.143l-129.865 77.385 112.833 54.426zM185.254 745.429l144.558-90.848-18.336-110.081-198.256 126.412 72.031 74.519z" />
<glyph unicode="&#xf616;" glyph-name="b-diamondfill" d="M303.050 515.586h429.48l-206.535-520.204-222.945 520.204zM352.273 700.89h327.175l57.906-129.327h-424.653l39.569 129.327zM258.656 578.32l-258.656 108.091 138.979 103.268 166.003-85.896-46.327-125.461zM0 623.679l245.139-108.092 266.861-520.204-512 628.296zM794.298 515.586l229.702 118.71-481.758-638.914 252.058 520.204zM789.475 579.284l-64.664 133.19 147.661 82.035 127.399-107.129-210.397-108.097zM347.445 764.587l-55.975 14.479-105.198 58.873 123.534 44.395h403.425l122.57-51.152-117.747-56.942-39.566-9.651h-331.040z" />
<glyph unicode="&#xf617;" glyph-name="b-vip" d="M822.619 576.715c-8.234 2.181-23.438 3.276-45.618 3.276h-94.507v-132.060h95.516c31.585 0 54.016 5.88 67.289 17.642 13.27 11.758 19.911 28.309 19.911 49.649 0 15.455-3.907 28.688-11.719 39.693-7.811 11.002-18.105 18.271-30.872 21.801zM941.983 731.468h-859.966c-45.297 0-82.017-36.72-82.017-82.017v-421.189c0-45.297 36.72-82.017 82.017-82.017h859.966c45.297 0 82.017 36.72 82.017 82.017v421.189c0 45.297-36.72 82.017-82.017 82.017zM301.686 254.124h-50.153l-143.148 369.465h52.925l96.021-268.405c7.726-21.509 14.196-41.67 19.406-60.485 5.71 20.161 12.35 40.324 19.91 60.485l99.801 268.405h49.901l-144.664-369.465zM547.411 254.124h-48.895v369.465h48.895v-369.465zM885.624 436.967c-19.996-21.761-56.118-32.637-108.369-32.637h-94.762v-150.206h-48.893v369.465h139.367c24.53 0 43.263-1.177 56.202-3.528 18.147-3.024 33.349-8.782 45.618-17.263 12.262-8.487 22.134-20.375 29.612-35.662 7.474-15.29 11.215-32.093 11.215-50.405 0-31.42-9.998-58.009-29.992-79.766z" />
<glyph unicode="&#xf618;" glyph-name="b-vip2" horiz-adv-x="1025" d="M512.516-36.525c-64.1 0-126.298 12.562-184.866 37.332-56.556 23.92-107.342 58.157-150.949 101.762s-77.845 94.389-101.766 150.944c-24.773 58.566-37.332 120.764-37.332 184.864s12.56 126.298 37.333 184.866c23.921 56.556 58.159 107.343 101.766 150.949 43.605 43.605 94.392 77.844 150.949 101.766 58.568 24.772 120.766 37.332 184.865 37.332s126.298-12.56 184.866-37.332c56.556-23.921 107.342-58.16 150.948-101.766s77.845-94.392 101.767-150.949c24.772-58.568 37.332-120.765 37.332-184.866s-12.56-126.298-37.332-184.864c-23.922-56.556-58.159-107.34-101.767-150.945-43.605-43.603-94.392-77.843-150.948-101.763-58.569-24.768-120.766-37.33-184.866-37.33zM512.516 856.304c-230.446 0-417.927-187.48-417.927-417.926 0-230.441 187.48-417.917 417.927-417.917 230.445 0 417.926 187.478 417.926 417.917 0 230.446-187.482 417.926-417.926 417.926zM453.832 580.059l-90.201-285.957h-66.828l-89.104 285.957h63.541l54.595-199.013c2.921-10.769 4.684-20.274 5.295-28.515h1.095c0.85 8.905 2.739 18.676 5.661 29.313l54.23 198.216h61.716zM588.563 580.059v-49.853h-21.911v-186.251h21.911v-49.853h-102.799v49.853h21.911v186.251h-21.911v49.853h102.799zM707.59 392.612v-98.51h-58.977v285.957h92.39c65.976 0 98.964-30.379 98.964-91.131 0-28.715-9.466-51.948-28.393-69.695-18.93-17.747-44.219-26.62-75.867-26.62h-28.118zM707.59 530.605v-89.138h23.19c31.405 0 47.109 15.021 47.109 45.068 0 29.379-15.703 44.069-47.109 44.069h-23.19z" />
<glyph unicode="&#xf619;" glyph-name="b-grade" d="M512 454.323c268.928 0 471.718 88.739 471.718 206.435s-202.79 206.435-471.718 206.435-471.718-88.739-471.718-206.435 202.79-206.435 471.718-206.435zM105.817 660.759c0 58.815 154.542 140.901 406.183 140.901s406.183-82.086 406.183-140.901-154.542-140.901-406.183-140.901-406.183 82.086-406.183 140.901zM939.081 304.863c-0.368 0.301-0.769 0.568-1.169 0.802-5.518 4.514-12.304 6.988-19.226 6.988-16.852 0-30.56-13.708-30.56-30.56 0-7.992 3.109-15.481 8.827-21.266 0.267-0.368 0.534-0.701 0.87-1.037 13.341-13.375 21.634-30.292 21.634-44.103 0-59.35-155.010-142.171-407.454-142.171s-407.454 82.821-407.454 142.171c0 14.946 3.711 28.187 21.867 44.169 0.1 0.1 1.338 1.271 1.438 1.371 0.468 0.468 0.87 1.002 1.204 1.571 4.582 5.55 7.090 12.338 7.090 19.327 0 16.852-13.708 30.56-30.56 30.56-7.489 0-14.578-2.675-20.162-7.59-0.534-0.301-1.037-0.701-1.505-1.137-28.12-27.384-42.363-57.076-42.363-88.271 0-116.959 202.256-205.166 470.448-205.166s470.448 88.205 470.448 205.166c0 30.862-14.11 60.352-41.627 87.335-0.167 0.203-1.571 1.64-1.738 1.841zM937.81 530.29c-5.485 4.514-12.204 6.955-19.127 6.955-16.852 0-30.56-13.708-30.56-30.56 0-7.992 3.109-15.481 8.827-21.266 0.267-0.368 0.534-0.701 0.87-1.037 13.341-13.375 21.634-30.292 21.634-44.103 0-59.35-155.010-142.17-407.454-142.17s-407.454 82.821-407.454 142.17c0 14.946 3.711 28.187 21.867 44.169 0.1 0.135 1.338 1.304 1.438 1.404 0.435 0.435 0.802 0.903 1.103 1.438 4.648 5.55 7.188 12.405 7.188 19.46 0 16.852-13.708 30.527-30.56 30.527-7.489 0-14.578-2.675-20.162-7.59-0.534-0.301-1.037-0.701-1.505-1.137-28.12-27.384-42.363-57.076-42.363-88.271 0-116.959 202.256-205.166 470.448-205.166s470.448 88.205 470.448 205.166c0 30.828-14.11 60.352-42.865 88.739-0.533 0.537-1.1 0.94-1.77 1.273z" />
<glyph unicode="&#xf61a;" glyph-name="b-union" d="M254.267 297.272c-1.238 0.582-2.426 1.238-3.563 1.949l1.188-0.71zM697.338 575.031c10.841-12.61 10.282-31.66-1.645-43.588zM693.899 207.874c-12.61-10.841-31.66-10.286-43.588 1.642zM250.705 299.222l-0.454 0.303zM250.224 299.548c-22.562 12.459-48.16 14.858-71.409 8.643-23.121-6.168-44.069-21.026-57.386-43.009-0.582-1.211-1.265-2.348-1.996-3.463-12.482-22.566-14.908-48.214-8.694-71.46 6.37-23.777 21.884-45.234 44.904-58.524 22.942-13.243 49.251-15.921 73.051-9.552 23.754 6.37 45.183 21.833 58.473 44.826l-0.073 0.050 1.11 1.82c12.358 22.516 14.784 48.063 8.566 71.258-6.191 23.070-20.82 43.844-42.501 57.133zM162.288 370.099c29.425 7.868 61.146 7.398 91.254-2.473-0.823 8.403-1.245 16.923-1.245 25.543 0 71.689 29.111 136.682 76.086 183.655 21.941 21.941 47.811 39.982 76.459 52.981-12.238 11.004-22.97 24.096-31.633 39.1l27.697 16.046-12.005-6.924-15.692-9.094-0.023 0.023-0.078-0.050-1.311 2.503c-20.898 37.777-25.043 80.457-14.684 119.193 10.612 39.621 36.416 75.252 74.72 97.388l16.046-27.697-16.046 27.798 3.032 1.541c37.677 20.719 80.153 24.74 118.666 14.427 39.621-10.585 75.252-36.411 97.364-74.693 22.135-38.359 26.681-82.099 16.096-121.696-7.895-29.46-24.185-56.711-47.769-77.852 28.653-12.998 54.526-31.047 76.471-52.993l1.645-1.793c46.064-46.898 74.441-111.131 74.441-181.862 0-8.628-0.427-17.153-1.25-25.566 30.124 9.887 61.834 10.368 91.231 2.496 39.626-10.589 75.279-36.411 97.388-74.697l-27.693-16.046 27.794 16.046 1.544-3.032c20.719-37.649 24.736-80.153 14.427-118.689-10.589-39.598-36.388-75.252-74.697-97.361l-16.046 27.693 16.046-27.794-3.032-1.541c-37.649-20.723-80.126-24.768-118.689-14.431-39.598 10.589-75.252 36.388-97.361 74.697l27.693 16.046-27.794-16.046-1.544 3.032c-7.809 14.194-13.248 29.075-16.438 44.174-42.64-30.674-94.899-48.723-151.323-48.723-56.397 0-108.667 18.072-151.315 48.743-3.237-15.37-8.803-30.515-16.826-44.927l-0.073-0.151-0.357-0.683c-0.656-1.261-1.362-2.477-2.197-3.687-22.213-37.071-57.207-62.036-96.049-72.445-39.544-10.589-83.31-6.067-121.669 16.069-38.309 22.135-64.109 57.766-74.72 97.388-10.364 38.712-6.219 81.443 14.68 119.193l1.316 2.503 0.073-0.050 0.027 0.023 15.692-9.094 12.001-6.924-27.693 16.046c22.108 38.309 57.762 64.082 97.361 74.67zM778.071 730.589c-13.822 10.914-33.962 8.566-44.877-5.255-10.918-13.826-8.566-33.962 5.255-44.881 37.98-29.968 69.336-67.039 92.637-108.682 23.222-41.491 38.383-87.505 44.019-135.569 1.996-17.564 17.917-30.197 35.479-28.199 17.559 1.996 30.193 17.913 28.199 35.475-6.645 56.629-24.512 110.832-51.801 159.625-27.189 48.618-64.082 92.082-108.911 127.484zM675.91-4.112c16.321 6.696 24.13 25.423 17.436 41.744-6.696 16.324-25.42 24.134-41.744 17.436-44.904-18.522-92.564-27.767-140.117-27.716-47.407 0.023-95.039 9.424-139.915 28.074-16.324 6.769-35.099-0.985-41.872-17.311-6.769-16.324 0.985-35.099 17.311-41.872 52.484-21.806 108.453-32.775 164.477-32.825 55.895-0.073 111.842 10.767 164.427 32.472zM84.787 441.385c-1.922-17.564 10.763-33.43 28.327-35.352s33.43 10.763 35.352 28.327c5.433 48.087 20.365 94.228 43.387 135.871l0.050-0.023 1.366 2.802c22.741 40.305 53.442 76.517 90.692 106.182 13.822 10.992 16.119 31.182 5.127 45.004s-31.182 16.119-45.004 5.127c-43.515-34.691-79.545-77.321-106.508-125.132l-1.82-2.907 0.151-0.073-0.023-0.050 27.945-15.417-28.074 15.417c-27.010-48.848-44.546-103.097-50.967-159.777zM508.578 652.888l3.458 0.023 3.614-0.023c14.629 0.527 29.335 4.386 42.908 11.901 1.16 0.757 2.348 1.439 3.614 2.046 21.934 13.345 36.714 34.291 42.905 57.363 6.37 23.827 3.664 50.132-9.575 73.078-13.294 23.020-34.695 38.507-58.501 44.877-23.043 6.191-48.389 3.893-70.805-8.213l-2.275-1.439-0.050 0.078c-22.993-13.294-38.484-34.723-44.853-58.501-6.214-23.245-3.789-48.894 8.694-71.46 0.757-1.164 1.439-2.352 2.046-3.614 13.345-21.911 34.241-36.691 57.336-42.881 6.994-1.87 14.203-2.962 21.483-3.233zM361.731 242.864l0.007-0.050 12.024 11.958c35.277-35.301 84.221-57.161 138.274-57.161 53.342 0 101.684 21.305 136.857 55.772l1.416 1.514 12.020-12.020 0.007 0.050-11.904 11.97c11.046 11.039 20.781 23.416 28.936 36.869 1.343 2.473 2.749 4.918 4.223 7.32 15.296 27.883 24.002 59.96 24.002 94.084 0 53.342-21.301 101.684-55.772 136.857l-1.514 1.416c-35.379 35.375-84.272 57.285-138.274 57.285-53.974 0-102.895-21.911-138.274-57.285-35.375-35.379-57.285-84.299-57.285-138.274 0-54.001 21.911-102.895 57.285-138.274l-12.032-12.032zM738.63 266.264c-1.051-1.87-2.124-3.726-3.218-5.566-3.501-6.548-6.23-13.461-8.135-20.583-6.191-23.047-3.889-48.393 8.213-70.805l1.439-2.275-0.073-0.050c13.291-22.997 34.718-38.461 58.473-44.83 23.070-6.191 48.417-3.889 70.828 8.213l2.275 1.439 0.050-0.073c22.997 13.291 38.461 34.718 44.83 58.473 6.191 23.070 3.889 48.417-8.213 70.828l-1.439 2.275 0.073 0.050c-13.267 22.97-34.718 38.461-58.496 44.83-23.047 6.191-48.393 3.889-70.805-8.213l-2.275-1.439-0.050 0.073c-14.109-8.147-25.392-19.383-33.477-32.348z" />
<glyph unicode="&#xf61b;" glyph-name="b-vip3" horiz-adv-x="1030" d="M1008.168 627.555c-22.908 26.195-164.846 193.799-219.059 252.24-16.728 18.072-29.152 30.567-54.747 31.571-25.596 0.942-438.117 0-438.117 0-14.109 0-32.246-3.29-55.554-30.561-54.346-63.683-176.938-204.080-218.25-253.25-28.014-32.447-31.576-78.598 0-126.092 67.174-78.26 252.24-290.531 438.116-504.487 26.399-30.427 42.989-31.569 54.746-31.569 11.491 0 27.813 0.538 54.751 31.569 184.056 211.937 360.794 414.541 438.050 504.487 26.126 31.509 31.031 88.74 0.064 126.092zM953.418 532.972c-61.732-71.946-247.202-278.039-394.118-447.792-21.492-24.79-34.527-25.19-43.659-25.19-9.338 0-22.57 0.937-43.665 25.19-148.325 171.295-341.114 385.185-394.723 447.792-14.98 15.313-14.642 41.043 0 63.075 32.919 39.366 148.053 170.023 191.586 220.67 32.309 37.689 60.659 31.574 71.946 31.574h349.58c41.984 0 51.923-9.27 71.336-31.574 41.917-48.233 173.513-199.708 191.717-220.67 16.124-23.043 11.286-44.803 0.001-63.075zM515.391 184.792c-47.948 64.299-217.831 270.756-261.176 329.688-1.716 2.122-2.575 3.261-3.307 4.26-7.458 9.955-14.198 14.682-32.376 14.682h-2.31v44.437h96.16c2.855 0 3.464 0 5.477-3.167l197.101-253.439 197.355 252.753c2.543 3.932 3.354 3.932 6.054 3.932h95.817v-44.515h-2.185c-18.099 0-24.855-4.758-32.36-14.76-0.734-0.983-1.561-2.106-2.622-3.37-43.921-59.557-213.696-266.155-261.628-330.5z" />
<glyph unicode="&#xf61c;" glyph-name="b-alipay" d="M511.998-36.567c-64.169 0-126.433 12.575-185.063 37.372-56.612 23.951-107.457 58.223-151.113 101.879-43.652 43.65-77.929 94.496-101.879 151.113-24.799 58.623-37.367 120.887-37.367 185.063 0 64.17 12.569 126.433 37.367 185.063 23.948 56.613 58.223 107.457 101.879 151.114 43.655 43.652 94.499 77.929 151.113 101.879 58.628 24.799 120.892 37.367 185.063 37.367s126.44-12.569 185.063-37.367c56.617-23.948 107.457-58.229 151.112-101.879 43.656-43.655 77.931-94.499 101.879-151.114 24.798-58.626 37.372-120.892 37.372-185.066 0-64.17-12.575-126.433-37.372-185.063-23.95-56.617-58.223-107.457-101.879-151.107-43.655-43.655-94.495-77.934-151.106-101.879-58.632-24.795-120.896-37.372-185.066-37.372v0zM511.998 881.715c-59.789 0-117.784-11.71-172.378-34.798-52.734-22.306-100.092-54.235-140.768-94.912-40.678-40.671-72.607-88.035-94.913-140.769-23.090-54.593-34.798-112.589-34.798-172.378s11.711-117.789 34.798-172.378c22.306-52.734 54.241-100.097 94.913-140.769 40.677-40.677 88.035-72.611 140.768-94.912 54.595-23.094 112.59-34.799 172.378-34.799 59.795 0 117.79 11.704 172.378 34.799 52.734 22.305 100.097 54.238 140.769 94.912 40.678 40.673 72.611 88.031 94.912 140.769 23.094 54.589 34.799 112.583 34.799 172.378s-11.704 117.79-34.799 172.378c-22.305 52.734-54.235 100.097-94.912 140.769-40.673 40.678-88.035 72.611-140.769 94.912-54.588 23.090-112.583 34.798-172.378 34.798v0zM601.119 389.13c49.296 89.633 67.223 174.779 67.223 174.779h-165.814v62.745h197.186v26.886h-197.186v94.111h-89.63v-94.111h-179.259v-26.886h179.259v-62.745h-152.371v-26.888h309.226c0-4.48-26.888-85.151-44.815-120.998-228.556 89.63-295.781 35.85-313.705 26.888-152.369-107.555-8.963-242.001 13.446-237.519 161.335-35.851 264.407 31.371 336.112 116.522 4.478-4.483 8.963-4.483 13.445-4.483 49.295-26.886 286.814-138.925 286.814-138.925v134.44c-35.852-0.001-165.816 44.814-259.929 76.183v0zM484.602 348.8c-112.038-143.409-246.48-98.593-268.889-89.629-53.777 13.444-71.702 112.039-4.481 143.409 112.038 35.849 210.631-4.481 282.337-40.337-4.481-8.962-8.964-13.443-8.964-13.443v0z" />
<glyph unicode="&#xf61d;" glyph-name="b-alipayfill" d="M582.705 290.648c0 0-70.708-56.585-96.436-71.41-22.601-13.021-43.828-21.69-62.735-27.701-18.91-6.007-35.486-9.784-49.723-11.343-14.238-1.557-26.029-2.559-35.371-3.006-0.89-0.444-2.005-0.669-3.336-0.669h-10.678c-24.472 0-47.497 2.893-69.077 8.679-21.578 5.784-40.377 14.348-56.396 25.696-16.018 11.343-28.696 25.581-38.039 42.713-9.343 17.128-14.015 37.039-14.015 59.729 0.447 19.579 5.785 37.374 16.018 53.393 10.234 16.020 23.469 29.589 39.713 40.713 16.24 11.125 34.261 19.579 54.061 25.364 19.795 5.784 39.708 8.228 59.729 7.338 19.579-0.889 38.486-3.223 56.728-7.004s35.707-8.341 52.391-13.68c16.686-5.341 32.479-11.125 47.385-17.354 14.906-6.232 29.032-12.237 42.381-18.022 5.338-2.221 10.9-4.449 16.686-6.674 5.784-2.221 11.788-4.449 18.017-6.674 12.905 16.464 23.804 32.592 32.702 48.387 8.9 15.797 16.243 30.255 22.027 43.381s10.232 24.138 13.348 33.038c3.114 8.897 5.117 15.129 6.007 18.685h-289.653v32.036h136.816v74.077h-190.207v32.036h190.208v60.065c0 4.005 2.221 7.227 6.674 9.677 4.449 2.449 9.564 4.115 15.35 5.005 6.674 1.336 14.238 2.005 22.69 2.005h51.39v-76.751h195.545v-32.036h-195.545v-74.077h155.389c0.036 0.221 0.077 0.445 0.111 0.663v-0.663h-0.111c-3.126-19.826-8.424-40.737-15.903-62.737-6.229-19.132-15.459-40.932-27.696-65.403s-28.365-49.607-48.387-75.413c0 0 153.17-73.259 314.858-99.071 26.856 59.559 41.805 125.644 41.805 195.217 0 262.57-212.854 475.422-475.422 475.422s-475.422-212.855-475.422-475.424 212.854-475.422 475.422-475.422c162.871 0 306.607 81.906 392.285 206.769-87.081 18.947-179.556 57.357-321.577 120.446zM208.963 312.008c-1.784-81.575 90.521-87.636 104.75-88.076 47.037-1.448 85.031 16.319 114.62 33.895 29.584 17.575 77.845 62.966 79.627 64.522s3.557 3.226 5.338 5.005c-12.901 7.122-25.582 13.685-38.039 19.689s-75.75 39.996-131.927 45.816c-106.365 11.016-133.826-56.036-134.368-80.851z" />
<glyph unicode="&#xf61e;" glyph-name="b-paypal-social" d="M512 908.183c-259.213 0-469.326-210.113-469.326-469.326s210.113-469.326 469.326-469.326 469.326 210.113 469.326 469.326-210.113 469.326-469.326 469.326zM512 42.864c-218.709 0-395.993 177.286-395.993 395.993s177.286 395.993 395.993 395.993 395.993-177.286 395.993-395.993-177.286-395.993-395.993-395.993zM431.476 386.495h88.544c84.677 0 155.429 52.191 174.393 140.965 21.456 100.428-50.587 146.061-112.547 146.061h-211.060l-93.469-429.28h123.804l30.337 142.254zM475.761 586.151h60.671c30.337 0 50.587-26.124 41.679-58.696-7.591-32.685-39.129-58.752-70.755-58.752h-58.179l26.582 117.446zM722.284 592.825c9.711-21.599 12.92-48.726 5.871-81.983-18.992-88.771-89.746-140.965-174.422-140.965h-88.514l-30.337-142.254h-104.039l-5.126-23.43h123.835l30.337 142.195h88.514c84.677 0 155.429 52.191 174.422 140.992 9.968 46.723-0.374 81.469-20.54 105.444z" />
<glyph unicode="&#xf61f;" glyph-name="b-paypal-fill" horiz-adv-x="1317" d="M263.129 462.198h-7.145q-9.051 0-9.051 8.575 0 13.337 9.051 40.489 2.382 7.145 7.145 9.289t13.337 2.144q36.679 0 36.679-23.341 0-19.531-14.529-28.343t-35.488-8.812zM426.041 385.506q-22.388 0-22.388 13.814 0 29.534 58.591 29.534l1.429-1.429q-2.382-41.919-37.632-41.919zM794.737 461.245h-7.145q-9.051 0-9.051 9.051 0 13.337 9.051 40.489 2.382 7.145 6.907 9.051t13.576 1.905q36.679 0 36.679-23.341 0-19.531-14.529-28.343t-35.488-8.812zM957.65 385.029q-22.388 0-22.388 14.291 0 29.534 58.591 29.534l1.429-1.429q-2.382-42.395-37.632-42.395zM287.422 559.851h-60.973q-3.81 0-6.907-1.905t-4.049-3.573-3.335-5.955q-1.429-3.335-21.436-90.506t-20.007-91.459q0-3.335 2.62-5.955t6.431-2.62h29.534q11.909 0 15.481 16.434l7.145 32.868 15.481 16.434q22.388 0 41.68 3.573t38.347 11.671 30.248 25.008 11.195 40.252q0 17.148-6.907 29.058t-19.531 17.387-25.485 7.384-29.534 1.905zM452.24 514.121q-18.101 0-35.25-2.858-0.953 0-4.049-0.476t-4.287-0.715l-3.573-0.715-3.573-0.953-3.096-1.429-3.096-1.905-2.382-2.382-2.144-3.335-1.905-4.287q-4.287-13.814-4.287-18.578t4.287-4.764q2.382 0 10.242 2.382t9.289 2.858q14.291 3.81 27.628 3.81 35.25 0 35.25-17.148 0-5.24-4.764-6.669-3.81-0.953-8.575-1.429t-10.242-0.715-8.336-0.715q-18.101-1.905-30.725-4.764t-26.914-9.289-21.674-18.578-7.384-29.772q0-18.101 12.385-28.343t30.487-10.242q11.432 0 21.674 3.096t15.719 6.193 18.339 11.195q-1.429-3.335-1.429-7.145t2.62-6.431 5.955-2.62h26.676q0.476 0.476 3.335 1.667t3.573 1.667 2.382 1.667 2.382 2.62 1.191 3.81l21.436 92.413q1.905 6.193 1.905 14.291 0 38.585-69.071 38.585zM703.753 511.739h-35.25q-10.479 0-18.578-10.956-2.382-3.335-14.052-24.294t-22.15-38.822-12.385-18.339l-2.382 1.905q0 36.679-12.862 79.074-0.476 2.382-1.667 4.049t-2.858 3.096-3.096 2.382-4.049 1.429-4.049 0.715-4.525 0.476-4.287-2.382h-8.812q-18.101 0-18.101-10.004l0.476-2.382q2.382-25.247 11.909-71.93t11.909-68.118q0.953-7.622 0.953-11.432 0-9.051-14.529-29.296t-14.529-27.867q0-6.193 19.054-6.193 29.058 0 36.203 11.909l116.706 197.686q4.764 9.527 4.764 12.385 0 4.287-3.81 4.287zM819.031 558.898h-61.45q-8.575 0-13.814-10.956-2.858-6.193-22.15-91.222t-19.292-90.745q0-9.527 20.483-9.527h12.146l4.525 0.476 4.049 0.953 4.049 1.429 3.096 2.144 2.62 2.858 1.429 4.049 10.004 43.348q0.953 4.764 5.002 8.097t9.289 3.335q22.388 0 41.68 3.335t38.347 11.671 30.248 25.008 11.195 40.014q0 17.148-6.907 29.058t-19.531 17.387-25.485 7.384-29.534 1.905zM983.848 514.121q-12.385 0-35.25-2.858-18.101-2.858-22.866-7.622-3.335-3.81-5.24-9.051-3.81-11.432-3.81-18.578 0-4.764 3.81-4.764 0.476 0 19.531 5.716 14.291 3.81 27.628 3.81 35.25 0 35.25-17.148 0-5.716-4.764-6.669-1.905-0.476-27.152-3.335-18.101-1.905-30.725-4.764t-26.914-9.289-21.674-18.578-7.384-29.772 12.385-27.867 30.487-10.242q11.432 0 21.436 2.858t16.196 6.193 18.101 11.432q-1.429-7.145-1.429-7.622 0-2.382 0.953-4.049t3.096-2.62 3.81-1.667 5.002-0.953 4.525-2.382h8.336q20.007 0 22.866 11.909l21.436 92.413q1.429 7.145 1.429 14.766 0 38.585-69.071 38.585zM1137.234 557.469h-26.199q-11.909 0-15.719-19.054-4.764-20.959-17.387-79.552t-20.246-90.506v-2.382q0-7.622 7.622-8.575h27.628q4.764 0 8.812 3.096t5.002 7.86l39.538 178.155h-0.476l0.476 2.382q0 3.335-2.62 5.955t-6.431 2.62zM1207.257 743.722v-609.73q0-24.77-18.101-42.872t-42.872-18.101h-975.569q-24.77 0-42.872 18.101t-18.101 42.872v609.73q0 24.77 18.101 42.872t42.872 18.101h975.569q24.77 0 42.872-18.101t18.101-42.872z" />
<glyph unicode="&#xf620;" glyph-name="b-card" d="M436.829 288.522h-281.893c3.901 67.255 93.691 57.463 106.151 92.333 1.046 11.941 0.659 20.263 0.659 31.177-5.212 2.846-14.9 20.922-16.465 36.2-4.11 0.339-10.518 4.477-12.422 20.867-1.027 8.792 3.026 13.732 5.466 15.278-13.797 55.323-6.221 103.614 56.916 104.831 15.739 0 27.869-4.373 32.609-13.025 46.049-6.664 32.204-71.005 25.579-91.805 2.44-1.545 6.484-6.484 5.475-15.278-1.913-16.389-8.331-20.528-12.431-20.867-1.592-15.278-10.895-33.355-16.088-36.2 0-10.914-0.386-19.236 0.641-31.177 12.479-34.871 101.909-25.078 105.801-92.333zM887.915 495.243c0-10.415-8.435-18.849-18.849-18.849h-338.271c-10.415 0-18.849 8.435-18.849 18.849 0 10.405 8.435 18.849 18.849 18.849h338.271c10.415 0 18.849-8.444 18.849-18.849zM887.915 401.278c0-10.415-8.435-18.849-18.849-18.849h-338.271c-10.415 0-18.849 8.435-18.849 18.849 0 10.405 8.435 18.849 18.849 18.849h338.271c10.415 0 18.849-8.444 18.849-18.849zM887.915 307.314c0-10.415-8.435-18.849-18.849-18.849h-338.271c-10.415 0-18.849 8.435-18.849 18.849 0 10.405 8.435 18.849 18.849 18.849h338.271c10.415 0 18.849-8.444 18.849-18.849zM981.889 664.378v-526.209c0-31.111-25.324-56.436-56.436-56.436h-75.181c-10.405 0-18.849 8.444-18.849 18.849 0 10.415 8.444 18.849 18.849 18.849h75.181c10.329 0 18.736 8.407 18.736 18.736v526.209c0 10.329-8.407 18.736-18.736 18.736h-413.451c-10.415 0-18.849 8.435-18.849 18.849v37.585c0 10.329-8.407 18.736-18.736 18.736h-375.867c-10.329 0-18.736-8.407-18.736-18.736v-601.38c0-10.329 8.407-18.736 18.736-18.736h93.917v56.321c0 10.415 8.435 18.849 18.849 18.849h75.172c10.405 0 18.849-8.435 18.849-18.849 0-10.405-8.444-18.849-18.849-18.849h-56.321v-56.321c0-10.405-8.444-18.849-18.849-18.849h-112.767c-31.111 0-56.436 25.324-56.436 56.436v601.38c0 31.121 25.324 56.436 56.436 56.436h375.867c31.121 0 56.436-25.314 56.436-56.436v-18.736h394.603c31.111 0 56.436-25.314 56.436-56.436zM831.536 175.755c0-10.405-8.435-18.849-18.849-18.849h-56.321v-56.321c0-10.405-8.435-18.849-18.849-18.849h-413.442c-10.415 0-18.849 8.444-18.849 18.849 0 10.415 8.435 18.849 18.849 18.849h394.593v56.321c0 10.415 8.444 18.849 18.849 18.849h75.172c10.415 0 18.849-8.435 18.849-18.849z" />
<glyph unicode="&#xf621;" glyph-name="b-cardbank" d="M893.323 790.835h-762.651c-48.467 0-87.996-39.586-87.996-87.996v-527.967c0-48.408 39.53-87.996 87.996-87.996h762.651c48.356 0 88.001 39.585 88.001 87.996v527.967c0 48.409-39.645 87.996-88.001 87.996zM922.658 174.875c0-15.897-13.404-29.334-29.336-29.334h-762.651c-15.929 0-29.334 13.437-29.334 29.334v263.985h821.319v-263.985zM922.658 614.849h-821.319v87.995c0 15.897 13.405 29.334 29.334 29.334h762.651c15.93 0 29.336-13.434 29.336-29.334v-87.995zM160.005 321.533h58.666v-117.326h-58.666v117.326zM277.336 321.533h58.67v-117.326h-58.67v117.326zM394.671 321.533h58.666v-117.326h-58.666v117.326z" />
<glyph unicode="&#xf622;" glyph-name="b-cards" horiz-adv-x="1424" d="M597.816 153.353h614.861c11.116 0 19.826 8.721 19.826 19.838 0 10.907-8.708 19.853-19.826 19.853h-614.861c-10.907 0-19.853-8.946-19.853-19.853 0-11.116 8.946-19.838 19.853-19.838v0zM1272.659 536.572c12.201 0 22.253-11.347 22.253-25.515v-454.76c0-14.175-10.052-25.747-22.253-25.747h-737.654c-12.21 0-22.262 11.571-22.262 25.747v454.76c0 14.171 10.052 25.515 22.262 25.515h737.654zM535.004-9.143h737.654c34.223 0 61.937 29.225 61.937 65.44v454.76c0 35.981-27.707 65.206-61.937 65.206h-280.708l-118.64 268.717c-6.985 15.701-19.215 28.133-34.251 34.68-15.722 7.197-32.93 7.197-48.223 0.434l-663.915-292.927c-15.253-6.758-26.84-19.405-32.291-35.763-5.222-15.709-4.131-32.935 2.639-48.639l183.861-416.155c6.755-15.486 18.957-27.923 34.013-34.685 8.079-3.485 16.597-5.229 24.857-5.229 8.093 0 15.934 1.527 23.345 5.013l109.714 48.205v-43.619c0-36.211 27.713-65.437 61.943-65.437v0zM473.058 143.323l-125.619-55.4c-5.033-2.184-10.697-1.972-16.149 0.434-6.111 2.611-10.907 7.855-13.951 14.394l-93.595 212.218 249.312 109.923v-281.57h0.002zM473.058 468.306l-265.433-117.125-37.723 85.492 703.171 310.373 37.725-85.504-190.169-83.974-2.411-1.309h-183.215c-34.232 0-61.943-29.225-61.943-65.206v-42.75zM816.139 576.26l110.803 48.865 21.601-48.865h-132.404zM153.757 473.094l-20.069 45.809c-2.849 6.54-3.276 13.525-1.315 19.845 1.961 5.67 5.663 10.031 10.479 12.224l664.124 292.907c4.817 2.188 10.479 1.977 15.934-0.432 6.089-2.611 11.116-7.848 13.975-14.392l20.279-45.804-703.402-310.156z" />
<glyph unicode="&#xf623;" glyph-name="b-unionpay" horiz-adv-x="1424" d="M950.532 548.646c10.83 5.33 19.228 16.283 22.129 29.265 3.151 14.277-1.33 25.322-12.288 29.491-0.701 0-28.426 2.441-28.426 2.441l-5.343 0.572-0.316-2.317-0.31-3.001c0.037 0.18-13.463-58.397-13.463-58.397l-0.56-2.888h7.318c11.313 0 22.21 0.316 31.261 4.833v0zM957.509 366.704l-10.19-33.466c0 0 11.369 5.094 17.613 6.808 6.349 1.634 15.767 2.262 15.767 2.262l7.343 24.397h-30.534zM1046.067 464.989c4.617 0 12.543 2.933 15.886 7.667 1.894 2.46 3.589 6.206 5.019 10.149 1.336 5.343 2.64 10.692 3.888 16.054 0.907 3.908 1.701 7.456 2.405 10.722 0.837 12.86-3.56 20.316-11.723 20.316-13.023 0-18.041-15.917-22.389-34.485-1.46-6.658-2.704-12.815-2.622-18.631 0.28-11.791 8.263-11.791 9.535-11.791v0zM637.074 466.767c4.63 0 8.802 3.006 12.27 7.945 5.015 6.678 8.734 22.513 9.568 26.632 4.448 19.147 3.833 30.994-6.362 30.994-12.954 0-18.096-15.96-22.34-35.019-1.571-6.527-2.753-12.641-2.654-18.537 0.185-12.014 8.199-12.014 9.517-12.014v0zM917.731 235.299h30.64l8.858 29.389h-30.578l-8.921-29.389zM931.777 281.755c0 0 11.618 5.946 17.873 7.811 6.213 1.416 15.829 2.607 15.829 2.607l7.443 24.384h-30.689l-10.455-34.802zM822.669 314.482l3.807 11.747h-45.208l-2.783-11.934h36.367c6.082 0.765 7.368-0.18 7.817 0.188v0zM838.89 365.845h-48.402l-4.534-19.481c4.452 1.89 9.784 3.623 15.91 4.673 4.485 0.938 32.756 0.633 32.756 0.633l4.268 14.176zM763.496 314.296h0.118l0.373 1.597-0.49-1.597zM756.947 290.806l-15.934-52.583c-1.447-5.224-2.211-7.715-1.174-9.1 0.577-0.901 1.77-1.913 3.384-2.405l14.923 64.087h-1.199zM1298.495 845.338h-281.75c-3.292 0.707-7.156 1.086-11.686 1.086h-373.664c-3.155 0-6.312-0.199-9.454-0.547h-306.768c-45.499 0-90.9-37.113-101.455-82.6l-151.372-649.573c-10.586-45.4 17.613-82.415 62.969-82.415h325.045c3.155 0 6.305 0.199 9.448 0.547h320.225c-45.499 0-73.673 37.012-62.988 82.413l19.948 85.7h-3.267c-8.822 0-15.277 0.18-19.794 0.584-4.299 0.354-8.796 0-11.777 2.304-2.64 2.306-6.584 5.227-6.454 8.368 0.298 2.871 1.471 7.561 3.267 14.016l50.681 168.163h32.38l11.641 49.997c-5.795-0.086-11.977-0.323-21.519-0.783l-0.671 1.373c1.616 7.269 3.435 14.45 5.156 21.85l2.317 9.896c3.541 15.475 6.977 33.466 7.388 38.977 0.31 3.28 1.447 11.474-7.932 11.474-4.033 0-8.139-1.913-12.308-3.764-2.304-8.287-7.013-31.354-9.317-41.94-4.604-22.21-4.877-24.696-7.008-35.692l-1.423-1.465c-16.836 0.223-22.663 0.223-41.934-0.709l-0.933 1.59c3.274 13.176 6.411 26.564 9.529 39.642 8.063 35.826 9.965 49.481 12.288 67.659l1.477 1.099c18.924 2.573 23.483 3.17 43.96 7.406l1.634-1.988-2.999-11.4c3.36 2.037 6.796 4.131 10.231 5.981 9.624 4.703 20.446 6.12 26.279 6.12 4.056 0 8.318-0.528 12.15-2.075l48.233 207.191c9.636 40.958 47.382 75.119 87.987 81.513h14.871c-40.604-6.4-78.349-40.555-87.986-81.513l-51.388-220.74c2.379-8.816-0.15-20.023-4.816-40.269l-2.584-11.449c-5.311-24.911-6.137-29.484-9.001-46.593l-2.001-1.46c-1.714 0.026-3.305 0.045-4.814 0.061l-13.586-58.371c1.739 0.994 3.46 1.883 5.045 2.535 7.988 2.963 26.029 5.678 26.029 5.678l58.533 0.312-19.941-66.411c-3.33-11.444-7.238-18.749-9.686-22.141-2.17-3.398-4.816-6.281-9.871-9.076-4.995-2.617-9.512-4.207-13.661-4.609-3.839-0.305-9.796-0.449-17.986-0.485h-40.393l-14.692-63.125 11.747 1.137-8.48-28.868h-9.723l-19.954-85.7c-10.685-45.4 17.488-82.413 62.988-82.413h324.834c0.962 0 1.931 0.043 2.9 0.075 40.468 6.553 78.021 40.517 87.526 81.252l151.328 649.573c10.711 45.481-17.599 82.601-63 82.601v0zM330.591 455.988c-14.454-8.871-35.87-13.698-58.831-13.698-17.73 0-49.078 2.839-60.161 22.129-3.468 6.069-5.156 13.257-5.156 21.985l3.943 29.621 2.144 9.17 24.117 106.777c0 0 1.236 5.934 1.503 6.872 0.528-0.72 8.692-1.118 54.837-0.72-0.124-0.354-0.261-0.622-0.379-1.38-4.282-12.505-27.906-107.374-27.906-107.374-0.075-0.094-4.516-28.342-4.516-28.342l0.261-4.733c1.472-14.016 10.152-21.428 24.919-21.428 9.219 0 17.116 2.808 24.023 8.431 11.934 9.63 15.433 24.658 20.278 45.759 0.094 0 22.663 104.096 23.937 109.786 3.187-0.72 13.003-1.075 46.376-0.72-0.173-0.354-0.261-0.622-0.353-1.38-4.169-12.803-28.597-111.363-28.597-111.363l-2.752-10.549c-5.803-20.619-12.507-43.977-37.685-58.843v0zM502.067 502.816l-2.635-11.449c-5.212-24.911-6.094-29.484-9.063-46.593l-1.906-1.46c-13.854 0.188-20.084 0.211-33.304-0.347l-76.55-328.717c-10.68-45.4 17.469-82.413 62.95-82.413h-17.644c-45.506 0-73.679 37.012-62.993 82.413l95.794 411.479c-0.938 0.28-2.025 0.447-3.337 0.447-3.987 0-8.056-1.913-12.274-3.764-2.306-8.287-6.908-31.36-9.144-41.946-4.716-22.204-5.038-24.689-7.113-35.692l-1.434-1.46c-16.819 0.218-22.626 0.218-42.096-0.707l-0.876 1.59c3.274 13.17 6.516 26.558 9.617 39.635 8.145 35.826 10.021 49.481 12.345 67.665l1.509 1.092c18.836 2.573 23.483 3.17 43.891 7.412l1.683-1.993-3.068-11.394c3.446 2.037 6.802 4.124 10.342 5.976 2.248 1.107 4.561 2.014 6.859 2.783l48.532 208.452c9.635 40.958 47.375 75.119 87.986 81.513h17.736c-40.61-6.394-78.338-40.555-87.998-81.513l-47.767-205.127c0.323 0.006 0.64 0.012 0.938 0.012 8.908 0 18.755-2.466 22.836-12.846 3.859-9.275 1.304-20.619-3.814-43.047v0zM570.658 510.073c-1.82-7.79-3.728-15.556-5.468-23.314-3.671-16.45-5.13-22.57-5.951-27-0.912-4.169-1.088-6.473-2.523-14.984l-0.907-0.795-0.919-0.664c-9.848 0.045-16.251 0.218-22.391 0.045-6.162-0.045-12.144-0.361-21.271-0.753l-0.565 0.753-0.528 0.837c2.434 9.399 3.839 12.73 5.045 16.091 1.223 3.373 2.416 6.747 4.647 16.326 2.858 12.443 4.603 21.233 5.857 28.9 1.293 7.448 2.050 13.741 3.026 21.060l0.715 0.584 0.814 0.703c9.777 1.422 16.040 2.266 22.377 3.242 6.424 0.975 12.883 2.21 23.010 4.124l0.379-0.887 0.287-0.84c-1.877-7.764-3.735-15.523-5.635-23.427v0zM572.82 543.608c-10.859-7.592-27.092-9.193-36.187-3.821-9.213 5.453-7.927 15.865 3.037 23.322 10.871 7.523 26.951 9.219 36.138 3.771 9.17-5.368 7.784-15.787-2.987-23.272v0zM587.237 498.506c3.555 15.077 9.355 30.864 21.831 42.393 17.494 16.189 39.796 17.109 49.171 17.109 15.581 0 30.56-3.509 39.157-14.371 5.641-7.23 9.99-18.922 4.293-44.064-1.744-7.585-6.808-25.942-17.934-38.31-14.326-15.29-33.453-20.397-52.159-20.397-7.293 0-18.544 0.901-26.496 4.262-25.484 10.288-21.353 38.038-17.862 53.378v0zM715.132 310.449h-41.429l-6.443-21.060h42.374l-7.77-25.539h-42.326l-10.262-34.219c-1.21-3.784 10.002-4.403 14.091-4.403l21.184 2.969-8.468-28.248h-47.75c-3.852 0-6.727 0.584-10.859 1.515-4.025 0.975-5.759 2.776-7.617 5.531-1.733 2.801-4.392 5.118-2.584 11.058l13.724 45.4h-23.52l7.784 25.936h23.662l6.244 21.060h-23.453l7.472 24.689h103.579l-7.635-24.689zM731.416 379.551l-7.791-25.849h-58.005l-6.343-5.399c-2.615-2.67-3.634-1.552-7.151-3.465-3.256-1.635-10.163-4.921-19.139-4.921h-18.563l7.498 24.831h5.635c4.765 0 7.977 0.403 9.568 1.497 1.852 1.126 3.943 3.777 6.281 8.078l10.641 19.333h42.314l-7.461-14.102h42.518zM1064.792 555.572c6.851-2.646 11.313-6.877 14.362-11.835 0.206 1.49 0.411 3.001 0.622 4.566l1.465 1.193c19.589 2.845 24.963 3.59 45.357 7.405l0.707-1.739c-3.777-15.376-7.498-30.853-11.045-46.327-7.493-32.403-10.295-48.904-13.17-65.84l-1.777-1.373c-19.725 0.143-25.354 0.143-43.673-0.622l-1.187 1.466c0.602 2.274 1.204 4.549 1.807 6.815-6.64-5.577-13.81-9.442-21.538-9.885-7.317-0.248-14.649 0.765-22.712 4.132-25.328 9.934-21.265 37.641-17.723 52.812 3.435 15.027 9.399 30.67 21.767 42.114 17.543 16.040 38.038 20.437 46.736 17.113v0zM840.269 442.78c1.434 5.846 31.702 130.616 31.702 130.616 0 0.038 12.579 58.745 12.579 58.745s1.017 4.603 1.522 7.188c5.827-0.715 19.936-0.9 55.295-0.483 0 0 13.506 0.161 13.586 0.161 27.657-0.161 51.488-0.391 63.539-17.195 4.79-6.387 6.394-14.408 6.394-22.57 0-6.157-0.933-12.462-2.187-17.736-4.926-21.277-15.91-38.791-31.826-50.719-23.54-17.282-53.619-17.282-80.221-17.282h-2.814c-2.001-1.125-3.908-3.733-3.908-3.733-0.353-0.933-6.429-26.472-6.429-26.472-0.092 0-7.242-34.845-8.517-40.691-5.224 0.521-17.948 0.521-48.718 0.173v0zM851.835 270.138c-1.447-4.951-2.708-8.734-6.435-11.966-3.952-3.322-8.587-6.889-19.446-6.889l-20.084-0.776-0.143-18.003c-0.274-5.207 1.063-4.617 1.895-5.442 0.907-0.901 1.739-1.31 2.615-1.616l6.349 0.305 19.165 1.063-7.808-26.279h-22.073c-15.488 0-26.887 0.354-30.595 3.324-3.735 2.304-4.256 5.305-4.138 10.295l1.423 70.417h35.161l-0.509-14.431h8.499c2.869 0 4.776 0.28 6.056 1.112 0.982 0.802 1.802 1.906 2.355 3.679l3.435 11.182h27.619l-3.343-15.972zM974.91 200.131h-37.654l2.584 8.486h-76.678l7.751 25.035h7.765l40.145 133.052 8.007 26.862h38.454l-4.032-13.573c0 0 10.288 7.411 20.011 9.934 7.945 2.050 47.488 3.076 60.95 3.373l-0.005 0.087h41.056l0.398-15.294c-0.162-2.584 2.057-3.771 6.79-3.771h8.338l-7.635-25.266h-22.19c-19.221-1.423-26.44 6.82-25.986 16.096l-0.411 14.929-4.155-13.376h-13.183l-39.591-131.057h10.649l-8.245-27.031h-10.604l-2.529-8.486zM1144.9 316.606h-41.19l-6.473-20.475h41.312l-6.771-22.489h-44.686l-7.988-9.543h18.133l4.424-28.279c0.504-2.821 0.603-4.647 1.423-5.865 0.933-1.037 6.305-1.541 9.578-1.541h5.419l-8.338-27.526h-13.927c-2.219 0-5.363 0.136-9.747 0.391-4.219 0.323-7.177 2.796-10.028 4.175-2.535 1.242-6.331 4.342-7.226 9.63l-4.387 28.236-20.271-27.831c-6.466-8.791-15.233-15.538-30-15.538h-28.421l7.442 24.614h10.86c3.155 0 5.945 1.285 7.945 2.255 2.173 0.925 3.994 1.999 6.069 5.069l29.533 41.755h-39.063l6.691 22.489h44.686l6.435 20.475h-44.212l7.634 25.359h122.857l-7.715-25.359zM1153.598 365.636c-5.064-9.264-14.333-16.233-29.186-16.265l-25.273 0.385 7.423 24.439h4.908c2.584 0 4.441 0.256 5.902 0.927 1.287 0.391 2.211 1.379 3.274 2.833l8.877 14.37c12.543 19.104 15.735 27.34 28.9 49.084-2.35 24.34-3.468 32.224-5.368 48.147-1.144 9.523-2.617 19.284-3.759 28.911-2.403 19.687-1.913 16.891-4.305 29.347l-0.136 0.354c0.087 0.715 0.136 1.423 0.262 2.132l1.596 1.33c19.507 2.477 20.049 3.143 41.146 7.177l1.782-1.716 2.745-54.369c0.087-1.15 0.087-1.901 0.174-3.050 11.264 25.055 10.815 18.133 24.655 50.097l0.099-0.31c0.082 0.31 0.112 0.614 0.211 0.845l1.323 1.336c18.586 2.471 22.216 3.137 42.425 7.177l1.509-1.722-109.188-191.452z" />
<glyph unicode="&#xf624;" glyph-name="b-diy-home" d="M1006.969 531.559v0l-116.185 91.824 39.691 41.214c9.113 9.495 8.896 24.555-0.503 33.762v-0.007l-184.935 181.314c-4.555 4.459-10.503 6.69-17.047 6.859-6.379-0.071-12.471-2.663-16.905-7.216l-62.766-64.295-70.384 55.627c-36.933 29.25-94.885 29.214-131.783 0l-428.994-339.086c-14.656-11.611-17.163-32.903-5.584-47.561s32.395-17.166 47.054-5.584l13.371 10.969v-410.005c0-58.123 61.237-101.554 115.095-101.554h677.024c53.214 0 88.014 40.825 88.014 101.554v408.411l12.354-9.376c6.233-4.905 13.879-7.28 21.225-7.28 9.986 0 20.007 4.4 26.674 12.864 11.611 14.658 9.278 35.952-5.417 47.563zM728.635 828.594l150.793-147.842-313.646-325.705-91.81 91.019c-9.422 9.351-24.624 9.28-33.904-0.146-9.328-9.422-9.255-24.576 0.144-33.904l84.208-83.467-156.427-34.907 38.411 204.907 322.231 330.046zM864.117 45.522h-677.024c-21.225 0-47.392 18.343-47.392 33.851v463.525l347.954 274.633c12.491 9.886 35.038 9.886 47.561 0l65.209-51.579-233.41-239.106c-3.31-3.381-5.538-7.694-6.425-12.325l-46.423-247.755c-1.486-7.938 1.104-16.069 6.905-21.653 4.51-4.389 10.503-6.738 16.665-6.738 1.723 0 3.499 0.192 5.225 0.576l219.127 48.866c4.581 1.003 8.777 3.381 12.037 6.761l269.042 279.36 41.255-32.633v-461.934h0.005c0-22.441-6.194-33.849-20.311-33.849z" />
<glyph unicode="&#xf625;" glyph-name="b-diy-page" d="M984.83 700.644v-0.007l-184.935 181.314c-4.555 4.459-10.503 6.69-17.047 6.859-6.379-0.071-12.471-2.663-16.905-7.216l-45.73-46.846h-549.71v-810.073h659.214v480.622l155.616 161.584c9.113 9.495 8.896 24.555-0.503 33.762zM783.113 71.282h-566.011v716.869h457.621l-252.85-259.019c-3.31-3.381-5.538-7.694-6.425-12.325l-46.423-247.755c-1.486-7.938 1.104-16.069 6.905-21.653 4.51-4.389 10.503-6.738 16.665-6.738 1.723 0 3.499 0.192 5.225 0.576l219.127 48.866c4.581 1.003 8.777 3.381 12.037 6.761l154.133 160.043v-385.625zM620.642 357.33v0l-91.813 91.022c-9.419 9.351-24.624 9.28-33.904-0.146-9.328-9.422-9.255-24.576 0.144-33.904l84.208-83.467-156.427-34.907 38.411 204.907 322.231 330.046 150.793-147.842-313.643-325.707z" />
<glyph unicode="&#xf626;" glyph-name="b-mouse" d="M556.095 584.032c-9.782 17.552-31.776 25.062-47.872 16.137-16.574-9.304-21.554-30.898-11.335-49.207l53.689-96.102c6.952-12.393 19.365-20.084 32.393-20.084 5.439 0 10.798 1.395 15.42 3.985 7.411 4.143 12.852 11.097 15.241 19.585 2.728 9.603 1.294 20.418-3.845 29.624l-53.69 96.061zM966.286 295.046l-179.255 346.839c-40.601 72.634-118.357 115.984-208.064 115.984-39.067 0-78.235-8.687-114.771-24.943l-22.731 46.975c-14.962 29.724-73.971 97.098-166.306 52.395l-46-22.273c-0.638-0.319-1.316-0.638-1.991-0.956-6.575-2.791-93.754-38.349-124.909 21.694l-45.521 94.052c-6.695 13.825-23.31 19.563-37.134 12.908-13.828-6.693-19.605-23.326-12.931-37.132l45.861-94.767c42.214-81.245 135.506-70.983 187.244-51.62 0.795 0.239 1.532 0.5 2.272 0.738l0.18-0.38c0.299 0.161 2.19 1.076 6.894 3.347 0.695 0.319 1.316 0.618 1.853 0.877 0.217 0.119 0.418 0.217 0.618 0.317 8.246 3.986 22.891 11.078 47.792 23.149 59.367 28.729 87.475-17.889 92.217-26.931l23.388-48.332c0.261-0.519 0.638-0.877 0.918-1.336-108.574-75.781-148.996-214.259-88.771-322.034l200.691-333.172c48.788-73.332 126.823-117.1 208.74-117.1 42.794 0 84.966 11.396 125.289 33.946 120.186 67.177 162.141 198.899 104.428 327.752zM827.948 27.998c-29.823-16.675-60.582-25.121-91.381-25.121-59.246 0-114.033 31.117-150.449 85.464l-198.859 330.185c-45.383 81.201-6.216 189.774 87.237 242.007 32.572 18.209 68.67 27.811 104.471 27.811 64.146 0 119.251-30.040 146.861-79.367l177.404-343.213c42.273-95.306 12.79-188.579-75.284-237.766z" />
<glyph unicode="&#xf627;" glyph-name="b-add" d="M931.254 475.829l-377.994 1.334v379.518c0 21.040-17.076 38.116-38.116 38.116s-38.116-17.076-38.116-38.116v-379.252l-383.978 1.372c-0.038 0-0.076 0-0.114 0-21.002 0-38.040-16.962-38.116-38.002-0.114-21.040 16.924-38.154 37.964-38.23l384.244-1.372v-380.166c0-21.078 17.076-38.116 38.116-38.116s38.116 17.038 38.116 38.116v379.9l377.688-1.334c0.076 0 0.114 0 0.152 0 21.002 0 38.040 16.962 38.116 38.002s-16.962 38.154-37.964 38.23z" />
<glyph unicode="&#xf628;" glyph-name="b-move" d="M981.128 395.985h-938.256c-23.665 0-42.872 19.207-42.872 42.872s19.207 42.872 42.872 42.872h938.256c23.708 0 42.872-19.207 42.872-42.872s-19.164-42.872-42.872-42.872z" />
<glyph unicode="&#xf629;" glyph-name="b-close" d="M568.207 438.24l329.758 328.049c15.594 15.513 15.672 40.652 0.158 56.245-15.552 15.632-40.652 15.672-56.245 0.158l-329.839-328.088-326.974 327.969c-15.474 15.513-40.652 15.594-56.245 0.080-15.552-15.513-15.594-40.693-0.080-56.287l326.895-327.888-329.601-327.85c-15.594-15.513-15.672-40.652-0.158-56.245 7.757-7.797 17.979-11.734 28.203-11.734 10.144 0 20.287 3.859 28.042 11.576l329.679 327.93 329.958-330.953c7.757-7.797 17.94-11.695 28.162-11.695 10.182 0 20.326 3.898 28.084 11.615 15.552 15.513 15.594 40.652 0.080 56.245l-329.878 330.872z" />
<glyph unicode="&#xf62a;" glyph-name="b-cut" d="M777.547 342.925c-68.756 0-128.034-40.818-155.349-99.409l-69.474 140.881 234.708 443.161c8.076 15.217 2.245 34.082-12.972 42.159-15.186 8.076-34.082 2.276-42.159-12.972l-213.66-403.403-198.506 402.624c-7.639 15.466-26.348 21.797-41.754 14.189-15.466-7.639-21.797-26.318-14.189-41.754l218.493-442.974-78.174-147.585c-25.974 61.71-87.061 105.114-158.094 105.114-94.576 0-171.534-76.958-171.534-171.501 0-94.576 76.958-171.534 171.534-171.534 69.63 0 129.561 41.784 156.41 101.561 0.030 0.093 0.093 0.126 0.156 0.219l113.753 214.782 98.317-199.316c22.732-68.039 86.935-117.246 162.522-117.246 94.576 0 171.534 76.958 171.534 171.534-0.030 94.513-76.958 171.471-171.564 171.471zM246.422 62.255c-60.212 0-109.169 48.955-109.169 109.169 0 60.182 48.955 109.137 109.169 109.137 60.15 0 109.107-48.955 109.107-109.137s-48.955-109.169-109.107-109.169zM777.547 62.255c-36.546 0-68.756 18.21-88.589 45.93l-14.812 29.966c-3.399 10.571-5.738 21.609-5.738 33.271 0 60.182 48.925 109.137 109.107 109.137 60.212 0 109.169-48.955 109.169-109.137 0.030-60.182-48.925-109.169-109.137-109.169z" />
<glyph unicode="&#xf62b;" glyph-name="b-check" d="M955.914 747.811c-15.243 14.294-39.284 13.613-53.579-1.668l-505.685-538.408-276.238 272.18c-14.939 14.712-38.943 14.559-53.655-0.379-14.712-14.902-14.523-38.943 0.417-53.617l303.918-299.406c0.114-0.114 0.265-0.152 0.379-0.265s0.152-0.265 0.265-0.379c2.389-2.275 5.271-3.565 8.037-5.081 1.366-0.796 2.54-1.972 3.982-2.54 4.475-1.746 9.214-2.655 13.916-2.655 4.967 0 9.935 0.986 14.559 2.957 1.555 0.645 2.768 1.972 4.209 2.805 2.844 1.668 5.801 3.072 8.228 5.536 0.114 0.114 0.152 0.304 0.265 0.417 0.076 0.114 0.227 0.152 0.341 0.265l532.265 566.657c14.41 15.204 13.613 39.208-1.63 53.579z" />
<glyph unicode="&#xf62c;" glyph-name="b-up" d="M952.61 258.157l-414.857 411.063c-0.601 0.601-1.428 0.789-2.066 1.352-0.15 0.15-0.188 0.376-0.338 0.526-14.764 14.576-38.544 14.501-53.158-0.225l-411.025-414.819c-14.614-14.764-14.501-38.507 0.225-53.12 7.326-7.251 16.905-10.895 26.447-10.895 9.655 0 19.347 3.719 26.673 11.12l384.878 388.372 390.325-386.719c7.326-7.251 16.868-10.895 26.447-10.895 9.692 0 19.347 3.719 26.673 11.12 14.614 14.726 14.501 38.507-0.225 53.12z" />
<glyph unicode="&#xf62d;" glyph-name="b-down" d="M71.39 619.556l414.857-411.063c0.601-0.601 1.428-0.789 2.066-1.352 0.15-0.15 0.188-0.376 0.338-0.526 14.764-14.576 38.544-14.501 53.158 0.225l411.025 414.819c14.614 14.764 14.501 38.507-0.225 53.12-7.326 7.251-16.905 10.895-26.447 10.895-9.655 0-19.347-3.719-26.673-11.12l-384.878-388.372-390.325 386.719c-7.326 7.251-16.868 10.895-26.447 10.895-9.692 0-19.347-3.719-26.673-11.12-14.614-14.726-14.501-38.507 0.225-53.12z" />
<glyph unicode="&#xf62e;" glyph-name="b-left" d="M692.699 879.467l-411.063-414.857c-0.601-0.601-0.789-1.428-1.352-2.066-0.15-0.15-0.376-0.188-0.526-0.338-14.576-14.764-14.501-38.544 0.225-53.158l414.819-411.025c14.764-14.614 38.507-14.501 53.12 0.225 7.251 7.326 10.895 16.905 10.895 26.447 0 9.655-3.719 19.347-11.12 26.673l-388.372 384.878 386.719 390.325c7.251 7.326 10.895 16.868 10.895 26.447 0 9.692-3.719 19.347-11.12 26.673-14.726 14.614-38.507 14.501-53.12-0.225z" />
<glyph unicode="&#xf62f;" glyph-name="b-right" d="M331.301-1.753l411.063 414.857c0.601 0.601 0.789 1.428 1.352 2.066 0.15 0.15 0.376 0.188 0.526 0.338 14.576 14.764 14.501 38.544-0.225 53.158l-414.819 411.025c-14.764 14.614-38.507 14.501-53.12-0.225-7.251-7.326-10.895-16.905-10.895-26.447 0-9.655 3.719-19.347 11.12-26.673l388.372-384.878-386.719-390.325c-7.251-7.326-10.895-16.868-10.895-26.447 0-9.692 3.719-19.347 11.12-26.673 14.726-14.614 38.507-14.501 53.12 0.225z" />
<glyph unicode="&#xf630;" glyph-name="b-triangle-up" d="M138.177 251.946l373.823 373.822 373.823-373.822h-747.646z" />
<glyph unicode="&#xf631;" glyph-name="b-triangle-down" d="M885.823 625.768l-373.823-373.822-373.823 373.822h747.646z" />
<glyph unicode="&#xf632;" glyph-name="b-triangle-left" d="M698.911 65.034l-373.822 373.823 373.822 373.823v-747.646z" />
<glyph unicode="&#xf633;" glyph-name="b-triangle-right" d="M325.089 812.68l373.822-373.823-373.822-373.823v747.646z" />
<glyph unicode="&#xf634;" glyph-name="b-gotop" d="M842.856 426.899l-303.236 305.228c-6.719 6.752-15.498 9.994-24.243 9.927-1.182 0.102-2.194 0.676-3.377 0.676-4.929 0-9.522-1.147-13.742-3.039-4.254-1.621-8.306-4.086-11.75-7.53l-273.626-273.152c-13.202-13.169-13.236-34.542-0.033-47.742 6.583-6.618 15.228-9.927 23.905-9.927 8.644 0 17.253 3.308 23.872 9.858l217.611 217.273v-594.791c0-18.672 15.126-33.764 33.764-33.764s33.764 15.092 33.764 33.764v596.445l249.213-250.834c6.583-6.618 15.294-9.961 23.939-9.961s17.22 3.275 23.803 9.825c13.269 13.134 13.302 34.542 0.136 47.742zM883.406 810.257h-742.813c-18.638 0-33.764 15.126-33.764 33.764s15.126 33.764 33.764 33.764h742.813c18.672 0 33.764-15.126 33.764-33.764s-15.092-33.764-33.764-33.764z" />
<glyph unicode="&#xf635;" glyph-name="b-gobottom" d="M181.144 450.815l303.236-305.228c6.719-6.752 15.498-9.994 24.243-9.927 1.182-0.102 2.194-0.676 3.377-0.676 4.929 0 9.522 1.147 13.742 3.039 4.254 1.621 8.306 4.086 11.75 7.53l273.626 273.152c13.202 13.169 13.236 34.542 0.033 47.742-6.583 6.618-15.228 9.927-23.905 9.927-8.644 0-17.253-3.308-23.872-9.858l-217.611-217.273v594.791c0 18.672-15.126 33.764-33.764 33.764s-33.764-15.092-33.764-33.764v-596.445l-249.213 250.834c-6.583 6.618-15.294 9.961-23.939 9.961s-17.22-3.275-23.803-9.825c-13.269-13.134-13.302-34.542-0.136-47.742zM140.594 67.457h742.813c18.638 0 33.764-15.126 33.764-33.764s-15.126-33.764-33.764-33.764h-742.813c-18.672 0-33.764 15.126-33.764 33.764s15.092 33.764 33.764 33.764z" />
<glyph unicode="&#xf636;" glyph-name="b-google" d="M512 914.222c-262.571 0-475.418-212.845-475.418-475.418 0-262.466 212.845-475.311 475.418-475.311s475.418 212.845 475.418 475.311c-0.107 262.571-212.952 475.418-475.418 475.418zM756.044 326.578v-120.319h-0.107l0.107-10.862c-116.697-58.883-310.485-75.705-422.179-0.319-67.719 45.679-134.373 136.398-130.754 251.283 3.513 109.032 74.213 206.671 171.427 255.862 111.801 56.539 280.566 45.892 378.951-35.564l-57.924-59.094-37.586-10.648 20.017 36.307c-28.643 28.856-61.542 49.724-97.852 61.438-57.816 18.528-111.162 8.305-155.561-13.523-91.249-44.827-145.128-152.795-124.259-266.937 22.040-120.319 115.1-216.892 237.229-227.008 35.989-3.087 75.384-1.278 110.204 7.985 24.81 7.986 24.596 10.434 24.596 25.449v106.050l-122.341-3.619 63.035 35.458h170.042l-27.046-31.942z" />
<glyph unicode="&#xf637;" glyph-name="b-google-plus" d="M415.647 653.792c-37.715 1.113-63.033-36.855-56.491-86.424 6.476-49.636 42.35-84.285 80.067-85.451 37.661-1.095 59.325 30.817 52.839 80.458-6.48 49.569-38.765 90.265-76.417 91.42v0zM431.461 380.43c-56.184 0.637-103.767-35.534-103.767-77.488 0-42.791 40.552-78.431 96.758-78.431 78.961 0 106.489 33.449 106.489 76.264 0 5.168-0.646 10.226-1.79 15.105-6.208 24.205-30.766 37.493-61.31 58.742-11.048 3.586-23.298 5.682-36.38 5.807v0zM512.002 914.371c-262.124 0-474.634-212.92-474.634-475.525 0-262.637 212.515-475.501 474.634-475.501 262.164 0 474.63 212.866 474.63 475.501 0 262.606-212.465 475.525-474.63 475.525v0zM548.273 564.464c0-31.013-17.093-55.966-41.32-74.881-23.618-18.515-28.094-26.242-28.094-41.973 0-13.403 28.212-33.377 41.206-43.101 45.173-33.955 54.335-55.312 54.335-97.751 0-53.001-57.026-105.648-149.645-105.648-81.293 0-149.895 33.094-149.895 86.083 0 53.754 56.896 109.818 138.183 109.818 8.871 0 16.964 0.245 25.363 0.245-11.103 10.791-20.095 20.118-20.095 36.475 0 9.761 3.062 19.038 7.429 27.345-4.408-0.281-8.929-0.572-13.579-0.572-66.732 0-105.616 47.001-105.616 105.933 0 57.695 59.162 110.172 130.142 110.172h139.915l-31.289-32.922h-36.734c25.954-14.863 39.692-45.433 39.692-79.227v0zM749.148 573.108h-64.552v-64.609h-32.272v64.609h-64.479v32.33h64.479v64.679h32.272v-64.679h64.552v-32.33z" />
<glyph unicode="&#xf638;" glyph-name="b-android" d="M253.714 180.57c0-25.829 17.219-43.048 43.048-43.048h43.048v-150.667c0-34.437 30.134-64.571 64.571-64.571s64.571 30.134 64.571 64.571v150.667h86.095v-150.667c0-34.437 30.134-64.571 64.571-64.571s64.571 30.134 64.571 64.571v150.667h43.048c25.829 0 43.048 17.219 43.048 43.048v430.478h-516.572v-430.478zM146.095 611.047c-34.437 0-64.571-30.134-64.571-64.571v-301.334c0-34.437 30.134-64.571 64.571-64.571s64.571 30.134 64.571 64.571v301.334c0 34.437-30.134 64.571-64.571 64.571zM877.905 611.047c-34.437 0-64.571-30.134-64.571-64.571v-301.334c0-34.437 30.134-64.571 64.571-64.571s64.571 30.134 64.571 64.571v301.334c0 34.437-30.134 64.571-64.571 64.571zM662.667 860.723l55.963 55.963c8.61 8.61 8.61 21.523 0 30.134s-21.523 8.61-30.134 0l-64.571-64.571c-30.134 21.523-68.877 30.134-111.923 30.134s-81.79-8.61-116.229-25.829l-60.266 64.571c-8.61 4.305-25.829 4.305-34.437 0-4.305-8.61-4.305-25.829 0-34.437l55.963-55.963c-60.266-47.352-103.315-120.534-103.315-206.629h516.572c0 86.095-43.048 163.581-107.619 206.629zM425.905 740.19h-43.048v43.048h43.048v-43.048zM641.144 740.19h-43.048v43.048h43.048v-43.048z" />
<glyph unicode="&#xf639;" glyph-name="b-androidround" d="M512 914.313c-262.569 0-475.424-212.873-475.424-475.456 0-262.581 212.859-475.456 475.424-475.456s475.424 212.875 475.424 475.456c0 262.587-212.855 475.456-475.424 475.456zM512 5.851c-239.129 0-432.983 193.863-432.983 433.003 0 239.143 193.854 433.008 432.983 433.008s432.983-193.863 432.983-433.008c0-239.138-193.854-433.003-432.983-433.003zM785.095 554.809c-25.054 0-45.552-20.494-45.552-46.311v-179.954c0-25.438 20.498-46.695 45.552-46.695 25.44 0 45.559 21.259 45.559 46.695v179.954c0 25.815-20.119 46.311-45.559 46.311zM309.819 223.771h-0.009c0-19.742 15.563-35.682 35.685-35.682h40.249v-100.222c0-25.061 19.742-46.315 45.547-46.315 24.679 0 45.554 21.25 45.554 46.315v100.222h70.615v-100.222c0-25.061 19.358-46.315 45.179-46.315 25.442 0 45.559 21.25 45.559 46.315v100.222h40.238c20.114 0 35.685 15.943 35.685 35.682v329.906h-404.302v-329.906zM713.349 582.514c-6.071 62.254-47.077 114.277-106.297 141.609l37.207 54.281c2.441 3.575 1.897 7.989-1.147 9.497-3.040 1.895-6.45 0.757-9.113-2.283l-39.104-56.187c-26.192 9.49-53.906 15.563-83.897 15.563s-58.459-6.071-84.281-15.563l-38.347 56.187c-2.651 3.040-6.071 4.935-9.113 2.283-3.038-1.904-3.984-5.929-1.515-9.497l37.579-54.281c-59.218-28.098-100.983-78.96-106.293-141.609h404.322zM425.598 638.699c-12.153 0-22.016 9.872-22.016 22.405 0 12.151 9.863 22.025 22.016 22.025 12.53 0 22.395-9.881 22.395-22.025 0-12.53-9.872-22.405-22.395-22.405zM599.077 638.699c-12.151 0-22.4 9.872-22.4 22.405 0 12.151 10.247 22.025 22.4 22.025 12.533 0 22.786-9.881 22.786-22.025-0.002-12.53-10.251-22.405-22.786-22.405zM236.917 554.809c-25.815 0-45.554-20.494-45.554-46.311v-179.954c0-25.438 19.742-46.695 45.554-46.695 24.679 0 45.554 21.259 45.554 46.695v179.954c0 25.815-20.887 46.311-45.554 46.311z" />
<glyph unicode="&#xf63a;" glyph-name="b-androidroundfill" d="M418.588 651.701c0 10.345 8.386 18.726 18.726 18.726s18.726-8.386 18.726-18.726c0-10.345-8.386-18.726-18.726-18.726s-18.726 8.386-18.726 18.726zM512.018 914.279c-262.576 0-475.44-212.822-475.44-475.404s212.864-475.44 475.44-475.44c262.54 0 475.404 212.864 475.404 475.44s-212.884 475.404-475.404 475.404zM312.497 360.487c0-20.699-16.778-37.439-37.455-37.439s-37.42 16.741-37.42 37.439v160.151c0 20.699 16.741 37.439 37.42 37.439s37.455-16.741 37.455-37.439v-160.151zM686.901 526.936v-243.443c0-21.799-17.684-39.519-39.519-39.519h-28.515c0.946-3.321 1.465-6.796 1.465-10.37v-79.065c0-20.66-16.741-37.439-37.439-37.439-20.66 0-37.439 16.778-37.439 37.439v79.065c0 3.593 0.525 7.049 1.505 10.37h-69.546c0.946-3.321 1.465-6.796 1.465-10.37v-79.065c0-20.66-16.778-37.439-37.439-37.439s-37.439 16.778-37.439 37.439v79.065c0 3.593 0.525 7.049 1.505 10.37h-28.555c-21.799 0-39.501 17.726-39.501 39.519v274.586h349.459v-31.141zM337.46 583.061c0 53.499 35.818 100.224 88.793 124.876l-7.007 10.561-6.968 10.406-15.542 23.341c-1.891 2.877-1.139 6.759 1.738 8.652s6.759 1.139 8.668-1.738l16.701-25.040 6.968-10.524 7.123-10.677c22.551 8.744 47.709 13.648 74.217 13.648 26.549 0 51.745-4.907 74.252-13.648l7.123 10.677 7.007 10.524 16.701 25.040c1.891 2.877 5.774 3.666 8.668 1.738 2.817-1.909 3.631-5.774 1.7-8.652l-29.521-44.308c52.978-24.635 88.813-71.378 88.813-124.876h-349.442zM786.761 360.487c0-20.699-16.741-37.439-37.42-37.439-20.699 0-37.476 16.741-37.476 37.439v160.151c0 20.699 16.778 37.439 37.476 37.439 20.66 0 37.42-16.741 37.42-37.439v-160.151zM568.358 651.701c0 10.345 8.386 18.726 18.726 18.726s18.726-8.386 18.726-18.726c0-10.345-8.386-18.726-18.726-18.726s-18.726 8.386-18.726 18.726z" />
<glyph unicode="&#xf63b;" glyph-name="b-apple" d="M843.385 280.712c-28.255 40.606-42.413 86.754-42.413 137.24 0 46.751 13.556 89.285 40.003 127.42 14.76 21.508 38.136 45.546 70.186 72.597-20.905 25.906-42.534 46.811-64.041 61.571-38.196 26.448-81.815 40.003-131.096 40.003-30.184 0-65.848-7.41-106.455-20.905-40.666-14.157-70.186-20.966-88.020-20.966-14.218 0-42.534 6.145-85.007 18.495-43.076 12.29-78.802 18.435-108.924 18.435-70.85 0-128.686-29.581-174.774-88.621-46.148-59.704-69.525-136.035-69.525-230.2 0-100.912 30.786-203.692 90.429-309.604 60.909-105.851 121.878-159.411 185.256-159.411 20.302 0 47.414 6.747 81.272 20.966 33.316 13.496 62.776 20.302 87.416 20.302 25.243 0 56.571-6.145 92.9-19.701 36.99-12.892 65.246-19.701 86.213-19.701 52.294 0 105.25 40.063 158.206 120.672 35.665 53.559 60.307 105.25 75.67 153.868-36.268 11.025-68.921 36.871-97.297 77.537zM814.587 82.323c-39.582-60.246-77.897-93.501-107.84-93.501-8.856 0-27.653 2.831-65.126 15.905-41.751 15.604-80.127 23.496-113.985 23.496-32.593 0-69.584-8.313-110.731-25.002-34.942-14.64-52.113-16.206-57.896-16.206-37.834 0-85.067 45.907-132.782 128.745-55.607 98.744-82.658 190.316-82.658 280.024 0 80.488 18.677 143.807 56.752 193.148 34.882 44.642 75.368 65.428 127.3 65.428 24.158 0 54.342-5.302 92.117-16.086 63.319-18.376 86.996-20.844 101.755-20.844 25.605 0 60.849 7.952 107.057 24.039 35.485 11.808 64.885 17.833 87.356 17.833 36.69 0 68.379-9.578 96.996-29.46 3.976-2.772 8.134-5.904 12.29-9.337-13.736-14.218-24.941-27.773-33.858-40.786-33.738-48.558-50.787-102.96-50.787-161.82 0-63.138 17.894-120.854 53.257-171.702 21.327-30.424 45.064-54.704 71.21-72.657-13.073-30.062-30.002-60.608-50.425-91.212zM567.639 712.133c-14.157-4.338-35.064-8.012-63.981-10.483 1.265 60.909 17.23 113.865 48.017 158.146 30.786 44.401 82.417 74.524 153.928 91.152 1.206-5.543 2.409-9.88 3.013-13.556 0-4.278 0.664-7.952 0.664-12.29 0-25.243-6.145-53.559-17.833-83.742-12.29-30.786-31.388-59.101-57.294-84.947-22.171-22.11-44.341-36.871-66.512-44.28z" />
<glyph unicode="&#xf63c;" glyph-name="b-applefill" d="M698.792 787.816c38.305 43.237 64.177 103.312 57.138 163.132-55.208-2.075-122.050-34.155-161.695-77.345-35.512-38.321-66.555-99.37-58.256-158.104 61.608-4.469 124.459 29.16 162.813 72.317zM837.010 408.053c-1.373 129.423 113.384 191.478 118.538 194.606-64.497 87.767-164.983 99.816-200.718 101.189-85.452 8.076-166.803-46.844-210.184-46.844-43.269 0-110.222 45.663-181.088 44.498-93.208-1.293-179.108-50.451-227.085-128.13-96.8-156.3-24.77-387.95 69.571-514.82 46.126-62.023 101.109-131.785 173.25-129.232 69.539 2.553 95.795 41.848 179.827 41.848 84.095 0 107.67-41.848 181.215-40.555 74.775 1.261 122.178 63.188 167.935 125.433 52.956 72.045 74.743 141.824 76.052 145.336-1.676 0.75-145.815 52.158-147.315 206.672z" />
<glyph unicode="&#xf63d;" glyph-name="b-appleroud" d="M512 914.279c-262.569 0-475.422-212.854-475.422-475.422 0-262.606 212.854-475.422 475.422-475.422s475.422 212.816 475.422 475.422c0 262.569-212.872 475.422-475.422 475.422zM539.262 721.486c21.563 25.312 58.033 44.079 88.113 45.292 3.842-35.061-10.288-70.22-31.14-95.51-20.929-25.274-55.158-44.947-88.771-42.34-4.517 34.325 12.414 70.159 31.797 92.554zM710.45 242.705c-24.963-36.468-50.836-72.806-91.588-73.54-40.079-0.75-52.976 23.744-98.752 23.744-45.817 0-60.139-23.031-98.075-24.52-39.326-1.465-69.289 39.326-94.446 75.679-51.453 74.293-90.701 209.958-37.916 301.547 26.142 45.526 72.979 74.253 123.773 75.044 38.692 0.714 75.161-26.062 98.752-26.062 23.652 0 67.978 32.164 114.606 27.416 19.501-0.792 74.253-7.836 109.431-59.291-2.817-1.775-65.39-38.168-64.639-113.946 0.831-90.529 79.406-120.587 80.314-121.052-0.734-2.045-12.606-42.881-41.453-85.025z" />
<glyph unicode="&#xf63e;" glyph-name="b-baidu" d="M199.704 438.848c105.626 22.693 91.209 149.050 88.11 176.666-5.201 42.587-55.258 116.951-123.197 111.009-85.521-7.612-98.002-131.146-98.002-131.146-11.584-57.193 27.64-179.277 133.088-156.529zM647.224 640.785c78.018-10.212 128.043 73.036 138.057 136.126 10.224 63.001-40.209 136.281-95.335 148.862-55.381 12.724-124.503-75.913-130.732-133.736-7.581-70.735 10.057-141.249 88.009-151.251zM395.841 650.677c58.312 0 105.438 67.183 105.438 150.178 0 83.005-47.125 150.089-105.438 150.089-58.334 0-105.582-67.084-105.582-150.089 0-82.994 47.247-150.178 105.582-150.178zM956.3 534.81c0 30.173-24.974 121.122-118.018 121.122-93.211 0-105.559-85.838-105.559-146.483 0-57.889 4.846-138.605 120.575-136.104 115.672 2.567 103.002 131.081 103.002 161.464zM838.282 269.938c0 0-120.641 93.306-191.058 194.225-95.59 148.795-231.279 88.184-276.644 12.635-45.222-75.748-115.506-123.578-125.565-136.281-10.157-12.436-145.725-85.694-115.65-219.419 30.141-133.647 135.866-131.137 135.866-131.137s77.908-7.589 168.265 12.591c90.545 20.148 168.464-4.955 168.464-4.955s211.218-70.836 268.944 65.446c57.803 136.16-32.619 206.895-32.619 206.895zM520.985 67.144h-137.288c-59.333 11.847-82.969 52.331-85.924 59.28-2.929 6.96-19.737 39.567-10.807 94.878 25.593 82.874 98.715 88.944 98.715 88.944h73.164v89.782l62.141-0.971v-331.912zM776.819 68.076h-157.983c-61.329 15.824-64.192 59.345-64.192 59.345v174.772l64.192 1.024v-157.043c3.899-16.743 24.703-19.75 24.703-19.75h65.095v175.77h68.184v-234.117zM356.135 219.253c-3.047-8.919-10.008-31.608-3.952-51.28 11.726-44.344 50.256-46.368 50.256-46.368h55.3v135.193h-59.2c-26.672-7.945-39.608-28.601-42.404-37.544z" />
<glyph unicode="&#xf63f;" glyph-name="b-baidufill" d="M609.824 261.825h-44.824c0 0-5.754 3.555-5.754 13.582v94.042l-50.578-0.643v-104.614c0 0 4.892-27.66 41.541-27.66h84.905v126.442h-25.289v-101.153zM458.088 362.978h-47.417c0 0-43.762 1.729-59.099-47.911-5.311-33.12 4.739-45.735 6.496-49.935 1.775-4.152 15.93-28.6 51.417-28.6h73.894v190.257l-25.289 0.569v-64.385zM458.088 261.825h-37.389c0 0-23.040 0.643-30.13 27.166-3.555 11.855 0.569 23.164 2.417 28.5 1.728 5.31 9.434 20.198 25.365 20.198h39.739v-75.865zM511.999 914.294c-262.568 0-475.422-212.882-475.422-475.448s212.857-475.424 475.422-475.424c262.568 0 475.424 212.857 475.424 475.424s-212.857 475.448-475.424 475.448zM540.992 661.972c3.777 34.574 45.122 87.625 78.263 80.044 33.045-7.534 63.174-51.346 57.076-89.053-5.977-37.76-35.984-87.575-82.659-81.498-46.602 5.979-57.169 48.208-52.676 90.511zM443.222 757.127c34.923 0 63.174-40.205 63.174-89.844 0-49.686-28.252-89.896-63.174-89.896-34.871 0-63.171 40.207-63.171 89.896 0 49.637 28.303 89.844 63.171 89.844zM246.196 544.25c0 0 7.456 73.966 58.654 78.532 40.677 3.51 70.605-40.994 73.719-66.455 1.925-16.523 10.522-92.092-52.728-105.699-63.096-13.558-86.582 59.443-79.645 93.624zM727.594 225.668c-34.596-81.545-161.045-39.194-161.045-39.194s-46.624 14.989-100.737 2.99c-54.111-12.1-100.761-7.509-100.761-7.509s-63.293-1.53-81.322 78.436c-18.028 80.065 63.171 123.9 69.247 131.358 5.977 7.584 48.134 36.228 75.147 81.519 27.166 45.291 108.37 81.545 165.54-7.506 42.157-60.407 114.394-116.322 114.394-116.322s54.083-42.278 19.529-123.776zM717.030 411.405c-69.246-1.554-72.186 46.801-72.186 81.449 0 36.306 7.456 87.648 63.224 87.648 55.663 0 70.656-54.405 70.656-72.46 0-18.175 7.584-95.105-61.687-96.637z" />
<glyph unicode="&#xf640;" glyph-name="b-good" d="M933.168 611.515c-39.979 10.244-134.065 10.133-271.607 13.684 6.546 29.291 8.025 55.697 8.025 102.629 0 112.023-83.62 210.695-157.624 210.695-52.258 0-95.344-41.68-96.009-92.977-0.666-62.872-20.6-171.53-127.963-226.561-7.877-4.031-30.4-14.867-33.655-16.31l1.701-1.405c-16.864 14.165-40.127 25.001-63.982 25.001h-96.046c-52.923 0-96.009-42.050-96.009-93.716v-499.647c0-51.629 43.086-93.679 96.009-93.679h96.046c38.056 0 69.936 22.412 85.321 53.959 0.37-0.148 1.11-0.333 1.516-0.481 2.145-0.518 4.623-1.11 7.73-1.923 0.518-0.074 0.814-0.148 1.405-0.296 18.418-4.475 53.885-12.796 129.738-29.92 16.273-3.55 102.112-21.376 191.131-21.376h174.895c53.33 0 91.756 19.971 114.575 60.172 0.407 0.629 7.73 14.645 13.758 33.618 4.549 14.276 6.176 34.469 0.777 54.958 34.321 23.041 45.416 57.879 52.591 80.587 12.057 37.131 8.432 65.165 0 85.173 19.305 17.789 35.837 44.935 42.827 86.32 4.29 25.667-0.333 52.11-12.5 74.115 18.122 19.86 26.443 44.824 27.331 67.939l0.37 6.546c0.222 4.068 0.481 6.62 0.481 15.644-0.074 39.461-28.107 89.722-90.832 107.252zM224.009 32.87c0-17.234-14.276-31.214-31.954-31.214h-96.046c-17.678 0-32.028 13.98-32.028 31.214v499.647c0 17.271 14.35 31.251 32.028 31.251h96.046c17.715 0 31.954-13.98 31.954-31.251v-499.647zM959.205 484.624c-0.703-15.422-7.286-45.749-63.242-45.749-48.042 0-64.055 0-64.055 0-8.839 0-15.977-6.99-15.977-15.607 0-8.654 7.101-15.644 15.977-15.644 0 0 14.054 0 62.058 0 47.931 0 54.255-38.833 51.148-57.583-3.846-23.263-15.089-67.31-69.122-67.31s-76.038 0-76.038 0c-8.839 0-15.977-6.953-15.977-15.681 0-8.617 7.101-15.607 15.977-15.607 0 0 37.982 0 63.020 0 53.959 0 49.262-40.127 41.459-64.203-10.17-31.51-16.421-60.653-84.47-60.653-22.967 0-52.184 0-52.184 0-8.839 0-15.977-6.953-15.977-15.607s7.101-15.607 15.977-15.607c0 0 22.153 0 50.15 0 34.986 0 36.614-32.398 33.026-43.973-3.994-12.648-8.691-22.079-8.913-22.449-9.69-17.086-25.297-27.257-58.249-27.257h-174.932c-87.91 0-175.080 19.379-177.299 19.934-132.882 29.883-139.909 32.176-148.23 34.543 0 0-27.035 4.475-27.035 27.516l-0.259 431.265c0 14.682 9.505 27.886 25.371 32.546 1.997 0.777 4.66 1.553 6.62 2.367 146.159 59.026 190.687 188.616 192.018 294.981 0.111 14.941 11.909 31.214 31.917 31.214 33.803 0 93.642-66.237 93.642-148.23 0-74.041-3.070-86.874-29.661-164.022 319.981 0 317.689-4.512 345.944-11.724 34.986-9.764 38.019-38.093 38.019-47.82 0-10.725-0.333-9.172-0.703-19.638zM144.051 126.624c-26.517 0-48.005-20.933-48.005-46.821s21.487-46.932 48.005-46.932c26.443 0 48.005 21.044 48.005 46.932s-21.561 46.821-48.005 46.821zM144.051 64.121c-8.839 0-16.051 7.027-16.051 15.681 0 8.506 7.212 15.607 16.051 15.607 8.765 0 15.977-7.064 15.977-15.607 0-8.617-7.212-15.681-15.977-15.681z" />
<glyph unicode="&#xf641;" glyph-name="b-goodfill" d="M163.848 152.121q0 16.63-12.15 28.815t-28.815 12.15q-17.275 0-29.138-12.15t-11.827-28.815q0-17.275 11.827-29.138t29.138-11.827q16.63 0 28.815 11.827t12.15 29.138zM266.277 479.804v-409.612q0-16.63-12.15-28.815t-28.815-12.15h-184.324q-16.63 0-28.815 12.15t-12.15 28.815v409.612q0 16.63 12.15 28.815t28.815 12.15h184.324q16.63 0 28.815-12.15t12.15-28.815zM1024 479.804q0-55.050-35.195-95.369 9.605-28.17 9.605-48.634 1.935-48.634-27.525-87.664 10.895-35.84 0-74.869-9.605-36.485-34.549-60.175 5.77-71.679-31.36-115.834-40.965-48.634-126.084-49.925h-82.575q-42.255 0-92.144 9.928t-77.772 18.565-77.127 25.267q-78.704 27.525-101.104 28.17-16.63 0.645-28.815 12.472t-12.15 28.493v410.221q0 15.985 11.505 27.847t27.525 13.117q15.375 1.29 48.634 37.775t64.655 77.45q43.509 55.695 64.655 76.804 11.505 11.505 19.855 30.715t11.218 31.037 8.637 38.707q4.48 24.944 7.992 39.029t12.472 33.295 21.755 32.005q12.15 12.15 28.815 12.15 29.424 0 52.792-6.738t38.384-16.63 25.59-25.912 15.375-28.815 7.67-32.005 3.19-28.815 0.323-24.944q0-24.335-6.093-48.634t-12.15-38.384-17.597-35.84q-1.935-3.835-6.415-11.505t-7.025-14.085-5.125-15.375h177.263q49.925 0 86.41-36.485t36.485-86.41z" />
<glyph unicode="&#xf642;" glyph-name="b-cascades" d="M374.158 473.318h-206.764c-56.998 0-103.382 46.384-103.382 103.382v206.764c0 56.998 46.384 103.382 103.382 103.382h206.764c56.998 0 103.382-46.384 103.382-103.382v-206.764c0-56.998-46.384-103.382-103.382-103.382zM167.394 817.924c-18.987 0-34.461-15.474-34.461-34.461v-206.764c0-18.987 15.474-34.461 34.461-34.461h206.764c18.987 0 34.461 15.474 34.461 34.461v206.764c0 18.987-15.474 34.461-34.461 34.461h-206.764zM374.158-9.131h-206.764c-56.998 0-103.382 46.384-103.382 103.382v206.764c0 56.998 46.384 103.382 103.382 103.382h206.764c56.998 0 103.382-46.384 103.382-103.382v-206.764c0-56.998-46.384-103.382-103.382-103.382zM167.394 335.475c-18.987 0-34.461-15.438-34.461-34.461v-206.764c0-19.022 15.474-34.461 34.461-34.461h206.764c18.987 0 34.461 15.438 34.461 34.461v206.764c0 19.022-15.474 34.461-34.461 34.461h-206.764zM856.606-9.131h-206.764c-56.998 0-103.382 46.384-103.382 103.382v68.921c0 56.998 46.384 103.382 103.382 103.382h206.764c56.998 0 103.382-46.384 103.382-103.382v-68.921c0-56.998-46.384-103.382-103.382-103.382zM649.842 197.633c-19.022 0-34.461-15.438-34.461-34.461v-68.921c0-19.022 15.438-34.461 34.461-34.461h206.764c19.022 0 34.461 15.438 34.461 34.461v68.921c0 19.022-15.438 34.461-34.461 34.461h-206.764zM856.606 335.475h-206.764c-56.998 0-103.382 46.384-103.382 103.382v344.606c0 56.998 46.384 103.382 103.382 103.382h206.764c56.998 0 103.382-46.384 103.382-103.382v-344.606c0-56.998-46.384-103.382-103.382-103.382zM649.842 817.924c-19.022 0-34.461-15.474-34.461-34.461v-344.606c0-18.987 15.438-34.461 34.461-34.461h206.764c19.022 0 34.461 15.474 34.461 34.461v344.606c0 18.987-15.438 34.461-34.461 34.461h-206.764z" />
<glyph unicode="&#xf643;" glyph-name="b-apps" d="M375.817 473.325h-206.806c-57.010 0-103.403 46.393-103.403 103.403v206.806c0 57.010 46.393 103.403 103.403 103.403h206.806c57.010 0 103.403-46.393 103.403-103.403v-206.806c0-57.043-46.393-103.403-103.403-103.403zM169.013 818.003c-18.991 0-34.468-15.477-34.468-34.468v-206.806c0-18.991 15.477-34.468 34.468-34.468h206.806c18.991 0 34.468 15.477 34.468 34.468v206.806c0 18.991-15.477 34.468-34.468 34.468h-206.806zM375.817-9.222h-206.806c-57.010 0-103.403 46.393-103.403 103.403v206.806c0 57.010 46.393 103.403 103.403 103.403h206.806c57.010 0 103.403-46.393 103.403-103.403v-206.806c0-57.043-46.393-103.403-103.403-103.403zM169.013 335.454c-18.991 0-34.468-15.441-34.468-34.468v-206.806c0-19.026 15.477-34.468 34.468-34.468h206.806c18.991 0 34.468 15.441 34.468 34.468v206.806c0 19.026-15.477 34.468-34.468 34.468h-206.806zM854.987 473.325h-206.806c-57.010 0-103.403 46.393-103.403 103.403v206.806c0 57.010 46.393 103.403 103.403 103.403h206.806c57.010 0 103.403-46.393 103.403-103.403v-206.806c0-57.043-46.393-103.403-103.403-103.403zM648.182 818.003c-19.026 0-34.468-15.477-34.468-34.468v-206.806c0-18.991 15.441-34.468 34.468-34.468h206.806c19.026 0 34.468 15.477 34.468 34.468v206.806c0 18.991-15.441 34.468-34.468 34.468h-206.806zM854.987-9.222h-206.806c-57.010 0-103.403 46.393-103.403 103.403v206.806c0 57.010 46.393 103.403 103.403 103.403h206.806c57.010 0 103.403-46.393 103.403-103.403v-206.806c0-57.043-46.393-103.403-103.403-103.403zM648.182 335.454c-19.026 0-34.468-15.441-34.468-34.468v-206.806c0-19.026 15.441-34.468 34.468-34.468h206.806c19.026 0 34.468 15.441 34.468 34.468v206.806c0 19.026-15.441 34.468-34.468 34.468h-206.806z" />
<glyph unicode="&#xf644;" glyph-name="b-pullleft" d="M512-36.565c-262.161 0-475.422 213.261-475.422 475.422s213.261 475.422 475.422 475.422 475.422-213.261 475.422-475.422-213.261-475.422-475.422-475.422zM512 846.361c-224.705 0-407.504-182.8-407.504-407.504s182.8-407.504 407.504-407.504c224.705 0 407.504 182.8 407.504 407.504s-182.8 407.504-407.504 407.504zM276.802 425.749c0.034-0.136 0.203-0.272 0.272-0.408 1.63-3.838 3.871-7.505 6.996-10.663 0.034-0.034 0.068-0.034 0.102-0.068s0.034-0.068 0.068-0.102l168.639-169.115c13.244-13.277 34.706-13.346 48.018-0.068 13.277 13.244 13.312 34.706 0.068 48.018l-109.653 109.958h323.728c18.745 0 33.958 15.214 33.958 33.958s-15.214 33.958-33.958 33.958h-325.529l112.607 111.384c13.346 13.21 13.447 34.671 0.272 48.018-6.622 6.724-15.383 10.086-24.144 10.086-8.625 0-17.251-3.294-23.873-9.814l-170.066-168.197c-10.018-9.95-12.531-24.586-7.505-36.947z" />
<glyph unicode="&#xf645;" glyph-name="b-pulldown" d="M512-36.565c-262.161 0-475.422 213.261-475.422 475.422s213.261 475.422 475.422 475.422 475.422-213.261 475.422-475.422-213.261-475.422-475.422-475.422zM512 846.361c-224.705 0-407.504-182.8-407.504-407.504s182.8-407.504 407.504-407.504c224.705 0 407.504 182.8 407.504 407.504s-182.8 407.504-407.504 407.504zM705.734 428.092c-13.312 13.38-35.419 13.414-48.765 0.068l-111.011-110.264v325.426c0 18.847-15.078 34.128-33.958 34.128-18.847 0-33.958-15.281-33.958-34.128v-327.193l-111.656 113.218c-13.244 13.38-34.706 13.515-48.085 0.272-13.414-13.277-13.447-34.909-0.203-48.29l169.115-170.914c6.656-6.724 15.486-10.154 24.281-10.154 8.66 0 17.387 3.362 24.009 9.882 0.034 0.068 0.034 0.068 0.068 0.136 0.034 0 0.068 0 0.102 0.068l169.998 169.454c13.346 13.312 13.38 34.944 0.068 48.29z" />
<glyph unicode="&#xf646;" glyph-name="b-pullup" d="M512-36.565c-262.161 0-475.422 213.261-475.422 475.422s213.261 475.422 475.422 475.422 475.422-213.261 475.422-475.422-213.261-475.422-475.422-475.422zM512 846.361c-224.705 0-407.504-182.8-407.504-407.504s182.8-407.504 407.504-407.504c224.705 0 407.504 182.8 407.504 407.504s-182.8 407.504-407.504 407.504zM705.632 495.772l-168.197 170.066c-9.916 10.052-24.586 12.564-36.913 7.572-0.781-0.305-1.392-1.053-2.139-1.426-3.158-1.562-6.316-3.26-8.965-5.875-0.034-0.034-0.034-0.068-0.068-0.102s-0.068-0.034-0.102-0.068l-169.115-168.639c-13.277-13.244-13.312-34.74-0.068-48.018 6.622-6.656 15.349-9.984 24.043-9.984 8.66 0 17.353 3.294 23.974 9.916l109.958 109.619v-323.728c0-18.779 15.214-33.958 33.958-33.958s33.958 15.179 33.958 33.958v325.529l111.384-112.607c6.622-6.724 15.383-10.086 24.144-10.086 8.625 0 17.251 3.26 23.873 9.814 13.346 13.176 13.482 34.671 0.272 48.018z" />
<glyph unicode="&#xf647;" glyph-name="b-pullright" d="M512-36.565c-262.161 0-475.422 213.261-475.422 475.422s213.261 475.422 475.422 475.422 475.422-213.261 475.422-475.422-213.261-475.422-475.422-475.422zM512 846.361c-224.705 0-407.504-182.8-407.504-407.504s182.8-407.504 407.504-407.504c224.705 0 407.504 182.8 407.504 407.504s-182.8 407.504-407.504 407.504zM746.485 450.369c-0.034 0.136-0.203 0.272-0.272 0.408-1.63 3.838-3.871 7.505-6.996 10.663-0.034 0.034-0.068 0.034-0.102 0.068s-0.034 0.068-0.068 0.102l-168.639 169.115c-13.244 13.244-34.706 13.346-48.018 0.068-13.277-13.244-13.312-34.74-0.068-48.018l109.653-109.958h-323.728c-18.745 0-33.958-15.214-33.958-33.958s15.214-33.958 33.958-33.958h325.529l-112.607-111.384c-13.346-13.21-13.447-34.671-0.272-48.018 6.622-6.724 15.383-10.086 24.144-10.086 8.625 0 17.251 3.294 23.873 9.814l170.066 168.197c10.018 9.95 12.564 24.62 7.505 36.947z" />
<glyph unicode="&#xf648;" glyph-name="b-user-round2" d="M512-36.565c-262.161 0-475.422 213.261-475.422 475.422s213.261 475.422 475.422 475.422 475.422-213.261 475.422-475.422-213.261-475.422-475.422-475.422zM512 846.056c-224.535 0-407.199-182.664-407.199-407.199 0-224.501 182.664-407.199 407.199-407.199 224.501 0 407.199 182.698 407.199 407.199 0 224.535-182.698 407.199-407.199 407.199zM559.814 437.396l146.838 145.241c13.346 13.176 13.447 34.671 0.272 48.018s-34.706 13.447-48.018 0.272l-147.041-145.411-144.8 145.241c-13.277 13.277-34.74 13.346-48.018 0.068-13.277-13.244-13.312-34.74-0.068-48.018l144.596-145.038-145.785-144.223c-13.346-13.21-13.447-34.671-0.272-48.018 6.656-6.724 15.383-10.086 24.144-10.086 8.625 0 17.251 3.294 23.873 9.814l145.989 144.393 147.177-147.653c6.622-6.656 15.316-9.984 24.043-9.984 8.693 0 17.353 3.328 23.974 9.916 13.277 13.244 13.312 34.706 0.068 48.018l-146.973 147.449z" />
<glyph unicode="&#xf649;" glyph-name="b-roundadd" d="M512.017-34.297c-126.932 0-246.261 49.191-336.020 138.509-89.793 89.386-139.256 208.205-139.256 334.662 0 126.424 49.462 245.277 139.222 334.628 89.759 89.318 209.087 138.509 336.020 138.509s246.261-49.191 335.986-138.509c89.827-89.352 139.256-208.205 139.256-334.595 0.034-126.457-49.429-245.311-139.256-334.662-89.691-89.318-209.019-138.543-335.953-138.543zM512.017 844.149c-108.872 0-211.192-42.163-288.119-118.751-76.893-76.52-119.26-178.297-119.26-286.524s42.333-210.004 119.226-286.489c76.927-76.587 179.247-118.751 288.119-118.751 108.838 0 211.192 42.163 288.119 118.751 76.893 76.554 119.26 178.297 119.226 286.524 0 108.227-42.333 209.97-119.226 286.456-76.893 76.587-179.247 118.785-288.085 118.785zM749.655 472.822h-203.689v203.689c0 18.739-15.209 33.949-33.949 33.949s-33.949-15.209-33.949-33.949v-203.689h-203.689c-18.739 0-33.949-15.209-33.949-33.949s15.209-33.949 33.949-33.949h203.689v-203.689c0-18.774 15.209-33.949 33.949-33.949s33.949 15.175 33.949 33.949v203.689h203.689c18.774 0 33.949 15.209 33.949 33.949s-15.175 33.949-33.949 33.949z" />
</font>
</defs>
</svg>
